<svg width="37" height="37" xmlns="http://www.w3.org/2000/svg"><g transform="translate(1 1)" fill="none" fill-rule="evenodd"><circle stroke="#EC193E" stroke-width="2" stroke-linecap="round" stroke-linejoin="round" cx="17.5" cy="17.5" r="17.5"/><path d="M19.968 11.137c.477 0 .864.367.864.82 0 .452-.387.82-.864.82-.478 0-.865-.368-.865-.82 0-.453.387-.82.865-.82m-4.77 1.64c-.478 0-.865-.368-.865-.82 0-.453.387-.82.865-.82.477 0 .864.367.864.82 0 .452-.387.82-.864.82m2.385-3.646c.682 0 1.334.12 1.934.34l.766-1.395a.154.154 0 0 1 .201-.06.137.137 0 0 1 .063.19l-.755 1.375c1.69.724 2.912 2.253 3.124 4.072H12.25c.212-1.819 1.435-3.348 3.123-4.072l-.754-1.375a.138.138 0 0 1 .062-.19.154.154 0 0 1 .202.06l.766 1.395c.6-.22 1.252-.34 1.934-.34zM26 19.333c0 .624-.617 1.134-1.206 1.134-.59 0-1.17-.51-1.17-1.134V14.8c0-.623.544-1.12 1.133-1.12.59 0 1.243.497 1.243 1.12v4.534zm-8.173 5.6l-.027-2.247-.89-.04.026 2.247c0 .636-.607 1.17-1.252 1.17-.644 0-1.278-.534-1.278-1.17l-.014-2.22-.492-.013c-.97 0-1.65-.843-1.65-1.801v-6.664h10.678v6.664c0 .958-1 1.787-1.971 1.787h-.586v2.26c0 .636-.527 1.157-1.172 1.157-.644 0-1.372-.495-1.372-1.13zM9 14.809c0-.621.489-1.13 1.087-1.13s1.273.509 1.273 1.13v4.523c0 .621-.675 1.13-1.273 1.13-.598 0-1.087-.509-1.087-1.13v-4.523z" fill="#EC193E"/></g></svg>