<svg width="187" height="247" xmlns="http://www.w3.org/2000/svg"><g fill-rule="nonzero" fill="none"><path fill="#FFF" d="M10 236.188h16.827v10H0V0h126.554v10H10zM177 236v-65h10v75h-75v-10z"/><path stroke="#FFF" stroke-width="10" opacity=".2" d="M163 201v20h-20"/><path fill="#FFF" opacity=".2" d="M126.742 20H20v205h20v-10h20v-10h10v-10h20v-10h10v-10h10v-19h17v-50.812l40-.188V65.188h-40.258z"/><g fill="#FFF"><path opacity=".524" d="M69 70V60h20v40H49V70z"/><path fill-opacity=".23" d="M59 100h30v10H59zM89 100V70h10v30z"/><path opacity=".56" d="M69 70h10v10H69z"/></g><g fill="#EC193E"><path d="M60 165h10v10H60zM50 155h10v10H50zM40 145h10v10H40z"/><path opacity=".603" d="M50 165h10v10h10v10h10v10H40v-40h10z"/><path d="M70 175h10v10H70zM80 185h10v10H80z"/></g><path fill-opacity=".23" fill="#FFF" d="M157 105h10v20h-10z"/><path fill="#4FC6FF" opacity=".706" d="M127 105h30v30h-30z"/><path fill="#FFF" opacity=".56" d="M137 115h10v10h-10z"/><path fill="#FFF" opacity=".149" d="M147 125h10v10h-10z"/><path fill-opacity=".23" fill="#FFF" d="M127 135h20v10h-20zM157 105h10v20h-10z"/><path fill-opacity=".23" fill="#FFF" d="M127 135h20v10h-20zM40 195h30v10H40z"/><path fill="#FFF" d="M177 105h10V60h-60.446v10H177z"/><g fill="#FFF" opacity=".293"><path d="M127 0h10v60h-10zM137 10h10v10h-10zM147 20h10v10h-10zM157 30h10v10h-10zM167 40h10v10h-10zM177 50h10v10h-10z"/></g></g></svg>