<svg width="37" height="37" xmlns="http://www.w3.org/2000/svg">
  <g transform="translate(1 1)" fill="none" fill-rule="evenodd">
    <circle stroke="#EC193E" stroke-width="2" stroke-linecap="round" stroke-linejoin="round" cx="17.5" cy="17.5" r="17.5"/>
    <path d="M25 20.193c-.1.29-.203.569-.314.835a9.827 9.827 0 0 1-.958 1.74c-.503.726-.915 1.228-1.233 1.506-.492.458-1.02.693-1.585.705-.406 0-.895-.116-1.465-.352-.57-.236-1.096-.353-1.576-.353-.503 0-1.043.117-1.62.353-.579.236-1.045.36-1.401.371-.542.024-1.082-.217-1.621-.724-.344-.303-.774-.823-1.29-1.56-.553-.786-1.008-1.698-1.364-2.739-.382-1.123-.573-2.21-.573-3.264 0-1.206.258-2.246.774-3.118.406-.7.946-1.253 1.622-1.659a4.328 4.328 0 0 1 2.193-.625c.43 0 .995.134 1.696.399.7.265 1.148.4 1.345.4.148 0 .646-.158 1.492-.471.8-.291 1.475-.412 2.028-.364 1.498.122 2.623.72 3.372 1.795-1.34.82-2.003 1.97-1.99 3.444.013 1.149.424 2.105 1.234 2.864.368.352.778.624 1.234.817zM21.231 7c.012.12.018.24.018.36 0 .9-.325 1.74-.973 2.519-.783.925-1.73 1.46-2.756 1.375a2.825 2.825 0 0 1-.02-.341c0-.864.371-1.79 1.032-2.546a3.99 3.99 0 0 1 1.258-.955c.508-.25.99-.388 1.441-.412z" fill="#EC193E"/>
  </g>
</svg>
