<?xml version="1.0" encoding="UTF-8"?>
<svg width="16" height="16" xmlns="http://www.w3.org/2000/svg">
<!--Generator: Sketch 50.2 (55047) - http://www.bohemiancoding.com/sketch-->
  <path d="M15.89 11.92v2.397a1.598 1.598 0 0 1-1.742 1.598 15.811 15.811 0 0 1-6.895-2.453A15.58 15.58 0 0 1 2.459 8.67 15.811 15.811 0 0 1 .006 1.742 1.598 1.598 0 0 1 1.596 0h2.397a1.598 1.598 0 0 1 1.598 1.374c.101.767.289 1.52.56 2.245a1.6 1.6 0 0 1-.36 1.686L4.776 6.32c1.138 2 2.794 3.656 4.794 4.793l1.015-1.014a1.598 1.598 0 0 1 1.685-.36c.725.27 1.478.458 2.245.56.804.113 1.395.81 1.375 1.621z" fill="#EC193E" fill-rule="evenodd"/>
</svg>
