<svg width="194" height="36" viewBox="0 0 194 36" fill="none" xmlns="http://www.w3.org/2000/svg">
<g clip-path="url(#clip0)">
<path d="M24.9171 8.30275V12.2384C23.0048 10.068 20.4767 8.53151 17.6695 7.83354C14.8622 7.13557 11.909 7.30919 9.20287 8.3313C6.49675 9.3534 4.16614 11.1755 2.52129 13.555C0.876433 15.9346 -0.00463867 18.7587 -0.00463867 21.6514C-0.00463867 24.5441 0.876433 27.3682 2.52129 29.7477C4.16614 32.1273 6.49675 33.9494 9.20287 34.9715C11.909 35.9936 14.8622 36.1672 17.6695 35.4692C20.4767 34.7712 23.0048 33.2348 24.9171 31.0644V35.8899H28.4767V8.30275H24.9171ZM14.2382 32.3303C12.1261 32.3303 10.0615 31.704 8.30533 30.5306C6.5492 29.3571 5.18046 27.6893 4.3722 25.738C3.56394 23.7867 3.35246 21.6395 3.7645 19.568C4.17655 17.4965 5.19362 15.5937 6.68709 14.1003C8.18056 12.6068 10.0834 11.5897 12.1549 11.1777C14.2264 10.7656 16.3735 10.9771 18.3249 11.7854C20.2762 12.5936 21.944 13.9624 23.1174 15.7185C24.2908 17.4746 24.9171 19.5393 24.9171 21.6514C24.9171 24.4836 23.792 27.1998 21.7893 29.2025C19.7867 31.2052 17.0704 32.3303 14.2382 32.3303Z" fill="white"/>
<path d="M46.2739 7.41285C44.6159 7.41119 42.9744 7.74144 41.446 8.38411C39.9176 9.02679 38.5334 9.9689 37.3748 11.1549V8.30276H33.8152V35.8899H37.3748V19.8716C37.3748 17.5114 38.3124 15.2479 39.9813 13.579C41.6502 11.9101 43.9137 10.9725 46.2739 10.9725C48.6341 10.9725 50.8976 11.9101 52.5665 13.579C54.2354 15.2479 55.173 17.5114 55.173 19.8716V35.8899H58.7326V19.8716C58.7326 18.2355 58.4104 16.6154 57.7843 15.1038C57.1581 13.5923 56.2404 12.2188 55.0835 11.0619C53.9266 9.90502 52.5532 8.98732 51.0416 8.36121C49.5301 7.7351 47.91 7.41285 46.2739 7.41285Z" fill="white"/>
<path d="M76.532 7.41285C74.874 7.41119 73.2324 7.74144 71.7041 8.38411C70.1757 9.02679 68.7914 9.9689 67.6329 11.1549V8.30276H64.0732V35.8899H67.6329V19.8716C67.6329 17.5114 68.5705 15.2479 70.2394 13.579C71.9083 11.9101 74.1718 10.9725 76.532 10.9725C78.8921 10.9725 81.1557 11.9101 82.8246 13.579C84.4935 15.2479 85.431 17.5114 85.431 19.8716V35.8899H88.9907V19.8716C88.9907 16.5673 87.6781 13.3984 85.3416 11.0619C83.0051 8.72546 79.8362 7.41285 76.532 7.41285Z" fill="white"/>
<path d="M107.679 7.41284C104.863 7.41284 102.11 8.24792 99.7687 9.81247C97.4272 11.377 95.6022 13.6008 94.5245 16.2025C93.4468 18.8043 93.1649 21.6672 93.7143 24.4292C94.2637 27.1912 95.6198 29.7282 97.6111 31.7195C99.6023 33.7108 102.139 35.0669 104.901 35.6163C107.663 36.1657 110.526 35.8837 113.128 34.8061C115.73 33.7284 117.954 31.9034 119.518 29.5619C121.083 27.2204 121.918 24.4675 121.918 21.6514C121.918 17.8751 120.418 14.2535 117.747 11.5832C115.077 8.91297 111.456 7.41284 107.679 7.41284ZM107.679 32.3303C105.567 32.3303 103.502 31.704 101.746 30.5306C99.9902 29.3571 98.6215 27.6893 97.8132 25.738C97.0049 23.7867 96.7935 21.6395 97.2055 19.568C97.6176 17.4965 98.6346 15.5937 100.128 14.1003C101.622 12.6068 103.524 11.5897 105.596 11.1777C107.667 10.7656 109.815 10.9771 111.766 11.7854C113.717 12.5936 115.385 13.9624 116.558 15.7185C117.732 17.4746 118.358 19.5393 118.358 21.6514C118.358 24.4836 117.233 27.1998 115.23 29.2025C113.228 31.2052 110.511 32.3303 107.679 32.3303Z" fill="white"/>
<path d="M163.076 23.4313H165.523V21.6514C165.522 18.1117 164.202 14.6993 161.821 12.0799C159.44 9.46056 156.168 7.82198 152.645 7.48378C149.121 7.14558 145.598 8.132 142.762 10.2507C139.927 12.3693 137.982 15.4683 137.307 18.9432C136.632 22.4181 137.276 26.0197 139.113 29.0457C140.95 32.0716 143.848 34.3048 147.242 35.3098C150.636 36.3148 154.283 36.0195 157.471 34.4814C160.659 32.9434 163.16 30.2729 164.486 26.9909H160.535C159.436 28.8946 157.777 30.4128 155.783 31.3383C153.789 32.2638 151.558 32.5515 149.395 32.1621C147.232 31.7728 145.241 30.7253 143.695 29.1628C142.149 27.6002 141.123 25.5986 140.757 23.4313H163.076ZM151.284 10.9725C153.808 10.973 156.249 11.867 158.176 13.4959C160.104 15.1249 161.392 17.3836 161.812 19.8716H140.757C141.177 17.3836 142.465 15.1249 144.392 13.4959C146.32 11.867 148.761 10.973 151.284 10.9725Z" fill="white"/>
<path d="M174.423 0.293549H170.863V35.8899H174.423V0.293549Z" fill="white"/>
<path d="M183.32 0.293549H179.76V35.8899H183.32V0.293549Z" fill="white"/>
<path d="M193.999 30.5504H188.66V35.8898H193.999V30.5504Z" fill="white"/>
<path d="M46.2739 7.41285C44.6159 7.41119 42.9744 7.74144 41.446 8.38411C39.9176 9.02679 38.5334 9.9689 37.3748 11.1549V8.30276H33.8152V35.8899H37.3748V19.8716C37.3748 17.5114 38.3124 15.2479 39.9813 13.579C41.6502 11.9101 43.9137 10.9725 46.2739 10.9725C48.6341 10.9725 50.8976 11.9101 52.5665 13.579C54.2354 15.2479 55.173 17.5114 55.173 19.8716V35.8899H58.7326V19.8716C58.7326 18.2355 58.4104 16.6154 57.7843 15.1038C57.1581 13.5923 56.2404 12.2188 55.0835 11.0619C53.9266 9.90502 52.5532 8.98732 51.0416 8.36121C49.5301 7.7351 47.91 7.41285 46.2739 7.41285Z" fill="white"/>
<path d="M76.532 7.41285C74.874 7.41119 73.2324 7.74144 71.7041 8.38411C70.1757 9.02679 68.7914 9.9689 67.6329 11.1549V8.30276H64.0732V35.8899H67.6329V19.8716C67.6329 17.5114 68.5705 15.2479 70.2394 13.579C71.9083 11.9101 74.1718 10.9725 76.532 10.9725C78.8921 10.9725 81.1557 11.9101 82.8246 13.579C84.4935 15.2479 85.431 17.5114 85.431 19.8716V35.8899H88.9907V19.8716C88.9907 16.5673 87.6781 13.3984 85.3416 11.0619C83.0051 8.72546 79.8362 7.41285 76.532 7.41285Z" fill="white"/>
<path d="M129.927 10.9724H135.267V7.41282H129.927V0.293549H126.368V28.7706C126.368 30.6588 127.118 32.4696 128.453 33.8047C129.788 35.1398 131.599 35.8899 133.487 35.8899H135.267V32.3302H133.487C132.543 32.3302 131.637 31.9552 130.97 31.2877C130.302 30.6201 129.927 29.7147 129.927 28.7706V10.9724Z" fill="white"/>
</g>
<defs>
<clipPath id="clip0">
<rect width="194" height="35.5963" fill="white" transform="translate(0 0.293579)"/>
</clipPath>
</defs>
</svg>
