<svg viewBox="0 0 220 32" xmlns="http://www.w3.org/2000/svg"><g fill="#FFF" fill-rule="nonzero"><path d="M143.921 29.754c-.453-.108-.508-.784-.069-.865.091-.021 6.707.5 13.242 0 6.31-.484 12.548-1.99 12.65-2.056.44-.284.893-.135.893.297 0 .112-2.884 2.49-6.78 3.841-2.724.946-6.405 1.023-7.973 1.028-1.308.007-4.746-.023-7.22-.54-2.834-.592-4.647-1.683-4.743-1.705zM1.512 29.051c.18-.23.62-.243 5.363-.243 2.832 0 5.294.04 5.473.08.412.122-1.183 2.679-1.32 2.8-.234.203-.825.23-5.638.23H0c.724-1.596 1.228-2.551 1.512-2.867zm24.97 2.664c-.04-.108-.22-2.691-.068-2.786.11-.067 3.19-.121 6.861-.121 7.659 0 7.095-.109 7.178 1.284.018.28.1.888.247 1.826h-7.068c-6.118 0-7.08-.027-7.15-.203zm18.15.04c-.018-.062-.114-1.022-.288-2.88H61.53l.041.325c.028.19-1.485 2.38-1.485 2.502 0 .203-.673.216-7.7.216-6.05 0-7.713-.04-7.755-.162zm36.328-2.69c.248-.257.44-.257 6.641-.23l6.38.04c-.137 1.704-.316 2.637-.536 2.8-.261.216-.825.243-6.641.243h-6.367c.257-1.794.431-2.745.523-2.854zm22.591 2.61c-.151-.27.523-2.719.853-2.8.165-.04 7.507-.054 16.321-.04l16.019.04-.55 2.976-16.253.04c-15.675.027-16.266.014-16.39-.216zm71.445.149c-.151-.136 1.279-5.45 1.306-5.708.042-.46.07-.473.936-.676.247-.06 3.382-.66 6.66-1.555 3.29-.9 6.725-2.097 6.924-2.083.592.04.647.067.688.419.028.203-2.392 8.764-2.392 8.953-.303.947.426.744-7.11.744-3.808 0-6.97-.04-7.012-.094zm25.617-10.982l-2.943-.041c-1.622-.027-2.984-.081-3.025-.122-.055-.04.275-.798.591-.798.106 0 8.095-3.832 13.46-8.397 5.782-4.92 8.943-10.607 8.966-10.686.22-.73.22-.798 1.307-.798H220v.65c0 .234-2.672 10.657-8.016 31.268h-14.025l2.654-11.076zM3.479 26.684C3.314 26.621 9.153 17.726 20.996 0 30.74.027 35.65.081 35.722.162c.046.063 1.408 8.913 4.084 26.55h-13.75c-.11-.569-.192-.87-.247-.907-.097-.054-2.599-.108-5.555-.108-4.235 0-5.404.04-5.404.176 0 .054-.215.356-.646.906l-5.28-.014c-2.901 0-5.363-.04-5.445-.08zm22.784-8.818c0-.23-.056-.446-.138-.487-.082-.04-.137-.649-.137-1.366 0-.757-.055-1.271-.138-1.271-.069 0-.138-.338-.138-.744 0-.42-.055-.744-.137-.744-.082 0-.151-.257-.137-.568 0-.906-.152-2.137-.275-2.137-.124 0-.427.447-1.004 1.474-.234.42-.523.852-.633.96-.123.109-.316.393-.426.61-.11.23-.371.662-.578.973-.206.311-.384.622-.384.676 0 .068-.124.244-.262.406-.151.149-.399.541-.564.866-.178.324-.357.622-.398.662-.055.04-.234.298-.399.582l-.289.5h6.037v-.392zm17.558 8.818c-.036-.027-1.535-8.922-4.496-26.684h7.301c6.806 0 7.329.014 7.494.243.124.15 2.461 18.962 2.53 19.084.11.19.124.19.138-.014 0-.09 4.102-6.528 12.306-19.313h11.894C69.694 17.122 64.01 25.755 63.938 25.9c-.468.96.467.879-10.313.879-5.349 0-9.763-.04-9.804-.095zm37.909-.108c-.11-.27 4.276-17.785 4.373-17.96 0-.934.838-.772-4.015-.772h-4.4V7.52c0-.127 1.682-2.633 5.046-7.52l13.53.027 13.53.04c.15.136.22.234.206.294-1.061 4.832-1.89 7.259-1.953 7.321-.123.122-1.264.162-4.262.162h-4.097c-3.099 12.127-4.634 18.214-4.607 18.259a.74.74 0 0 1-.165.405c-.233.27-.357.27-6.682.27-5.61 0-6.435-.026-6.504-.202zM111.512 0h32.863c-1.375 4.932-2.063 7.434-2.063 7.506 0 .176-1.127.203-9.35.203-5.142 0-9.336.04-9.336.108.041.19-.976 3.544-.976 3.692 0 .257.165.257 7.494.257h7.493c-1.109 5.032-1.805 7.574-2.09 7.628-.247.054-3.698.082-7.672.082l-7.219-.014-1.031 4.341h9.199c8.263 0 9.198.027 9.281.217.083.216-.096 1.113-.536 2.691l-16.321.04-16.336.028L111.512 0z"/><path d="M140.047 26.827c-.199-.209-2.791-4.334-1.417-9.744 1.303-5.133 6.493-11.513 9.277-13.501C152.937-.01 160.711 0 162.337 0c1.748 0 7.957.329 11.178 2.735 3.303 2.467 3.598 7.025 3.598 7.909v2.83h-12.881c.069-1.381.069-2.325 0-2.83-.1-.725-.378-1.396-.593-1.68-.888-1.175-3.274-.83-3.824-.864-1.781-.108-5.092 3.455-6.486 7.599-.484 1.44-1.166 3.481-1.176 4.817-.012 1.628.714 2.42.733 2.478.083.244.291.528.443.637.071.046 2.095 1.111 3.649.948 1.166-.123 3.05-.846 4.247-2.012.946-.922 1.36-2.34 1.36-2.43 0-.704.097-.718 6.71-.677l6.088.04.042.38c.027.203-1.48 3.412-1.633 3.547-.152.136-.277.312-.277.407 0 .338-.512.61-1.148.61-.15 0-5.055 1.246-13.978 2.005-3.23.275-9.242.509-18.038.703l-.304-.325zm36.609-3.562c-.152-.135 5.714-22.33 5.728-22.52l.055-.339h14.25c-2.074 7.674-3.112 11.533-3.112 11.579 0 .08 1.605.135 4.552.135 4.441 0 4.566-.014 4.649-.27.027-.1 1-3.914 2.919-11.444h4.69c4.607 0 4.704 0 4.746.271.007.08-1.713 3.693-4.746 7.01-1.412 1.545-9.374 7.565-17.83 11.248-7.593 3.308-15.836 4.394-15.901 4.33z"/></g></svg>