<svg viewBox="0 0 220 52" xmlns="http://www.w3.org/2000/svg"><g fill="#FFF" fill-rule="evenodd"><path d="M107.704 16.046h-8.576v-2.035c0-4.724 2.42-5.815 5.644-5.815h4.838V.056h-5.937c-9.456 0-14.074 5.815-14.074 13.882v2.108H72.814l-5.937 8.408-5.938-8.408H49.651l24.636 34.888h11.288l-13.494-19.11 11.141-15.778v8.14H89.6v26.748h9.53V24.187h8.575v-8.14"/><path d="M18.105 30.292l6.817-18.316 6.67 18.316H18.105zm31.101 19.185L30.346.783H19.424L0 50.933h10.408l4.325-11.556h20.158l4.178 11.557h19.518l7.85-11.117H56.028l-6.822 9.66zM125.207 42.939c-5.79 0-9.162-4.507-9.162-9.522 0-5.015 3.372-9.376 9.162-9.376 5.79 0 9.163 4.361 9.163 9.376s-3.372 9.522-9.163 9.522zm0-27.62c-10.482 0-18.325 8.14-18.325 18.171 0 10.03 7.843 18.17 18.325 18.17s18.325-8.14 18.325-18.17c0-10.03-7.843-18.17-18.325-18.17zM163.6 42.939c-5.79 0-9.162-4.507-9.162-9.522 0-5.015 3.372-9.376 9.162-9.376 5.791 0 9.163 4.361 9.163 9.376s-3.372 9.522-9.163 9.522zm0-27.62c-10.481 0-18.324 8.14-18.324 18.171 0 10.03 7.843 18.17 18.324 18.17 10.482 0 18.325-8.14 18.325-18.17 0-10.03-7.843-18.17-18.325-18.17zM201.994 43.593c-5.351 0-9.09-3.707-9.09-10.467 0-6.395 3.958-10.03 9.09-10.03 4.838 0 8.796 3.344 8.796 9.885 0 6.905-3.958 10.612-8.796 10.612zM210.277.056V19.68c-1.027-2.035-3.885-4.36-9.896-4.36-9.895 0-16.712 7.704-16.712 17.952 0 10.684 7.036 18.389 16.932 18.389 4.618 0 8.136-2.036 9.676-4.58l.366 3.853h9.163V.056h-9.53z"/></g></svg>