<svg viewBox="0 0 220 27" xmlns="http://www.w3.org/2000/svg"><g fill="none" fill-rule="evenodd"><path d="M-1-60h220V87H-1z"/><path d="M135.297.608l-10.75 22.58c-1.141 2.367-3.358 3.65-6.314 3.65H92.102c-3.024 0-3.897-2.298-2.756-4.732L99.557.608h9.07L99.22 20.35c-.268.542 0 .88.537.88h15.654c.94 0 1.275-.338 1.545-.946L126.362.608h8.935zm36.679 0h-25.058c-3.224 0-5.038 1.353-6.316 4.124l-8.125 17.039c-1.412 2.906-.068 5.068 3.023 5.068h25.393c2.956 0 5.171-1.216 6.382-3.852l.805-1.623h-25.527c-.536 0-.738-.338-.47-.878l1.478-3.11c.336-.744.805-.947 1.478-.947h20.959c3.292 0 5.172-1.555 6.113-3.448l3.292-6.828c.47-1.081.672-1.824.672-2.57-.067-1.892-1.68-2.973-4.098-2.973l-.001-.002zm-5.375 6.22l-1.612 3.38c-.269.54-.671.81-1.41.81h-16.93l2.015-4.191c.269-.607.673-.878 1.478-.878h15.922c.537 0 .671.54.537.88zm42.456 0l-1.678 3.516c-.336.675-.74.878-1.478.878h-17.332l2.083-4.259c.334-.676.738-.946 1.544-.946h16.257c.672-.068.739.473.604.81v.001zm8.936-.676c.47-1.082.67-1.825.67-2.57 0-1.96-1.61-2.974-4.029-2.974h-25.528c-3.224 0-5.039 1.353-6.316 4.124l-10.546 22.106h8.935l4.434-9.261c.335-.743.805-.946 1.478-.946h11.084c.671 0 1.074.203 1.342.878l3.629 9.329h8.599l-4.098-10.41.671-.067c3.427-.27 5.577-1.691 6.785-4.124l2.89-6.085zM86.39.608H60.529c-2.822 0-4.77 1.15-5.98 3.786l-.805 1.69h26.065c.671 0 .806.406.605.88L79.07 9.801c-.336.744-.739.947-1.478.947H55.355c-2.351 0-4.502 1.216-5.51 3.447l-3.694 7.708c-1.276 2.771 0 5.002 2.956 5.002H75.44c2.889 0 5.106-1.284 6.315-3.65L89.885 6.22c.469-1.081.67-1.826.67-2.57C90.423 1.69 88.81.61 86.392.61V.608zM73.896 20.484c-.268.54-.604.879-1.411.879h-16.46c-.402 0-.738-.27-.468-.879l1.746-3.652c.335-.675.74-.878 1.478-.878h17.332l-2.218 4.53h.001zM43.732.608H16.795c-2.352 0-4.636 1.015-5.845 3.516L.134 26.838h32.784c3.224 0 5.171-1.351 6.246-3.581l2.219-4.665c.402-.812.67-1.488.67-2.231 0-1.691-1.209-2.638-2.889-2.976 0 0 1.01-.067 1.882-.337 2.083-.541 3.425-1.556 4.434-3.516l1.61-3.38c.473-1.082.673-1.825.673-2.57 0-1.892-1.61-2.974-4.03-2.974zM31.508 20.484c-.269.609-.74.879-1.478.879H12.696c-.537 0-.739-.405-.537-.81l1.747-3.72c.268-.607.739-.879 1.478-.879h18.273l-2.15 4.53zM38.092 6.76L36.68 9.802c-.336.609-.67.88-1.478.88H16.93l1.88-3.922c.27-.608.74-.878 1.479-.878H37.62c.605-.068.671.405.47.878h.002z" fill="#FFF" fill-rule="nonzero"/></g></svg>