<svg viewBox="0 0 220 72" xmlns="http://www.w3.org/2000/svg"><path d="M41.352 46.218c0-8.188-6.173-14.569-14.515-14.569-8.278 0-14.443 6.184-14.443 14.57 0 8.36 6.165 14.673 14.443 14.673 8.367 0 14.515-6.438 14.515-14.674zm-29.28 20.187c-.932-.841-1.84.18-1.042.981.8.8 1.147 1.512 1.147 2.558v.753H0V.245h12.257v22.146c0 1.395-.434 1.865-1.227 2.718-.792.852.087 1.816 1.043.98 4.142-3.624 8.928-5.408 15.04-5.408 14.166 0 25.452 11.332 25.373 25.537-.08 14.627-11.206 25.467-25.373 25.642-6.112.071-10.714-1.558-15.04-5.456zm180.6-5.513c8.279 0 14.443-6.312 14.443-14.674 0-8.385-6.164-14.569-14.442-14.569-8.343 0-14.516 6.382-14.516 14.57 0 8.236 6.148 14.673 14.516 14.673zm-.276 10.968c-14.166-.175-25.292-11.015-25.372-25.642-.08-14.205 11.206-25.537 25.372-25.537 6.112 0 10.898 1.784 15.041 5.408.955.836 1.835-.128 1.042-.98-.792-.854-1.226-1.323-1.226-2.718V.245h12.256v70.45h-12.177v-.752c0-1.045.349-1.757 1.148-2.558.798-.8-.11-1.822-1.043-.981-4.326 3.898-8.929 5.527-15.04 5.456zM98.533 45.667c0-8.259-6.251-14.575-14.495-14.575-8.212 0-14.567 6.316-14.567 14.575 0 8.409 6.355 14.724 14.568 14.724 8.243 0 14.495-6.315 14.495-14.724h-.001zm-41.142 0c0-14.107 11.28-25.556 26.648-25.556 15.48 0 26.574 11.45 26.574 25.556 0 14.233-11.174 25.704-26.574 25.704-15.369 0-26.648-11.471-26.648-25.704zm58.127-23.955h12.225v.532c0 1.33-.446 1.982-1.232 2.7-.787.719-.109 1.982 1.047.984 2.99-2.582 6.685-5.326 13.738-5.326 11.267 0 20.577 6.482 20.577 21.908v28.125h-12.225V44.57c0-8.78-4.889-12.321-10.905-12.321-5.903 0-11 3.558-11 12.352v26.034h-12.225V21.712z" fill="#FFF" fill-rule="nonzero"/></svg>