<svg viewBox="0 0 220 29" xmlns="http://www.w3.org/2000/svg"><g fill="#FFF" fill-rule="evenodd"><path d="M13.597 20.63l3.942 1.245c-.605 2.188-1.61 3.812-3.015 4.874-1.405 1.062-3.189 1.593-5.35 1.593-2.673 0-4.87-.91-6.592-2.728C.861 23.796 0 21.31 0 18.156c0-3.336.865-5.926 2.596-7.772 1.73-1.846 4.006-2.769 6.826-2.769 2.463 0 4.463.725 6.002 2.174.915.857 1.602 2.087 2.06 3.691l-4.024.957c-.238-1.039-.735-1.859-1.49-2.46-.756-.602-1.674-.903-2.754-.903-1.493 0-2.704.533-3.633 1.6-.93 1.066-1.394 2.793-1.394 5.181 0 2.534.458 4.339 1.373 5.415.916 1.075 2.106 1.613 3.571 1.613 1.08 0 2.01-.342 2.788-1.026.779-.683 1.337-1.759 1.676-3.226zm6.606-2.528c0-2.042.307-3.756.92-5.141a9.431 9.431 0 0 1 1.875-2.748c.792-.811 1.66-1.413 2.603-1.805 1.254-.528 2.7-.793 4.34-.793 2.966 0 5.34.916 7.121 2.748 1.78 1.832 2.671 4.38 2.671 7.643 0 3.236-.883 5.767-2.65 7.595-1.768 1.827-4.13 2.74-7.087 2.74-2.994 0-5.375-.908-7.142-2.727-1.767-1.818-2.65-4.322-2.65-7.512zm4.19-.137c0 2.27.526 3.99 1.579 5.161 1.053 1.171 2.39 1.757 4.01 1.757 1.62 0 2.95-.581 3.99-1.743 1.039-1.162 1.559-2.906 1.559-5.23 0-2.297-.506-4.01-1.518-5.14s-2.355-1.696-4.031-1.696c-1.676 0-3.026.572-4.052 1.716-1.025 1.144-1.538 2.869-1.538 5.175zM43.015 28V8.121h4.065v16.502H57.19V28H43.016zM60.074 7.957h7.43c1.676 0 2.953.128 3.832.383a6.738 6.738 0 0 1 3.035 1.846c.843.884 1.484 1.966 1.923 3.247.44 1.28.66 2.86.66 4.737 0 1.65-.207 3.072-.619 4.266-.503 1.458-1.222 2.638-2.156 3.54-.705.684-1.657 1.217-2.857 1.6-.897.283-2.097.424-3.598.424h-7.65V7.957zm4.065 3.39v13.276h3.035c1.136 0 1.955-.064 2.459-.191.66-.164 1.206-.442 1.641-.834.435-.392.79-1.037 1.065-1.935.274-.898.412-2.121.412-3.67 0-1.55-.138-2.74-.412-3.57-.275-.829-.66-1.476-1.154-1.94-.495-.465-1.122-.78-1.882-.944-.567-.128-1.68-.191-3.337-.191h-1.827zm67.214 9.284l3.942 1.244c-.605 2.188-1.61 3.812-3.015 4.874-1.406 1.062-3.189 1.593-5.35 1.593-2.673 0-4.87-.91-6.592-2.728-1.721-1.818-2.582-4.304-2.582-7.458 0-3.336.865-5.926 2.596-7.772 1.73-1.846 4.006-2.769 6.826-2.769 2.463 0 4.463.725 6.002 2.174.915.857 1.602 2.087 2.06 3.691l-4.024.957c-.238-1.039-.735-1.859-1.49-2.46-.756-.602-1.674-.903-2.754-.903-1.493 0-2.704.533-3.633 1.6-.93 1.066-1.394 2.793-1.394 5.181 0 2.534.458 4.339 1.373 5.415.916 1.075 2.106 1.613 3.571 1.613 1.08 0 2.01-.342 2.788-1.026.779-.683 1.337-1.759 1.676-3.226zM156.94 28h-4.423l-1.758-4.553h-8.048L141.05 28h-4.312l7.842-20.043h4.299L156.94 28zm-7.485-7.93l-2.775-7.437-2.719 7.437h5.494zM159.11 28V7.957h8.556c2.152 0 3.716.18 4.69.54.976.36 1.756 1 2.342 1.921.586.92.88 1.973.88 3.158 0 1.504-.445 2.746-1.333 3.726-.888.98-2.216 1.597-3.983 1.852.88.51 1.605 1.071 2.177 1.682.572.61 1.344 1.695 2.314 3.254l2.459 3.91h-4.862l-2.94-4.361c-1.043-1.559-1.757-2.541-2.142-2.947-.384-.405-.792-.683-1.222-.834-.43-.15-1.113-.225-2.047-.225h-.824V28h-4.065zm4.065-11.566h3.008c1.95 0 3.168-.082 3.653-.247a2.189 2.189 0 0 0 1.14-.847c.275-.401.412-.902.412-1.504 0-.675-.18-1.22-.542-1.634-.362-.415-.872-.677-1.531-.786-.33-.046-1.319-.068-2.967-.068h-3.173v5.086zm25.601 4.197v-3.377h8.763v7.984c-.852.82-2.086 1.543-3.702 2.167a13.526 13.526 0 0 1-4.91.937c-2.106 0-3.942-.44-5.507-1.32-1.566-.88-2.743-2.137-3.53-3.773-.787-1.636-1.181-3.416-1.181-5.339 0-2.087.44-3.942 1.318-5.564.88-1.623 2.166-2.867 3.86-3.733 1.29-.665 2.898-.998 4.82-.998 2.5 0 4.453.522 5.858 1.566 1.406 1.043 2.31 2.486 2.713 4.327l-4.038.752c-.284-.985-.817-1.762-1.6-2.331-.783-.57-1.76-.855-2.933-.855-1.776 0-3.188.56-4.237 1.682-1.048 1.121-1.572 2.784-1.572 4.99 0 2.379.53 4.163 1.593 5.353 1.062 1.19 2.454 1.784 4.175 1.784.852 0 1.706-.167 2.562-.5.856-.332 1.59-.735 2.204-1.21v-2.542h-4.656zm11.688-2.53c0-2.041.307-3.755.92-5.14a9.431 9.431 0 0 1 1.875-2.748c.792-.811 1.66-1.413 2.603-1.805 1.254-.528 2.7-.793 4.34-.793 2.966 0 5.34.916 7.12 2.748 1.782 1.832 2.672 4.38 2.672 7.643 0 3.236-.883 5.767-2.65 7.595-1.768 1.827-4.13 2.74-7.088 2.74-2.994 0-5.374-.908-7.141-2.727-1.768-1.818-2.651-4.322-2.651-7.512zm4.189-.136c0 2.27.526 3.99 1.58 5.161 1.052 1.171 2.39 1.757 4.01 1.757 1.62 0 2.95-.581 3.99-1.743 1.039-1.162 1.558-2.906 1.558-5.23 0-2.297-.505-4.01-1.517-5.14s-2.356-1.696-4.031-1.696c-1.676 0-3.026.572-4.052 1.716-1.025 1.144-1.538 2.869-1.538 5.175z" fill-rule="nonzero"/><path d="M83.051 23.152c.887-6.101 2.681-12.115 5.383-18.041C91.204 1.704 94.39 0 97.991 0c3.6 0 6.738 1.704 9.412 5.111 2.671 5.926 4.513 11.94 5.527 18.04.141.637-.982.424-1.52 0-1.237-.735-2.168-1.863-2.793-3.384-.633 1.535-1.22 2.643-1.76 3.323-.542.68-1.531 1.554-2.97 2.62l1.25-.009a1.909 1.909 0 0 1 1.762 1.145.824.824 0 0 1-.755 1.154h-4.118a4.953 4.953 0 0 1-2.261-.546 2.374 2.374 0 0 0-2.137-.016l-.031.016a5.262 5.262 0 0 1-2.335.546h-4.844a.879.879 0 0 1-.837-1.145 1.642 1.642 0 0 1 1.565-1.145h1.444c-1.518-.75-2.642-1.542-3.373-2.378-.73-.835-1.34-2.023-1.828-3.565l-1.982 3.07c-1.13 1-1.915 1.105-2.356.315z"/></g></svg>