<svg viewBox="0 0 220 84" xmlns="http://www.w3.org/2000/svg"><g fill="#FFF" fill-rule="nonzero"><path d="M15.918 83.337a15.164 15.164 0 0 1-10.113-3.696v2.975H.407V45.42h5.398v11.327a15.59 15.59 0 0 1 10.113-3.696 15.256 15.256 0 0 1 10.906 4.327 15.24 15.24 0 0 1 4.605 10.788c-.142 8.45-7.057 15.213-15.511 15.171m0-25.278c-5.581.01-10.103 4.53-10.113 10.107.051 5.57 4.6 10.05 10.174 10.015 5.573-.034 10.068-4.567 10.05-10.138-.016-5.57-4.538-10.076-10.111-10.077M49.565 83.355c-8.487.042-15.411-6.78-15.493-15.263.182-8.383 7.104-15.046 15.493-14.912a15.737 15.737 0 0 1 10.094 3.696v-2.901h5.398v28.641H59.66v-2.975a15.109 15.109 0 0 1-10.094 3.696m0-25.278a10.187 10.187 0 0 0-9.484 6.238 10.178 10.178 0 0 0 2.182 11.136A10.19 10.19 0 0 0 53.4 77.634a10.181 10.181 0 0 0 6.259-9.468 10.087 10.087 0 0 0-2.95-7.146 10.097 10.097 0 0 0-7.144-2.961M46.94 32.984a10.187 10.187 0 0 1-9.472-6.208 10.178 10.178 0 0 1 2.124-11.12 10.19 10.19 0 0 1 11.093-2.285 10.182 10.182 0 0 1 6.349 9.376 10.16 10.16 0 0 1-2.926 7.208 10.17 10.17 0 0 1-7.169 3.029zm0-25.242c-8.393-.154-15.33 6.506-15.511 14.894-.031 8.552 6.88 15.51 15.437 15.54 8.556.03 15.517-6.877 15.547-15.43a15.223 15.223 0 0 0-4.63-10.715A15.238 15.238 0 0 0 46.92 7.742h.018zM67.682 37.197h5.399V0h-5.399v37.197M80.993 37.197h5.399V0h-5.399v37.197M186.852 32.984a10.187 10.187 0 0 1-9.471-6.208 10.178 10.178 0 0 1 2.124-11.12 10.19 10.19 0 0 1 11.093-2.285 10.182 10.182 0 0 1 6.348 9.376 10.16 10.16 0 0 1-2.926 7.208 10.17 10.17 0 0 1-7.168 3.029zm0-25.242c-8.385-.144-15.31 6.513-15.492 14.894-.031 8.552 6.88 15.51 15.437 15.54 8.556.03 15.517-6.877 15.548-15.43a15.241 15.241 0 0 0-4.637-10.709 15.256 15.256 0 0 0-10.856-4.295zM212.605 11.087V8.5h-5.029v28.697h5.399V21.509c0-4.084 1.46-6.264 3.161-7.188A10.32 10.32 0 0 1 220 13.286V7.742a8.765 8.765 0 0 0-7.395 3.345M15.474 12.64a9.91 9.91 0 0 1 8.32 4.415l4.085-3.289a15.57 15.57 0 0 0-12.405-6.024C7.096 7.608.182 14.262 0 22.636c.081 8.478 6.991 15.302 15.474 15.281 4.82.037 9.37-2.22 12.257-6.079l-4.012-3.252A10.04 10.04 0 0 1 15.4 33.02a10.202 10.202 0 0 1-9.337-10.163c0-5.297 4.057-9.713 9.337-10.163M139.69 12.64a9.874 9.874 0 0 1 8.302 4.415l4.104-3.289a15.588 15.588 0 0 0-12.405-6.024c-8.389-.144-15.32 6.51-15.511 14.894.091 8.488 7.018 15.312 15.51 15.281 4.847.06 9.43-2.199 12.332-6.079l-4.123-3.252a9.985 9.985 0 0 1-8.3 4.435 10.202 10.202 0 0 1-9.338-10.163c0-5.297 4.057-9.713 9.337-10.163M97.04 21.047c0-5.103 4.139-9.24 9.244-9.24 5.105 0 9.244 4.137 9.244 9.24H97.04zm9.244-13.305a14.794 14.794 0 0 0-10.564 4.434 14.779 14.779 0 0 0-4.226 10.645c-.083 8.188 6.433 14.923 14.624 15.115a14.66 14.66 0 0 0 13.292-8.537h-5.528a9.245 9.245 0 0 1-7.395 3.696 9.76 9.76 0 0 1-9.447-7.817h23.775c0-.37.148-1.848.148-2.735 0-8.092-6.51-14.681-14.605-14.782l-.074-.019zM165.296 0h-5.399v8.555h-4.603v4.916h4.696v23.726h5.398V13.434h4.696V8.5h-4.788V0M95.34 82.598H89.94V67.02c0-2.218 0-8.944-7.154-8.944-4.511 0-7.562 3.16-7.562 8.907v15.614h-5.38V53.92h5.029v3.048a10.244 10.244 0 0 1 8.393-3.806 11.686 11.686 0 0 1 10.15 5.118 13.946 13.946 0 0 1 1.849 7.392v16.926M123.866 82.524h-6.342L105.692 67.74v14.783h-5.546V45.567h5.546v19.661l11.204-11.308h6.637l-12.738 12.602 13.07 16.002"/></g></svg>