<svg viewBox="0 0 220 94" xmlns="http://www.w3.org/2000/svg"><g fill="none" fill-rule="evenodd"><path d="M0-27h220v147H0z"/><g fill="#FFF"><path d="M47.448 94C21.238 94 0 72.962 0 47S21.239 0 47.448 0c11.75 0 23.047 4.252 31.633 12.086 7.456 6.714 7.908 17.904 1.13 25.29-6.779 7.386-18.076 7.834-25.532 1.12-2.034-1.791-4.52-2.686-7.23-2.686-6.327 0-11.298 4.923-11.298 11.19 0 6.267 4.971 11.19 11.297 11.19 2.712 0 5.197-.895 7.23-2.685 7.457-6.715 18.754-6.267 25.532 1.119 6.779 7.386 6.101 18.576-1.13 25.29C70.496 89.748 59.199 94 47.449 94M121.134 51.862c-.234 0-.463.224-.695.224h-.232c-.695.446-1.624.668-2.317.668-3.475 0-5.792-2.681-5.792-6.253 0-3.35 2.317-6.033 5.56-6.033.925 0 1.854.225 2.55.449 0 0 .231.223.463.223 2.317.894 3.705 0 4.17-.447l.927-1.117c-1.853-2.233-4.17-3.576-8.11-3.576C111.633 36 107 40.917 107 46.501 107 52.086 111.402 57 117.659 57c3.939 0 6.256-1.564 8.341-3.797l-.695-.67c-.232-.226-1.622-1.564-4.17-.67M140 40.111V37h-2.492s-.224 0-.677.222h-.227c-.228 0-.681.222-.905.445-1.132.444-2.04 1.333-2.719 2.222v-2.667H128V57h4.98v-8.444c0-1.112 0-2 .455-3.112 0-.222.224-.444.224-.666v-.222c0-.223.229-.445.229-.445 1.356-2.222 3.848-1.555 4.98-2.222.68-.445 1.132-1.111 1.132-1.778M144.86 45.902c.442-2.967 2.21-4.793 4.64-4.793 2.651 0 4.198 2.054 4.64 4.565h-9.28v.228zM149.5 37c-5.523 0-9.5 4.793-9.5 10.5 0 6.163 4.419 10.5 9.942 10.5 3.093 0 5.965-1.37 7.732-3.652l-.441-.457c-.221-.456-1.547-1.826-4.198-.684-.221.228-.442.228-.884.456-.663.228-1.546.457-2.21.457-2.65 0-4.639-1.598-5.301-4.566H159v-1.597C159 42.022 155.686 37 149.5 37zM173.6 37.224v11.877c0 .448-.225.672-.225 1.12-.675 2.017-3.15 3.138-5.175 2.241-1.35-.448-2.25-1.568-2.475-2.913v-10.98c0-.449-.225-1.345-1.8-1.569H161V48.653s0 4.706 2.925 6.946c1.575 1.12 3.375 1.57 5.4 1.345 3.15-.448 4.725-2.24 4.725-2.24v2.24H179v-19.72h-5.4zM197.191 38.4c-1.587-1.12-3.4-1.568-5.441-1.344-3.175.448-4.762 2.24-4.762 2.24v-2.24H182V57h4.988V44.451c0-.224 0-.224.227-.448.678-2.017 3.174-3.137 5.213-2.241.909.224 1.59.896 2.043 1.569.224.224.224.448.453.896.227.448.227.896.227 1.344v10.084c.226.449.453 1.345 1.811 1.345h2.95V45.347c.227 0 .227-4.706-2.72-6.946M214.666 49.667c0 2.222-1.998 3.777-4.887 3.777-2.003 0-3.558-.888-3.558-2.666s1.555-2.89 4.224-2.89h4.221v1.779zm2.667-10.445C215.777 37.89 213.779 37 210.89 37c-2.447 0-5.114.444-7.336 1.556h-.223l.667 1.11a2.69 2.69 0 0 0 1.111 1.112c.891.666 2.003.666 3.114.444.22 0 .665 0 1.111-.222h1.111c2.667 0 4.221 1.111 4.445 3.333H209.334c-4.225.223-7.334 2.223-7.334 6.445 0 4 3.334 6.222 7.11 6.222h.889c1.558 0 2.889-.444 4.225-1.111.442-.222.666-.445.887-.667v1.556H220V45.222c-.665-2.666-1.331-4.666-2.667-6z"/></g></g></svg>