<svg viewBox="0 0 220 53" xmlns="http://www.w3.org/2000/svg" xmlns:xlink="http://www.w3.org/1999/xlink"><defs><path id="a" d="M0 .047h147.496V52.75H0z"/><path id="c" d="M.144.033h25.745V33H.144z"/></defs><g fill="none" fill-rule="evenodd"><path d="M0-47h220v147H0z"/><path d="M159 47.469c0 3.217-2.305 5.531-5.529 5.531-3.226 0-5.471-2.314-5.471-5.531 0-3.161 2.245-5.469 5.471-5.469 3.224 0 5.529 2.308 5.529 5.469" fill="#FFF"/><g><mask id="b" fill="#fff"><use xlink:href="#a"/></mask><path d="M90.745 34.933c0 3.662-1.666 7.325-6.423 7.325-2.17 0-3.172-1.663-3.172-3.582 0-2.993 2.254-6.243 9.595-6.575v2.832zm55.45-1.495c-.892-1.296-2.445-2.103-4.341-2.103-3.007 0-5.1 2.034-5.1 4.825 0 1.853.897 3.36 2.352 4.185a11.182 11.182 0 0 1-4.461.92c-4.253 0-6.92-2.42-6.92-9.332v-9.156c1.665-.58 3.67-1 5.92-1 4.756 0 6.01 2 6.01 2s2.417-2.163 2.417-6.33c0-4.994-2.254-7.657-6.758-7.657-2.754 0-5.338 1.163-7.59 2.663V.047L112.536 1.96v30.562c0 2.218.178 4.244.518 6.087-.423 1.404-1.498 2.993-4.203 2.987-2.922-.012-3.504-1.5-3.504-4.412V23.858c0-9.574-5.004-14.905-16.353-14.905-11.348 0-19.19 4.42-19.356 12.074 0 4 3.085 5.58 3.085 5.58 2.085-3.58 6.758-6.411 12.181-6.411 4.34 0 5.76 1.75 5.76 5.163-13.852 0-23.114 3.911-23.114 15.068l.003.124c-.782.653-1.807 1.125-3.141 1.125-2.502 0-3.67-1.33-3.67-3.663 0-5.248 1.42-11.406 1.42-16.567 0-7.912-3.757-12.905-11.6-12.905-9.01 0-12.264 8.41-12.264 8.41-.917-4.747-4.174-8.41-10.515-8.41-9.01 0-12.514 8.656-12.514 8.656V9.04L0 10.953v40.715h15.35v-24.23c0-4.497 1.92-6.66 4.757-6.66 2.001 0 3.173 1.167 3.173 3.662v27.228h15.35v-24.23c0-4.497 2.17-6.66 5.008-6.66 2.085 0 3.253 1.08 3.253 3.662 0 4.663-.066 9.993-.066 14.568 0 8.499 2.286 13.574 11.832 13.574 4.54 0 8.538-1.912 10.928-4.79 1.941 2.974 5.157 4.79 9.147 4.79 9.93 0 13.015-8.244 13.015-8.244 1.252 4.082 4.588 8.244 11.847 8.244 5.776 0 10.227-3.11 11.808-7.313 2.917 5.042 7.903 7.48 14.238 7.48 11.68 0 17.856-7.323 17.856-14.568 0-2.638-.894-4.178-1.301-4.743z" fill="#FFF" mask="url(#b)"/></g><g transform="translate(162 20)"><mask id="d" fill="#fff"><use xlink:href="#c"/></mask><path d="M24.815 6.915c0 3.307-2.621 4.835-2.621 4.835-.536-1.593-2.68-3.735-4.825-3.735-1.372 0-1.849.8-1.849 1.658 0 3.67 10.369 3.734 10.369 12.611C25.889 28.165 20.705 33 12.421 33 4.375 33 .144 27.976.144 22.958c0-3.799 2.146-5.633 5.422-5.633 3.1 0 5.186 2.207 5.186 2.207s-1.727 1.16-1.727 3.184c0 2.141 1.19 3.367 3.038 3.367 1.789 0 2.978-1.226 2.978-3.006 0-5.811-11.499-6.001-11.499-13.896 0-5.633 4.021-9.148 11.11-9.148 6.794 0 10.163 3.083 10.163 6.882" fill="#FFF" mask="url(#d)"/></g><path d="M199.784 37.064v.78c5.544-1.204 7.156-4.093 7.156-6.495 0-2.349-1.254-3.012-2.505-3.012-2.568 0-4.651 3.85-4.651 8.727M220 42.232C220 47.89 213.262 53 203.897 53 194.772 53 190 46.809 190 38.146S195.19 21 205.269 21c6.742 0 9.843 4.03 9.843 9.268 0 6.552-5.549 11.245-13.66 13.047 1.252 1.627 3.1 2.412 5.428 2.412 7.634 0 11.211-5.296 11.868-6.982 0 0 1.252.965 1.252 3.487" fill="#FFF"/></g></svg>