<svg viewBox="0 0 220 26" xmlns="http://www.w3.org/2000/svg" xmlns:xlink="http://www.w3.org/1999/xlink"><defs><path id="a" d="M0 0h220v26H0z"/></defs><g fill="none" fill-rule="evenodd"><path d="M0-61h220V86H0z"/><g><mask id="b" fill="#fff"><use xlink:href="#a"/></mask><path d="M3.889 7.8l12.667 17.766h3V0h-3.667v17.982L3 0H0v25.35h3.889V7.8zm41-7.8H29.333v25.458h15.334V22.1H33v-8.45h9.444v-3.575H33v-6.5h11.889V0zm13.333 0h-3.666v25.458h13.333V22.1h-9.667V0zm23.111 0h-3.666v25.458H91V22.1h-9.667V0zM99.89 0h-4.333l8.666 13.433v12.025h3.667V13.433L116.222 0H112l-6 9.533L99.889 0zm21.555 21.125c-1.222 0-2.222.975-2.222 2.167 0 1.19 1 2.166 2.222 2.166 1.223 0 2.223-.976 2.223-2.166 0-1.084-1-2.167-2.223-2.167zm61-3.25c-.777 1.517-1.888 2.6-3.444 3.467-1.556.866-3.111 1.191-4.778 1.191-1.333 0-2.444-.217-3.555-.65a7.811 7.811 0 0 1-3-2.058c-.89-.975-1.556-1.95-2-3.033-.445-1.084-.667-2.275-.667-3.684 0-1.841.444-3.466 1.222-4.875.89-1.408 2-2.6 3.445-3.466 1.444-.867 3-1.3 4.666-1.3 1.667 0 3.223.433 4.778 1.3 1.445.866 2.667 2.058 3.445 3.466.777 1.409 1.222 3.034 1.222 4.875-.111 1.734-.445 3.359-1.334 4.767zm-32.666.542l-.334.325c-1 1.3-2.11 2.166-3.333 2.816-1.222.65-2.555.975-4 .975-1.222 0-2.444-.217-3.667-.65-.555-.216-1-.541-1.555-.866-.445-.326-.889-.759-1.333-1.192-.89-.867-1.556-1.95-2-3.033a10.908 10.908 0 0 1-.667-3.792c0-1.842.444-3.467 1.222-4.875s1.778-2.6 3.222-3.467c1.445-.866 2.89-1.3 4.556-1.3 1.555 0 2.889.325 4.111.975 1.333.65 2.333 1.625 3.222 2.925l.334.434 2.555-2.059-.333-.433c-1.111-1.625-2.445-2.925-4.222-3.792a13.239 13.239 0 0 0-2.667-.975c-1-.216-2-.325-3-.325-3.556 0-6.445 1.192-8.778 3.684-2.333 2.491-3.555 5.525-3.555 9.1 0 3.465 1 6.391 2.888 8.775C134.778 24.592 137.89 26 141.89 26c2.111 0 4-.434 5.667-1.3 1.666-.867 3.11-2.058 4.222-3.683l.333-.434-2.333-2.166zM174.11 0c-2.333 0-4.444.542-6.333 1.733-2 1.192-3.556 2.709-4.667 4.767a13.6 13.6 0 0 0-1.667 6.608c0 3.575 1.223 6.609 3.778 9.1C167.778 24.7 170.89 26 174.444 26c3.556 0 6.667-1.3 9.112-3.792 2.444-2.491 3.777-5.633 3.777-9.208 0-3.683-1.222-6.717-3.777-9.208C181 1.3 177.889 0 174.11 0zm26.222 7.583l6.89 9.75h2.11l7-9.75v17.875H220V0h-3l-8.667 12.35L199.667 0h-3v25.458h3.666V7.583z" fill="#FFF" mask="url(#b)"/></g></g></svg>