<svg width="219" height="75" xmlns="http://www.w3.org/2000/svg"><path d="M13.022 74.486l-6.404-46.35.838 24.334.21 22.016H0V.75h9.03l6.198 44.557-1.052-23.175L13.967.75h7.56v73.736h-8.505zM115.224 8.44h-2.1v27.917h2.1c1.156 0 1.576-.527 1.576-1.58V10.02c0-1.054-.42-1.58-1.576-1.58zm10.502 36.868v29.18h-8.821V45.412c0-1.054-.525-1.58-1.576-1.58h-2.203v30.653h-8.823V.75h13.127c5.564 0 8.192 2.737 8.192 8.216v24.122c0 3.793-1.365 5.689-3.782 6.53 2.73.844 3.884 2.53 3.884 5.69h.002zm13.568 21.595h1.785c1.68 0 2.414-.737 2.414-2.423V10.757c0-1.686-.734-2.423-2.414-2.423h-1.785v58.568zM130.473.75h12.391c6.405 0 9.45 3.056 9.45 9.48v54.776c0 6.426-3.043 9.48-9.45 9.48h-12.391V.75zm26.543 73.736h8.821V.75h-8.82v73.736zm34.881-27.611v19.909c0 5.477-2.73 8.216-8.296 8.216h-4.936c-5.564 0-8.191-2.737-8.191-8.216V43.716h8.82v21.909c0 1.054.42 1.58 1.472 1.58h.734c1.05 0 1.47-.526 1.47-1.58V47.929c0-2.423-.42-3.688-2.415-5.372l-5.564-4.847c-3.361-2.844-4.517-5.372-4.517-10.534V8.216c0-5.477 2.73-8.216 8.296-8.216h4.724c5.462 0 8.194 2.737 8.194 8.216v21.806h-8.718V9.163c0-1.054-.314-1.58-1.364-1.58h-.84c-1.051 0-1.367.524-1.367 1.58v16.96c0 2.422.42 3.686 2.417 5.371l5.564 4.845c3.361 2.845 4.517 5.372 4.517 10.534v.002zM209.875 33.3V.75h8.821v73.736h-8.82V41.2h-4.411v33.287h-8.821V.75h8.82V33.3h4.411zM26.17 74.458h73.481V.75H26.17v73.708zm7.562-7.586H92.09V8.336H33.732v58.538-.002z" fill="#FFF" fill-rule="evenodd"/></svg>