<svg viewBox="0 0 220 40" xmlns="http://www.w3.org/2000/svg" xmlns:xlink="http://www.w3.org/1999/xlink"><defs><path d="M20.99 39.99C9.426 39.99.01 31.032.01 20.02.01 9.007 9.416.05 20.99.05c11.563 0 20.968 8.957 20.968 19.97 0 11.002-9.405 19.97-20.968 19.97zm0-30.763c-6.243 0-11.323 4.838-11.323 10.783 0 5.945 5.08 10.783 11.323 10.783 6.242 0 11.322-4.838 11.322-10.783 0-5.945-5.08-10.783-11.322-10.783z" id="a"/><path d="M37.11 39.99c-2.653 0-4.816-2.055-4.816-4.598V20.01c0-5.945-5.067-10.783-11.294-10.783S9.706 14.065 9.706 20.01v15.382c0 2.533-2.152 4.598-4.806 4.598S.084 37.935.084 35.392V20.01C.084 8.998 9.466.04 21 .04s20.916 8.958 20.916 19.97v15.382c0 2.543-2.152 4.598-4.806 4.598z" id="c"/><path d="M21.02 39.99C9.459 39.99.053 31.032.053 20.02V4.638C.052 2.105 2.21.05 4.87.05 7.53.05 9.7 2.105 9.7 4.638V20.02c0 5.945 5.08 10.783 11.322 10.783 6.242 0 11.322-4.838 11.322-10.783V4.638c0-2.533 2.158-4.588 4.829-4.588C39.832.05 42 2.105 42 4.638V20.02c0 11.002-9.416 19.97-20.98 19.97z" id="e"/><path d="M68.264.04c-2.615 0-4.747 2.055-4.747 4.588V20.01c0 5.945-4.993 10.783-11.14 10.783-6.137 0-11.13-4.838-11.13-10.783V4.628C41.247 2.095 39.126.04 36.5.04c-2.615 0-4.736 2.055-4.736 4.588V20.01c0 5.945-4.994 10.783-11.13 10.783-6.137 0-11.13-4.838-11.13-10.783V4.628C9.503 2.095 7.381.04 4.756.04 2.142.04.01 2.095.01 4.628V20.16c.083 10.942 9.298 19.83 20.613 19.83 6.384 0 12.098-2.823 15.877-7.252 3.789 4.43 9.493 7.252 15.877 7.252 11.367 0 20.613-8.958 20.613-19.97V4.638C73 2.095 70.879.04 68.264.04z" id="g"/></defs><g fill="none" fill-rule="evenodd"><g transform="translate(48)"><mask id="b" fill="#fff"><use xlink:href="#a"/></mask><path fill="#FFF" mask="url(#b)" d="M-.513 40.489h42.995V-.45H-.513z"/></g><g><mask id="d" fill="#fff"><use xlink:href="#c"/></mask><path fill="#FFF" mask="url(#d)" d="M-.439 40.489H42.44V-.46H-.44z"/></g><g transform="translate(97)"><mask id="f" fill="#fff"><use xlink:href="#e"/></mask><path fill="#FFF" mask="url(#f)" d="M-.471 40.489h42.995V-.45H-.471z"/></g><g transform="translate(147)"><mask id="h" fill="#fff"><use xlink:href="#g"/></mask><path fill="#FFF" mask="url(#h)" d="M-.505 40.489h74.01V-.46H-.505z"/></g></g></svg>