<svg width="220" height="55" xmlns="http://www.w3.org/2000/svg"><g fill="#FFF" fill-rule="nonzero"><path d="M45.482 54.685c-1.852-.43-3.477-1.776-4.389-3.61-.74-1.546-.798-1.89-.77-5.098 0-3.18.2-4.24 2.338-14.323a1961.66 1961.66 0 012.65-12.232l.313-1.375h5.101c4.133 0 5.101.086 5.101.4 0 .201-1.225 6.246-2.735 13.379-2.85 13.606-2.964 14.552-1.796 15.526 1.311 1.088 4.902.257 6.241-1.433.456-.601.57-1.174.57-2.95 0-4.727 1.853-11.573 4.303-15.927 1.853-3.323 4.902-6.302 7.951-7.82 5.671-2.78 12.51-2.063 14.363 1.546.684 1.347.94 4.125.484 5.787-.2.744-.712 1.518-1.368 2.09-.94.832-1.168.918-2.422.803-2.023-.2-2.28-.573-1.767-2.52.513-1.92.37-4.097-.313-4.87-.314-.373-.884-.574-1.482-.574-3.847 0-8.948 11.831-9.005 20.912-.029 3.495.399 4.841 1.852 5.7 2.793 1.748 8.52.516 11.969-2.52l1.282-1.146.171-3.094c.456-8.651 4.76-17.273 10.459-21.083 3.163-2.12 7.58-2.98 10.572-2.092 1.71.487 2.993 1.547 3.192 2.55.114.745.285.401.656-1.375l.256-1.146 4.959-.086c2.735-.028 5.072.029 5.158.143.114.144-.998 5.844-2.451 12.69-2.821 13.264-3.106 15.326-2.109 16.329.513.515.883.573 2.65.515l2.024-.086.057-4.44c.028-4.84.541-7.476 2.336-12.117 2.822-7.305 8.094-12.232 14.078-13.148 3.847-.573 6.726.286 7.58 2.349.228.544.456.888.513.716.114-.401 3.82-18.104 3.82-18.305 0-.086 2.25-.172 4.986-.172 2.736 0 4.987.057 4.987.143 0 .058-1.995 9.568-4.445 21.112-2.993 14.295-4.36 21.284-4.247 21.914.285 1.519 1.311 2.092 3.762 2.092 1.824 0 2.109-.058 1.966-.459-.456-1.174-.484-5.3-.057-7.992 2.138-14.065 10.003-22.544 20.177-21.8 4.36.316 6.412 2.034 6.924 5.787.827 6.302-4.502 13.292-11.883 15.555-1.054.315-2.593.659-3.391.773l-1.454.2.114 3.037c.114 3.323.513 4.44 1.91 5.27 1.966 1.147 5.785.832 9.062-.801 2.28-1.117 6.355-4.755 6.868-6.073.17-.458.969-3.896 1.767-7.677 4.217-19.794 6.611-30.68 6.782-30.852.114-.114 2.45-.114 5.215 0l4.987.2-1.738 8.165c-4.303 19.966-6.954 32.57-7.01 33.229-.143 2.664.455 3.438 2.593 3.438 1.738 0 3.277-.717 4.502-2.149 1.881-2.148 1.824-1.92 7.068-26.841l.17-.802h5.102c4.616 0 5.1.057 5.1.487 0 .286-1.225 6.302-2.735 13.406-2.85 13.492-2.935 14.208-1.767 15.383.485.487.855.573 2.536.458l1.995-.114-.2.888c-.341 1.661-1.481 3.78-2.422 4.497-1.994 1.518-2.82 1.776-5.386 1.776-2.137.029-2.593-.086-3.932-.802-1.653-.917-3.05-2.75-3.363-4.354-.085-.544-.228-.974-.256-.974-.057 0-.884.83-1.853 1.833-2.935 3.065-6.84 4.698-10.6 4.383-2.28-.2-3.82-.945-5.159-2.492-1.026-1.203-1.91-3.724-1.91-5.414v-.917l-2.222 2.235c-4.047 4.096-8.578 6.302-13.593 6.588-4.332.258-7.751-.888-9.803-3.237l-.912-1.031-.77.716c-2.023 1.89-5.984 3.638-8.292 3.638-3.392 0-5.985-2.034-7.01-5.557l-.314-1.089-1.14 1.49c-2.565 3.409-6.611 5.385-10.345 5.07-3.163-.258-5.813-1.776-7.01-4.039l-.541-1.003-1.653 1.576c-.94.917-2.451 1.948-3.562 2.492-1.653.774-2.252.917-4.076.917-1.823 0-2.336-.115-3.505-.802-1.567-.946-2.964-2.922-3.249-4.555-.085-.602-.256-1.089-.398-1.089-.143 0-.257.115-.257.287 0 .143-.798 1.117-1.738 2.148-1.283 1.375-2.337 2.149-3.904 2.95-2.024 1.003-2.337 1.06-4.731 1.06-2.08-.028-2.878-.142-4.104-.687-1.795-.802-3.79-2.922-4.502-4.755-.257-.716-.57-1.289-.656-1.289-.114 0-.57.401-1.054.888-1.254 1.318-4.075 3.294-6.156 4.268-3.875 1.834-9.347 2.177-12.909.831-1.852-.688-4.16-2.635-4.702-3.982-.2-.487-.399-.86-.456-.86-.057 0-.655.602-1.368 1.376-3.106 3.323-8.179 4.984-12.225 4.039zm54.686-7.305c1.368-.659 3.135-2.778 3.648-4.354.57-1.719 3.876-17.388 3.876-18.305 0-.4-.37-1.06-.827-1.547-.684-.658-1.083-.83-2.08-.83-3.192 0-6.212 3.638-8.321 10.026-2.366 7.219-2.423 13.406-.114 15.01.826.602 2.593.573 3.818 0zm35.394.057c1.197-.63 2.821-2.463 3.448-3.924.599-1.375 4.075-17.216 4.104-18.706 0-.573-.256-1.088-.883-1.661-2.252-2.005-5.728-.23-8.18 4.182-3.932 7.047-5.186 18.477-2.222 20.195.74.43 2.821.373 3.733-.086zm33.827-12.06c3.96-1.804 6.981-6.53 6.981-11 0-2.033-.541-2.893-1.795-2.893-1.91 0-3.59 1.69-5.614 5.73-1.14 2.263-2.85 7.39-2.85 8.536 0 .602.086.659.94.487.485-.115 1.568-.487 2.338-.86zM8.321 53.797c.086-.373 2.28-10.513 4.902-22.573 2.593-12.06 4.787-22.115 4.873-22.372.085-.373 1.14-.573 5.158-1.06 2.793-.344 5.1-.545 5.158-.487.057.057-.997 5.385-2.337 11.83-1.34 6.446-2.45 11.802-2.45 11.888 0 .316 2.479-.43 3.79-1.174 2.85-1.547 5.784-5.901 7.095-10.542.485-1.718.627-3.036.656-5.442 0-3.066-.029-3.237-.998-5.157-1.225-2.435-3.02-3.867-5.813-4.755-1.653-.487-2.422-.573-4.845-.43-4.958.258-8.549 1.862-12.111 5.357-2.052 2.034-3.391 4.383-4.16 7.305-.6 2.32-.6 7.19 0 8.594l.427 1.088-1.796-.143c-4.246-.344-6.155-2.75-5.813-7.362.171-2.75.969-4.87 2.736-7.39C7.438 4.325 16.956 0 26.959 0c3.875 0 6.81.602 9.717 2.034 4.987 2.435 7.466 6.502 7.466 12.289 0 4.182-1.225 7.792-3.79 11.2-3.59 4.756-8.805 7.592-15.274 8.222l-2.11.2-2.165 10.227-2.166 10.255H8.18l.142-.63zM50.868 14.208c-4.902-1.833-5.244-8.479-.542-10.885 1.026-.516 3.363-.602 4.56-.143.94.343 2.565 1.833 3.078 2.836 1.368 2.692.313 6.216-2.337 7.677-1.51.83-3.363 1.031-4.76.515z"/><path d="M212.249 14.18c-3.334-1.06-4.873-5.1-3.192-8.394 1.368-2.635 5.101-3.723 7.78-2.291 3.334 1.804 4.132 6.159 1.624 8.995-1.567 1.833-3.847 2.434-6.212 1.69z"/></g></svg>