<svg viewBox="0 0 220 38" xmlns="http://www.w3.org/2000/svg" xmlns:xlink="http://www.w3.org/1999/xlink"><defs><path id="a" d="M0 .684h31.714V37.02H0z"/><path id="c" d="M0 39h220V1H0z"/></defs><g fill="none" fill-rule="evenodd"><path d="M0-54h220V93H0z"/><g><mask id="b" fill="#fff"><use xlink:href="#a"/></mask><path d="M9.278 7.375V18.39h5.556c3.461 0 7.655-.102 7.655-5.713 0-5.302-4.667-5.302-7.34-5.302H9.28zM0 .684h14.888c6.08 0 11.48 0 14.729 4.581 1.416 2.059 2.097 4.993 2.097 7.463 0 2.007-.42 3.964-1.259 5.662-3.196 6.486-10.01 6.64-15.043 6.743H9.278V37.02H0V.684z" fill="#FFF" mask="url(#b)"/><path d="M40.974 13.068C42.78 11.586 44.748 10.408 49 10v6.955l-2.712.409c-3.933.665-5.101 1.226-5.101 4.601V37H33V10.256h7.974v2.812zM68.598 20.07c-.158-1.144-.37-2.652-1.531-3.846-1.005-.986-2.536-1.507-3.963-1.507-1.956 0-3.329.936-4.122 1.767-1.108 1.194-1.373 2.44-1.638 3.587h11.254zm8.085 10.032c-.953 1.402-1.903 2.753-3.329 4.053C70.976 36.338 67.384 38 62.946 38 54.758 38 49 32.855 49 23.968 49 17.418 52.274 9 63.158 9c1.638 0 6.392.157 9.931 3.897 3.594 3.794 3.806 9.096 3.911 12.162H57.292c-.053 3.38 1.902 6.757 6.287 6.757 4.438 0 5.971-2.858 6.974-4.782l6.13 3.068zM96.468 23.87c0-1.233 0-4.574-1.702-6.63-.361-.463-1.497-1.593-3.096-1.593-5.623 0-5.623 7.04-5.623 8.222 0 3.75 1.031 8.326 5.056 8.326.877 0 1.805-.309 2.579-.823 2.786-1.9 2.786-6.013 2.786-7.503zM104 1v36.28h-7.222v-2.517C95.54 35.997 93.476 38 89.505 38a10.93 10.93 0 0 1-7.583-3.083C78 31.167 78 25.767 78 24.023c0-10.124 5.778-14.288 11.195-14.288 3.56 0 5.675 1.645 7.12 2.723V1H104z" fill="#FFF"/><mask id="d" fill="#fff"><use xlink:href="#c"/></mask><path d="M111 38h8V10.63h-8V38zm0-30.77h8V1h-8v6.23zM147 30.66c-1.007 1.573-2.118 3.302-4.343 4.876-2.117 1.47-4.818 2.464-7.943 2.464C129.419 38 121 34.852 121 23.683 121 15.713 125.661 9 134.874 9c3.072 0 8.314.84 11.808 6.556l-6.036 3.41c-.476-.997-1.006-1.942-2.33-2.886-.794-.524-1.8-.944-3.07-.944-4.396 0-5.88 4.98-5.88 8.287 0 3.617 1.8 8.18 6.144 8.18.422 0 2.436 0 4.13-1.89.688-.784.953-1.414 1.219-2.202L147 30.66z" fill="#FFF" mask="url(#d)"/><path d="M158.256 25.82c-1.35.528-3.423 1.318-3.423 3.427 0 1.319 1.142 2.797 3.008 2.797.987 0 1.92-.371 2.75-.9 2.644-1.685 2.75-4.217 2.8-7.063l-5.135 1.739zm-10.113-8.279c.155-1.897.415-4.166 2.853-6.115C153.486 9.42 156.7 9 159.866 9c3.317 0 11.357.79 11.357 7.91v16.029c0 2.952.155 3.373.777 4.323h-7.83v-2.529c-2.025 1.527-4.304 3.267-8.3 3.267-6.222 0-8.87-4.533-8.87-8.384 0-4.428 3.476-6.96 5.707-7.91 2.18-.947 7.314-1.897 10.683-2.53V17.7c-.102-1.266-.207-3.375-3.06-3.375-3.525 0-3.992 2.216-4.2 3.216h-7.987zM183.974 13.068c1.808-1.482 3.774-2.66 8.026-3.068v6.955l-2.712.409c-3.931.665-5.101 1.226-5.101 4.601V37H176V10.256h7.974v2.812zM211.601 20.07c-.16-1.144-.371-2.652-1.53-3.846-1.006-.986-2.537-1.507-3.964-1.507-1.955 0-3.329.936-4.121 1.767-1.11 1.194-1.375 2.44-1.638 3.587H211.6zm8.083 10.032c-.952 1.402-1.902 2.753-3.328 4.053-2.378 2.183-5.972 3.845-10.409 3.845C197.76 38 192 32.855 192 23.968 192 17.418 195.276 9 206.16 9c1.638 0 6.392.157 9.93 3.897 3.594 3.794 3.805 9.096 3.91 12.162h-19.705c-.053 3.38 1.901 6.757 6.287 6.757 4.437 0 5.97-2.858 6.973-4.782l6.13 3.068z" fill="#FFF" mask="url(#d)"/></g></g></svg>