<svg viewBox="0 0 220 33" xmlns="http://www.w3.org/2000/svg"><g fill="#FFF" fill-rule="nonzero"><path d="M211.084 19.15h5.328c.5 0 .836-.061 1.008-.184.173-.123.26-.364.26-.723 0-.85-.317-1.597-.951-2.24-.633-.642-1.41-.963-2.332-.963-.903 0-1.68.298-2.333.893-.653.595-.98 1.328-.98 2.197v1.02zm-2.39 2.353v-2.976c0-1.455.562-2.712 1.685-3.77 1.123-1.059 2.472-1.588 4.046-1.588 1.498 0 2.794.496 3.889 1.488 1.093.992 1.641 2.235 1.641 3.728 0 .548-.068.987-.201 1.318-.135.33-.341.567-.62.709a2.648 2.648 0 0 1-.777.269c-.24.038-.562.057-.966.057h-6.307v.85c0 1.04.38 1.87 1.138 2.494.759.624 1.742.936 2.951.936.635 0 1.187-.095 1.657-.284.47-.189.85-.373 1.137-.552.288-.18.52-.27.692-.27.268 0 .5.118.691.355.192.236.288.477.288.723 0 .434-.437.878-1.31 1.332-.874.453-1.954.68-3.24.68-1.882 0-3.418-.505-4.61-1.516-1.189-1.011-1.784-2.339-1.784-3.983zm-8.856 4.422V14.16c0-.245.11-.444.331-.595.22-.151.504-.227.849-.227.307 0 .567.076.777.227a.7.7 0 0 1 .318.595v1.333c.345-.643.854-1.19 1.526-1.644a3.927 3.927 0 0 1 2.247-.68h.98c.249 0 .464.108.647.325.182.218.274.468.274.751 0 .284-.092.53-.274.737-.183.208-.398.312-.647.312h-.98c-.98 0-1.834.388-2.564 1.162-.73.775-1.094 1.777-1.094 3.005v6.463c0 .208-.12.402-.36.581-.24.18-.523.27-.85.27-.326 0-.604-.086-.835-.256-.23-.17-.345-.368-.345-.595zm-14.56-4.365v-7.37c0-.227.12-.425.361-.596.24-.17.523-.255.849-.255.307 0 .581.09.82.27.241.18.361.373.361.58v7.37c0 .851.327 1.616.98 2.297.652.68 1.43 1.02 2.333 1.02.882 0 1.65-.335 2.304-1.006.652-.67.978-1.441.978-2.31V14.16c0-.207.121-.396.36-.567.241-.17.524-.255.85-.255.346 0 .63.08.85.241.22.16.33.355.33.581v7.399c0 1.455-.56 2.726-1.685 3.812-1.122 1.087-2.451 1.63-3.987 1.63-1.556 0-2.896-.543-4.018-1.63-1.123-1.086-1.685-2.357-1.685-3.812zm-8.77.935V7.897c0-.227.126-.42.375-.581.25-.16.518-.241.807-.241.306 0 .585.08.835.24.25.161.374.355.374.582v5.442h3.629c.211 0 .384.095.519.284.134.189.202.406.202.652 0 .245-.068.458-.202.638a.622.622 0 0 1-.519.269h-3.629v7.313c0 .813.178 1.384.533 1.715.355.33.974.496 1.858.496h.893c.325 0 .58.1.762.298.183.198.274.44.274.723s-.096.529-.288.737a.971.971 0 0 1-.748.311h-.893c-3.188 0-4.781-1.426-4.781-4.28zm-14.487-.935v-7.37c0-.227.12-.425.36-.596.24-.17.523-.255.849-.255.307 0 .581.09.82.27.241.18.361.373.361.58v7.37c0 .851.327 1.616.98 2.297.652.68 1.43 1.02 2.333 1.02.882 0 1.65-.335 2.303-1.006.654-.67.98-1.441.98-2.31V14.16c0-.207.12-.396.36-.567.24-.17.523-.255.85-.255.345 0 .629.08.848.241.222.16.331.355.331.581v7.399c0 1.455-.56 2.726-1.684 3.812-1.123 1.087-2.452 1.63-3.988 1.63-1.556 0-2.895-.543-4.018-1.63-1.123-1.086-1.685-2.357-1.685-3.812zm-10.33 4.393V6.905c0-.265.11-.473.331-.624.222-.15.475-.227.764-.227h10.138c.268 0 .474.104.619.312.143.208.216.454.216.737 0 .322-.073.586-.216.794a.709.709 0 0 1-.62.312h-8.812v7.2h4.493c.268 0 .474.099.619.297.143.199.215.44.215.723 0 .246-.072.468-.215.666-.145.199-.35.298-.62.298h-4.492v8.56c0 .265-.121.468-.36.61a1.64 1.64 0 0 1-.85.212c-.326 0-.61-.07-.85-.212s-.36-.345-.36-.61zm-18.205-4.45c0 .87.327 1.649.98 2.338.653.69 1.41 1.035 2.275 1.035.845 0 1.603-.316 2.275-.95.672-.633 1.009-1.185 1.009-1.658v-3.656c0-.983-.327-1.781-.98-2.395-.653-.615-1.411-.922-2.275-.922-.884 0-1.651.34-2.304 1.02-.653.681-.98 1.446-.98 2.297v2.891zm-2.39 0v-2.891c0-1.493.509-2.774 1.526-3.841 1.018-1.068 2.228-1.602 3.63-1.602.863 0 1.622.208 2.275.624.652.416 1.151.926 1.498 1.53V6.055c0-.245.114-.444.345-.595.23-.151.519-.227.864-.227s.629.076.85.227c.22.151.331.35.331.595v19.87c0 .228-.115.426-.346.596-.23.17-.508.255-.835.255-.288 0-.543-.085-.764-.255-.22-.17-.331-.368-.331-.595V24.79c-.326.605-.854 1.124-1.584 1.56a4.586 4.586 0 0 1-2.39.651c-1.344 0-2.525-.557-3.543-1.672-1.017-1.115-1.526-2.39-1.526-3.827zm-10.902-2.353h5.328c.5 0 .835-.061 1.008-.184.173-.123.26-.364.26-.723 0-.85-.317-1.597-.951-2.24-.634-.642-1.411-.963-2.333-.963-.902 0-1.68.298-2.333.893-.653.595-.979 1.328-.979 2.197v1.02zm-2.39 2.353v-2.976c0-1.455.561-2.712 1.684-3.77 1.124-1.059 2.472-1.588 4.047-1.588 1.498 0 2.794.496 3.888 1.488 1.095.992 1.642 2.235 1.642 3.728 0 .548-.067.987-.202 1.318-.134.33-.34.567-.62.709a2.64 2.64 0 0 1-.777.269c-.24.038-.561.057-.965.057h-6.307v.85c0 1.04.38 1.87 1.138 2.494.758.624 1.742.936 2.952.936.633 0 1.186-.095 1.656-.284.47-.189.85-.373 1.138-.552.288-.18.518-.27.69-.27.27 0 .5.118.692.355.192.236.288.477.288.723 0 .434-.437.878-1.31 1.332-.874.453-1.954.68-3.24.68-1.882 0-3.418-.505-4.609-1.516-1.19-1.011-1.785-2.339-1.785-3.983zm-11.46 0c0 .87.327 1.649.98 2.338.653.69 1.411 1.035 2.275 1.035.845 0 1.604-.316 2.276-.95.672-.633 1.008-1.185 1.008-1.658v-3.656c0-.983-.327-1.781-.98-2.395-.652-.615-1.41-.922-2.275-.922-.883 0-1.651.34-2.304 1.02-.653.681-.98 1.446-.98 2.297v2.891zm-2.39 0v-2.891c0-1.493.51-2.774 1.527-3.841 1.017-1.068 2.227-1.602 3.629-1.602.864 0 1.622.208 2.275.624.653.416 1.152.926 1.498 1.53V6.055c0-.245.115-.444.345-.595.23-.151.519-.227.864-.227.346 0 .63.076.85.227.22.151.331.35.331.595v19.87c0 .228-.115.426-.346.596-.23.17-.508.255-.835.255-.288 0-.542-.085-.763-.255-.22-.17-.331-.368-.331-.595V24.79c-.327.605-.855 1.124-1.584 1.56a4.586 4.586 0 0 1-2.39.651c-1.345 0-2.526-.557-3.543-1.672-1.018-1.115-1.527-2.39-1.527-3.827zm-8.856 4.422V14.16c0-.245.11-.444.331-.595.221-.151.504-.227.85-.227.307 0 .566.076.777.227a.7.7 0 0 1 .317.595v1.333c.346-.643.855-1.19 1.527-1.644a3.927 3.927 0 0 1 2.246-.68h.98c.25 0 .465.108.648.325.182.218.273.468.273.751 0 .284-.091.53-.273.737-.183.208-.399.312-.649.312h-.979c-.979 0-1.833.388-2.563 1.162-.73.775-1.095 1.777-1.095 3.005v6.463c0 .208-.12.402-.36.581-.24.18-.523.27-.85.27-.326 0-.604-.086-.834-.256-.23-.17-.346-.368-.346-.595zm-11.765-4.422c0 .888.326 1.672.979 2.353.653.68 1.42 1.02 2.304 1.02.903 0 1.68-.345 2.333-1.035.653-.69.98-1.469.98-2.338v-2.891c0-.85-.327-1.616-.98-2.296-.653-.68-1.43-1.02-2.333-1.02-.902 0-1.675.34-2.318 1.02-.644.68-.965 1.445-.965 2.296v2.891zm-2.39 0v-2.891c0-1.455.561-2.726 1.684-3.813 1.123-1.086 2.453-1.63 3.99-1.63 1.535 0 2.87.539 4.002 1.616 1.133 1.077 1.7 2.353 1.7 3.827v2.891c0 1.436-.571 2.712-1.714 3.827-1.142 1.115-2.472 1.672-3.989 1.672s-2.842-.553-3.974-1.658c-1.133-1.106-1.7-2.386-1.7-3.841zm-11.737 0v-2.835c0-1.625.485-2.948 1.454-3.968.97-1.02 2.396-1.53 4.277-1.53 1.19 0 2.194.207 3.01.623.816.416 1.224.86 1.224 1.332 0 .265-.1.524-.302.78-.202.255-.437.382-.706.382-.077 0-.408-.165-.994-.496-.585-.33-1.272-.496-2.059-.496-1.152 0-2.026.293-2.62.879-.596.586-.894 1.417-.894 2.494v2.835c0 2.249 1.181 3.373 3.543 3.373.806 0 1.507-.17 2.102-.51.596-.34.941-.51 1.037-.51.307 0 .562.123.763.368.202.246.303.501.303.766 0 .472-.423.925-1.267 1.36-.845.435-1.882.652-3.11.652-1.902 0-3.337-.505-4.307-1.516-.97-1.011-1.454-2.339-1.454-3.983zm-10.93-2.353h5.328c.5 0 .835-.061 1.008-.184.173-.123.26-.364.26-.723 0-.85-.317-1.597-.951-2.24-.634-.642-1.411-.963-2.333-.963-.902 0-1.68.298-2.333.893-.653.595-.979 1.328-.979 2.197v1.02zm-2.39 2.353v-2.976c0-1.455.561-2.712 1.684-3.77 1.124-1.059 2.472-1.588 4.047-1.588 1.498 0 2.794.496 3.888 1.488 1.094.992 1.642 2.235 1.642 3.728 0 .548-.067.987-.202 1.318-.134.33-.34.567-.619.709a2.642 2.642 0 0 1-.778.269c-.24.038-.561.057-.965.057h-6.307v.85c0 1.04.38 1.87 1.138 2.494.758.624 1.742.936 2.952.936.633 0 1.185-.095 1.656-.284a7.44 7.44 0 0 0 1.137-.552c.288-.18.519-.27.692-.27.268 0 .499.118.69.355.193.236.289.477.289.723 0 .434-.437.878-1.31 1.332-.874.453-1.954.68-3.24.68-1.882 0-3.418-.505-4.609-1.516-1.19-1.011-1.786-2.339-1.786-3.983zm-11.88-5.896h3.714c2.65 0 3.975-1.238 3.975-3.713 0-2.457-1.325-3.685-3.975-3.685h-3.715v7.398zm-2.42 10.318V6.877a.74.74 0 0 1 .245-.567.99.99 0 0 1 .619-.256h5.27c1.92 0 3.466.44 4.637 1.319 1.172.878 1.757 2.329 1.757 4.35 0 3.119-1.43 4.961-4.291 5.528l4.262 7.965a.784.784 0 0 1 .116.397c0 .302-.154.581-.461.836-.307.255-.634.383-.98.383-.403 0-.767-.312-1.094-.935l-4.349-8.306h-3.312v8.334c0 .264-.12.472-.36.624-.24.15-.523.226-.85.226a1.56 1.56 0 0 1-.85-.226c-.24-.152-.36-.36-.36-.624zM17.742 14.066a2.446 2.446 0 0 1 2.457 2.434c0 1.344-1.1 2.434-2.457 2.434a2.446 2.446 0 0 1-2.457-2.434c0-1.344 1.1-2.434 2.457-2.434zM33.027 14.066a2.446 2.446 0 0 1 2.457 2.434c0 1.344-1.1 2.434-2.457 2.434a2.446 2.446 0 0 1-2.456-2.434c0-1.344 1.1-2.434 2.456-2.434zM0 16.74c.105 1.27 1.184 2.267 2.5 2.267 1.387 0 2.51-1.106 2.51-2.47 0-1.365-1.123-2.471-2.51-2.471-1.316 0-2.395.998-2.5 2.267v.407zM18.023 33c1.066-.094 1.903-.976 1.903-2.05v-7.413c0-1.137-.937-2.06-2.091-2.06-1.155 0-2.091.923-2.091 2.06v7.412c0 1.075.836 1.957 1.902 2.051h.377zM27.568 26.88a2.055 2.055 0 0 1-2.047 2.063 2.055 2.055 0 0 1-2.047-2.063V6.12c0-1.14.917-2.063 2.047-2.063 1.13 0 2.047.924 2.047 2.063v20.76zM12.283 26.88a2.055 2.055 0 0 1-2.047 2.063 2.055 2.055 0 0 1-2.047-2.063V6.12c0-1.14.916-2.063 2.047-2.063 1.13 0 2.047.924 2.047 2.063v20.76zM19.926 9.554c0 1.147-.917 2.077-2.048 2.077-1.13 0-2.047-.93-2.047-2.077V2.077C15.831.93 16.748 0 17.878 0c1.131 0 2.048.93 2.048 2.077v7.477z"/></g></svg>