<svg viewBox="0 0 220 52" xmlns="http://www.w3.org/2000/svg" xmlns:xlink="http://www.w3.org/1999/xlink"><defs><path id="a" d="M.687.234h67.858V52H.687z"/><path id="c" d="M.714.234h67.87V52H.714z"/></defs><g fill="none" fill-rule="evenodd"><path d="M0-48h220V99H0z"/><path d="M63.05 52c1.077 0 1.95-.875 1.95-1.951v-28.6c0-1.078-.873-1.95-1.95-1.95H27.3a1.3 1.3 0 0 1-1.3-1.3V7.8A1.3 1.3 0 0 1 27.3 6.5L37.7 6.5c.718 0 1.3.583 1.3 1.3v3.251A1.95 1.95 0 0 0 40.95 13h15.6a1.95 1.95 0 0 0 1.95-1.95v-9.1A1.95 1.95 0 0 0 56.55 0H8.446a1.95 1.95 0 0 0-1.95 1.95v22.098a1.95 1.95 0 0 0 1.95 1.95H44.2c.718 0 1.3.582 1.3 1.3v16.9a1.3 1.3 0 0 1-1.3 1.3H20.8a1.3 1.3 0 0 1-1.3-1.3v-9.75a1.95 1.95 0 0 0-1.95-1.949H1.95C.872 32.5 0 33.372 0 34.45v15.6C0 51.125.872 52 1.95 52h61.1z" fill="#FFF"/><g transform="translate(74)"><mask id="b" fill="#fff"><use xlink:href="#a"/></mask><path d="M23.304 33.407a.323.323 0 0 1 .548-.233L42.09 51.445c.105.104.581.555 1.356.555h23.16a1.94 1.94 0 0 0 1.94-1.94V34.538a1.94 1.94 0 0 0-1.94-1.941H49.893a1.93 1.93 0 0 1-1.337-.536L36.394 19.873a.324.324 0 0 1-.095-.227.31.31 0 0 1 .095-.228l5.662-5.686a1.932 1.932 0 0 1 1.359-.557h16.73a1.94 1.94 0 0 0 1.94-1.94l-.002-9.061c0-1.071-.867-1.94-1.939-1.94H43.446c-.773 0-1.248.447-1.356.553l-18.238 18.27a.323.323 0 0 1-.548-.233l-.002-16.65a1.94 1.94 0 0 0-1.94-1.94H2.625a1.94 1.94 0 0 0-1.938 1.94v15.53a1.94 1.94 0 0 0 1.938 1.942c.715 0 1.294.579 1.294 1.294v10.353c0 .713-.579 1.294-1.294 1.294a1.94 1.94 0 0 0-1.938 1.94v15.53C.687 51.13 1.556 52 2.625 52h18.737c1.071 0 1.94-.87 1.94-1.943l.002-16.65z" fill="#FFF" mask="url(#b)"/></g><g transform="translate(151)"><mask id="d" fill="#fff"><use xlink:href="#c"/></mask><path d="M21.39 52c1.07 0 1.94-.87 1.94-1.943v-15.53a1.94 1.94 0 0 0-1.94-1.94c-.713 0-1.294-.58-1.294-1.294v-3.882c0-.716.581-1.295 1.293-1.295h7.101c.713 0 1.291.579 1.291 1.295 0 1.071.87 1.94 1.94 1.94h15.533a1.94 1.94 0 0 0 1.94-1.94v-9.06a1.94 1.94 0 0 0-1.94-1.94H31.721a1.94 1.94 0 0 0-1.94 1.94c0 .715-.578 1.294-1.29 1.294h-7.102c-.712 0-1.293-.579-1.293-1.294V7.998c0-.713.581-1.293 1.293-1.293h20.045c.714 0 1.292.579 1.292 1.293v3.236c0 1.072.87 1.941 1.94 1.941h21.979c1.07 0 1.94-.869 1.94-1.94V2.173a1.94 1.94 0 0 0-1.94-1.94H2.652a1.94 1.94 0 0 0-1.938 1.94v15.53a1.94 1.94 0 0 0 1.938 1.942c.715 0 1.294.579 1.294 1.293v10.354c0 .713-.579 1.294-1.294 1.294-1.07 0-1.938.868-1.938 1.94v15.53C.714 51.13 1.582 52 2.652 52H21.39z" fill="#FFF" mask="url(#d)"/></g></g></svg>