<svg viewBox="0 0 220 37" xmlns="http://www.w3.org/2000/svg" xmlns:xlink="http://www.w3.org/1999/xlink"><defs><path d="M13.454 1.75C7.932 3.381 3.45 7.416 1.257 12.621A8.168 8.168 0 0 1 0 8.263C0 3.7 3.731 0 8.333 0c1.932 0 3.707.655 5.12 1.75zm5.494 32.004c7.724 0 13.965-6.213 13.965-13.85 0-7.636-6.241-13.849-13.965-13.849-7.723 0-14.006 6.213-14.006 13.85 0 7.636 6.283 13.85 14.006 13.85zm.005-30.928c9.524 0 17.22 7.662 17.22 17.079 0 9.417-7.696 17.078-17.22 17.078S1.681 29.323 1.681 19.905c0-9.417 7.748-17.079 17.272-17.079zM29.523 0c4.602 0 8.333 3.7 8.333 8.263a8.17 8.17 0 0 1-1.283 4.401C34.398 7.44 29.929 3.387 24.403 1.75A8.337 8.337 0 0 1 29.522 0zm-4.174 14.19a1.605 1.605 0 0 1 2.255 0 1.57 1.57 0 0 1 0 2.234l-7.907 7.836a1.601 1.601 0 0 1-2.255 0l-5.203-5.157a1.57 1.57 0 0 1 0-2.234 1.604 1.604 0 0 1 2.254 0l4.076 4.04 6.78-6.72z" id="a"/></defs><g fill="none" fill-rule="evenodd"><path d="M0-55h220V92H0z"/><g><mask id="b" fill="#fff"><use xlink:href="#a"/></mask><path fill="#FFFFFE" mask="url(#b)" d="M-1.061 38.035h39.978V-1.051H-1.06z"/></g><path d="M67.154 21.846c0 1.933-.706 3.457-2.116 4.57-1.411 1.113-3.374 1.67-5.89 1.67-2.316 0-4.366-.43-6.148-1.29v-4.218c1.465.645 2.706 1.099 3.72 1.362 1.015.264 1.944.396 2.785.396 1.01 0 1.785-.19 2.324-.571.54-.381.81-.948.81-1.7 0-.42-.119-.793-.357-1.12-.237-.327-.586-.642-1.047-.945-.46-.303-1.398-.786-2.814-1.45-1.327-.615-2.322-1.206-2.985-1.773a6.67 6.67 0 0 1-1.59-1.977c-.395-.752-.594-1.631-.594-2.637 0-1.894.651-3.384 1.954-4.468 1.302-1.084 3.101-1.626 5.398-1.626 1.129 0 2.206.132 3.23.396 1.025.264 2.097.635 3.216 1.113l-1.485 3.53c-1.159-.468-2.117-.795-2.874-.981a9.372 9.372 0 0 0-2.235-.278c-.872 0-1.54.2-2.005.6-.466.4-.698.923-.698 1.568 0 .4.094.75.282 1.047.188.298.487.586.898.864.411.279 1.384.779 2.919 1.502 2.03.957 3.42 1.916 4.173 2.878.753.962 1.129 2.141 1.129 3.538zm8.11 5.947h-4.53V5h4.53v22.793zm11.628-13.506c-.96 0-1.713.3-2.257.901-.545.6-.857 1.453-.936 2.556h6.357c-.02-1.103-.312-1.955-.877-2.556-.564-.6-1.326-.9-2.287-.9zm.639 13.799c-2.674 0-4.763-.728-6.268-2.183-1.505-1.455-2.257-3.515-2.257-6.181 0-2.744.695-4.866 2.086-6.365 1.392-1.5 3.315-2.249 5.77-2.249 2.347 0 4.174.66 5.48 1.978 1.308 1.318 1.961 3.14 1.961 5.464v2.168H83.595c.05 1.27.43 2.26 1.144 2.973.712.713 1.712 1.07 3 1.07 1 0 1.945-.103 2.836-.308a14.325 14.325 0 0 0 2.793-.981v3.457c-.793.39-1.64.68-2.54.871-.901.19-2 .286-3.297.286zm17.332-13.799c-.96 0-1.713.3-2.258.901-.544.6-.856 1.453-.935 2.556h6.356c-.02-1.103-.311-1.955-.876-2.556-.564-.6-1.327-.9-2.287-.9zm.639 13.799c-2.674 0-4.763-.728-6.268-2.183-1.505-1.455-2.257-3.515-2.257-6.181 0-2.744.695-4.866 2.086-6.365 1.391-1.5 3.315-2.249 5.77-2.249 2.347 0 4.174.66 5.48 1.978 1.308 1.318 1.961 3.14 1.961 5.464v2.168h-10.708c.05 1.27.43 2.26 1.143 2.973.713.713 1.713 1.07 3 1.07 1 0 1.946-.103 2.837-.308a14.325 14.325 0 0 0 2.792-.981v3.457c-.792.39-1.638.68-2.54.871-.9.19-2 .286-3.296.286zm19.574 0c-1.95 0-3.48-.698-4.589-2.095h-.237c.158 1.367.237 2.158.237 2.373V35h-4.53V11.416h3.684l.638 2.124h.208c1.06-1.621 2.629-2.432 4.708-2.432 1.96 0 3.495.747 4.604 2.242 1.11 1.494 1.664 3.569 1.664 6.225 0 1.748-.26 3.267-.78 4.556-.52 1.289-1.26 2.27-2.22 2.944-.96.674-2.09 1.01-3.387 1.01zm-1.336-13.403c-1.12 0-1.936.339-2.45 1.018-.516.678-.783 1.799-.803 3.361v.484c0 1.758.265 3.017.795 3.78.53.76 1.369 1.142 2.517 1.142 2.03 0 3.045-1.65 3.045-4.951 0-1.612-.25-2.82-.75-3.626s-1.285-1.208-2.354-1.208zm28.946-4.834c-1.733 0-3.074.642-4.025 1.926-.95 1.284-1.426 3.074-1.426 5.369 0 4.775 1.817 7.163 5.451 7.163 1.525 0 3.372-.376 5.54-1.128v3.808c-1.782.733-3.772 1.099-5.97 1.099-3.16 0-5.575-.945-7.248-2.835-1.674-1.89-2.51-4.602-2.51-8.137 0-2.226.41-4.177 1.232-5.852.822-1.675 2.003-2.959 3.543-3.852 1.54-.894 3.344-1.34 5.413-1.34 2.11 0 4.228.502 6.357 1.508l-1.485 3.692a24.778 24.778 0 0 0-2.451-.997 7.402 7.402 0 0 0-2.42-.424zm7.426 1.567h4.96l3.134 9.214c.268.8.45 1.748.55 2.842h.089c.109-1.006.322-1.953.639-2.842l3.074-9.214h4.857l-7.025 18.472c-.644 1.709-1.562 2.988-2.755 3.838-1.194.85-2.587 1.274-4.181 1.274-.782 0-1.55-.083-2.302-.249v-3.545c.544.127 1.138.19 1.782.19.802 0 1.502-.241 2.102-.725.599-.483 1.066-1.213 1.403-2.19l.267-.805-6.594-16.26zm26.422 16.67c-5.169 0-7.753-2.798-7.753-8.394 0-2.783.703-4.91 2.109-6.379 1.406-1.47 3.42-2.205 6.045-2.205 1.92 0 3.643.371 5.168 1.114l-1.337 3.457a23.073 23.073 0 0 0-1.99-.696 6.495 6.495 0 0 0-1.841-.271c-2.357 0-3.535 1.65-3.535 4.951 0 3.203 1.178 4.805 3.535 4.805.871 0 1.678-.115 2.42-.344a8.792 8.792 0 0 0 2.228-1.077v3.823a7.354 7.354 0 0 1-2.22.952c-.748.176-1.69.264-2.83.264zm13.426-.293h-4.53V5h4.53v22.793zm11.629-13.506c-.96 0-1.713.3-2.258.901-.544.6-.856 1.453-.935 2.556h6.356c-.02-1.103-.312-1.955-.876-2.556-.564-.6-1.327-.9-2.287-.9zm.639 13.799c-2.674 0-4.763-.728-6.268-2.183-1.505-1.455-2.258-3.515-2.258-6.181 0-2.744.696-4.866 2.087-6.365 1.391-1.5 3.315-2.249 5.77-2.249 2.347 0 4.174.66 5.48 1.978 1.308 1.318 1.961 3.14 1.961 5.464v2.168h-10.708c.05 1.27.43 2.26 1.143 2.973.713.713 1.713 1.07 3 1.07 1 0 1.946-.103 2.837-.308a14.325 14.325 0 0 0 2.792-.981v3.457c-.792.39-1.638.68-2.54.871-.9.19-2 .286-3.296.286z" fill="#FFF"/></g></svg>