<svg viewBox="0 0 192 84" xmlns="http://www.w3.org/2000/svg"><g fill="#FFF" fill-rule="nonzero"><path d="M162.902 36.44h23.493l4.89-15.026h-30.53c-15.384 0-28.025 4.85-36.492 18.811-4.531 7.809-8.109 17.037-8.109 25.91 0 12.896 9.54 17.51 24.328 17.51h30.41l4.89-15.025H147.16c-6.32 0-8.825-2.603-8.825-6.389 0-4.614 2.028-10.056 4.055-13.842 3.697-6.744 11.568-11.95 20.512-11.95z"/><path d="M112.219 68.501h-8.11c-3.816 0-6.32-3.904-5.366-6.743l2.743-8.164 4.293-13.132h-22.54l-6.916 21.06c.12-.237 1.67-5.088-1.193 3.43-2.742 8.518 3.459 18.693 13.715 18.575h32.437c-.239-.119-.477-.237-.716-.473-4.889-3.195-7.751-8.164-8.347-14.553z"/><path d="M55.93 45.55H34.226c-1.312 0-2.504-1.302-2.027-2.604 1.55-4.732 5.128-6.625 8.586-6.625h81.928l4.89-14.907H111.98L119.016 0H96.477l-7.036 21.414h-54.26c-7.037 0-14.073 2.958-19.082 9.82-3.339 4.496-5.366 10.648-5.366 15.853 0 7.809 5.724 11.95 17.888 11.95H48.06c1.43 0 2.385 1.42 2.027 2.602-2.266 6.98-7.752 6.98-8.706 6.98H4.89L0 83.528h41.978c14.668 0 21.942-4.141 26.474-13.014 2.385-4.851 3.816-9.583 3.816-13.96 0-6.981-4.77-11.004-16.338-11.004z"/></g></svg>