<svg viewBox="0 0 220 26" xmlns="http://www.w3.org/2000/svg"><g fill="#FFF" fill-rule="nonzero"><path d="M5.281 18.05c.11 2.292 2.714 3.223 5.208 3.223 2.274 0 4.951-.466 4.951-3.116 0-2.9-3.19-3.044-5.648-3.223C5.098 14.54.367 13.107.367 7.879.367 2.256 5.06 0 10.196 0c4.84 0 9.865 1.898 9.865 7.592h-5.17c-.294-2.041-2.495-2.865-4.695-2.865S5.795 5.802 5.795 7.771c0 2.22 2.237 2.65 4.95 2.937 5.466.43 10.16 1.54 10.16 7.449 0 5.945-5.281 7.736-10.38 7.843C5.356 26 0 23.565 0 18.05h5.281zM23.891 4.831V0h18.914v4.831H36.03V26h-5.29V4.831zM63.42 4.868H53.286v5.274h9.484v4.868h-9.484v5.938H63.71V26H47.783V0H63.42v4.868zM76.21 11.169v14.758h-5.531V0h1.733l14.6 14.758V.11h5.567V26H90.92zM108.984 0c8.104 0 12.462 6.27 12.462 12.908.108 6.638-4.25 13.092-12.462 13.092h-9.436V0h9.436zm-.072 20.948c4.682 0 7.131-3.873 7.131-8.04 0-4.168-2.52-7.93-7.131-7.93h-3.962v15.933h3.962v.037zM130.07 21.722L128.12 26h-5.676v-.731L134.156 0h2.53l11.64 25.232v.731h-5.64l-1.988-4.278h-10.627v.037zm1.772-4.645h7.085l-3.542-8.52-3.543 8.52zM167.684 26V15.01H157.8V26h-5.491V0h5.491v9.92h9.885V0h5.529v26zM184.59 21.021h10.523V26h-15.927V0h5.404zM204.376 18.06c.11 2.29 2.714 3.22 5.208 3.22 2.274 0 4.951-.466 4.951-3.112 0-2.897-3.19-3.04-5.648-3.219-4.694-.393-9.425-1.824-9.425-7.081 0-5.58 4.694-7.868 9.829-7.868 4.84 0 9.865 1.895 9.865 7.582h-5.17c-.294-2.039-2.495-2.861-4.695-2.861s-4.401 1.073-4.401 3.04c0 2.217 2.237 2.646 4.95 2.932 5.466.465 10.16 1.538 10.16 7.475 0 5.937-5.281 7.725-10.38 7.832-5.17 0-10.525-2.432-10.525-7.94h5.281z"/></g></svg>