<svg viewBox="0 0 220 39" xmlns="http://www.w3.org/2000/svg"><g fill="#FFF" fill-rule="nonzero"><path d="M23.023 9.326c-.938-2.12-3.24-3.052-5.372-3.052-2.814 0-4.434 1.102-4.434 2.628 0 1.865 2.985 2.628 6.31 3.73 4.946 1.696 8.698 3.646 8.698 7.97 0 6.528-7.163 11.615-16.202 11.615-5.116 0-11.34-2.458-11.767-7.97l7.163-1.27c.511 2.119 3.581 3.136 5.542 3.136 2.217 0 5.628-.678 5.628-3.306 0-1.95-3.155-2.714-6.48-3.816-3.326-1.102-8.187-3.052-8.187-7.8C3.922 3.307 12.45.51 18.248.51c4.264 0 10.744 1.865 11.853 7.291l-7.078 1.526zM45.79 14.328h-4.263l-1.876 8.224a3.94 3.94 0 0 0-.256 1.441c0 1.442 1.365 1.527 2.558 1.527h1.109l-1.364 5.85c-1.62.084-3.24.17-4.946.17-2.729 0-6.566.084-6.566-3.562 0-1.187.17-2.374.597-4.239l2.132-9.496H29.76l1.108-4.663h3.24l1.535-6.867h8.272L42.38 9.58h4.263l-.852 4.748zM70.434 22.213H53.55c-.085.424-.17.848-.17 1.272 0 2.204 1.62 3.56 3.667 3.56 1.534 0 2.984-.678 3.837-1.865h8.015c-2.728 4.918-7.845 6.868-13.217 6.868-5.713 0-10.659-2.628-10.659-8.563 0-8.224 6.993-14.498 15.179-14.498 6.565 0 10.658 3.73 10.658 9.665 0 1.187-.255 2.713-.426 3.561zm-10.83-8.224c-2.728 0-4.519 1.611-5.2 4.24h8.526c.086-.255.086-.594.086-.933 0-2.12-1.535-3.307-3.411-3.307zM97.039 18.313l-2.985 13.141h-8.442l2.644-11.445a6.42 6.42 0 0 0 .256-1.78c0-1.781-.853-2.629-2.644-2.629-2.728 0-4.178 2.459-4.69 4.748L78.62 31.454h-8.442L75.124 9.75h7.59l-.939 3.9c2.132-2.374 5.628-4.578 8.868-4.578 4.008 0 6.737 1.865 6.737 5.935 0 1.102-.17 2.204-.341 3.306zM123.132 17.974l-3.07 13.48h-8.015l.596-2.628c-2.984 2.29-5.542 3.307-9.294 3.307-3.155 0-6.396-1.696-6.396-5.257 0-2.374 1.45-4.663 3.156-5.85 2.813-1.95 6.821-2.289 11.17-2.798 2.302-.339 4.008-.848 4.008-2.543 0-1.357-1.706-1.611-2.729-1.611-1.62 0-3.155.509-3.752 2.12h-8.1c1.534-6.105 8.185-7.037 13.643-7.037 3.667 0 9.38.254 9.38 5.171-.17 1.102-.341 2.374-.597 3.646zm-12.023 4.409c-2.73.593-5.287 1.102-5.287 2.967 0 1.61 1.364 2.12 2.558 2.12 3.41 0 5.03-2.968 5.457-6.02-.853.424-1.79.678-2.728.933zM152.21 31.37h-23.45l6.821-30.013h9.636l-5.287 23.4h13.814zM168.581 6.359h-8.441l1.279-5.85h8.441l-1.279 5.85zm-5.713 25.01h-8.442l5.031-21.704h8.357l-4.946 21.705zM192.457 18.313l-2.984 13.141h-8.442l2.643-11.445c.086-.594.171-1.187.171-1.78 0-1.781-.853-2.629-2.558-2.629-2.729 0-4.178 2.459-4.69 4.748l-2.558 11.106h-8.442l4.946-21.704h7.589l-.938 3.9c2.132-2.374 5.542-4.578 8.783-4.578 4.007 0 6.736 1.865 6.736 5.935.17 1.102 0 2.204-.256 3.306zM218.72 22.213h-16.883c-.085.424-.17.848-.17 1.272 0 2.204 1.62 3.56 3.666 3.56 1.535 0 2.985-.678 3.923-1.865h8.015c-2.728 4.918-7.845 6.868-13.217 6.868-5.713 0-10.659-2.628-10.659-8.563 0-8.224 6.993-14.498 15.179-14.498 6.566 0 10.659 3.73 10.659 9.665 0 1.187-.256 2.713-.512 3.561zm-10.829-8.224c-2.728 0-4.519 1.611-5.201 4.24h8.527c.085-.255.085-.594.085-.933 0-2.12-1.45-3.307-3.41-3.307zM218.891 36.965H.085v1.526h218.806z"/></g></svg>