<svg viewBox="0 0 160 33" xmlns="http://www.w3.org/2000/svg"><g fill="none" fill-rule="evenodd"><path d="M94.785 20.281c0-1.168-.675-2.819-2.7-2.819h-.878v5.776h.81c2.16 0 2.768-1.513 2.768-2.957zm13.029-1.581c0-.481-.27-1.238-1.215-1.238h-.54v2.613h.473c.607 0 1.282-.344 1.282-1.375zM46.987 8.662s-.675 1.65-.945 2.407H48c-.473-1.032-1.013-2.407-1.013-2.407zm24.372 2.475h1.957c-.472-1.1-1.012-2.406-1.012-2.406s-.675 1.65-.945 2.406zm-7.967 7.769s-.675 1.719-1.012 2.475h1.958a83.505 83.505 0 0 1-.946-2.475zm-15.189 1.306c0 2.132 1.147 3.094 2.295 3.094 1.283 0 2.228-1.031 2.228-2.819 0-1.924-.945-3.093-2.228-3.093-1.35 0-2.295 1.031-2.295 2.819zm88.236.207c0-1.925-.945-3.094-2.228-3.094-1.283 0-2.295 1.031-2.295 2.819 0 2.131 1.147 3.094 2.295 3.094 1.283 0 2.228-1.032 2.228-2.82zm-61.029.894h1.957c-.472-1.1-1.013-2.476-1.013-2.476s-.675 1.788-.945 2.476zM66.295 8.456c0-.481-.27-1.237-1.215-1.237h-.54V9.83h.405c.608 0 1.35-.343 1.35-1.375z"/><path d="M16.675 0H0l8.101 14.162c-.067-.618-.135-1.306-.135-1.993 0-5.707 3.646-10.519 8.71-12.169zm8.641 21.794a10.597 10.597 0 0 1-6.413 2.131c-2.363 0-4.658-.825-6.414-2.131L18.903 33l6.413-11.206z" fill="#FFF"/><path d="M12.422 9.831c0 1.444.27 2.75.81 3.988.068.137.135.343.27.481 1.013 1.856 2.903 3.162 5.13 3.231h.474c2.43-.137 4.321-2.131 4.321-4.675 0-2.543-2.025-4.675-4.59-4.675.067-.068.134-.137.27-.206 1.147-.962 2.565-1.581 4.185-1.581 3.578 0 6.481 2.956 6.481 6.6 0 .344 0 .756-.067 1.1L37.805 0H22.887c-8.439 0-10.464 6.737-10.464 9.831zm27.679-3.094h-2.16c.27.138.405.276.54.482.203.343 2.7 6.462 2.7 6.462s2.363-6.05 2.498-6.462c.068-.207.135-.275.338-.482h-1.215c.27.07.27.207.202.482 0 .068-1.553 4.193-1.553 4.193s-1.62-4.056-1.62-4.125c0-.206 0-.412.27-.55zm13.165 6.326c-1.013 0-1.62-.963-1.755-1.65l.067 1.65c.338.137 1.013.48 1.89.48 1.216 0 2.228-.824 2.228-2.062 0-1.375-.945-1.719-1.823-2.131-.945-.412-1.35-.619-1.35-1.237 0-.413.27-.963 1.013-.963.945 0 1.485.825 1.62 1.306l-.067-1.443c-.473-.276-1.148-.344-1.486-.344-.877 0-2.092.55-2.092 1.856 0 .756.405 1.306 1.282 1.787.878.482 1.756.62 1.756 1.582-.068.481-.338 1.168-1.283 1.168zM56.439 7.7c.067-.138.27-.413.472-.413 0 0 .81-.068 1.553-.068v5.843c0 .207-.067.344-.27.413h1.755a.464.464 0 0 1-.27-.412V7.287c.675 0 1.62.07 1.62.07.203 0 .338.205.473.412V6.737H56.44V7.7zm6.548 5.775h1.756a.464.464 0 0 1-.27-.412v-2.75h.405c.405 0 .607.412.877.824.338.55.743 1.307 1.215 1.925.203.207.473.482.878.482h1.283s-.405-.138-.608-.413c-.337-.412-1.485-2.268-1.485-2.268-.135-.207-.405-.688-1.08-.757.675-.069 1.62-.55 1.62-1.65 0-.687-.473-1.65-2.498-1.65h-2.093c.135.069.27.207.27.413v5.843a.464.464 0 0 1-.27.413zm1.486-6.188h.54c.945 0 1.215.757 1.215 1.238 0 1.031-.675 1.375-1.35 1.375h-.405V7.287zm11.004 5.707c-.203-.344-2.768-6.463-2.768-6.463s-2.566 6.05-2.768 6.463c-.068.206-.203.275-.473.481h1.35c-.27-.137-.337-.275-.202-.481 0-.138.27-.688.54-1.375h2.363c.27.687.54 1.306.54 1.375.068.206 0 .344-.202.481h2.092c-.337-.137-.405-.275-.472-.481zm-4.118-1.857c.337-.756.945-2.406.945-2.406s.54 1.306 1.012 2.406H71.36zM48.878 5.638a.466.466 0 0 0-.473-.482.466.466 0 0 0-.473.482c0 .274.203.48.473.48.27 0 .473-.206.473-.48zm-4.726 7.837h1.35c-.27-.137-.337-.275-.202-.481 0-.138.27-.688.54-1.375h2.363c.27.687.54 1.306.54 1.375.067.206 0 .344-.203.481h2.093c-.338-.137-.405-.275-.473-.481-.202-.344-2.768-6.463-2.768-6.463s-2.565 6.05-2.768 6.463c-.067.206-.202.275-.472.481zm2.835-4.813S47.527 9.97 48 11.07h-1.958l.945-2.407zm-.27-3.024a.466.466 0 0 0-.472-.482.466.466 0 0 0-.473.482c0 .274.203.48.473.48.27 0 .472-.206.472-.48zM38.481 20.35c0 2.131 1.755 3.438 3.646 3.438.81 0 2.16-.276 2.97-.757-.067 0-.135-.206-.135-.412v-1.444c0-.206.135-.344.27-.481h-1.755c.135.069.27.206.27.481v1.719a2.71 2.71 0 0 1-1.215.344c-2.026 0-2.7-1.72-2.7-3.026 0-1.58.944-2.818 2.632-2.818.473 0 1.688.206 2.228 1.581l-.068-1.581c-.742-.344-1.485-.55-2.295-.55-2.565 0-3.848 1.787-3.848 3.506zm16.405-2.406c.068-.138.27-.413.473-.413 0 0 .81-.069 1.552-.069v5.844c0 .206-.067.344-.27.482h1.756c-.135-.07-.27-.207-.27-.482v-5.844c.742 0 1.62.07 1.62.07.202 0 .405.206.472.412v-.963h-5.4v.963h.067zm5.604 5.775h1.35c-.27-.138-.338-.275-.203-.482 0-.137.27-.687.54-1.374h2.43c.27.687.54 1.306.54 1.375.068.206 0 .343-.202.48h2.093c-.338-.137-.405-.274-.473-.48-.202-.413-2.768-6.532-2.768-6.532s-2.565 6.119-2.767 6.532c-.135.206-.27.343-.54.48zm2.902-4.813s.54 1.306 1.013 2.475h-1.958c.27-.756.945-2.475.945-2.475zm5.266-1.512v5.912c0 .206-.135.344-.27.482h4.118l.203-1.17c-.338.55-.675.62-1.755.62-.473 0-.878-.07-1.08-.07v-5.774c0-.206.067-.344.27-.481h-1.756c.203.137.27.274.27.48zm9.249 6.325H80c-.338-.138-.405-.275-.473-.482-.202-.412-2.768-6.53-2.768-6.53s-2.565 6.118-2.767 6.53c-.068.207-.203.276-.473.482h1.35c-.27-.138-.337-.275-.202-.482 0-.137.27-.687.54-1.374h2.43c.27.687.54 1.306.54 1.375.068.206 0 .343-.27.48zm-2.498-2.407c.338-.756 1.013-2.475 1.013-2.475s.54 1.307 1.013 2.476h-2.026zm7.291-4.331h-1.687c.202.138.337.275.472.413.203.206.203.206.203.619v5.293c0 .206-.135.344-.27.482h1.08c-.135-.07-.27-.207-.27-.482v-5.018c0 .068 4.726 5.706 4.726 5.706v-6.6c0-.206.135-.344.27-.481h-1.08c.134.068.27.206.27.48v3.92L82.7 16.98zm6.954 6.738h2.498c2.633 0 3.983-1.788 3.983-3.507 0-.962-.675-3.3-3.848-3.3h-2.633c.135.07.27.207.27.482v5.912a.464.464 0 0 1-.27.413zm1.485-6.257h.878c2.025 0 2.7 1.582 2.7 2.82 0 1.443-.607 2.956-2.835 2.956h-.743v-5.776zm8.777 5.844c-1.013 0-1.62-.962-1.823-1.65l.067 1.719c.338.137 1.013.481 1.89.481 1.216 0 2.296-.825 2.296-2.062 0-1.375-.945-1.719-1.89-2.131-.945-.413-1.35-.688-1.35-1.238 0-.413.27-.963 1.012-.963.945 0 1.485.826 1.62 1.307l-.067-1.444c-.473-.275-1.148-.344-1.485-.344-.878 0-2.16.55-2.16 1.925 0 .757.404 1.306 1.282 1.788.878.481 1.755.619 1.755 1.581.068.344-.202 1.031-1.147 1.031zm4.59.413h1.756c-.135-.069-.27-.207-.27-.482v-2.75h.405c.405 0 .675.413.877.826.338.55.81 1.306 1.215 1.925.203.206.473.48.878.48h1.283s-.473-.137-.608-.412c-.337-.412-1.485-2.268-1.485-2.268-.135-.207-.473-.688-1.08-.757.675-.069 1.688-.618 1.688-1.65 0-.687-.473-1.65-2.498-1.65h-2.093c.135.069.27.206.27.481v5.913c-.068.137-.135.275-.338.344zm1.486-6.257h.54c.945 0 1.215.826 1.215 1.238 0 1.031-.675 1.375-1.35 1.375h-.473v-2.613h.068zM112 23.719h4.186l.202-1.169c-.337.619-.742.619-1.62.619-.473 0-1.08 0-1.283-.069v-2.956h1.485c.135 0 .338.137.338.275v-1.032c-.067.138-.203.276-.338.276h-1.485v-2.27h1.688c.405 0 .608.07.743.345v-.894H112c.135.069.27.206.27.481v5.913c0 .274-.135.412-.27.48zm9.654-6.325c.473 0 1.688.206 2.228 1.581l-.068-1.581c-.742-.344-1.485-.55-2.295-.55-2.498 0-3.78 1.787-3.78 3.506 0 2.131 1.755 3.438 3.645 3.438.81 0 2.16-.276 2.97-.757-.067 0-.135-.206-.135-.412v-1.444c0-.206.135-.344.27-.481h-1.755c.135.069.27.206.27.481v1.719a2.71 2.71 0 0 1-1.215.344c-2.025 0-2.7-1.72-2.7-3.026 0-1.58.945-2.818 2.565-2.818zm5.063 6.325h1.756c-.135-.069-.27-.207-.27-.482v-5.912c0-.206.067-.344.27-.481h-1.756c.135.069.27.206.27.481v5.913c0 .274-.135.412-.27.48zm11.072-3.369c0-2.269-1.89-3.506-3.578-3.506-2.363 0-3.713 1.718-3.713 3.437-.068 2.063 1.62 3.507 3.578 3.575 1.823 0 3.713-1.169 3.713-3.506zm-5.873-.138c0-1.787 1.012-2.818 2.295-2.818s2.295 1.169 2.228 3.094c0 1.787-.945 2.818-2.228 2.818-1.148-.069-2.295-1.031-2.295-3.094zm9.046-3.231h-1.688c.203.138.338.275.473.413.202.206.202.206.202.619v5.293c0 .206-.135.344-.27.482h1.08c-.135-.07-.27-.207-.27-.482v-5.018c0 .068 4.726 5.706 4.726 5.706v-6.6c0-.206.135-.344.27-.481h-1.08c.135.068.27.206.27.48v3.92l-3.713-4.332zm6.684 6.738h4.185l.203-1.169c-.338.619-.743.619-1.62.619-.473 0-1.08 0-1.283-.069v-2.956h1.485c.135 0 .338.137.338.275v-1.032c-.068.138-.203.276-.338.276h-1.418v-2.27h1.688c.405 0 .608.07.743.345v-.894h-3.916c.135.069.27.206.27.481v5.913c-.067.274-.135.412-.337.48zm11.274-6.325v3.919l-3.646-4.4h-1.688c.203.137.338.274.473.412.203.206.203.206.203.619v5.294c0 .206-.135.343-.27.48h1.08c-.135-.068-.27-.206-.27-.48v-5.02c0 .07 4.725 5.707 4.725 5.707v-6.6c0-.206.135-.344.27-.481h-1.147c.135.206.27.343.27.55zM46.785 20.281c-.068 2.063 1.62 3.507 3.578 3.575 1.755 0 3.645-1.169 3.713-3.437 0-2.269-1.89-3.506-3.578-3.506-2.295-.07-3.646 1.65-3.713 3.368zm5.94.138c0 1.787-.944 2.819-2.227 2.819-1.148 0-2.295-.963-2.295-3.094 0-1.788 1.012-2.819 2.295-2.819 1.283.069 2.228 1.169 2.228 3.094zm-1.687-4.606c0 .274.203.48.473.48.27 0 .472-.206.472-.48a.466.466 0 0 0-.472-.482.466.466 0 0 0-.473.482zm-1.148 0a.466.466 0 0 0-.472-.482.466.466 0 0 0-.473.482c0 .274.203.48.473.48.27 0 .472-.137.472-.48z" fill="#FFF"/></g></svg>