<svg viewBox="0 0 220 45" xmlns="http://www.w3.org/2000/svg" xmlns:xlink="http://www.w3.org/1999/xlink"><defs><path id="a" d="M.584.356h20.16V45H.585z"/><path id="c" d="M.476.356h20.16V45H.477z"/><path id="e" d="M.52.356h19.535V45H.519z"/><path id="g" d="M.316.356h19.285V45H.316z"/></defs><g fill="none" fill-rule="evenodd"><path d="M0-51h220V96H0z"/><path fill="#FFF" d="M27.984 0L23.68 33.718 19.374 0h-4.749L10.32 33.718 6.015 0H0l6.71 45h6.586l3.673-26.073L20.704 45h6.584L34 0zM50.806 0v19.115h-7.612V0H37v45h6.194V24.568h7.612V45H57V0z"/><g transform="translate(61)"><mask id="b" fill="#fff"><use xlink:href="#a"/></mask><path d="M9.287 39.59h3.067c1.587 0 2.38-.87 2.38-2.612v-28.6c0-1.741-.898-2.613-2.691-2.613H9.224c-1.753 0-2.63.872-2.63 2.612v28.601c0 1.741.897 2.613 2.693 2.613zM7.847 45C3.004 45 .584 42.472.584 37.414V8.004c0-5.098 2.399-7.648 7.2-7.648h5.76c4.8 0 7.2 2.55 7.2 7.648v29.41c0 5.058-2.42 7.586-7.262 7.586H7.847z" fill="#FFF" mask="url(#b)"/></g><path fill="#FFF" d="M97.023 45h-6.011V28.585L83.624.356h5.948l4.509 19.4h.187l4.07-19.4h5.949l-7.264 28.23z"/><g transform="translate(106.315)"><mask id="d" fill="#fff"><use xlink:href="#c"/></mask><path d="M9.179 39.59h3.067c1.587 0 2.38-.87 2.38-2.612v-28.6c0-1.741-.898-2.613-2.692-2.613H9.117c-1.754 0-2.631.872-2.631 2.612v28.601c0 1.741.897 2.613 2.693 2.613zM7.739 45C2.896 45 .475 42.472.475 37.414V8.004c0-5.098 2.399-7.648 7.2-7.648h5.76c4.8 0 7.2 2.55 7.2 7.648v29.41c0 5.058-2.42 7.586-7.262 7.586H7.738z" fill="#FFF" mask="url(#d)"/></g><g transform="translate(131.755)"><mask id="f" fill="#fff"><use xlink:href="#e"/></mask><path d="M20.055.356v36.188c0 5.638-2.422 8.456-7.264 8.456H7.72c-4.801 0-7.2-2.839-7.2-8.518V.356h6.01v36.312c0 1.95.877 2.923 2.63 2.923h2.442c1.628 0 2.441-.974 2.441-2.923V.356h6.012z" fill="#FFF" mask="url(#f)"/></g><path d="M170.03 23.238V8.378c0-1.741-.877-2.613-2.631-2.613h-1.627c-1.754 0-2.63.872-2.63 2.613v14.86h6.887zM163.141 45h-6.011V8.004c0-5.098 2.4-7.647 7.2-7.647h4.508c4.8 0 7.201 2.549 7.201 7.647V45h-6.01V28.647h-6.888V45z" fill="#FFF"/><g transform="translate(181.045)"><mask id="h" fill="#fff"><use xlink:href="#g"/></mask><path d="M6.328 21.87h3.944c1.795 0 2.692-1.078 2.692-3.234V9c0-2.155-.897-3.233-2.692-3.233H6.328V21.87zM.316.356h11.772c4.591 0 6.887 2.55 6.887 7.649v11.004c0 3.897-1.19 6.364-3.568 7.4L19.6 45h-5.698L9.96 26.968H6.328V45H.316V.356z" fill="#FFF" mask="url(#h)"/></g><path fill="#FFF" d="M205.029 45V.356h14.902v5.41h-8.89V19.32h7.888v5.408h-7.888v14.862h8.89V45z"/></g></svg>