<svg width="166" height="50" xmlns="http://www.w3.org/2000/svg">
  <g fill-rule="nonzero" fill="none">
    <path d="M159.455 49.465H5.987c-3.188 0-5.784-2.607-5.784-5.798V6.254A5.794 5.794 0 0 1 5.987.465h153.468c3.188 0 5.875 2.597 5.875 5.79v37.412c0 3.19-2.687 5.798-5.875 5.798z" fill="#A6A6A6"/>
    <path d="M164.146 43.668a4.688 4.688 0 0 1-4.69 4.692H5.987a4.694 4.694 0 0 1-4.695-4.692V6.253a4.7 4.7 0 0 1 4.695-4.698h153.468a4.693 4.693 0 0 1 4.69 4.698v37.415z" fill="#000"/>
    <g fill="#FFF">
      <path d="M37.055 24.7c-.036-3.948 3.227-5.869 3.377-5.958-1.849-2.699-4.713-3.067-5.72-3.097-2.406-.253-4.74 1.442-5.965 1.442-1.25 0-3.138-1.417-5.172-1.376-2.617.04-5.066 1.559-6.41 3.915-2.77 4.806-.704 11.868 1.952 15.753 1.328 1.902 2.88 4.026 4.912 3.951 1.988-.082 2.73-1.269 5.129-1.269 2.376 0 3.074 1.27 5.146 1.222 2.133-.035 3.476-1.911 4.758-3.831 1.535-2.18 2.151-4.328 2.176-4.438-.05-.017-4.143-1.582-4.183-6.314zM33.14 13.09c1.07-1.339 1.8-3.16 1.598-5.01-1.547.07-3.482 1.073-4.597 2.382-.986 1.154-1.866 3.046-1.639 4.824 1.738.13 3.523-.878 4.638-2.196z"/>
    </g>
    <g fill="#FFF">
      <path d="M65.82 39.057h-2.778L61.52 34.27h-5.289l-1.45 4.788h-2.704l5.24-16.302h3.237l5.266 16.302zm-4.758-6.797l-1.377-4.257c-.145-.435-.418-1.46-.82-3.071h-.05c-.16.693-.418 1.717-.772 3.07L56.69 32.26h4.37zM79.295 33.035c0 2-.54 3.58-1.618 4.74-.966 1.032-2.166 1.548-3.599 1.548-1.546 0-2.656-.556-3.333-1.668h-.049v6.192H68.09V31.172c0-1.257-.033-2.547-.097-3.87h2.293l.146 1.863h.049c.87-1.403 2.19-2.104 3.96-2.104 1.385 0 2.541.547 3.466 1.644.927 1.097 1.39 2.54 1.39 4.33zm-2.657.096c0-1.144-.256-2.088-.773-2.83-.563-.774-1.32-1.161-2.27-1.161-.643 0-1.228.215-1.75.64-.524.43-.866.989-1.026 1.682-.081.324-.121.588-.121.796v1.96c0 .856.261 1.577.785 2.166.523.59 1.203.883 2.04.883.982 0 1.747-.38 2.294-1.136.547-.759.821-1.758.821-3zM92.795 33.035c0 2-.54 3.58-1.62 4.74-.964 1.032-2.164 1.548-3.597 1.548-1.546 0-2.656-.556-3.331-1.668h-.05v6.192H81.59V31.172c0-1.257-.033-2.547-.097-3.87h2.294l.145 1.863h.05c.868-1.403 2.187-2.104 3.96-2.104 1.383 0 2.539.547 3.466 1.644.924 1.097 1.387 2.54 1.387 4.33zm-2.656.096c0-1.144-.259-2.088-.775-2.83-.564-.774-1.318-1.161-2.269-1.161-.644 0-1.228.215-1.751.64-.524.43-.865.989-1.025 1.682-.08.324-.121.588-.121.796v1.96c0 .856.261 1.577.782 2.166.524.588 1.204.883 2.043.883.982 0 1.747-.38 2.294-1.136.548-.759.822-1.758.822-3zM107.889 34.486c0 1.386-.48 2.514-1.446 3.385-1.06.952-2.537 1.427-4.434 1.427-1.751 0-3.155-.338-4.218-1.015l.604-2.177a7.14 7.14 0 0 0 3.77 1.041c.982 0 1.746-.223 2.296-.666.546-.443.819-1.039.819-1.781 0-.662-.225-1.219-.676-1.671-.45-.452-1.2-.872-2.246-1.26-2.85-1.065-4.274-2.624-4.274-4.675 0-1.34.5-2.439 1.499-3.294.995-.856 2.324-1.284 3.985-1.284 1.48 0 2.711.259 3.694.774l-.652 2.13c-.918-.5-1.955-.75-3.116-.75-.917 0-1.634.226-2.148.677a1.937 1.937 0 0 0-.652 1.476c0 .645.249 1.177.748 1.596.434.387 1.223.806 2.368 1.258 1.4.565 2.429 1.225 3.09 1.982.66.755.989 1.7.989 2.827zM116.511 29.262h-2.874v5.707c0 1.452.506 2.177 1.521 2.177.466 0 .853-.04 1.159-.121l.072 1.983c-.514.192-1.19.29-2.028.29-1.03 0-1.835-.316-2.416-.944-.579-.63-.87-1.686-.87-3.169V29.26h-1.712V27.3h1.712v-2.153l2.562-.774V27.3h2.874v1.962zM129.48 33.083c0 1.807-.516 3.29-1.546 4.45-1.08 1.195-2.513 1.79-4.3 1.79-1.723 0-3.094-.572-4.116-1.716-1.023-1.144-1.534-2.589-1.534-4.33 0-1.82.526-3.313 1.581-4.473 1.053-1.161 2.475-1.742 4.262-1.742 1.722 0 3.108.572 4.154 1.718 1 1.11 1.5 2.545 1.5 4.303zm-2.705.084c0-1.084-.232-2.013-.7-2.789-.547-.938-1.328-1.406-2.341-1.406-1.048 0-1.845.469-2.391 1.406-.469.777-.7 1.721-.7 2.838 0 1.085.231 2.014.7 2.789.563.938 1.351 1.406 2.368 1.406.995 0 1.777-.478 2.34-1.431.481-.79.724-1.73.724-2.813zM137.957 29.6a4.522 4.522 0 0 0-.822-.073c-.918 0-1.627.346-2.126 1.041-.434.613-.652 1.387-.652 2.321v6.168h-2.607l.025-8.053c0-1.355-.033-2.588-.098-3.7h2.271l.096 2.249h.072c.275-.773.71-1.396 1.304-1.862.581-.42 1.208-.63 1.885-.63.24 0 .459.017.652.048v2.49zM149.62 32.624c0 .467-.03.862-.096 1.184h-7.823c.03 1.161.408 2.05 1.135 2.662.66.548 1.512.822 2.559.822 1.158 0 2.215-.185 3.165-.556l.409 1.813c-1.11.485-2.422.726-3.935.726-1.82 0-3.249-.536-4.288-1.608-1.038-1.072-1.557-2.511-1.557-4.317 0-1.773.483-3.249 1.45-4.426 1.013-1.257 2.382-1.885 4.104-1.885 1.692 0 2.972.628 3.842 1.885.688.998 1.035 2.233 1.035 3.7zm-2.487-.678c.017-.774-.153-1.443-.506-2.008-.452-.726-1.145-1.089-2.079-1.089-.852 0-1.546.354-2.075 1.065-.435.565-.693 1.242-.772 2.03h5.432v.002z"/>
    </g>
    <g fill="#FFF">
      <path d="M60.2 12.726c0 1.442-.433 2.527-1.295 3.256-.799.673-1.934 1.01-3.404 1.01a15.76 15.76 0 0 1-1.875-.096V9.018c.681-.11 1.415-.167 2.208-.167 1.4 0 2.456.305 3.168.916.797.69 1.197 1.675 1.197 2.96zm-1.352.036c0-.935-.247-1.652-.742-2.151-.494-.499-1.215-.749-2.166-.749-.404 0-.747.027-1.032.083v5.99c.158.024.446.035.866.035.98 0 1.738-.273 2.271-.82.533-.546.803-1.342.803-2.388zM67.366 13.985c0 .888-.254 1.616-.76 2.187-.53.587-1.234.88-2.112.88-.847 0-1.52-.281-2.023-.844-.502-.563-.753-1.272-.753-2.127 0-.894.258-1.628.777-2.198.519-.57 1.216-.855 2.094-.855.847 0 1.527.28 2.042.843.489.546.735 1.252.735 2.114zm-1.33.042c0-.533-.115-.99-.344-1.37-.269-.461-.652-.692-1.15-.692-.514 0-.906.23-1.175.691-.23.381-.344.846-.344 1.394 0 .533.115.99.344 1.371.278.46.664.691 1.163.691.49 0 .874-.234 1.15-.703.237-.389.356-.85.356-1.382zM76.975 11.146L75.17 16.92h-1.175l-.747-2.507a18.79 18.79 0 0 1-.463-1.866h-.024a13.675 13.675 0 0 1-.463 1.866l-.794 2.507h-1.188l-1.696-5.774h1.317l.652 2.745c.158.65.287 1.268.391 1.853h.024c.095-.482.253-1.097.475-1.84l.819-2.757h1.044l.784 2.698c.19.657.344 1.29.463 1.9h.035c.087-.593.218-1.227.392-1.9l.7-2.698h1.258v-.001zM83.62 16.92h-1.282v-3.307c0-1.02-.386-1.529-1.162-1.529-.38 0-.687.14-.926.42-.236.28-.355.612-.355.99v3.425h-1.282v-4.123c0-.507-.016-1.057-.047-1.653h1.127l.06.903h.035c.15-.28.372-.512.664-.697a2.164 2.164 0 0 1 1.162-.324c.538 0 .986.174 1.342.523.443.427.664 1.065.664 1.913v3.46zM87.155 16.92h-1.28V8.496h1.28zM94.702 13.985c0 .888-.253 1.616-.76 2.187-.53.587-1.235.88-2.112.88-.848 0-1.521-.281-2.023-.844-.501-.563-.752-1.272-.752-2.127 0-.894.258-1.628.776-2.198.52-.57 1.216-.855 2.093-.855.848 0 1.527.28 2.043.843.49.546.735 1.252.735 2.114zm-1.33.042c0-.533-.116-.99-.344-1.37-.268-.461-.652-.692-1.149-.692-.516 0-.908.23-1.175.691-.23.381-.344.846-.344 1.394 0 .533.115.99.344 1.371.277.46.664.691 1.163.691.49 0 .872-.234 1.148-.703.239-.389.356-.85.356-1.382zM100.906 16.92h-1.151l-.095-.665h-.036c-.394.53-.955.797-1.684.797-.544 0-.985-.176-1.316-.524-.301-.316-.452-.709-.452-1.176 0-.705.294-1.243.885-1.615.59-.373 1.419-.555 2.486-.547v-.107c0-.761-.398-1.14-1.197-1.14-.569 0-1.07.142-1.503.427l-.26-.843c.535-.332 1.197-.499 1.977-.499 1.507 0 2.263.797 2.263 2.389v2.127c0 .577.028 1.036.083 1.376zm-1.33-1.984v-.89c-1.415-.025-2.122.363-2.122 1.163 0 .301.081.527.246.678.165.15.376.225.626.225.282 0 .545-.09.784-.267a1.094 1.094 0 0 0 .465-.909zM108.19 16.92h-1.138l-.06-.927h-.035c-.363.706-.982 1.059-1.852 1.059-.695 0-1.273-.274-1.732-.82-.459-.546-.687-1.256-.687-2.127 0-.934.248-1.691.747-2.27.483-.538 1.075-.808 1.78-.808.774 0 1.316.261 1.624.784h.025V8.496h1.283v6.869c0 .562.014 1.08.045 1.555zm-1.328-2.435v-.963a1.463 1.463 0 0 0-.499-1.182 1.259 1.259 0 0 0-.858-.315c-.478 0-.852.19-1.128.571-.272.381-.41.868-.41 1.462 0 .57.13 1.034.393 1.39.278.38.652.57 1.12.57.421 0 .758-.158 1.013-.476.247-.292.369-.645.369-1.057zM119.153 13.985c0 .888-.253 1.616-.76 2.187-.53.587-1.232.88-2.112.88-.845 0-1.519-.281-2.023-.844-.501-.563-.752-1.272-.752-2.127 0-.894.258-1.628.776-2.198.52-.57 1.216-.855 2.096-.855.845 0 1.526.28 2.04.843.49.546.735 1.252.735 2.114zm-1.328.042c0-.533-.115-.99-.344-1.37-.27-.461-.652-.692-1.15-.692-.515 0-.906.23-1.176.691-.23.381-.344.846-.344 1.394 0 .533.115.99.344 1.371.277.46.664.691 1.163.691.49 0 .874-.234 1.15-.703.237-.389.357-.85.357-1.382zM126.046 16.92h-1.281v-3.307c0-1.02-.387-1.529-1.163-1.529-.38 0-.688.14-.925.42-.237.28-.356.612-.356.99v3.425h-1.283v-4.123c0-.507-.015-1.057-.045-1.653h1.125l.06.903h.035c.15-.28.374-.512.665-.697a2.168 2.168 0 0 1 1.163-.324c.537 0 .985.174 1.34.523.444.427.665 1.065.665 1.913v3.46zM134.673 12.107h-1.412v2.806c0 .713.25 1.07.747 1.07.23 0 .421-.02.572-.06l.033.973c-.254.095-.586.143-.996.143-.506 0-.9-.154-1.185-.463-.286-.308-.428-.828-.428-1.557v-2.912h-.843v-.961h.843v-1.059l1.256-.38v1.438h1.411v.962h.002zM141.459 16.92h-1.283v-3.283c0-1.035-.387-1.553-1.161-1.553-.595 0-1 .3-1.223.9-.038.127-.06.281-.06.462v3.473h-1.28V8.496h1.28v3.48h.024c.404-.633.982-.949 1.732-.949.531 0 .97.174 1.319.523.434.435.652 1.082.652 1.937v3.433zM148.459 13.76c0 .23-.017.424-.048.582h-3.844c.017.57.2 1.006.556 1.307.326.27.745.404 1.259.404.569 0 1.087-.09 1.555-.273l.2.892c-.547.237-1.19.356-1.935.356-.893 0-1.596-.263-2.105-.79-.511-.527-.764-1.233-.764-2.12 0-.871.236-1.596.711-2.175.497-.617 1.169-.926 2.016-.926.83 0 1.46.309 1.885.926.344.49.514 1.097.514 1.817zm-1.223-.332a1.73 1.73 0 0 0-.249-.986c-.222-.357-.561-.535-1.02-.535-.418 0-.76.174-1.02.523-.213.278-.339.61-.38.998h2.669z"/>
    </g>
  </g>
</svg>
