<svg width="20" height="20" xmlns="http://www.w3.org/2000/svg"><g fill-rule="nonzero" fill="none"><path d="M9.992 19.769c5.51 0 9.975-4.403 9.975-9.834C19.967 4.503 15.5.1 9.992.1 4.484.1.018 4.503.018 9.935c0 5.43 4.466 9.834 9.974 9.834z" fill="#F0F0F0"/><path d="M9.558 9.935h10.408c0-.888-.12-1.748-.343-2.566H9.558v2.566zM9.558 4.804h8.944a9.933 9.933 0 00-2.301-2.566H9.558v2.566zM9.992 19.769c2.347 0 4.505-.8 6.209-2.138H3.783a10.02 10.02 0 006.209 2.138zM1.482 15.065h17.02c.49-.788.871-1.65 1.121-2.565H.361c.25.915.63 1.777 1.12 2.565z" fill="#D80027"/><path d="M4.638 1.636h.91l-.846.606.323.98-.846-.606-.845.606.279-.847a9.938 9.938 0 00-1.935 2.126h.291l-.538.386a9.749 9.749 0 00-.241.42l.257.78-.48-.344c-.119.249-.228.504-.326.763l.283.86H1.97l-.845.605.323.98L.6 8.346l-.506.362c-.05.402-.077.811-.077 1.227h9.974V.1c-1.97 0-3.807.563-5.354 1.535zm.387 7.315l-.846-.605-.845.605.323-.98-.846-.605h1.045l.323-.98.323.98h1.045l-.845.605.323.98zm-.323-3.844l.323.98-.846-.606-.845.606.323-.98L2.81 4.5h1.045l.323-.98.323.98h1.045l-.845.606zm3.9 3.844l-.845-.605-.845.605.323-.98-.846-.605h1.045l.323-.98.323.98h1.045l-.846.605.323.98zM8.28 5.107l.323.98-.845-.606-.845.606.323-.98-.846-.606h1.045l.323-.98.323.98h1.045l-.846.606zm0-2.865l.323.98-.845-.606-.845.606.323-.98-.846-.606h1.045l.323-.98.323.98h1.045l-.846.606z" fill="#0052B4"/></g></svg>