<svg width="20" height="20" xmlns="http://www.w3.org/2000/svg"><g fill-rule="nonzero" fill="none"><path d="M9.956 19.925c5.42 0 9.813-4.393 9.813-9.813 0-5.42-4.393-9.813-9.813-9.813-5.42 0-9.813 4.393-9.813 9.813 0 5.42 4.393 9.813 9.813 9.813z" fill="#F0F0F0"/><path d="M19.769 10.112a9.814 9.814 0 00-5.547-8.84v17.68a9.814 9.814 0 005.547-8.84zM.143 10.112a9.814 9.814 0 005.547 8.84V1.271a9.814 9.814 0 00-5.547 8.84zM11.663 11.392l1.706-.853-.853-.427v-.853l-1.706.853.853-1.707h-.853l-.854-1.28-.853 1.28H8.25l.853 1.707-1.707-.853v.853l-.853.427 1.707.853-.427.853H9.53v1.28h.853v-1.28h1.707z" fill="#D80027"/></g></svg>