<svg width="20" height="20" xmlns="http://www.w3.org/2000/svg"><g fill-rule="nonzero" fill="none"><path d="M9.936 19.996c5.487 0 9.935-4.448 9.935-9.936 0-5.487-4.448-9.935-9.935-9.935S0 4.573 0 10.06c0 5.488 4.449 9.936 9.936 9.936z" fill="#F0F0F0"/><path d="M19.253 13.516c.4-1.076.618-2.24.618-3.456 0-1.215-.218-2.379-.618-3.455H.618A9.914 9.914 0 000 10.06c0 1.216.219 2.38.618 3.456l9.318.864 9.317-.864z" fill="#0052B4"/><path d="M9.936 19.996a9.939 9.939 0 009.317-6.48H.618a9.939 9.939 0 009.318 6.48z" fill="#D80027"/></g></svg>