<svg width="20" height="20" xmlns="http://www.w3.org/2000/svg"><g fill-rule="nonzero" fill="none"><path d="M10.106 19.881c5.434 0 9.838-4.405 9.838-9.838 0-5.434-4.404-9.84-9.838-9.84-5.434 0-9.84 4.406-9.84 9.84 0 5.433 4.406 9.838 9.84 9.838z" fill="#FFDA44"/><path d="M7.967 8.76H19.86C19.232 3.931 15.105.203 10.106.203c-.735 0-1.45.081-2.14.234v8.321zM5.4 8.76V1.4A9.845 9.845 0 00.35 8.76H5.4zM5.4 11.326H.35a9.845 9.845 0 005.05 7.359v-7.36zM7.967 11.326v8.321a9.875 9.875 0 002.139.234c4.999 0 9.126-3.728 9.755-8.555H7.967z" fill="#0052B4"/></g></svg>