<svg width="167" height="51" xmlns="http://www.w3.org/2000/svg">
  <defs>
    <linearGradient x1="91.488%" y1="4.948%" x2="-38.352%" y2="71.908%" id="a">
      <stop stop-color="#00A0FF" offset="0%"/>
      <stop stop-color="#00A1FF" offset="1%"/>
      <stop stop-color="#00BEFF" offset="26%"/>
      <stop stop-color="#00D2FF" offset="51%"/>
      <stop stop-color="#00DFFF" offset="76%"/>
      <stop stop-color="#00E3FF" offset="100%"/>
    </linearGradient>
    <linearGradient x1="107.684%" y1="50%" x2="-130.639%" y2="50%" id="b">
      <stop stop-color="#FFE000" offset="0%"/>
      <stop stop-color="#FFBD00" offset="41%"/>
      <stop stop-color="orange" offset="78%"/>
      <stop stop-color="#FF9C00" offset="100%"/>
    </linearGradient>
    <linearGradient x1="86.219%" y1="17.877%" x2="-50.15%" y2="194.702%" id="c">
      <stop stop-color="#FF3A44" offset="0%"/>
      <stop stop-color="#C31162" offset="100%"/>
    </linearGradient>
    <linearGradient x1="-18.754%" y1="-54.052%" x2="42.121%" y2="24.918%" id="d">
      <stop stop-color="#32A071" offset="0%"/>
      <stop stop-color="#2DA771" offset="7%"/>
      <stop stop-color="#15CF74" offset="48%"/>
      <stop stop-color="#06E775" offset="80%"/>
      <stop stop-color="#00F076" offset="100%"/>
    </linearGradient>
  </defs>
  <g fill-rule="nonzero" fill="none">
    <rect fill="#000" x=".626" y=".809" width="166.083" height="49.283" rx="6.158"/>
    <path d="M160.557 1.795a5.17 5.17 0 0 1 5.167 5.174v36.962a5.17 5.17 0 0 1-5.167 5.175H6.777a5.163 5.163 0 0 1-3.654-1.515 5.179 5.179 0 0 1-1.513-3.66V6.97c0-1.372.544-2.688 1.513-3.659a5.163 5.163 0 0 1 3.654-1.515h153.78zm0-.986H6.777a6.147 6.147 0 0 0-4.35 1.804A6.165 6.165 0 0 0 .626 6.97v36.962c0 1.634.648 3.201 1.801 4.357a6.147 6.147 0 0 0 4.35 1.804h153.78a6.156 6.156 0 0 0 6.151-6.16V6.968a6.156 6.156 0 0 0-6.151-6.16z" fill="#A6A6A6"/>
    <path d="M61.816 13.735a3.09 3.09 0 0 1-.854 2.279 3.309 3.309 0 0 1-2.503 1.014 3.584 3.584 0 0 1-3.286-2.223 3.593 3.593 0 0 1 .772-3.896 3.41 3.41 0 0 1 2.514-1.026c.481-.001.957.096 1.4.285a2.81 2.81 0 0 1 1.07.764l-.604.604a2.274 2.274 0 0 0-1.866-.81 2.638 2.638 0 0 0-2.65 2.735 2.69 2.69 0 0 0 1.618 2.506c.996.432 2.152.22 2.932-.534.35-.38.552-.874.57-1.39h-2.47v-.82h3.311c.03.168.046.34.046.512zM67.027 10.886h-3.072v2.165h2.799v.82h-2.8v2.166h3.073v.843h-3.982v-6.837h3.982zM70.76 16.88h-.877v-5.994h-1.912v-.843h4.745v.843H70.76zM76.061 16.88v-6.837h.877v6.837zM80.829 16.88h-.876v-5.994H78.04v-.843h4.688v.843h-1.9zM91.615 15.991a3.546 3.546 0 0 1-5.006 0 3.696 3.696 0 0 1 0-5.07 3.525 3.525 0 0 1 5.006 0 3.685 3.685 0 0 1 0 5.07zm-4.357-.57a2.626 2.626 0 0 0 3.709 0 2.92 2.92 0 0 0 0-3.92 2.626 2.626 0 0 0-3.71 0 2.92 2.92 0 0 0 0 3.92zM93.857 16.88v-6.837h1.07l3.322 5.321v-5.321h.865v6.837h-.91l-3.47-5.572v5.572z" stroke="#FFF" stroke-width=".522" fill="#FFF"/>
    <path d="M85.392 26.85a4.84 4.84 0 0 0-4.813 4.859 4.84 4.84 0 0 0 4.843 4.828 4.84 4.84 0 0 0 4.828-4.843 4.778 4.778 0 0 0-1.404-3.453 4.764 4.764 0 0 0-3.454-1.39zm0 7.784a2.935 2.935 0 0 1-2.854-1.666 2.943 2.943 0 0 1 .5-3.27 2.933 2.933 0 0 1 3.22-.734 2.94 2.94 0 0 1 1.864 2.73 2.806 2.806 0 0 1-.746 2.047 2.797 2.797 0 0 1-1.984.893zM74.798 26.85a4.84 4.84 0 0 0-4.824 4.85 4.84 4.84 0 0 0 4.84 4.836 4.84 4.84 0 0 0 4.832-4.843 4.778 4.778 0 0 0-1.404-3.453 4.764 4.764 0 0 0-3.455-1.39h.011zm0 7.783a2.935 2.935 0 0 1-2.86-1.657 2.943 2.943 0 0 1 .49-3.273 2.933 2.933 0 0 1 3.222-.74 2.94 2.94 0 0 1 1.868 2.73 2.806 2.806 0 0 1-.746 2.047 2.797 2.797 0 0 1-1.985.893h.011zm-12.618-6.29v2.05h4.915a4.3 4.3 0 0 1-1.138 2.588 5.025 5.025 0 0 1-3.788 1.504 5.466 5.466 0 0 1-5.462-5.47c0-3.02 2.445-5.47 5.462-5.47a5.23 5.23 0 0 1 3.72 1.47l1.445-1.447a7.152 7.152 0 0 0-5.154-2.13 7.518 7.518 0 0 0-6.757 3.675 7.542 7.542 0 0 0 0 7.701 7.518 7.518 0 0 0 6.757 3.676c1.97.09 3.883-.68 5.245-2.108a6.843 6.843 0 0 0 1.775-4.809 6.699 6.699 0 0 0-.113-1.287H62.18v.057zm51.555 1.595a4.552 4.552 0 0 0-4.142-3.088 4.548 4.548 0 0 0-3.323 1.434 4.562 4.562 0 0 0-1.228 3.409 4.744 4.744 0 0 0 1.373 3.443 4.73 4.73 0 0 0 3.428 1.4 4.811 4.811 0 0 0 4.028-2.142l-1.65-1.14a2.764 2.764 0 0 1-2.378 1.345 2.457 2.457 0 0 1-2.343-1.47l6.474-2.678-.24-.513zm-6.6 1.618a2.658 2.658 0 0 1 2.526-2.826c.75-.05 1.458.354 1.798 1.026l-4.324 1.8zm-5.256 4.695h2.127V22.008h-2.127v14.244zm-3.482-8.319h-.08a3.411 3.411 0 0 0-2.548-1.14 4.851 4.851 0 0 0-4.613 4.85c0 2.59 2.03 4.723 4.613 4.848.976.017 1.909-.4 2.548-1.14h.068v.787c0 1.857-.99 2.849-2.582 2.849a2.674 2.674 0 0 1-2.435-1.72l-1.855.774a4.608 4.608 0 0 0 4.29 2.86c2.491 0 4.55-1.47 4.55-5.048v-8.717h-1.956v.797zm-2.435 6.7a2.95 2.95 0 0 1-2.688-2.94 2.95 2.95 0 0 1 2.688-2.94 2.737 2.737 0 0 1 2.583 2.94 2.715 2.715 0 0 1-2.594 2.94h.011zm27.74-12.625h-5.086v14.244h2.128v-5.401h2.97a4.424 4.424 0 0 0 4.093-2.12c.861-1.418.859-3.199-.006-4.615a4.424 4.424 0 0 0-4.099-2.108zm0 6.837h-2.97v-4.854h3.016a2.437 2.437 0 0 1 2.435 2.438 2.437 2.437 0 0 1-2.435 2.439l-.046-.023zm13.12-2.051a3.981 3.981 0 0 0-3.79 2.176l1.89.787a2.013 2.013 0 0 1 1.934-1.049 2.046 2.046 0 0 1 2.275 1.835v.148a4.694 4.694 0 0 0-2.219-.547c-2.036 0-4.096 1.14-4.096 3.202.04.889.439 1.723 1.103 2.313.664.59 1.539.887 2.424.821a2.991 2.991 0 0 0 2.731-1.367h.068v1.14h2.048V30.77c0-2.496-1.888-3.943-4.312-3.943l-.057-.034zm-.262 7.806a1.48 1.48 0 0 1-1.662-1.208c0-1.14 1.207-1.516 2.276-1.516a3.773 3.773 0 0 1 1.934.479 2.573 2.573 0 0 1-2.491 2.279l-.057-.034zm12.095-7.464l-2.435 6.176h-.068l-2.526-6.176h-2.276l3.789 8.637-2.162 4.798h2.219l5.826-13.435h-2.367zm-19.127 9.116h2.128V22.008h-2.128v14.244z" fill="#FFF"/>
    <path d="M19.739 10.658a2.281 2.281 0 0 0-.523 1.596V37.46c-.035.579.152 1.15.523 1.595l.08.08 14.097-14.107v-.342L19.82 10.579l-.08.08z" fill="url(#a)"/>
    <path d="M38.581 29.734l-4.665-4.706v-.342l4.665-4.706.103.057 5.587 3.179c1.593.9 1.593 2.382 0 3.293l-5.564 3.168-.126.057z" fill="url(#b)"/>
    <path d="M38.718 29.666l-4.802-4.81-14.177 14.2c.67.589 1.664.618 2.367.068l16.623-9.458" fill="url(#c)"/>
    <path d="M38.718 20.048L22.094 10.59a1.853 1.853 0 0 0-2.366.068l14.188 14.199 4.802-4.81z" fill="url(#d)"/>
    <path d="M38.581 29.563l-16.487 9.401a1.898 1.898 0 0 1-2.275 0l-.08.08.08.08a1.887 1.887 0 0 0 2.275 0l16.624-9.459-.137-.102z" fill="#000" opacity=".2"/>
    <path d="M19.739 38.896a2.281 2.281 0 0 1-.523-1.596v.171c-.035.58.152 1.15.523 1.596l.08-.08-.08-.091zM44.27 26.338l-5.689 3.225.103.103 5.587-3.168a1.994 1.994 0 0 0 1.137-1.641 2.12 2.12 0 0 1-1.137 1.481z" fill="#000" opacity=".12"/>
    <path d="M22.094 10.75L44.27 23.374a2.12 2.12 0 0 1 1.138 1.482 1.994 1.994 0 0 0-1.138-1.641L22.094 10.59c-1.593-.9-2.89-.148-2.89 1.675v.17c.034-1.834 1.309-2.586 2.89-1.686z" fill="#FFF" opacity=".25"/>
  </g>
</svg>
