<svg width="17" height="17" xmlns="http://www.w3.org/2000/svg" xmlns:xlink="http://www.w3.org/1999/xlink">
  <defs>
    <path d="M7.5 6.227c2.165 0 7.9 0 7.9-3.46C15.4.692 10.123.07 8.6.1 6.693.136.5.136.1 2.767c-.3 3.064 5.356 3.46 7.4 3.46z" id="a"/>
    <radialGradient cy="-32.006%" fx="50%" fy="-32.006%" r="194.842%" gradientTransform="matrix(.22584 .3798 -.09272 .92507 .357 -.214)" id="c">
      <stop stop-color="#63A406" offset="0%"/>
      <stop stop-color="#ACEF30" offset="100%"/>
    </radialGradient>
    <path d="M8.3 5.634c1.93-.006 8.1-.297 7.7-3.558C16.149.664 10.81 0 9 0 6.848 0 .266.613.2 2.076-.1 6.128 6.437 5.64 8.3 5.634z" id="d"/>
    <path d="M8.4 6.82c.914 0 .785-.86 2.8-1.483 3.2-.988 5.3-2.204 5.3-2.47C15.3 1.284 10.365.213 8.4.098 6.361-.021 1.7.889.2 2.866c-.312.556 2.792 1.496 5.2 2.471 1.45.588 2.28 1.483 3 1.483z" id="f"/>
    <path d="M7.8.099C5.782.235 0 1.58 0 6.424c.177 1.678 6.069 1.748 7.8 1.78 1.626.03 8.19-.032 8.4-1.582C15.3.1 9.652-.026 7.8.1z" id="h"/>
  </defs>
  <g fill="none" fill-rule="evenodd">
    <g transform="translate(.6 10.674)">
      <mask id="b" fill="#fff">
        <use xlink:href="#a"/>
      </mask>
      <use fill="#E5984C" fill-rule="nonzero" xlink:href="#a"/>
      <path d="M.2 2.965c.46.21-.417.609.8.988 2.583.807 3.37 1.332 6.8 1.384 3.02.046 4.083-.441 6.1-1.186 1.733-.64.5-1.117 1.4-1.581.25-.13.97.177.9.395-.38 1.166-.051 1.284-1.8 2.372-.951.592-1.313.712-3.6.989-2.613.316-3.863.502-6.2.197-2.963-.387-3.064-.72-4.4-1.581-1.114-.72-.5-.797-.5-1.582 0-.204.31-.481.5-.395z" fill="#D58538" fill-rule="nonzero" mask="url(#b)"/>
    </g>
    <path d="M1.048 11.128c-1.38.505-1 .664-1 1.285 0 .219.816.177 1 .395.316.375-.468.506 0 .79.182.112.965-.105 1.3 0 .915.29.373.67 1.2.792.523.076.764-.396 1.5-.396.714 0 .672.396 1.4.396.772 0 .753-.396 1.6-.396.953 0 1.01.396 2 .396.96 0 .986-.396 1.9-.396.836 0 1.171.51 1.6.396.871-.232.092-.812 1-1.088.392-.119 1.413.425 1.6.297.463-.317-.555-.683-.3-1.186.045-.09.879.09.9 0 .129-.552.479-.738-.6-1.285-.871-.442-1.303-.563-3.3-.692-3.353-.217-3.958-.202-7.4 0-2.458.144-3.08.209-4.4.692z" fill="url(#c)" fill-rule="nonzero"/>
    <g transform="translate(.2 7.71)">
      <mask id="e" fill="#fff">
        <use xlink:href="#d"/>
      </mask>
      <use fill="#643D0F" fill-rule="nonzero" xlink:href="#d"/>
      <path fill="#52320B" fill-rule="nonzero" mask="url(#e)" d="M.1 1.977l2 1.68 4.7 1.285h4.5L15 3.459l1-1.482 1.5-.396L16 4.25l-3.2 1.384-6.5.395-4.2-.395-2-1.384z"/>
    </g>
    <g transform="translate(0 5.93)">
      <mask id="g" fill="#fff">
        <use xlink:href="#f"/>
      </mask>
      <use fill="#EFB327" fill-rule="nonzero" xlink:href="#f"/>
      <path d="M.3 2.866c3.248.522 3.983 1.78 8 1.78 4.033 0 4.81-1.258 8.1-1.78.76-.12.733.279 0 .494-3.292.97-4.025 1.878-8.05 1.878S3.592 4.331.3 3.36c-.733-.215-.752-.615 0-.494z" fill="#F2BA36" fill-rule="nonzero" mask="url(#g)"/>
    </g>
    <path d="M8.5 9.488c1.594-.015 6.922-.604 7-1.334.3-2.817-4.814-2.18-7-2.224C6.369 5.888.7 5.888 1 8.154c.097.732 5.962 1.35 7.5 1.334z" fill="#DC3A3A" fill-rule="nonzero"/>
    <g transform="translate(.2)">
      <mask id="i" fill="#fff">
        <use xlink:href="#h"/>
      </mask>
      <use fill="#E5984C" fill-rule="nonzero" xlink:href="#h"/>
      <path d="M-.2 6.622c6.503-.184 10.017 1.137 14 0 3.117-.89-.438-3.806.2-4.052.512-.198 1.612 1.565 2.1 3.163.312 1.022 1.365 1.566-.5 2.075-3.385.924-5.011.695-10 .79-2.761.054-3.595.026-5.5-.493-.995-.272-.19-.543-.3-1.088-.04-.196-.497-.38 0-.395z" fill="#D58538" fill-rule="nonzero" mask="url(#i)"/>
    </g>
    <g fill="#FFF" fill-opacity=".42" fill-rule="nonzero">
      <path d="M6.1 2.374c-.052-.276.422-.551.6-.296.272.387.435 1.514.3 1.581-.165.082-.802-.77-.9-1.285zM12.847 2.673c-.144-.242.208-.662.463-.484.387.271.926 1.274.822 1.383-.127.133-1.017-.45-1.285-.9zM3.28 2.372c.214-.184.689.09.557.371-.2.43-1.094 1.134-1.22 1.05-.152-.101.267-1.08.663-1.421zM6.081.463c.263-.1.616.32.396.54-.334.334-1.416.69-1.505.57-.109-.149.62-.925 1.11-1.11zM8.343.696C8.2.454 8.551.034 8.806.212c.387.272.926 1.275.822 1.384-.127.133-1.017-.45-1.285-.9zM11.004.398c-.021-.114.098-.022.196 0 .141.03.295.045.4.195.272.388.439 1.023.304 1.09-.165.081-.802-.771-.9-1.285zM9.69 2.791c.093-.266.641-.267.668.043.042.472-.38 1.53-.53 1.52-.184-.012-.31-1.069-.138-1.563z"/>
    </g>
  </g>
</svg>
