<svg version="1" xmlns="http://www.w3.org/2000/svg" width="105" height="105" viewBox="0 0 1050 1050">
  <path d="M407 1000c-120-11-220-43-264-84-28-26-37-43-44-86-5-31-15-58-24-62-19-11-20-64 0-72 11-4 15-22 15-70 0-36-5-68-10-71-17-11-11-44 10-55 26-14 26-52-1-76-18-16-20-27-16-70 6-58 53-157 91-193 14-14 26-30 26-38 0-19 37-40 132-71 48-16 94-34 102-41 9-7 27-10 43-7 15 3 72 7 126 8 53 1 97 5 97 9s16 10 36 14c110 20 224 112 269 215 38 88 44 149 16 174-27 25-28 66-1 73 21 6 28 47 10 58-13 8-13 92-1 99 17 11 23 83 9 107-7 13-16 26-19 29s-9 25-12 48c-9 74-72 119-205 146-89 19-276 26-385 16z" fill="#412610"/>
  <g fill="#54551b">
    <path d="M435 998c-218-12-315-60-335-168-6-30-17-58-25-63-21-11-19-53 4-76 12-12 18-28 15-43-3-14 1-9 11 12 9 19 23 43 33 53 19 21 80 49 92 42 4-3 13 2 20 10s16 12 21 9 44 0 87 7c86 13 295 13 387 0 150-22 196-42 234-97 29-42 43-39 54 9 8 35-7 97-24 97-4 0-9 21-12 46-6 54-31 84-94 114-95 45-248 61-468 48z"/>
    <path d="M392 765c-15-17-47-20-36-4 4 8-4 9-27 4-45-10-51-14-45-31 3-7-4-18-14-24-26-14-25-26 3-35l22-7-25-8c-36-12-72-12-65 0 3 6 1 10-4 10-6 0-11-7-11-15 0-14 12-19 33-16 4 0 7-2 7-7 0-11-88-44-100-37-6 4-9 2-8-4 2-6-8-17-22-24-35-17-38-54-7-68 29-13 26-41-6-76-16-18-19-31-14-72 7-57 44-135 87-184 16-19 30-40 30-46s10-17 23-25c27-18 164-66 188-66 9 0 20-7 23-16 5-12 15-14 44-10 20 4 79 7 130 8 50 1 92 5 92 9s15 10 33 13c19 4 57 18 85 31 29 14 53 25 55 25s25 21 53 48c56 52 104 146 112 219 4 34 0 49-15 66-11 12-23 32-26 45-4 17 0 23 19 28 17 4 24 13 24 29 0 13-4 27-10 30-5 3-10 14-10 24 0 12-9 20-25 23-22 5-23 3-13-10 11-14 10-15-7-8-11 5-74 28-140 52-65 24-124 49-130 56-7 8-6 9 3 4 6-4 12-2 12 3 0 6 9 11 20 11 13 0 20-7 20-20 0-21 15-27 25-9 12 18-4 54-29 65-22 10-25 9-30-12-6-21-9-22-32-14-22 9-25 8-21-4 7-18-13-12-65 21-46 28-48 28-95 2-21-11-29-14-19-5 10 8 24 17 30 19 19 7-1 18-43 24-34 5-40 3-39-13 0-11-3-28-7-38-7-16-5-18 8-13 28 11 19-1-13-18-30-15-54-21-34-7 6 4 15 18 19 32l8 25-26-27c-14-16-31-28-38-28-6 0 3 13 21 30 18 16 36 27 41 24s9 4 9 15c0 24-10 26-28 6z"/>
    <path d="M803 722c19-20 25-34 21-47-6-16-4-17 22-11 16 4 31 9 33 12 8 7-48 56-57 50-6-3-12 1-16 9-3 8-11 15-18 15-6 0 0-13 15-28zM226 705c-13-19-13-23-2-19 8 3 16 14 19 25 7 25 3 24-17-6zM127 677c-11-29-9-43 4-30 6 6 9 19 7 29-3 18-4 18-11 1zM157 623c-12-12-7-22 8-17 8 4 15 10 15 15 0 11-14 12-23 2z"/>
  </g>
  <g fill="#9e5427">
    <path d="M435 998c-218-12-315-60-335-168-6-30-17-58-25-63-20-11-20-67 0-67 8 0 15-7 15-15 0-24 14-17 28 14 16 36 88 72 153 77 25 2 58 8 73 14 53 20 360 15 481-8 28-5 72-19 98-31 38-18 51-30 64-62 19-47 34-46 46 4 8 35-7 97-24 97-4 0-9 21-12 46-8 78-69 120-213 148-97 19-193 23-349 14z"/>
    <path d="M392 765c-15-17-47-20-36-4 4 8-4 9-27 4-34-8-52-23-43-37 2-4-5-12-16-18-25-14-26-30-1-23 10 3 22-1 26-8 5-8 4-10-3-5-8 4-10 2-6-7 7-18 44-10 44 9 0 8-5 14-11 14-5 0-7 5-4 11 5 6 11 4 19-7 12-15 13-15 13 2 0 11-7 28-16 38-13 16-13 18-1 10 8-5 24-9 35-9 12 0 22-9 26-25 4-14 7-20 8-13 1 6 4 19 8 29 4 12 3 15-5 10-7-4-12-2-12 4 0 7 7 10 15 6 10-4 15 1 15 14 0 23-10 25-28 5z"/>
    <path d="M432 764c0-11-3-28-7-38-7-16-5-18 8-13 9 3 17 3 17-1 0-15-186-86-207-78-6 3-13 1-15-3-2-5-38-24-81-44-60-28-77-40-77-57 0-12 10-25 24-31 28-13 25-41-7-76-16-18-19-31-14-72 7-57 44-135 87-184 16-19 30-40 30-46s10-17 23-25c27-18 164-66 188-66 9 0 20-7 23-16 5-12 15-14 44-10 20 4 79 7 130 8 50 1 92 5 92 9s15 10 33 13c19 4 57 18 85 31 29 14 53 25 55 25s25 21 53 47c56 53 104 147 112 220 4 34 0 49-15 66-11 12-23 32-26 45-4 17 0 23 19 28 28 7 31 29 9 70-8 16-15 23-15 15 0-9-6-11-17-6-46 19-232 87-260 96-18 6-33 14-33 20s5 7 10 4c6-3 10-1 10 4 0 6 9 11 20 11 13 0 20-7 20-20 0-21 15-27 25-9 12 18-4 54-29 65-22 10-25 9-30-12-6-21-9-22-32-14-22 9-25 8-21-4 7-17-11-12-58 16-52 31-56 31-98 9-23-13-33-16-23-7 10 8 24 17 30 19 19 7-1 18-43 24-34 5-40 3-39-13z"/>
    <path d="M803 722c19-20 25-34 21-47-6-16-4-17 22-11 16 4 31 9 33 12 8 7-48 56-57 50-6-3-12 1-16 9-3 8-11 15-18 15-6 0 0-13 15-28z"/>
  </g>
  <g fill="#df564a">
    <path d="M370 959c-112-16-214-69-232-119-5-16-18-32-29-35-10-4-19-12-19-20 0-7-7-15-15-19-9-3-15-18-15-36 0-20 5-30 15-30 8 0 15-7 15-15 0-24 14-17 28 14 16 36 88 72 153 77 25 2 58 8 73 14 53 20 360 15 481-8 28-5 72-19 98-31 38-18 51-30 64-62 8-22 20-38 27-36 20 7 29 75 14 105-13 27-38 41-38 22 0-5-4-10-10-10-5 0-10 5-10 10 0 17-91 124-118 139-77 41-331 63-482 40zm118-126c-10-2-26-2-35 0-10 3-2 5 17 5s27-2 18-5zm-324-34c-3-5-14-9-25-9-16 0-18 2-7 14 14 14 42 10 32-5z"/>
    <path d="M515 739c-48-32-123-65-230-103-149-51-215-84-215-106 0-36 32-41 86-15 27 14 58 24 69 24s-6-10-37-22c-58-22-63-27-55-50 3-9 7-9 18-1 22 18 217 34 399 34s370-21 406-45c30-19 34-19 34 4 0 13-17 26-57 44-32 14-67 27-78 30s-4 4 15 3 55-12 80-23c53-23 80-19 80 11 0 25-74 63-220 114-111 39-168 64-219 96-22 14-42 26-43 25-2 0-16-9-33-20zM400 560c0-5-17-9-37-9l-38 2 35 7c19 4 36 8 38 9 1 0 2-3 2-9zm203 3c-29-2-78-2-110 0s-8 3 52 3c61 0 87-1 58-3zm-295-20c-10-2-26-2-35 0-10 3-2 5 17 5s27-2 18-5z"/>
    <path d="M335 459c-44-5-90-7-103-4-31 7-94-10-126-36-19-15-26-30-26-54 0-48 36-138 76-190 19-25 34-50 34-55s10-16 23-24c27-18 164-66 188-66 9 0 20-7 23-16 5-12 15-14 44-10 20 4 79 7 130 8 50 1 92 5 92 9s15 10 34 13c49 9 145 60 163 85 8 12 26 26 39 31 25 10 49 52 33 58-5 2-18-7-29-20l-19-23 8 31c5 17 13 40 19 50 6 11 12 41 15 67 3 43 1 50-24 72-34 28-100 50-189 65-96 15-313 20-405 9z"/>
  </g>
  <g fill="#a9dd2f">
    <path d="M370 959c-112-16-214-69-232-119-5-16-19-32-30-36-13-4-18-12-15-25 3-10 2-18-2-17-23 3-31-6-31-32 0-20 5-30 15-30 8 0 15-7 15-15 0-24 14-17 28 14 16 36 88 72 153 77 25 2 58 8 73 14 53 20 360 15 481-8 28-5 72-19 98-31 38-18 51-30 64-62 8-22 20-38 27-36 20 7 29 75 14 105-13 27-38 41-38 22 0-5-4-10-10-10-5 0-10 5-10 10 0 17-91 124-118 139-77 41-331 63-482 40zm118-126c-10-2-26-2-35 0-10 3-2 5 17 5s27-2 18-5zm-324-34c-3-5-14-9-25-9-16 0-18 2-7 14 14 14 42 10 32-5z"/>
    <path d="M515 739c-48-32-123-65-230-103-149-51-215-84-215-106 0-34 32-41 81-17 100 49 454 70 644 38 39-7 79-14 90-15s40-12 65-23c53-23 80-19 80 11 0 25-74 63-220 114-111 39-168 64-219 96-22 14-42 26-43 25-2 0-16-9-33-20z"/>
    <path d="M303 533c-13-2-23-11-23-20 0-13 9-14 52-9 58 8 71 13 63 27-6 9-50 10-92 2zM970 469c0-5-6-7-12-3-9 5-9 2 1-9 18-23 31-21 31 3 0 11-4 20-10 20-5 0-10-5-10-11zM335 459c-44-5-90-7-103-4-31 7-94-10-126-36-19-15-26-30-26-54 0-48 36-138 76-190 19-25 34-50 34-55s10-16 23-24c27-18 164-66 188-66 9 0 20-7 23-16 5-12 15-14 44-10 20 4 79 7 130 8 50 1 92 5 92 9s15 10 34 13c49 9 145 60 163 85 8 12 26 26 39 31 25 10 49 52 33 58-5 2-18-7-29-20l-19-23 8 31c5 17 13 40 19 50 6 11 12 41 15 67 3 43 1 50-24 72-34 28-100 50-189 65-96 15-313 20-405 9z"/>
  </g>
  <g fill="#e9a150">
    <path d="M370 959c-111-16-214-69-231-118-6-16-20-33-32-39-17-8-18-11-5-11 9-1 23 5 30 12 7 8 19 12 26 9 7-2 19 1 27 8s27 9 49 5c27-6 44-2 71 14 41 24 61 26 69 9 5-10 7-10 12-1 4 10 10 10 27 1 28-15 84-11 113 9 20 13 26 13 53-1 39-21 85-20 117 0 24 16 28 16 80-10 45-22 63-26 100-20 39 6 49 3 71-17 14-13 5 3-22 36-26 33-59 66-73 74-77 41-331 63-482 40z"/>
    <path d="M173 801c-37-31-27-40 21-21 17 6 24 14 20 25-8 19-14 19-41-4zM106 755c4-8 12-15 20-15 19 0 18 16-2 24-22 9-24 8-18-9zM515 739c-48-32-123-65-230-103-149-51-215-84-215-106 0-34 32-41 81-17 100 49 454 70 644 38 39-7 79-14 90-15s40-12 65-23c53-23 80-19 80 11 0 25-74 63-220 114-111 39-168 64-219 96-22 14-42 26-43 25-2 0-16-9-33-20z"/>
    <path d="M303 533c-13-2-23-11-23-20 0-13 9-14 52-9 58 8 71 13 63 27-6 9-50 10-92 2zM970 469c0-5-6-7-12-3-9 5-9 2 1-9 18-23 31-21 31 3 0 11-4 20-10 20-5 0-10-5-10-11zM335 459c-44-5-90-7-103-4-31 7-94-10-126-36-19-15-26-30-26-54 0-48 36-138 76-190 19-25 34-50 34-55s10-16 23-24c27-18 164-66 188-66 9 0 20-7 23-16 5-12 15-14 44-10 20 4 79 7 130 8 50 1 92 4 92 7 0 4 19 12 43 19 70 22 141 59 155 82 7 11 24 25 38 30 25 10 49 52 33 58-5 2-18-7-29-20l-19-23 8 31c5 17 13 40 19 50 6 11 12 41 15 67 3 43 1 50-24 72-34 28-100 50-189 65-96 15-313 20-405 9z"/>
  </g>
  <g fill="#f6d959">
    <path d="M180 805c-18-21-9-34 17-24 15 5 21 14 17 24-8 19-18 19-34 0zM495 719c-27-16-91-45-142-65s-97-42-103-49c-6-8-25-17-41-20-16-4-31-10-34-15-2-4 32 3 78 16 45 13 101 26 125 30 23 3 42 9 42 13 0 3 43 6 95 6 113 0 148 8 90 20-22 5-43 9-47 10-5 2-25 3-45 4l-38 1 40 34c22 19 38 36 35 39s-27-8-55-24zm-55-53c0-6-93-37-97-32-2 2 15 11 39 19 47 17 58 19 58 13zM100 535c-17-10-20-14-9-15 9 0 22 7 29 15 15 18 12 18-20 0z"/>
  </g>
</svg>
