<svg width="18" height="31" xmlns="http://www.w3.org/2000/svg">
  <g fill="none">
    <rect stroke="#C1C1C1" stroke-width=".5" fill="#ECECEC" x="-.25" y="-.25" width="17.752" height="30.848" rx="1.511"/>
    <path stroke="#686868" stroke-width=".5" fill="#444" d="M1.635 3.272h14.107v22.041H1.635z"/>
    <rect fill="#ECECEC" x="5.793" y="4.281" width="2.267" height="2.393" rx=".63"/>
    <rect fill="#52C165" x="2.519" y="4.281" width="2.267" height="2.393" rx=".63"/>
    <rect fill="#ECECEC" x="9.067" y="4.281" width="2.267" height="2.393" rx=".63"/>
    <rect fill="#999" x="12.341" y="4.281" width="2.267" height="2.393" rx=".63"/>
    <rect fill="#5C5C5C" x="5.793" y="7.807" width="2.267" height="2.393" rx=".63"/>
    <rect fill="#36B4D8" x="2.519" y="7.807" width="2.267" height="2.393" rx=".63"/>
    <rect fill="#EDB435" x="9.067" y="7.807" width="2.267" height="2.393" rx=".63"/>
    <rect fill="#36B4D8" x="12.341" y="7.807" width="2.267" height="2.393" rx=".63"/>
    <rect fill="#ECECEC" x="5.793" y="11.207" width="2.267" height="2.393" rx=".63"/>
    <rect fill="#EDB435" x="2.519" y="11.207" width="2.267" height="2.393" rx=".63"/>
    <rect fill="#5C5C5C" x="9.067" y="11.207" width="2.267" height="2.393" rx=".63"/>
    <rect fill="#F1A1EA" x="12.341" y="11.207" width="2.267" height="2.393" rx=".63"/>
    <rect fill="#F1A1EA" x="5.793" y="14.733" width="2.267" height="2.393" rx=".63"/>
    <rect fill="#36B4D8" x="2.519" y="14.733" width="2.267" height="2.393" rx=".63"/>
    <rect fill="#36B4D8" x="9.067" y="14.733" width="2.267" height="2.393" rx=".63"/>
    <rect fill="#EDB435" x="5.793" y="18.133" width="2.267" height="2.393" rx=".63"/>
    <rect fill="#C16A51" x="2.519" y="18.133" width="2.267" height="2.393" rx=".63"/>
    <rect fill="#999" x="9.067" y="18.133" width="2.267" height="2.393" rx=".63"/>
    <rect fill="#EDB435" x="12.341" y="14.733" width="2.267" height="2.393" rx=".63"/>
    <path fill="#666" d="M1.385 22.163h14.481v3.4H1.385z"/>
    <rect fill="#52C165" x="5.793" y="22.667" width="2.267" height="2.393" rx=".63"/>
    <rect fill="#ECECEC" x="2.519" y="22.667" width="2.267" height="2.393" rx=".63"/>
    <rect fill="#36B4D8" x="9.067" y="22.667" width="2.267" height="2.393" rx=".63"/>
    <rect fill="#EDB435" x="12.341" y="22.667" width="2.267" height="2.393" rx=".63"/>
    <circle stroke="#7A7A7A" stroke-width=".504" fill="#D8D8D8" cx="8.563" cy="27.83" r="1.259"/>
    <rect fill="#7A7A7A" x="5.793" y="1.259" width="5.541" height="1" rx=".315"/>
  </g>
</svg>
