<svg width="298" height="55" viewBox="0 0 298 55" fill="none" xmlns="http://www.w3.org/2000/svg">
<g clip-path="url(#clip0)">
<path d="M38.2485 12.2943V18.3357C35.313 15.004 31.4323 12.6454 27.123 11.574C22.8138 10.5026 18.2804 10.7691 14.1264 12.3381C9.97234 13.9071 6.39474 16.7041 3.8698 20.3568C1.34486 24.0095 -0.00762939 28.3447 -0.00762939 32.7851C-0.00762939 37.2256 1.34486 41.5607 3.8698 45.2134C6.39474 48.8661 9.97234 51.6631 14.1264 53.2321C18.2804 54.8011 22.8138 55.0676 27.123 53.9962C31.4323 52.9248 35.313 50.5662 38.2485 47.2346V54.642H43.7128V12.2943H38.2485ZM21.8559 49.1778C18.6137 49.1778 15.4444 48.2164 12.7486 46.4151C10.0528 44.6139 7.95176 42.0537 6.71104 39.0583C5.47031 36.0629 5.14569 32.7669 5.7782 29.5871C6.41071 26.4072 7.97196 23.4863 10.2645 21.1937C12.5571 18.9012 15.478 17.3399 18.6578 16.7074C21.8377 16.0749 25.1337 16.3995 28.1291 17.6403C31.1244 18.881 33.6846 20.9821 35.4859 23.6778C37.2871 26.3736 38.2485 29.5429 38.2485 32.7851C38.2485 37.1327 36.5215 41.3023 33.4472 44.3765C30.373 47.4507 26.2035 49.1778 21.8559 49.1778Z" fill="white"/>
<path d="M71.0312 10.9282C68.4861 10.9257 65.9663 11.4326 63.6201 12.4192C61.274 13.4057 59.1491 14.8519 57.3707 16.6725V12.2943H51.9064V54.642H57.3707V30.053C57.3707 26.43 58.8099 22.9554 61.3717 20.3935C63.9336 17.8317 67.4082 16.3925 71.0312 16.3925C74.6542 16.3925 78.1288 17.8317 80.6907 20.3935C83.2525 22.9554 84.6918 26.43 84.6918 30.053V54.642H90.156V30.053C90.156 27.5415 89.6613 25.0546 88.7002 22.7343C87.7391 20.4139 86.3304 18.3056 84.5545 16.5297C82.7786 14.7538 80.6703 13.3451 78.3499 12.384C76.0296 11.4229 73.5427 10.9282 71.0312 10.9282Z" fill="white"/>
<path d="M117.48 10.9282C114.935 10.9257 112.415 11.4326 110.069 12.4192C107.723 13.4057 105.598 14.8519 103.819 16.6725V12.2943H98.3551V54.642H103.819V30.053C103.819 26.43 105.259 22.9554 107.82 20.3935C110.382 17.8317 113.857 16.3925 117.48 16.3925C121.103 16.3925 124.577 17.8317 127.139 20.3935C129.701 22.9554 131.14 26.43 131.14 30.053V54.642H136.605V30.053C136.605 24.9808 134.59 20.1163 131.003 16.5297C127.417 12.9432 122.552 10.9282 117.48 10.9282Z" fill="white"/>
<path d="M165.295 10.9282C160.972 10.9282 156.746 12.2101 153.152 14.6118C149.557 17.0134 146.756 20.427 145.101 24.4208C143.447 28.4147 143.014 32.8093 143.858 37.0492C144.701 41.289 146.783 45.1835 149.839 48.2403C152.896 51.297 156.791 53.3787 161.031 54.222C165.27 55.0654 169.665 54.6325 173.659 52.9782C177.653 51.3239 181.066 48.5225 183.468 44.9281C185.87 41.3338 187.151 37.108 187.151 32.7851C187.151 26.9883 184.849 21.4289 180.75 17.33C176.651 13.231 171.091 10.9282 165.295 10.9282ZM165.295 49.1778C162.052 49.1778 158.883 48.2164 156.187 46.4151C153.492 44.6139 151.39 42.0537 150.15 39.0583C148.909 36.0629 148.584 32.7669 149.217 29.5871C149.849 26.4072 151.411 23.4863 153.703 21.1937C155.996 18.9012 158.917 17.3399 162.097 16.7074C165.276 16.0749 168.572 16.3995 171.568 17.6403C174.563 18.881 177.123 20.9821 178.925 23.6778C180.726 26.3736 181.687 29.5429 181.687 32.7851C181.687 37.1327 179.96 41.3022 176.886 44.3765C173.812 47.4507 169.642 49.1778 165.295 49.1778Z" fill="white"/>
<path d="M250.329 35.517H254.086V32.7849C254.083 27.3511 252.057 22.113 248.402 18.0921C244.748 14.0713 239.726 11.556 234.317 11.0368C228.908 10.5176 223.5 12.0319 219.147 15.2841C214.794 18.5364 211.808 23.2935 210.773 28.6276C209.737 33.9618 210.725 39.4904 213.545 44.1354C216.364 48.7803 220.813 52.2085 226.023 53.7512C231.233 55.2939 236.831 54.8406 241.726 52.4796C246.62 50.1186 250.459 46.0194 252.494 40.9812H246.429C244.742 43.9035 242.194 46.234 239.134 47.6547C236.073 49.0754 232.649 49.517 229.328 48.9193C226.007 48.3217 222.952 46.7138 220.579 44.3152C218.206 41.9165 216.63 38.844 216.068 35.517H250.329ZM232.229 16.3922C236.102 16.3929 239.85 17.7652 242.808 20.2658C245.766 22.7663 247.744 26.2336 248.389 30.0528H216.068C216.714 26.2336 218.691 22.7663 221.649 20.2658C224.607 17.7652 228.355 16.3929 232.229 16.3922Z" fill="white"/>
<path d="M267.746 -0.000244141H262.281V54.642H267.746V-0.000244141Z" fill="white"/>
<path d="M281.405 -0.000244141H275.941V54.642H281.405V-0.000244141Z" fill="white"/>
<path d="M297.799 46.4456H289.602V54.6419H297.799V46.4456Z" fill="white"/>
<path d="M71.0312 10.9282C68.4861 10.9257 65.9663 11.4326 63.6201 12.4192C61.274 13.4057 59.1491 14.8519 57.3707 16.6725V12.2943H51.9064V54.642H57.3707V30.053C57.3707 26.43 58.8099 22.9554 61.3717 20.3935C63.9336 17.8317 67.4082 16.3925 71.0312 16.3925C74.6542 16.3925 78.1288 17.8317 80.6907 20.3935C83.2525 22.9554 84.6918 26.43 84.6918 30.053V54.642H90.156V30.053C90.156 27.5415 89.6613 25.0546 88.7002 22.7343C87.7391 20.4139 86.3304 18.3056 84.5545 16.5297C82.7786 14.7538 80.6703 13.3451 78.3499 12.384C76.0296 11.4229 73.5427 10.9282 71.0312 10.9282Z" fill="white"/>
<path d="M117.48 10.9282C114.935 10.9257 112.415 11.4326 110.069 12.4192C107.723 13.4057 105.598 14.8519 103.819 16.6725V12.2943H98.3551V54.642H103.819V30.053C103.819 26.43 105.259 22.9554 107.82 20.3935C110.382 17.8317 113.857 16.3925 117.48 16.3925C121.103 16.3925 124.577 17.8317 127.139 20.3935C129.701 22.9554 131.14 26.43 131.14 30.053V54.642H136.605V30.053C136.605 24.9808 134.59 20.1163 131.003 16.5297C127.417 12.9432 122.552 10.9282 117.48 10.9282Z" fill="white"/>
<path d="M199.445 16.3924H207.641V10.9282H199.445V-0.000244141H193.98V43.7135C193.98 46.6119 195.132 49.3916 197.181 51.4411C199.231 53.4906 202.01 54.642 204.909 54.642H207.641V49.1777H204.909C203.46 49.1777 202.07 48.602 201.045 47.5773C200.02 46.5526 199.445 45.1627 199.445 43.7135V16.3924Z" fill="white"/>
</g>
<defs>
<clipPath id="clip0">
<rect width="297.8" height="54.6422" fill="white"/>
</clipPath>
</defs>
</svg>
