<svg width="720" height="400" viewBox="0 0 720 400" fill="none" xmlns="http://www.w3.org/2000/svg">
<rect width="720" height="400" fill="#EBE4E4"/>
<path d="M314.836 199.782C325.287 199.782 330.392 193.719 332.067 191.087C317.788 197.07 302.55 177.684 302.55 167.633C302.55 163.883 304.864 162.128 307.098 162.128C312.443 162.128 319.463 170.425 320.5 177.286L331.19 161.171C330.392 161.41 329.594 161.57 328.717 161.57C325.207 161.57 320.739 159.177 314.836 159.177C302.79 159.177 294.493 167.314 294.493 179.44C294.493 191.565 302.79 199.782 314.836 199.782Z" fill="#4B1616"/>
<path d="M377.409 179.44C377.409 164.841 370.868 159.177 363.768 159.177C358.104 159.177 353.875 162.687 351.722 168.59V158.219C349.887 159.735 341.032 164.202 336.086 164.681C338.479 165.878 338.479 170.265 338.479 174.414V201.856C338.479 206.005 338.239 210.313 336.086 211.749H354.035C351.801 210.632 351.722 206.005 351.722 201.856V190.369C353.875 196.272 357.864 199.782 363.05 199.782C371.027 199.782 377.409 194.118 377.409 179.44ZM352.041 179.44C352.041 169.707 355.391 163.405 358.502 163.405C361.295 163.405 363.847 168.111 363.847 179.44C363.847 190.847 361.295 195.554 358.502 195.554C355.391 195.554 352.041 189.252 352.041 179.44Z" fill="#4B1616"/>
<path d="M424.385 189.491V175.531C424.385 162.846 417.604 159.177 411.62 159.177C405.558 159.177 400.771 163.325 399.016 168.59V158.219C397.101 159.735 388.246 164.202 383.38 164.681C385.693 165.878 385.693 170.265 385.693 174.414V189.491C385.693 193.64 385.534 197.868 383.46 199.224H401.329C399.096 198.107 399.016 193.64 399.016 189.491V179.44C399.016 169.707 401.968 163.724 405.956 163.724C409.786 163.724 411.062 168.75 411.062 173.137V189.491C411.062 193.64 410.902 197.868 408.828 199.224H426.778C424.464 198.107 424.385 193.64 424.385 189.491Z" fill="#4B1616"/>
<g opacity="0.5">
<path d="M310.608 238.992H302.663V223.699H301.251V240.213H310.608V238.992Z" fill="#4B1616"/>
<path d="M315.896 240.213V223.699H314.484V240.213H315.896Z" fill="#4B1616"/>
<path d="M331.924 232.507V231.286H323.333V224.92H332.068V223.699H321.92V240.213H323.333V232.507H331.924Z" fill="#4B1616"/>
<path d="M346.243 238.992H338.202V232.291H345.836V231.071H338.202V224.92H346.052V223.699H336.79V240.213H346.243V238.992Z" fill="#4B1616"/>
<path d="M362.821 235.881C362.821 233.464 361.265 232.028 358.034 231.19L355.809 230.616C353.176 229.946 351.908 229.228 351.908 227.672C351.908 225.925 353.535 224.681 356.096 224.681C358.848 224.681 360.643 226.188 360.858 228.605H362.294C362.031 225.542 359.734 223.46 356 223.46C352.745 223.46 350.4 225.327 350.4 227.72C350.4 230.041 352.123 231.214 355.162 231.98L357.46 232.578C359.973 233.224 361.289 234.278 361.289 235.881C361.289 238.155 359.327 239.232 356.622 239.232C353.87 239.232 351.62 237.102 351.429 234.397H349.993C350.232 237.652 352.721 240.452 356.67 240.452C360.404 240.452 362.821 238.777 362.821 235.881Z" fill="#4B1616"/>
<path d="M365.075 224.92H370.843V240.213H372.231V224.92H377.999V223.699H365.075V224.92Z" fill="#4B1616"/>
<path d="M393.831 223.699H392.203L386.794 231.525L381.362 223.699H379.734L386.076 232.818V240.213H387.488V232.818L393.831 223.699Z" fill="#4B1616"/>
<path d="M407.096 238.992H399.15V223.699H397.738V240.213H407.096V238.992Z" fill="#4B1616"/>
<path d="M420.425 238.992H412.383V232.291H420.018V231.071H412.383V224.92H420.233V223.699H410.971V240.213H420.425V238.992Z" fill="#4B1616"/>
</g>
<line x1="294.493" y1="117.89" x2="294.493" y2="252.11" stroke="url(#paint0_linear_661_4382)" stroke-width="0.315068"/>
<line x1="426.507" y1="117.89" x2="426.507" y2="252.11" stroke="url(#paint1_linear_661_4382)" stroke-width="0.315068"/>
<line x1="464" y1="158.062" x2="257" y2="158.062" stroke="url(#paint2_linear_661_4382)" stroke-width="0.315068"/>
<line x1="464" y1="211.781" x2="257" y2="211.781" stroke="url(#paint3_linear_661_4382)" stroke-width="0.315068"/>
<line x1="426.507" y1="223.753" x2="294.493" y2="223.753" stroke="url(#paint4_linear_661_4382)" stroke-width="0.315068"/>
<line x1="426.507" y1="240.294" x2="294.493" y2="240.294" stroke="url(#paint5_linear_661_4382)" stroke-width="0.315068"/>
<defs>
<linearGradient id="paint0_linear_661_4382" x1="294.833" y1="117.89" x2="294.833" y2="252.11" gradientUnits="userSpaceOnUse">
<stop stop-color="#4B1616" stop-opacity="0"/>
<stop offset="0.338542" stop-color="#4B1616" stop-opacity="0.5"/>
<stop offset="0.645833" stop-color="#4B1616" stop-opacity="0.5"/>
<stop offset="1" stop-color="#4B1616" stop-opacity="0"/>
</linearGradient>
<linearGradient id="paint1_linear_661_4382" x1="426.847" y1="117.89" x2="426.847" y2="252.11" gradientUnits="userSpaceOnUse">
<stop stop-color="#4B1616" stop-opacity="0"/>
<stop offset="0.338542" stop-color="#4B1616" stop-opacity="0.5"/>
<stop offset="0.645833" stop-color="#4B1616" stop-opacity="0.5"/>
<stop offset="1" stop-color="#4B1616" stop-opacity="0"/>
</linearGradient>
<linearGradient id="paint2_linear_661_4382" x1="464" y1="158.402" x2="257" y2="158.402" gradientUnits="userSpaceOnUse">
<stop stop-color="#4B1616" stop-opacity="0"/>
<stop offset="0.338542" stop-color="#4B1616" stop-opacity="0.5"/>
<stop offset="0.645833" stop-color="#4B1616" stop-opacity="0.5"/>
<stop offset="1" stop-color="#4B1616" stop-opacity="0"/>
</linearGradient>
<linearGradient id="paint3_linear_661_4382" x1="464" y1="212.121" x2="257" y2="212.121" gradientUnits="userSpaceOnUse">
<stop stop-color="#4B1616" stop-opacity="0"/>
<stop offset="0.338542" stop-color="#4B1616" stop-opacity="0.5"/>
<stop offset="0.645833" stop-color="#4B1616" stop-opacity="0.5"/>
<stop offset="1" stop-color="#4B1616" stop-opacity="0"/>
</linearGradient>
<linearGradient id="paint4_linear_661_4382" x1="426.507" y1="224.094" x2="294.493" y2="224.093" gradientUnits="userSpaceOnUse">
<stop stop-color="#4B1616" stop-opacity="0"/>
<stop offset="0.338542" stop-color="#4B1616" stop-opacity="0.5"/>
<stop offset="0.645833" stop-color="#4B1616" stop-opacity="0.5"/>
<stop offset="1" stop-color="#4B1616" stop-opacity="0"/>
</linearGradient>
<linearGradient id="paint5_linear_661_4382" x1="426.507" y1="240.635" x2="294.493" y2="240.635" gradientUnits="userSpaceOnUse">
<stop stop-color="#4B1616" stop-opacity="0"/>
<stop offset="0.338542" stop-color="#4B1616" stop-opacity="0.5"/>
<stop offset="0.645833" stop-color="#4B1616" stop-opacity="0.5"/>
<stop offset="1" stop-color="#4B1616" stop-opacity="0"/>
</linearGradient>
</defs>
</svg>
