<svg width="720" height="400" viewBox="0 0 720 400" fill="none" xmlns="http://www.w3.org/2000/svg">
<rect width="720" height="400" fill="#ECEFF2"/>
<path d="M314.4 199.68C324.88 199.68 330 193.6 331.68 190.96C317.36 196.96 302.08 177.52 302.08 167.44C302.08 163.68 304.4 161.92 306.64 161.92C312 161.92 319.04 170.24 320.08 177.12L330.8 160.96C330 161.2 329.2 161.36 328.32 161.36C324.8 161.36 320.32 158.96 314.4 158.96C302.32 158.96 294 167.12 294 179.28C294 191.44 302.32 199.68 314.4 199.68Z" fill="#1C3451"/>
<path d="M377.149 179.28C377.149 164.64 370.589 158.96 363.469 158.96C357.789 158.96 353.549 162.48 351.389 168.4V158C349.549 159.52 340.669 164 335.709 164.48C338.109 165.68 338.109 170.08 338.109 174.24V201.76C338.109 205.92 337.869 210.24 335.709 211.68H353.709C351.469 210.56 351.389 205.92 351.389 201.76V190.24C353.549 196.16 357.549 199.68 362.749 199.68C370.749 199.68 377.149 194 377.149 179.28ZM351.709 179.28C351.709 169.52 355.069 163.2 358.189 163.2C360.989 163.2 363.549 167.92 363.549 179.28C363.549 190.72 360.989 195.44 358.189 195.44C355.069 195.44 351.709 189.12 351.709 179.28Z" fill="#1C3451"/>
<path d="M424.257 189.36V175.36C424.257 162.64 417.457 158.96 411.457 158.96C405.377 158.96 400.577 163.12 398.817 168.4V158C396.897 159.52 388.017 164 383.137 164.48C385.457 165.68 385.457 170.08 385.457 174.24V189.36C385.457 193.52 385.297 197.76 383.217 199.12H401.137C398.897 198 398.817 193.52 398.817 189.36V179.28C398.817 169.52 401.777 163.52 405.777 163.52C409.617 163.52 410.897 168.56 410.897 172.96V189.36C410.897 193.52 410.737 197.76 408.657 199.12H426.657C424.337 198 424.257 193.52 424.257 189.36Z" fill="#1C3451"/>
<g opacity="0.5">
<path d="M309.777 225.56L306.057 242.048L301.617 225.56H300.201L304.689 242.12H307.449L311.169 225.632L314.889 242.12H317.649L322.137 225.56H320.721L316.281 242.048L312.561 225.56H309.777Z" fill="#1C3451"/>
<path d="M334.798 240.896H326.734V234.176H334.39V232.952H326.734V226.784H334.606V225.56H325.318V242.12H334.798V240.896Z" fill="#1C3451"/>
<path d="M348.015 240.896H340.047V225.56H338.631V242.12H348.015V240.896Z" fill="#1C3451"/>
<path d="M360.085 240.896H352.117V225.56H350.701V242.12H360.085V240.896Z" fill="#1C3451"/>
<path d="M375.491 225.56H374.075V242.048L365.699 225.56H362.771V242.12H364.187V225.632L372.563 242.12H375.491V225.56Z" fill="#1C3451"/>
<path d="M389.829 240.896H381.765V234.176H389.421V232.952H381.765V226.784H389.637V225.56H380.349V242.12H389.829V240.896Z" fill="#1C3451"/>
<path d="M405.254 237.776C405.254 235.352 403.694 233.912 400.454 233.072L398.222 232.496C395.582 231.824 394.31 231.104 394.31 229.544C394.31 227.792 395.942 226.544 398.51 226.544C401.27 226.544 403.07 228.056 403.286 230.48H404.726C404.462 227.408 402.158 225.32 398.414 225.32C395.15 225.32 392.798 227.192 392.798 229.592C392.798 231.92 394.526 233.096 397.574 233.864L399.878 234.464C402.398 235.112 403.718 236.168 403.718 237.776C403.718 240.056 401.75 241.136 399.038 241.136C396.278 241.136 394.022 239 393.83 236.288H392.39C392.63 239.552 395.126 242.36 399.086 242.36C402.83 242.36 405.254 240.68 405.254 237.776Z" fill="#1C3451"/>
<path d="M420.441 237.776C420.441 235.352 418.881 233.912 415.641 233.072L413.409 232.496C410.769 231.824 409.497 231.104 409.497 229.544C409.497 227.792 411.129 226.544 413.697 226.544C416.457 226.544 418.257 228.056 418.473 230.48H419.913C419.649 227.408 417.345 225.32 413.601 225.32C410.337 225.32 407.985 227.192 407.985 229.592C407.985 231.92 409.713 233.096 412.761 233.864L415.065 234.464C417.585 235.112 418.905 236.168 418.905 237.776C418.905 240.056 416.937 241.136 414.225 241.136C411.465 241.136 409.209 239 409.017 236.288H407.577C407.817 239.552 410.313 242.36 414.273 242.36C418.017 242.36 420.441 240.68 420.441 237.776Z" fill="#1C3451"/>
</g>
</svg>
