<svg width="1440" height="696" viewBox="0 0 1440 696" fill="none" xmlns="http://www.w3.org/2000/svg">
<mask id="mask0_661_4340" style="mask-type:alpha" maskUnits="userSpaceOnUse" x="0" y="0" width="1440" height="696">
<rect width="1440" height="696" fill="#F9FDFD"/>
</mask>
<g mask="url(#mask0_661_4340)">
<rect width="1440" height="696" fill="white"/>
<path d="M881.9 220.275H857.713V173.723H853.415V223.99H881.9V220.275Z" fill="#221F23"/>
<path d="M893.041 180.789V173.723H888.306V180.789H893.041ZM892.677 223.99V187.565H888.597V223.99H892.677Z" fill="#221F23"/>
<path d="M935.933 223.407V187.565H931.854V196.38H931.781C929.668 190.697 924.86 186.836 918.376 186.836C908.032 186.836 902.204 194.85 902.204 205.049C902.204 215.248 908.032 223.261 918.376 223.261C924.86 223.261 929.668 219.4 931.781 213.718H931.854V223.407C931.854 230.401 926.754 233.679 920.198 233.679C914.37 233.679 909.124 230.984 908.614 225.01H904.535C905.19 232.586 910.946 237.103 920.198 237.103C929.96 237.103 935.933 231.785 935.933 223.407ZM906.647 205.049C906.647 196.088 911.528 190.26 919.324 190.26C927.119 190.26 932 196.088 932 205.049C932 214.009 927.119 219.837 919.324 219.837C911.528 219.837 906.647 214.009 906.647 205.049Z" fill="#221F23"/>
<path d="M951.797 223.99V200.969C951.797 194.704 955.512 190.333 961.85 190.333C968.188 190.333 971.831 193.975 971.831 201.77V223.99H975.91V200.022C975.91 192.3 971.102 186.836 963.453 186.836C957.989 186.836 953.909 189.532 951.797 194.923H951.651V173.723H947.717V223.99H951.797Z" fill="#221F23"/>
<path d="M1003.09 223.99V220.566H997.485C994.717 220.566 993.479 219.327 993.479 216.341V190.989H1003.39V187.565H993.479V179.26H989.399V187.565H982.187V190.989H989.399V216.851C989.399 221.367 991.585 223.99 996.611 223.99H1003.09Z" fill="#221F23"/>
<path d="M860.409 546.619V497.955L872.211 546.619H888.092L899.894 497.955V546.619H908.126V496.352H892.026L880.152 545.016L868.277 496.352H852.177V546.619H860.409Z" fill="#221F23"/>
<path d="M949.92 535.327H941.979C941.105 538.241 939.065 541.447 934.33 541.447C928.793 541.447 924.932 537.586 924.568 530.956H950.575C951.668 518.28 944.529 509.465 933.674 509.465C922.819 509.465 916.627 518.353 916.627 528.406C916.627 538.46 922.965 547.348 933.82 547.348C942.708 547.348 948.39 542.539 949.92 535.327ZM933.674 515.366C938.992 515.366 942.125 519.154 942.635 525.055H924.641C925.151 519.154 928.356 515.366 933.674 515.366Z" fill="#221F23"/>
<path d="M983.136 538.97H983.354V546.619H991.149V496.352H983.354V517.77H983.136C981.387 512.743 977.162 509.465 971.625 509.465C961.936 509.465 956.327 518.207 956.327 528.406C956.327 538.605 961.718 547.348 971.625 547.348C977.162 547.348 981.387 543.996 983.136 538.97ZM964.704 528.406C964.704 520.611 968.128 515.366 974.175 515.366C980.294 515.366 983.646 520.611 983.646 528.406C983.646 536.129 980.294 541.447 974.175 541.447C968.128 541.447 964.704 536.129 964.704 528.406Z" fill="#221F23"/>
<path d="M1009.14 504.438V496.352H1000.69V504.438H1009.14ZM1008.85 546.619V510.194H1000.91V546.619H1008.85Z" fill="#221F23"/>
<path d="M1040.55 539.48H1040.7V546.619H1048.42V510.194H1040.48V531.976C1040.48 537.95 1038.29 541.301 1033.34 541.301C1028.6 541.301 1026.27 538.241 1026.27 531.466V510.194H1018.33V533.87C1018.33 541.884 1022.27 547.348 1030.35 547.348C1035.6 547.348 1039.02 544.506 1040.55 539.48Z" fill="#221F23"/>
<path d="M1066.12 524.764C1066.12 518.79 1068.3 515.439 1073.26 515.439C1077.99 515.439 1080.33 518.499 1080.33 525.274V546.619H1088.27V524.764C1088.27 518.79 1090.38 515.439 1095.33 515.439C1100.14 515.439 1102.4 518.499 1102.4 525.274V546.619H1110.34V522.943C1110.34 514.929 1106.41 509.465 1098.32 509.465C1092.93 509.465 1089.21 512.233 1087.61 517.333H1087.46C1086.01 512.525 1082.22 509.465 1076.25 509.465C1071 509.465 1067.58 512.233 1066.05 517.333H1065.9V510.194H1058.18V546.619H1066.12V524.764Z" fill="#221F23"/>
<path d="M852.833 385.189H859.098V363.989H868.423C868.787 363.989 869.078 363.989 869.443 363.989L881.463 385.189H888.675L876.145 363.115C883.576 361.294 887.728 356.558 887.728 349.419C887.728 340.094 880.589 334.922 868.423 334.922H852.833V385.189ZM869.151 340.167C876.946 340.167 880.953 343.372 880.953 349.419C880.953 355.466 876.946 358.744 869.151 358.744H859.098V340.167H869.151Z" fill="#221F23"/>
<path d="M926.935 373.678H920.889C920.087 376.665 918.193 381.109 911.855 381.109C905.153 381.109 900.782 376.374 900.491 368.797H927.372C928.392 356.558 921.836 348.035 910.981 348.035C900.126 348.035 894.371 356.85 894.371 366.976C894.371 377.102 900.418 385.917 911.272 385.917C921.253 385.917 925.624 380.162 926.935 373.678ZM910.981 352.843C917.392 352.843 920.889 357.432 921.399 363.989H900.491C901.073 357.432 904.57 352.843 910.981 352.843Z" fill="#221F23"/>
<path d="M962.189 383.95C962.189 390.434 957.891 393.494 952.209 393.494C947.401 393.494 943.248 391.381 942.447 386.209H936.4C937.42 393.639 942.593 398.302 952.209 398.302C962.772 398.302 968.236 392.182 968.236 383.95V348.763H962.189V356.485H962.044C960.004 351.24 955.633 348.035 949.878 348.035C939.533 348.035 934.215 356.194 934.215 366.247C934.215 376.301 939.533 384.46 949.878 384.46C955.633 384.46 960.004 381.255 962.044 376.009H962.189V383.95ZM940.771 366.247C940.771 358.161 944.705 352.843 951.699 352.843C958.693 352.843 962.481 358.161 962.481 366.247C962.481 374.334 958.693 379.652 951.699 379.652C944.705 379.652 940.771 374.334 940.771 366.247Z" fill="#221F23"/>
<path d="M985.051 371.347V348.763H979.005V373.46C979.005 380.308 983.157 385.917 991.171 385.917C996.343 385.917 999.694 383.076 1001.59 378.049H1001.73V385.189H1007.56V348.763H1001.52V371.93C1001.52 377.102 999.403 380.89 993.284 380.89C987.528 380.89 985.051 377.394 985.051 371.347Z" fill="#221F23"/>
<path d="M1018.64 385.189H1024.69V334.922H1018.64V385.189Z" fill="#221F23"/>
<path d="M1057.71 361.658V362.823L1047.51 363.916C1039.79 364.718 1033.23 367.122 1033.23 374.625C1033.23 381.692 1038.92 385.917 1045.91 385.917C1051.59 385.917 1055.89 383.076 1057.78 378.049H1057.93V385.189H1063.76V363.042C1063.76 352.042 1057.13 348.035 1049.04 348.035C1039.79 348.035 1034.91 353.571 1034.47 360.274H1040.52C1040.74 355.975 1043.51 352.843 1049.04 352.843C1054.73 352.843 1057.71 356.194 1057.71 361.658ZM1047.37 381.109C1043.07 381.109 1039.79 378.559 1039.79 374.917C1039.79 371.056 1042.56 369.089 1048.02 368.506L1057.71 367.413V369.38C1057.71 377.248 1053.78 381.109 1047.37 381.109Z" fill="#221F23"/>
<path d="M1080.53 363.333C1080.53 356.777 1084.25 354.591 1090.15 354.591H1091.46V348.035C1086.07 348.035 1082.35 350.876 1080.46 355.903H1080.31V348.763H1074.49V385.189H1080.53V363.333Z" fill="#221F23"/>
<path d="M331.674 386.248H348.438V383.268H335.234V373.085H347.734V370.105H335.234V360.668H348.107V357.687H331.674V386.248Z" fill="#221F23"/>
<path d="M351.494 365.552L357.578 386.248H364.615L370.7 365.552H367.14L361.097 386.083L355.053 365.552H351.494Z" fill="#221F23"/>
<path d="M391.644 379.708H388.209C387.753 381.405 386.677 383.93 383.076 383.93C379.268 383.93 376.784 381.24 376.619 376.935H391.893C392.472 369.981 388.747 365.138 382.579 365.138C376.412 365.138 373.142 370.147 373.142 375.9C373.142 381.654 376.577 386.662 382.745 386.662C388.416 386.662 390.899 383.392 391.644 379.708ZM382.579 367.87C386.222 367.87 388.209 370.478 388.498 374.203H376.619C376.95 370.478 378.937 367.87 382.579 367.87Z" fill="#221F23"/>
<path d="M400.375 373.83C400.375 370.105 402.486 368.863 405.839 368.863H406.584V365.138C403.521 365.138 401.41 366.752 400.333 369.608H400.251V365.552H396.939V386.248H400.375V373.83Z" fill="#221F23"/>
<path d="M427.216 379.708H423.78C423.325 381.405 422.249 383.93 418.648 383.93C414.84 383.93 412.356 381.24 412.19 376.935H427.464C428.044 369.981 424.318 365.138 418.151 365.138C411.984 365.138 408.714 370.147 408.714 375.9C408.714 381.654 412.149 386.662 418.317 386.662C423.987 386.662 426.471 383.392 427.216 379.708ZM418.151 367.87C421.794 367.87 423.78 370.478 424.07 374.203H412.19C412.522 370.478 414.508 367.87 418.151 367.87Z" fill="#221F23"/>
<path d="M447.919 381.612C447.919 384.593 449.243 386.248 452.72 386.248H456.445V383.516H453.672C451.934 383.516 451.354 382.854 451.354 381.24V368.284H456.611V365.552H451.354V360.833H447.919V365.552H437.032V360.833H433.597V365.552H429.83V368.284H433.597V381.612C433.597 384.593 434.921 386.248 438.398 386.248H442.124V383.516H439.35C437.612 383.516 437.032 382.854 437.032 381.24V368.284H447.919V381.612Z" fill="#221F23"/>
<path d="M330.192 430.952H336.898V429.76H331.616V425.687H336.616V424.495H331.616V420.72H336.765V419.528H330.192V430.952Z" fill="#221F23"/>
<path d="M338.12 422.674L340.554 430.952H343.368L345.802 422.674H344.378L341.961 430.886L339.544 422.674H338.12Z" fill="#221F23"/>
<path d="M354.18 428.336H352.806C352.624 429.015 352.193 430.025 350.753 430.025C349.23 430.025 348.236 428.949 348.17 427.227H354.28C354.511 424.445 353.021 422.508 350.554 422.508C348.087 422.508 346.779 424.511 346.779 426.813C346.779 429.114 348.153 431.118 350.62 431.118C352.889 431.118 353.882 429.81 354.18 428.336ZM350.554 423.601C352.011 423.601 352.806 424.644 352.922 426.134H348.17C348.302 424.644 349.097 423.601 350.554 423.601Z" fill="#221F23"/>
<path d="M357.672 425.985C357.672 424.495 358.517 423.998 359.858 423.998H360.156V422.508C358.931 422.508 358.086 423.154 357.656 424.296H357.623V422.674H356.298V430.952H357.672V425.985Z" fill="#221F23"/>
<path d="M368.409 428.336H367.035C366.852 429.015 366.422 430.025 364.982 430.025C363.458 430.025 362.465 428.949 362.399 427.227H368.508C368.74 424.445 367.25 422.508 364.783 422.508C362.316 422.508 361.008 424.511 361.008 426.813C361.008 429.114 362.382 431.118 364.849 431.118C367.117 431.118 368.111 429.81 368.409 428.336ZM364.783 423.601C366.24 423.601 367.035 424.644 367.15 426.134H362.399C362.531 424.644 363.326 423.601 364.783 423.601Z" fill="#221F23"/>
<path d="M376.69 429.098C376.69 430.29 377.22 430.952 378.611 430.952H380.101V429.859H378.991C378.296 429.859 378.064 429.594 378.064 428.949V423.766H380.167V422.674H378.064V420.786H376.69V422.674H372.335V420.786H370.961V422.674H369.455V423.766H370.961V429.098C370.961 430.29 371.491 430.952 372.882 430.952H374.372V429.859H373.263C372.567 429.859 372.335 429.594 372.335 428.949V423.766H376.69V429.098Z" fill="#221F23"/>
<path d="M385.788 421.134H387.394V419.528H385.788V421.134ZM387.278 422.674H385.903V430.952H387.278V422.674Z" fill="#221F23"/>
<path d="M394.684 428.783C394.684 429.561 393.807 430.025 392.747 430.025C391.506 430.025 390.645 429.197 390.562 428.055H389.188C389.287 429.611 390.545 431.118 392.698 431.118C394.85 431.118 396.009 430.124 396.009 428.7C396.009 427.359 395.214 426.548 393.625 426.184L392.516 425.935C391.274 425.654 390.777 425.422 390.777 424.743C390.777 423.982 391.555 423.601 392.516 423.601C393.675 423.601 394.353 424.164 394.469 425.124H395.843C395.728 423.601 394.403 422.508 392.516 422.508C390.744 422.508 389.436 423.501 389.436 424.876C389.436 426.184 390.396 426.896 391.986 427.243L393.095 427.492C394.353 427.773 394.684 428.237 394.684 428.783Z" fill="#221F23"/>
<path d="M407.04 425.604V425.869L404.722 426.117C402.967 426.3 401.477 426.846 401.477 428.551C401.477 430.157 402.768 431.118 404.358 431.118C405.649 431.118 406.626 430.472 407.056 429.329H407.09V430.952H408.414V425.919C408.414 423.419 406.907 422.508 405.07 422.508C402.967 422.508 401.858 423.766 401.758 425.29H403.132C403.182 424.313 403.811 423.601 405.07 423.601C406.361 423.601 407.04 424.362 407.04 425.604ZM404.689 430.025C403.712 430.025 402.967 429.445 402.967 428.617C402.967 427.74 403.596 427.293 404.838 427.16L407.04 426.912V427.359C407.04 429.147 406.146 430.025 404.689 430.025Z" fill="#221F23"/>
<path d="M414.43 426.813C414.43 429.114 415.937 431.118 418.321 431.118C420.324 431.118 421.599 430.058 421.963 428.154H420.589C420.341 429.495 419.496 430.025 418.437 430.025C416.814 430.025 415.92 428.617 415.92 426.813C415.92 425.058 416.764 423.601 418.337 423.601C419.43 423.601 420.258 424.097 420.506 425.439H421.881C421.516 423.534 420.258 422.508 418.255 422.508C415.92 422.508 414.43 424.611 414.43 426.813Z" fill="#221F23"/>
<path d="M427.28 431.118C429.764 431.118 431.254 429.015 431.254 426.813C431.254 424.611 429.764 422.508 427.28 422.508C424.796 422.508 423.306 424.611 423.306 426.813C423.306 429.015 424.796 431.118 427.28 431.118ZM427.28 430.025C425.691 430.025 424.796 428.651 424.796 426.813C424.796 424.975 425.691 423.601 427.28 423.601C428.869 423.601 429.764 424.975 429.764 426.813C429.764 428.651 428.869 430.025 427.28 430.025Z" fill="#221F23"/>
<path d="M438.461 425.819V430.952H439.835V425.339C439.835 423.783 438.892 422.508 437.12 422.508C435.895 422.508 435.05 423.154 434.62 424.296H434.587V422.674H433.262V430.952H434.636V425.687C434.636 424.511 435.199 423.65 436.557 423.65C437.898 423.65 438.461 424.445 438.461 425.819Z" fill="#221F23"/>
<path d="M442.784 423.766V429.098C442.784 430.29 443.313 430.952 444.704 430.952H446.194V429.859H445.085C444.39 429.859 444.158 429.594 444.158 428.949V423.766H446.26V422.674H444.158V420.786H442.784V422.674H441.277V423.766H442.784Z" fill="#221F23"/>
<path d="M454.702 428.336H453.328C453.146 429.015 452.715 430.025 451.275 430.025C449.752 430.025 448.758 428.949 448.692 427.227H454.802C455.033 424.445 453.543 422.508 451.076 422.508C448.609 422.508 447.301 424.511 447.301 426.813C447.301 429.114 448.676 431.118 451.143 431.118C453.411 431.118 454.404 429.81 454.702 428.336ZM451.076 423.601C452.533 423.601 453.328 424.644 453.444 426.134H448.692C448.825 424.644 449.619 423.601 451.076 423.601Z" fill="#221F23"/>
<path d="M458.195 425.687C458.195 424.511 458.675 423.65 460.065 423.65C461.373 423.65 461.936 424.445 461.936 425.819V430.952H463.311V425.687C463.311 424.511 463.791 423.65 465.182 423.65C466.49 423.65 467.053 424.445 467.053 425.819V430.952H468.427V425.339C468.427 423.783 467.483 422.508 465.662 422.508C464.486 422.508 463.609 423.154 463.178 424.296H463.162C462.814 423.253 461.936 422.508 460.546 422.508C459.37 422.508 458.608 423.154 458.178 424.296H458.145V422.674H456.82V430.952H458.195V425.687Z" fill="#221F23"/>
<path d="M478.587 426.813C478.587 424.528 477.378 422.508 475.027 422.508C473.719 422.508 472.726 423.236 472.262 424.429H472.229V422.674H470.855V433.767H472.229V429.197H472.262C472.726 430.389 473.719 431.118 475.027 431.118C477.378 431.118 478.587 429.098 478.587 426.813ZM477.097 426.813C477.097 428.651 476.203 430.025 474.613 430.025C473.024 430.025 472.163 428.651 472.163 426.813C472.163 424.975 473.024 423.601 474.613 423.601C476.203 423.601 477.097 424.975 477.097 426.813Z" fill="#221F23"/>
<path d="M484.081 431.118C486.565 431.118 488.055 429.015 488.055 426.813C488.055 424.611 486.565 422.508 484.081 422.508C481.598 422.508 480.108 424.611 480.108 426.813C480.108 429.015 481.598 431.118 484.081 431.118ZM484.081 430.025C482.492 430.025 481.598 428.651 481.598 426.813C481.598 424.975 482.492 423.601 484.081 423.601C485.671 423.601 486.565 424.975 486.565 426.813C486.565 428.651 485.671 430.025 484.081 430.025Z" fill="#221F23"/>
<path d="M491.438 425.985C491.438 424.495 492.282 423.998 493.623 423.998H493.921V422.508C492.696 422.508 491.852 423.154 491.421 424.296H491.388V422.674H490.064V430.952H491.438V425.985Z" fill="#221F23"/>
<path d="M500.334 425.604V425.869L498.017 426.117C496.261 426.3 494.771 426.846 494.771 428.551C494.771 430.157 496.063 431.118 497.652 431.118C498.944 431.118 499.921 430.472 500.351 429.329H500.384V430.952H501.709V425.919C501.709 423.419 500.202 422.508 498.364 422.508C496.261 422.508 495.152 423.766 495.053 425.29H496.427C496.477 424.313 497.106 423.601 498.364 423.601C499.656 423.601 500.334 424.362 500.334 425.604ZM497.983 430.025C497.007 430.025 496.261 429.445 496.261 428.617C496.261 427.74 496.891 427.293 498.132 427.16L500.334 426.912V427.359C500.334 429.147 499.44 430.025 497.983 430.025Z" fill="#221F23"/>
<path d="M505.521 425.985C505.521 424.495 506.365 423.998 507.706 423.998H508.005V422.508C506.779 422.508 505.935 423.154 505.504 424.296H505.471V422.674H504.147V430.952H505.521V425.985Z" fill="#221F23"/>
<path d="M516.847 422.674H515.423L512.79 430.025L510.108 422.674H508.684L511.4 430.124H512.757L511.449 433.767H512.873L516.847 422.674Z" fill="#221F23"/>
<path d="M527.159 425.604V425.869L524.841 426.117C523.086 426.3 521.596 426.846 521.596 428.551C521.596 430.157 522.887 431.118 524.477 431.118C525.768 431.118 526.745 430.472 527.175 429.329H527.208V430.952H528.533V425.919C528.533 423.419 527.026 422.508 525.188 422.508C523.086 422.508 521.976 423.766 521.877 425.29H523.251C523.301 424.313 523.93 423.601 525.188 423.601C526.48 423.601 527.159 424.362 527.159 425.604ZM524.808 430.025C523.831 430.025 523.086 429.445 523.086 428.617C523.086 427.74 523.715 427.293 524.957 427.16L527.159 426.912V427.359C527.159 429.147 526.265 430.025 524.808 430.025Z" fill="#221F23"/>
<path d="M536.17 425.819V430.952H537.544V425.339C537.544 423.783 536.6 422.508 534.829 422.508C533.604 422.508 532.759 423.154 532.329 424.296H532.296V422.674H530.971V430.952H532.345V425.687C532.345 424.511 532.908 423.65 534.266 423.65C535.607 423.65 536.17 424.445 536.17 425.819Z" fill="#221F23"/>
<path d="M539.497 426.813C539.497 429.098 540.706 431.118 543.057 431.118C544.365 431.118 545.358 430.389 545.822 429.197H545.855V430.952H547.229V419.528H545.855V424.429H545.822C545.358 423.236 544.365 422.508 543.057 422.508C540.706 422.508 539.497 424.528 539.497 426.813ZM540.987 426.813C540.987 424.975 541.881 423.601 543.471 423.601C545.06 423.601 545.921 424.975 545.921 426.813C545.921 428.651 545.06 430.025 543.471 430.025C541.881 430.025 540.987 428.651 540.987 426.813Z" fill="#221F23"/>
<path d="M552.94 422.674L555.374 430.952H558.189L560.623 422.674H559.199L556.781 430.886L554.364 422.674H552.94Z" fill="#221F23"/>
<path d="M569 428.336H567.626C567.444 429.015 567.014 430.025 565.573 430.025C564.05 430.025 563.056 428.949 562.99 427.227H569.1C569.332 424.445 567.841 422.508 565.374 422.508C562.907 422.508 561.599 424.511 561.599 426.813C561.599 429.114 562.974 431.118 565.441 431.118C567.709 431.118 568.702 429.81 569 428.336ZM565.374 423.601C566.831 423.601 567.626 424.644 567.742 426.134H562.99C563.123 424.644 563.917 423.601 565.374 423.601Z" fill="#221F23"/>
<path d="M572.493 425.985C572.493 424.495 573.337 423.998 574.678 423.998H574.976V422.508C573.751 422.508 572.907 423.154 572.476 424.296H572.443V422.674H571.118V430.952H572.493V425.985Z" fill="#221F23"/>
<path d="M581.387 428.783C581.387 429.561 580.509 430.025 579.45 430.025C578.208 430.025 577.347 429.197 577.264 428.055H575.89C575.989 429.611 577.248 431.118 579.4 431.118C581.552 431.118 582.711 430.124 582.711 428.7C582.711 427.359 581.917 426.548 580.327 426.184L579.218 425.935C577.976 425.654 577.479 425.422 577.479 424.743C577.479 423.982 578.258 423.601 579.218 423.601C580.377 423.601 581.056 424.164 581.172 425.124H582.546C582.43 423.601 581.105 422.508 579.218 422.508C577.446 422.508 576.138 423.501 576.138 424.876C576.138 426.184 577.099 426.896 578.688 427.243L579.797 427.492C581.056 427.773 581.387 428.237 581.387 428.783Z" fill="#221F23"/>
<path d="M589.668 425.604V425.869L587.35 426.117C585.595 426.3 584.105 426.846 584.105 428.551C584.105 430.157 585.396 431.118 586.986 431.118C588.277 431.118 589.254 430.472 589.684 429.329H589.717V430.952H591.042V425.919C591.042 423.419 589.535 422.508 587.697 422.508C585.595 422.508 584.485 423.766 584.386 425.29H585.76C585.81 424.313 586.439 423.601 587.697 423.601C588.989 423.601 589.668 424.362 589.668 425.604ZM587.317 430.025C586.34 430.025 585.595 429.445 585.595 428.617C585.595 427.74 586.224 427.293 587.466 427.16L589.668 426.912V427.359C589.668 429.147 588.774 430.025 587.317 430.025Z" fill="#221F23"/>
<path d="M593.947 423.766V429.098C593.947 430.29 594.477 430.952 595.867 430.952H597.357V429.859H596.248C595.553 429.859 595.321 429.594 595.321 428.949V423.766H597.424V422.674H595.321V420.786H593.947V422.674H592.44V423.766H593.947Z" fill="#221F23"/>
<path d="M598.959 421.134H600.565V419.528H598.959V421.134ZM600.449 422.674H599.074V430.952H600.449V422.674Z" fill="#221F23"/>
<path d="M602.971 430.952H604.345V419.528H602.971V430.952Z" fill="#221F23"/>
<path d="M613.772 428.336H612.398C612.216 429.015 611.785 430.025 610.345 430.025C608.822 430.025 607.828 428.949 607.762 427.227H613.871C614.103 424.445 612.613 422.508 610.146 422.508C607.679 422.508 606.371 424.511 606.371 426.813C606.371 429.114 607.745 431.118 610.212 431.118C612.481 431.118 613.474 429.81 613.772 428.336ZM610.146 423.601C611.603 423.601 612.398 424.644 612.514 426.134H607.762C607.894 424.644 608.689 423.601 610.146 423.601Z" fill="#221F23"/>
<path d="M335.805 453.85C335.805 455.324 334.828 456.019 333.536 456.019C332.444 456.019 331.5 455.539 331.318 454.364H329.944C330.175 456.052 331.351 457.112 333.536 457.112C335.937 457.112 337.179 455.721 337.179 453.85V445.853H335.805V447.608H335.772C335.308 446.416 334.315 445.688 333.007 445.688C330.656 445.688 329.447 447.542 329.447 449.827C329.447 452.112 330.656 453.966 333.007 453.966C334.315 453.966 335.308 453.238 335.772 452.046H335.805V453.85ZM330.937 449.827C330.937 447.989 331.831 446.78 333.421 446.78C335.01 446.78 335.871 447.989 335.871 449.827C335.871 451.665 335.01 452.873 333.421 452.873C331.831 452.873 330.937 451.665 330.937 449.827Z" fill="#221F23"/>
<path d="M341.067 449.165C341.067 447.675 341.911 447.178 343.252 447.178H343.55V445.688C342.325 445.688 341.481 446.333 341.05 447.476H341.017V445.853H339.693V454.132H341.067V449.165Z" fill="#221F23"/>
<path d="M348.36 454.297C350.843 454.297 352.333 452.195 352.333 449.993C352.333 447.79 350.843 445.688 348.36 445.688C345.876 445.688 344.386 447.79 344.386 449.993C344.386 452.195 345.876 454.297 348.36 454.297ZM348.36 453.205C346.77 453.205 345.876 451.83 345.876 449.993C345.876 448.155 346.77 446.78 348.36 446.78C349.949 446.78 350.843 448.155 350.843 449.993C350.843 451.83 349.949 453.205 348.36 453.205Z" fill="#221F23"/>
<path d="M354.76 446.946V452.277C354.76 453.469 355.29 454.132 356.681 454.132H358.171V453.039H357.061C356.366 453.039 356.134 452.774 356.134 452.128V446.946H358.237V445.853H356.134V443.966H354.76V445.853H353.253V446.946H354.76Z" fill="#221F23"/>
<path d="M366.679 451.516H365.305C365.122 452.195 364.692 453.205 363.251 453.205C361.728 453.205 360.735 452.128 360.669 450.406H366.778C367.01 447.625 365.52 445.688 363.053 445.688C360.586 445.688 359.278 447.691 359.278 449.993C359.278 452.294 360.652 454.297 363.119 454.297C365.387 454.297 366.381 452.989 366.679 451.516ZM363.053 446.78C364.51 446.78 365.305 447.824 365.42 449.314H360.669C360.801 447.824 361.596 446.78 363.053 446.78Z" fill="#221F23"/>
<path d="M373.681 451.963C373.681 452.741 372.804 453.205 371.744 453.205C370.502 453.205 369.641 452.377 369.558 451.234H368.184C368.283 452.791 369.542 454.297 371.694 454.297C373.847 454.297 375.006 453.304 375.006 451.88C375.006 450.539 374.211 449.728 372.621 449.363L371.512 449.115C370.27 448.834 369.774 448.602 369.774 447.923C369.774 447.161 370.552 446.78 371.512 446.78C372.671 446.78 373.35 447.343 373.466 448.304H374.84C374.724 446.78 373.4 445.688 371.512 445.688C369.74 445.688 368.433 446.681 368.433 448.055C368.433 449.363 369.393 450.075 370.982 450.423L372.092 450.671C373.35 450.953 373.681 451.416 373.681 451.963Z" fill="#221F23"/>
<path d="M376.498 449.993C376.498 452.277 377.707 454.297 380.058 454.297C381.366 454.297 382.359 453.569 382.823 452.377H382.856V456.946H384.23V445.853H382.856V447.608H382.823C382.359 446.416 381.366 445.688 380.058 445.688C377.707 445.688 376.498 447.708 376.498 449.993ZM377.988 449.993C377.988 448.155 378.882 446.78 380.472 446.78C382.061 446.78 382.922 448.155 382.922 449.993C382.922 451.83 382.061 453.205 380.472 453.205C378.882 453.205 377.988 451.83 377.988 449.993Z" fill="#221F23"/>
<path d="M388.052 450.986V445.853H386.678V451.466C386.678 453.022 387.622 454.297 389.443 454.297C390.619 454.297 391.38 453.652 391.811 452.509H391.844V454.132H393.168V445.853H391.794V451.118C391.794 452.294 391.314 453.155 389.923 453.155C388.615 453.155 388.052 452.36 388.052 450.986Z" fill="#221F23"/>
<path d="M402.59 451.516H401.216C401.034 452.195 400.603 453.205 399.163 453.205C397.639 453.205 396.646 452.128 396.58 450.406H402.689C402.921 447.625 401.431 445.688 398.964 445.688C396.497 445.688 395.189 447.691 395.189 449.993C395.189 452.294 396.563 454.297 399.03 454.297C401.298 454.297 402.292 452.989 402.59 451.516ZM398.964 446.78C400.421 446.78 401.216 447.824 401.332 449.314H396.58C396.712 447.824 397.507 446.78 398.964 446.78Z" fill="#221F23"/>
<path d="M409.136 446.946V452.277C409.136 453.469 409.666 454.132 411.057 454.132H412.547V453.039H411.437C410.742 453.039 410.51 452.774 410.51 452.128V446.946H412.613V445.853H410.51V443.966H409.136V445.853H407.629V446.946H409.136Z" fill="#221F23"/>
<path d="M421.483 445.853H420.059L417.426 453.205L414.744 445.853H413.32L416.035 453.304H417.393L416.085 456.946H417.509L421.483 445.853Z" fill="#221F23"/>
<path d="M430.711 449.993C430.711 447.708 429.502 445.688 427.151 445.688C425.843 445.688 424.85 446.416 424.386 447.608H424.353V445.853H422.979V456.946H424.353V452.377H424.386C424.85 453.569 425.843 454.297 427.151 454.297C429.502 454.297 430.711 452.277 430.711 449.993ZM429.221 449.993C429.221 451.83 428.327 453.205 426.737 453.205C425.148 453.205 424.287 451.83 424.287 449.993C424.287 448.155 425.148 446.78 426.737 446.78C428.327 446.78 429.221 448.155 429.221 449.993Z" fill="#221F23"/>
<path d="M439.649 451.516H438.275C438.093 452.195 437.662 453.205 436.222 453.205C434.699 453.205 433.705 452.128 433.639 450.406H439.748C439.98 447.625 438.49 445.688 436.023 445.688C433.556 445.688 432.248 447.691 432.248 449.993C432.248 452.294 433.622 454.297 436.089 454.297C438.358 454.297 439.351 452.989 439.649 451.516ZM436.023 446.78C437.48 446.78 438.275 447.824 438.391 449.314H433.639C433.771 447.824 434.566 446.78 436.023 446.78Z" fill="#221F23"/>
<path d="M442.234 445.853H440.727V446.946H442.234V454.132H443.608V446.946H445.711V445.853H443.608V444.711C443.608 444.065 443.84 443.8 444.536 443.8H445.645V442.707H444.155C442.764 442.707 442.234 443.37 442.234 444.562V445.853Z" fill="#221F23"/>
<path d="M452.054 448.784V449.049L449.736 449.297C447.981 449.479 446.491 450.026 446.491 451.731C446.491 453.337 447.782 454.297 449.372 454.297C450.663 454.297 451.64 453.652 452.071 452.509H452.104V454.132H453.428V449.098C453.428 446.598 451.922 445.688 450.084 445.688C447.981 445.688 446.872 446.946 446.772 448.469H448.147C448.196 447.492 448.826 446.78 450.084 446.78C451.375 446.78 452.054 447.542 452.054 448.784ZM449.703 453.205C448.726 453.205 447.981 452.625 447.981 451.797C447.981 450.92 448.61 450.473 449.852 450.34L452.054 450.092V450.539C452.054 452.327 451.16 453.205 449.703 453.205Z" fill="#221F23"/>
<path d="M455.37 449.993C455.37 452.294 456.876 454.297 459.261 454.297C461.264 454.297 462.539 453.238 462.903 451.334H461.529C461.28 452.675 460.436 453.205 459.376 453.205C457.754 453.205 456.86 451.797 456.86 449.993C456.86 448.237 457.704 446.78 459.277 446.78C460.37 446.78 461.198 447.277 461.446 448.618H462.82C462.456 446.714 461.198 445.688 459.194 445.688C456.86 445.688 455.37 447.79 455.37 449.993Z" fill="#221F23"/>
<path d="M471.664 451.516H470.289C470.107 452.195 469.677 453.205 468.236 453.205C466.713 453.205 465.72 452.128 465.653 450.406H471.763C471.995 447.625 470.505 445.688 468.038 445.688C465.571 445.688 464.263 447.691 464.263 449.993C464.263 452.294 465.637 454.297 468.104 454.297C470.372 454.297 471.365 452.989 471.664 451.516ZM468.038 446.78C469.495 446.78 470.289 447.824 470.405 449.314H465.653C465.786 447.824 466.581 446.78 468.038 446.78Z" fill="#221F23"/>
<path d="M478.21 446.946V452.277C478.21 453.469 478.739 454.132 480.13 454.132H481.62V453.039H480.511C479.816 453.039 479.584 452.774 479.584 452.128V446.946H481.687V445.853H479.584V443.966H478.21V445.853H476.703V446.946H478.21Z" fill="#221F23"/>
<path d="M488.536 448.999V454.132H489.91V448.519C489.91 446.963 488.967 445.688 487.195 445.688C485.97 445.688 485.126 446.333 484.695 447.476H484.662V442.707H483.337V454.132H484.712V448.867C484.712 447.691 485.275 446.83 486.632 446.83C487.973 446.83 488.536 447.625 488.536 448.999Z" fill="#221F23"/>
<path d="M497.327 448.784V449.049L495.009 449.297C493.254 449.479 491.764 450.026 491.764 451.731C491.764 453.337 493.055 454.297 494.645 454.297C495.936 454.297 496.913 453.652 497.344 452.509H497.377V454.132H498.701V449.098C498.701 446.598 497.195 445.688 495.357 445.688C493.254 445.688 492.145 446.946 492.045 448.469H493.42C493.469 447.492 494.098 446.78 495.357 446.78C496.648 446.78 497.327 447.542 497.327 448.784ZM494.976 453.205C493.999 453.205 493.254 452.625 493.254 451.797C493.254 450.92 493.883 450.473 495.125 450.34L497.327 450.092V450.539C497.327 452.327 496.433 453.205 494.976 453.205Z" fill="#221F23"/>
<path d="M501.606 446.946V452.277C501.606 453.469 502.136 454.132 503.527 454.132H505.017V453.039H503.907C503.212 453.039 502.98 452.774 502.98 452.128V446.946H505.083V445.853H502.98V443.966H501.606V445.853H500.099V446.946H501.606Z" fill="#221F23"/>
<path d="M511.421 445.853H509.914V446.946H511.421V454.132H512.795V446.946H514.898V445.853H512.795V444.711C512.795 444.065 513.027 443.8 513.722 443.8H514.832V442.707H513.342C511.951 442.707 511.421 443.37 511.421 444.562V445.853Z" fill="#221F23"/>
<path d="M523.064 451.516H521.69C521.508 452.195 521.078 453.205 519.637 453.205C518.114 453.205 517.121 452.128 517.054 450.406H523.164C523.396 447.625 521.906 445.688 519.439 445.688C516.972 445.688 515.664 447.691 515.664 449.993C515.664 452.294 517.038 454.297 519.505 454.297C521.773 454.297 522.766 452.989 523.064 451.516ZM519.439 446.78C520.896 446.78 521.69 447.824 521.806 449.314H517.054C517.187 447.824 517.982 446.78 519.439 446.78Z" fill="#221F23"/>
<path d="M530.166 448.784V449.049L527.848 449.297C526.093 449.479 524.603 450.026 524.603 451.731C524.603 453.337 525.894 454.297 527.484 454.297C528.775 454.297 529.752 453.652 530.183 452.509H530.216V454.132H531.54V449.098C531.54 446.598 530.034 445.688 528.196 445.688C526.093 445.688 524.984 446.946 524.884 448.469H526.259C526.308 447.492 526.938 446.78 528.196 446.78C529.487 446.78 530.166 447.542 530.166 448.784ZM527.815 453.205C526.838 453.205 526.093 452.625 526.093 451.797C526.093 450.92 526.722 450.473 527.964 450.34L530.166 450.092V450.539C530.166 452.327 529.272 453.205 527.815 453.205Z" fill="#221F23"/>
<path d="M534.445 446.946V452.277C534.445 453.469 534.975 454.132 536.366 454.132H537.856V453.039H536.747C536.051 453.039 535.819 452.774 535.819 452.128V446.946H537.922V445.853H535.819V443.966H534.445V445.853H532.938V446.946H534.445Z" fill="#221F23"/>
<path d="M540.881 450.986V445.853H539.507V451.466C539.507 453.022 540.45 454.297 542.272 454.297C543.447 454.297 544.209 453.652 544.639 452.509H544.672V454.132H545.997V445.853H544.623V451.118C544.623 452.294 544.143 453.155 542.752 453.155C541.444 453.155 540.881 452.36 540.881 450.986Z" fill="#221F23"/>
<path d="M549.888 449.165C549.888 447.675 550.733 447.178 552.074 447.178H552.372V445.688C551.147 445.688 550.302 446.333 549.872 447.476H549.839V445.853H548.514V454.132H549.888V449.165Z" fill="#221F23"/>
<path d="M560.625 451.516H559.251C559.069 452.195 558.638 453.205 557.198 453.205C555.674 453.205 554.681 452.128 554.615 450.406H560.724C560.956 447.625 559.466 445.688 556.999 445.688C554.532 445.688 553.224 447.691 553.224 449.993C553.224 452.294 554.598 454.297 557.065 454.297C559.333 454.297 560.327 452.989 560.625 451.516ZM556.999 446.78C558.456 446.78 559.251 447.824 559.367 449.314H554.615C554.747 447.824 555.542 446.78 556.999 446.78Z" fill="#221F23"/>
<path d="M567.627 451.963C567.627 452.741 566.75 453.205 565.69 453.205C564.448 453.205 563.587 452.377 563.505 451.234H562.13C562.23 452.791 563.488 454.297 565.64 454.297C567.793 454.297 568.952 453.304 568.952 451.88C568.952 450.539 568.157 449.728 566.568 449.363L565.458 449.115C564.216 448.834 563.72 448.602 563.72 447.923C563.72 447.161 564.498 446.78 565.458 446.78C566.617 446.78 567.296 447.343 567.412 448.304H568.786C568.67 446.78 567.346 445.688 565.458 445.688C563.687 445.688 562.379 446.681 562.379 448.055C562.379 449.363 563.339 450.075 564.928 450.423L566.038 450.671C567.296 450.953 567.627 451.416 567.627 451.963Z" fill="#221F23"/>
<path d="M579.983 448.784V449.049L577.665 449.297C575.91 449.479 574.419 450.026 574.419 451.731C574.419 453.337 575.711 454.297 577.3 454.297C578.592 454.297 579.569 453.652 579.999 452.509H580.032V454.132H581.357V449.098C581.357 446.598 579.85 445.688 578.012 445.688C575.91 445.688 574.8 446.946 574.701 448.469H576.075C576.125 447.492 576.754 446.78 578.012 446.78C579.304 446.78 579.983 447.542 579.983 448.784ZM577.631 453.205C576.655 453.205 575.91 452.625 575.91 451.797C575.91 450.92 576.539 450.473 577.78 450.34L579.983 450.092V450.539C579.983 452.327 579.088 453.205 577.631 453.205Z" fill="#221F23"/>
<path d="M588.994 448.999V454.132H590.368V448.519C590.368 446.963 589.424 445.688 587.653 445.688C586.427 445.688 585.583 446.333 585.152 447.476H585.119V445.853H583.795V454.132H585.169V448.867C585.169 447.691 585.732 446.83 587.09 446.83C588.431 446.83 588.994 447.625 588.994 448.999Z" fill="#221F23"/>
<path d="M600.336 454.297C602.819 454.297 604.31 452.195 604.31 449.993C604.31 447.79 602.819 445.688 600.336 445.688C597.852 445.688 596.362 447.79 596.362 449.993C596.362 452.195 597.852 454.297 600.336 454.297ZM600.336 453.205C598.746 453.205 597.852 451.83 597.852 449.993C597.852 448.155 598.746 446.78 600.336 446.78C601.925 446.78 602.819 448.155 602.819 449.993C602.819 451.83 601.925 453.205 600.336 453.205Z" fill="#221F23"/>
<path d="M607.692 449.165C607.692 447.675 608.537 447.178 609.878 447.178H610.176V445.688C608.951 445.688 608.106 446.333 607.676 447.476H607.643V445.853H606.318V454.132H607.692V449.165Z" fill="#221F23"/>
<path d="M617.419 453.85C617.419 455.324 616.442 456.019 615.15 456.019C614.058 456.019 613.114 455.539 612.932 454.364H611.558C611.789 456.052 612.965 457.112 615.15 457.112C617.551 457.112 618.793 455.721 618.793 453.85V445.853H617.419V447.608H617.386C616.922 446.416 615.929 445.688 614.621 445.688C612.27 445.688 611.061 447.542 611.061 449.827C611.061 452.112 612.27 453.966 614.621 453.966C615.929 453.966 616.922 453.238 617.386 452.046H617.419V453.85ZM612.551 449.827C612.551 447.989 613.445 446.78 615.035 446.78C616.624 446.78 617.485 447.989 617.485 449.827C617.485 451.665 616.624 452.873 615.035 452.873C613.445 452.873 612.551 451.665 612.551 449.827Z" fill="#221F23"/>
<path d="M626.29 448.784V449.049L623.972 449.297C622.217 449.479 620.727 450.026 620.727 451.731C620.727 453.337 622.019 454.297 623.608 454.297C624.9 454.297 625.876 453.652 626.307 452.509H626.34V454.132H627.665V449.098C627.665 446.598 626.158 445.688 624.32 445.688C622.217 445.688 621.108 446.946 621.009 448.469H622.383C622.433 447.492 623.062 446.78 624.32 446.78C625.612 446.78 626.29 447.542 626.29 448.784ZM623.939 453.205C622.962 453.205 622.217 452.625 622.217 451.797C622.217 450.92 622.846 450.473 624.088 450.34L626.29 450.092V450.539C626.29 452.327 625.396 453.205 623.939 453.205Z" fill="#221F23"/>
<path d="M635.301 448.999V454.132H636.676V448.519C636.676 446.963 635.732 445.688 633.96 445.688C632.735 445.688 631.891 446.333 631.46 447.476H631.427V445.853H630.103V454.132H631.477V448.867C631.477 447.691 632.04 446.83 633.397 446.83C634.739 446.83 635.301 447.625 635.301 448.999Z" fill="#221F23"/>
<path d="M638.993 444.313H640.599V442.707H638.993V444.313ZM640.483 445.853H639.109V454.132H640.483V445.853Z" fill="#221F23"/>
<path d="M642.509 449.993C642.509 452.294 644.015 454.297 646.4 454.297C648.403 454.297 649.678 453.238 650.042 451.334H648.668C648.419 452.675 647.575 453.205 646.515 453.205C644.893 453.205 643.999 451.797 643.999 449.993C643.999 448.237 644.843 446.78 646.416 446.78C647.509 446.78 648.337 447.277 648.585 448.618H649.959C649.595 446.714 648.337 445.688 646.333 445.688C643.999 445.688 642.509 447.79 642.509 449.993Z" fill="#221F23"/>
<path d="M329.43 473.172C329.43 475.457 330.639 477.477 332.99 477.477C334.298 477.477 335.292 476.749 335.755 475.556H335.788V477.312H337.162V465.887H335.788V470.788H335.755C335.292 469.596 334.298 468.867 332.99 468.867C330.639 468.867 329.43 470.887 329.43 473.172ZM330.92 473.172C330.92 471.334 331.815 469.96 333.404 469.96C334.994 469.96 335.854 471.334 335.854 473.172C335.854 475.01 334.994 476.384 333.404 476.384C331.815 476.384 330.92 475.01 330.92 473.172Z" fill="#221F23"/>
<path d="M341.051 472.344C341.051 470.854 341.895 470.358 343.236 470.358H343.534V468.867C342.309 468.867 341.465 469.513 341.034 470.656H341.001V469.033H339.677V477.312H341.051V472.344Z" fill="#221F23"/>
<path d="M349.947 471.964V472.229L347.629 472.477C345.874 472.659 344.384 473.205 344.384 474.911C344.384 476.517 345.676 477.477 347.265 477.477C348.557 477.477 349.533 476.831 349.964 475.689H349.997V477.312H351.322V472.278C351.322 469.778 349.815 468.867 347.977 468.867C345.874 468.867 344.765 470.126 344.666 471.649H346.04C346.09 470.672 346.719 469.96 347.977 469.96C349.269 469.96 349.947 470.722 349.947 471.964ZM347.596 476.384C346.619 476.384 345.874 475.805 345.874 474.977C345.874 474.099 346.504 473.652 347.745 473.52L349.947 473.272V473.719C349.947 475.507 349.053 476.384 347.596 476.384Z" fill="#221F23"/>
<path d="M357.986 469.033L356.346 477.245L354.31 469.033H352.886L354.939 477.312H357.704L359.343 469.099L360.982 477.312H363.747L365.8 469.033H364.377L362.34 477.245L360.701 469.033H357.986Z" fill="#221F23"/>
<path d="M367.484 467.493H369.09V465.887H367.484V467.493ZM368.974 469.033H367.6V477.312H368.974V469.033Z" fill="#221F23"/>
<path d="M376.696 472.179V477.312H378.07V471.699C378.07 470.142 377.126 468.867 375.355 468.867C374.13 468.867 373.285 469.513 372.855 470.656H372.822V469.033H371.497V477.312H372.871V472.046C372.871 470.871 373.434 470.01 374.792 470.01C376.133 470.01 376.696 470.805 376.696 472.179Z" fill="#221F23"/>
<path d="M386.397 477.03C386.397 478.504 385.42 479.199 384.129 479.199C383.036 479.199 382.093 478.719 381.91 477.543H380.536C380.768 479.232 381.944 480.292 384.129 480.292C386.53 480.292 387.772 478.901 387.772 477.03V469.033H386.397V470.788H386.364C385.901 469.596 384.907 468.867 383.599 468.867C381.248 468.867 380.039 470.722 380.039 473.007C380.039 475.292 381.248 477.146 383.599 477.146C384.907 477.146 385.901 476.417 386.364 475.225H386.397V477.03ZM381.53 473.007C381.53 471.169 382.424 469.96 384.013 469.96C385.603 469.96 386.464 471.169 386.464 473.007C386.464 474.845 385.603 476.053 384.013 476.053C382.424 476.053 381.53 474.845 381.53 473.007Z" fill="#221F23"/>
<path d="M399.343 471.964V472.229L397.025 472.477C395.27 472.659 393.78 473.205 393.78 474.911C393.78 476.517 395.072 477.477 396.661 477.477C397.953 477.477 398.93 476.831 399.36 475.689H399.393V477.312H400.718V472.278C400.718 469.778 399.211 468.867 397.373 468.867C395.27 468.867 394.161 470.126 394.062 471.649H395.436C395.486 470.672 396.115 469.96 397.373 469.96C398.665 469.96 399.343 470.722 399.343 471.964ZM396.992 476.384C396.016 476.384 395.27 475.805 395.27 474.977C395.27 474.099 395.9 473.652 397.141 473.52L399.343 473.272V473.719C399.343 475.507 398.449 476.384 396.992 476.384Z" fill="#221F23"/>
<path d="M408.355 472.179V477.312H409.729V471.699C409.729 470.142 408.785 468.867 407.013 468.867C405.788 468.867 404.944 469.513 404.513 470.656H404.48V469.033H403.156V477.312H404.53V472.046C404.53 470.871 405.093 470.01 406.451 470.01C407.792 470.01 408.355 470.805 408.355 472.179Z" fill="#221F23"/>
<path d="M411.682 473.172C411.682 475.457 412.89 477.477 415.241 477.477C416.549 477.477 417.543 476.749 418.006 475.556H418.04V477.312H419.414V465.887H418.04V470.788H418.006C417.543 469.596 416.549 468.867 415.241 468.867C412.89 468.867 411.682 470.887 411.682 473.172ZM413.172 473.172C413.172 471.334 414.066 469.96 415.655 469.96C417.245 469.96 418.106 471.334 418.106 473.172C418.106 475.01 417.245 476.384 415.655 476.384C414.066 476.384 413.172 475.01 413.172 473.172Z" fill="#221F23"/>
<path d="M430.986 471.964V472.229L428.668 472.477C426.913 472.659 425.423 473.205 425.423 474.911C425.423 476.517 426.714 477.477 428.304 477.477C429.595 477.477 430.572 476.831 431.003 475.689H431.036V477.312H432.36V472.278C432.36 469.778 430.854 468.867 429.016 468.867C426.913 468.867 425.804 470.126 425.704 471.649H427.079C427.128 470.672 427.757 469.96 429.016 469.96C430.307 469.96 430.986 470.722 430.986 471.964ZM428.635 476.384C427.658 476.384 426.913 475.805 426.913 474.977C426.913 474.099 427.542 473.652 428.784 473.52L430.986 473.272V473.719C430.986 475.507 430.092 476.384 428.635 476.384Z" fill="#221F23"/>
<path d="M446.605 473.172C446.605 470.887 445.396 468.867 443.045 468.867C441.737 468.867 440.744 469.596 440.28 470.788H440.247V469.033H438.873V480.126H440.247V475.556H440.28C440.744 476.749 441.737 477.477 443.045 477.477C445.396 477.477 446.605 475.457 446.605 473.172ZM445.115 473.172C445.115 475.01 444.221 476.384 442.631 476.384C441.042 476.384 440.181 475.01 440.181 473.172C440.181 471.334 441.042 469.96 442.631 469.96C444.221 469.96 445.115 471.334 445.115 473.172Z" fill="#221F23"/>
<path d="M453.622 471.964V472.229L451.305 472.477C449.549 472.659 448.059 473.205 448.059 474.911C448.059 476.517 449.351 477.477 450.94 477.477C452.232 477.477 453.209 476.831 453.639 475.689H453.672V477.312H454.997V472.278C454.997 469.778 453.49 468.867 451.652 468.867C449.549 468.867 448.44 470.126 448.341 471.649H449.715C449.765 470.672 450.394 469.96 451.652 469.96C452.944 469.96 453.622 470.722 453.622 471.964ZM451.271 476.384C450.295 476.384 449.549 475.805 449.549 474.977C449.549 474.099 450.179 473.652 451.42 473.52L453.622 473.272V473.719C453.622 475.507 452.728 476.384 451.271 476.384Z" fill="#221F23"/>
<path d="M458.809 472.344C458.809 470.854 459.653 470.358 460.994 470.358H461.293V468.867C460.067 468.867 459.223 469.513 458.792 470.656H458.759V469.033H457.435V477.312H458.809V472.344Z" fill="#221F23"/>
<path d="M463.512 470.126V475.457C463.512 476.649 464.042 477.312 465.433 477.312H466.923V476.219H465.813C465.118 476.219 464.886 475.954 464.886 475.308V470.126H466.989V469.033H464.886V467.146H463.512V469.033H462.005V470.126H463.512Z" fill="#221F23"/>
<path d="M468.524 467.493H470.13V465.887H468.524V467.493ZM470.014 469.033H468.64V477.312H470.014V469.033Z" fill="#221F23"/>
<path d="M472.04 473.172C472.04 475.474 473.546 477.477 475.931 477.477C477.934 477.477 479.209 476.417 479.573 474.513H478.199C477.951 475.855 477.106 476.384 476.047 476.384C474.424 476.384 473.53 474.977 473.53 473.172C473.53 471.417 474.374 469.96 475.947 469.96C477.04 469.96 477.868 470.457 478.116 471.798H479.49C479.126 469.894 477.868 468.867 475.864 468.867C473.53 468.867 472.04 470.97 472.04 473.172Z" fill="#221F23"/>
<path d="M482.737 474.166V469.033H481.363V474.646C481.363 476.202 482.307 477.477 484.128 477.477C485.304 477.477 486.065 476.831 486.496 475.689H486.529V477.312H487.854V469.033H486.479V474.298C486.479 475.474 485.999 476.335 484.608 476.335C483.3 476.335 482.737 475.54 482.737 474.166Z" fill="#221F23"/>
<path d="M490.371 477.312H491.745V465.887H490.371V477.312Z" fill="#221F23"/>
<path d="M499.251 471.964V472.229L496.933 472.477C495.178 472.659 493.688 473.205 493.688 474.911C493.688 476.517 494.979 477.477 496.569 477.477C497.86 477.477 498.837 476.831 499.268 475.689H499.301V477.312H500.625V472.278C500.625 469.778 499.119 468.867 497.281 468.867C495.178 468.867 494.069 470.126 493.97 471.649H495.344C495.393 470.672 496.023 469.96 497.281 469.96C498.572 469.96 499.251 470.722 499.251 471.964ZM496.9 476.384C495.923 476.384 495.178 475.805 495.178 474.977C495.178 474.099 495.807 473.652 497.049 473.52L499.251 473.272V473.719C499.251 475.507 498.357 476.384 496.9 476.384Z" fill="#221F23"/>
<path d="M504.438 472.344C504.438 470.854 505.282 470.358 506.623 470.358H506.921V468.867C505.696 468.867 504.852 469.513 504.421 470.656H504.388V469.033H503.063V477.312H504.438V472.344Z" fill="#221F23"/>
<path d="M511.735 473.172C511.735 475.457 512.944 477.477 515.295 477.477C516.603 477.477 517.596 476.749 518.06 475.556H518.093V477.312H519.467V465.887H518.093V470.788H518.06C517.596 469.596 516.603 468.867 515.295 468.867C512.944 468.867 511.735 470.887 511.735 473.172ZM513.225 473.172C513.225 471.334 514.119 469.96 515.709 469.96C517.298 469.96 518.159 471.334 518.159 473.172C518.159 475.01 517.298 476.384 515.709 476.384C514.119 476.384 513.225 475.01 513.225 473.172Z" fill="#221F23"/>
<path d="M521.865 467.493H523.471V465.887H521.865V467.493ZM523.355 469.033H521.981V477.312H523.355V469.033Z" fill="#221F23"/>
<path d="M531.772 477.03C531.772 478.504 530.795 479.199 529.504 479.199C528.411 479.199 527.467 478.719 527.285 477.543H525.911C526.143 479.232 527.318 480.292 529.504 480.292C531.904 480.292 533.146 478.901 533.146 477.03V469.033H531.772V470.788H531.739C531.275 469.596 530.282 468.867 528.974 468.867C526.623 468.867 525.414 470.722 525.414 473.007C525.414 475.292 526.623 477.146 528.974 477.146C530.282 477.146 531.275 476.417 531.739 475.225H531.772V477.03ZM526.904 473.007C526.904 471.169 527.798 469.96 529.388 469.96C530.977 469.96 531.838 471.169 531.838 473.007C531.838 474.845 530.977 476.053 529.388 476.053C527.798 476.053 526.904 474.845 526.904 473.007Z" fill="#221F23"/>
<path d="M535.544 467.493H537.15V465.887H535.544V467.493ZM537.034 469.033H535.66V477.312H537.034V469.033Z" fill="#221F23"/>
<path d="M540.153 470.126V475.457C540.153 476.649 540.683 477.312 542.073 477.312H543.563V476.219H542.454C541.759 476.219 541.527 475.954 541.527 475.308V470.126H543.63V469.033H541.527V467.146H540.153V469.033H538.646V470.126H540.153Z" fill="#221F23"/>
<path d="M550.264 471.964V472.229L547.946 472.477C546.191 472.659 544.701 473.205 544.701 474.911C544.701 476.517 545.992 477.477 547.582 477.477C548.873 477.477 549.85 476.831 550.281 475.689H550.314V477.312H551.638V472.278C551.638 469.778 550.132 468.867 548.294 468.867C546.191 468.867 545.082 470.126 544.982 471.649H546.357C546.406 470.672 547.035 469.96 548.294 469.96C549.585 469.96 550.264 470.722 550.264 471.964ZM547.913 476.384C546.936 476.384 546.191 475.805 546.191 474.977C546.191 474.099 546.82 473.652 548.062 473.52L550.264 473.272V473.719C550.264 475.507 549.37 476.384 547.913 476.384Z" fill="#221F23"/>
<path d="M554.076 477.312H555.451V465.887H554.076V477.312Z" fill="#221F23"/>
<path d="M567.677 477.312H569.051V465.887H564.581C563.19 465.887 562.66 466.55 562.66 467.742V469.033H561.154V470.126H562.66V477.312H564.034V470.126H566.137V469.033H564.034V467.891C564.034 467.245 564.266 466.98 564.962 466.98H567.677V477.312Z" fill="#221F23"/>
<path d="M576.555 471.964V472.229L574.237 472.477C572.482 472.659 570.992 473.205 570.992 474.911C570.992 476.517 572.283 477.477 573.873 477.477C575.164 477.477 576.141 476.831 576.571 475.689H576.604V477.312H577.929V472.278C577.929 469.778 576.422 468.867 574.584 468.867C572.482 468.867 571.372 470.126 571.273 471.649H572.647C572.697 470.672 573.326 469.96 574.584 469.96C575.876 469.96 576.555 470.722 576.555 471.964ZM574.204 476.384C573.227 476.384 572.482 475.805 572.482 474.977C572.482 474.099 573.111 473.652 574.353 473.52L576.555 473.272V473.719C576.555 475.507 575.661 476.384 574.204 476.384Z" fill="#221F23"/>
<path d="M579.376 469.033L581.81 477.312H584.625L587.059 469.033H585.635L583.218 477.245L580.8 469.033H579.376Z" fill="#221F23"/>
<path d="M591.993 477.477C594.476 477.477 595.966 475.374 595.966 473.172C595.966 470.97 594.476 468.867 591.993 468.867C589.509 468.867 588.019 470.97 588.019 473.172C588.019 475.374 589.509 477.477 591.993 477.477ZM591.993 476.384C590.403 476.384 589.509 475.01 589.509 473.172C589.509 471.334 590.403 469.96 591.993 469.96C593.582 469.96 594.476 471.334 594.476 473.172C594.476 475.01 593.582 476.384 591.993 476.384Z" fill="#221F23"/>
<path d="M599.349 472.344C599.349 470.854 600.194 470.358 601.535 470.358H601.833V468.867C600.607 468.867 599.763 469.513 599.333 470.656H599.299V469.033H597.975V477.312H599.349V472.344Z" fill="#221F23"/>
<path d="M602.386 477.312H603.992V475.706H602.386V477.312Z" fill="#221F23"/>
<path d="M615.706 470.871L614.166 470.507C612.279 470.06 611.749 469.579 611.749 468.718C611.749 467.559 612.775 466.914 614.265 466.914C616.02 466.914 617.047 467.924 617.179 469.281H618.653C618.454 467.311 617.03 465.722 614.199 465.722C612.047 465.722 610.209 466.914 610.209 468.785C610.209 470.374 611.335 471.384 613.719 471.947L615.259 472.311C616.732 472.659 617.411 473.272 617.411 474.331C617.411 475.54 616.236 476.285 614.547 476.285C612.808 476.285 611.5 474.927 611.401 473.288H609.928C610.077 475.457 611.616 477.477 614.613 477.477C617.328 477.477 618.968 476.07 618.968 474.348C618.968 472.361 617.825 471.368 615.706 470.871Z" fill="#221F23"/>
<path d="M621.563 470.126V475.457C621.563 476.649 622.093 477.312 623.484 477.312H624.974V476.219H623.865C623.169 476.219 622.937 475.954 622.937 475.308V470.126H625.04V469.033H622.937V467.146H621.563V469.033H620.057V470.126H621.563Z" fill="#221F23"/>
<path d="M628.065 472.344C628.065 470.854 628.91 470.358 630.251 470.358H630.549V468.867C629.323 468.867 628.479 469.513 628.049 470.656H628.015V469.033H626.691V477.312H628.065V472.344Z" fill="#221F23"/>
<path d="M635.358 477.477C637.841 477.477 639.331 475.374 639.331 473.172C639.331 470.97 637.841 468.867 635.358 468.867C632.874 468.867 631.384 470.97 631.384 473.172C631.384 475.374 632.874 477.477 635.358 477.477ZM635.358 476.384C633.768 476.384 632.874 475.01 632.874 473.172C632.874 471.334 633.768 469.96 635.358 469.96C636.947 469.96 637.841 471.334 637.841 473.172C637.841 475.01 636.947 476.384 635.358 476.384Z" fill="#221F23"/>
<path d="M646.539 472.179V477.312H647.913V471.699C647.913 470.142 646.969 468.867 645.198 468.867C643.973 468.867 643.128 469.513 642.698 470.656H642.665V469.033H641.34V477.312H642.714V472.046C642.714 470.871 643.277 470.01 644.635 470.01C645.976 470.01 646.539 470.805 646.539 472.179Z" fill="#221F23"/>
<path d="M656.24 477.03C656.24 478.504 655.263 479.199 653.972 479.199C652.879 479.199 651.936 478.719 651.753 477.543H650.379C650.611 479.232 651.786 480.292 653.972 480.292C656.373 480.292 657.615 478.901 657.615 477.03V469.033H656.24V470.788H656.207C655.744 469.596 654.75 468.867 653.442 468.867C651.091 468.867 649.882 470.722 649.882 473.007C649.882 475.292 651.091 477.146 653.442 477.146C654.75 477.146 655.744 476.417 656.207 475.225H656.24V477.03ZM651.373 473.007C651.373 471.169 652.267 469.96 653.856 469.96C655.446 469.96 656.307 471.169 656.307 473.007C656.307 474.845 655.446 476.053 653.856 476.053C652.267 476.053 651.373 474.845 651.373 473.007Z" fill="#221F23"/>
<path d="M330.507 493.306V498.637C330.507 499.829 331.036 500.491 332.427 500.491H333.917V499.399H332.808C332.113 499.399 331.881 499.134 331.881 498.488V493.306H333.984V492.213H331.881V490.325H330.507V492.213H329V493.306H330.507Z" fill="#221F23"/>
<path d="M342.853 492.213H341.429L338.797 499.564L336.114 492.213H334.691L337.406 499.663H338.764L337.456 503.306H338.879L342.853 492.213Z" fill="#221F23"/>
<path d="M352.081 496.352C352.081 494.067 350.873 492.047 348.522 492.047C347.214 492.047 346.22 492.776 345.757 493.968H345.724V492.213H344.349V503.306H345.724V498.736H345.757C346.22 499.928 347.214 500.657 348.522 500.657C350.873 500.657 352.081 498.637 352.081 496.352ZM350.591 496.352C350.591 498.19 349.697 499.564 348.108 499.564C346.518 499.564 345.657 498.19 345.657 496.352C345.657 494.514 346.518 493.14 348.108 493.14C349.697 493.14 350.591 494.514 350.591 496.352Z" fill="#221F23"/>
<path d="M357.576 500.657C360.059 500.657 361.549 498.554 361.549 496.352C361.549 494.15 360.059 492.047 357.576 492.047C355.092 492.047 353.602 494.15 353.602 496.352C353.602 498.554 355.092 500.657 357.576 500.657ZM357.576 499.564C355.986 499.564 355.092 498.19 355.092 496.352C355.092 494.514 355.986 493.14 357.576 493.14C359.165 493.14 360.059 494.514 360.059 496.352C360.059 498.19 359.165 499.564 357.576 499.564Z" fill="#221F23"/>
<path d="M369.452 500.21C369.452 501.683 368.475 502.379 367.184 502.379C366.091 502.379 365.147 501.899 364.965 500.723H363.591C363.823 502.412 364.998 503.472 367.184 503.472C369.585 503.472 370.827 502.081 370.827 500.21V492.213H369.452V493.968H369.419C368.956 492.776 367.962 492.047 366.654 492.047C364.303 492.047 363.094 493.902 363.094 496.186C363.094 498.471 364.303 500.326 366.654 500.326C367.962 500.326 368.956 499.597 369.419 498.405H369.452V500.21ZM364.585 496.186C364.585 494.349 365.479 493.14 367.068 493.14C368.658 493.14 369.519 494.349 369.519 496.186C369.519 498.024 368.658 499.233 367.068 499.233C365.479 499.233 364.585 498.024 364.585 496.186Z" fill="#221F23"/>
<path d="M374.714 495.524C374.714 494.034 375.559 493.537 376.9 493.537H377.198V492.047C375.973 492.047 375.128 492.693 374.698 493.835H374.665V492.213H373.34V500.491H374.714V495.524Z" fill="#221F23"/>
<path d="M383.611 495.143V495.408L381.293 495.657C379.538 495.839 378.048 496.385 378.048 498.091C378.048 499.697 379.339 500.657 380.929 500.657C382.22 500.657 383.197 500.011 383.628 498.869H383.661V500.491H384.985V495.458C384.985 492.958 383.479 492.047 381.641 492.047C379.538 492.047 378.429 493.306 378.329 494.829H379.704C379.753 493.852 380.382 493.14 381.641 493.14C382.932 493.14 383.611 493.902 383.611 495.143ZM381.26 499.564C380.283 499.564 379.538 498.985 379.538 498.157C379.538 497.279 380.167 496.832 381.409 496.7L383.611 496.451V496.898C383.611 498.687 382.717 499.564 381.26 499.564Z" fill="#221F23"/>
<path d="M395.155 496.352C395.155 494.067 393.947 492.047 391.596 492.047C390.288 492.047 389.294 492.776 388.831 493.968H388.798V492.213H387.423V503.306H388.798V498.736H388.831C389.294 499.928 390.288 500.657 391.596 500.657C393.947 500.657 395.155 498.637 395.155 496.352ZM393.665 496.352C393.665 498.19 392.771 499.564 391.182 499.564C389.592 499.564 388.731 498.19 388.731 496.352C388.731 494.514 389.592 493.14 391.182 493.14C392.771 493.14 393.665 494.514 393.665 496.352Z" fill="#221F23"/>
<path d="M402.388 495.359V500.491H403.762V494.878C403.762 493.322 402.819 492.047 401.047 492.047C399.822 492.047 398.978 492.693 398.547 493.835H398.514V489.067H397.189V500.491H398.564V495.226C398.564 494.051 399.127 493.19 400.484 493.19C401.825 493.19 402.388 493.984 402.388 495.359Z" fill="#221F23"/>
<path d="M406.08 490.673H407.686V489.067H406.08V490.673ZM407.57 492.213H406.195V500.491H407.57V492.213Z" fill="#221F23"/>
<path d="M409.595 496.352C409.595 498.653 411.102 500.657 413.486 500.657C415.49 500.657 416.765 499.597 417.129 497.693H415.755C415.506 499.034 414.662 499.564 413.602 499.564C411.98 499.564 411.086 498.157 411.086 496.352C411.086 494.597 411.93 493.14 413.503 493.14C414.596 493.14 415.424 493.637 415.672 494.978H417.046C416.682 493.074 415.424 492.047 413.42 492.047C411.086 492.047 409.595 494.15 409.595 496.352Z" fill="#221F23"/>
<path d="M422.579 496.352C422.579 498.637 423.788 500.657 426.139 500.657C427.447 500.657 428.441 499.928 428.904 498.736H428.937V500.491H430.312V489.067H428.937V493.968H428.904C428.441 492.776 427.447 492.047 426.139 492.047C423.788 492.047 422.579 494.067 422.579 496.352ZM424.07 496.352C424.07 494.514 424.964 493.14 426.553 493.14C428.143 493.14 429.004 494.514 429.004 496.352C429.004 498.19 428.143 499.564 426.553 499.564C424.964 499.564 424.07 498.19 424.07 496.352Z" fill="#221F23"/>
<path d="M439.73 497.875H438.356C438.174 498.554 437.743 499.564 436.303 499.564C434.779 499.564 433.786 498.488 433.72 496.766H439.829C440.061 493.984 438.571 492.047 436.104 492.047C433.637 492.047 432.329 494.051 432.329 496.352C432.329 498.653 433.703 500.657 436.17 500.657C438.438 500.657 439.432 499.349 439.73 497.875ZM436.104 493.14C437.561 493.14 438.356 494.183 438.472 495.673H433.72C433.852 494.183 434.647 493.14 436.104 493.14Z" fill="#221F23"/>
<path d="M442.282 493.306V498.637C442.282 499.829 442.812 500.491 444.203 500.491H445.693V499.399H444.584C443.888 499.399 443.656 499.134 443.656 498.488V493.306H445.759V492.213H443.656V490.325H442.282V492.213H440.776V493.306H442.282Z" fill="#221F23"/>
<path d="M452.394 495.143V495.408L450.076 495.657C448.321 495.839 446.831 496.385 446.831 498.091C446.831 499.697 448.122 500.657 449.711 500.657C451.003 500.657 451.98 500.011 452.41 498.869H452.443V500.491H453.768V495.458C453.768 492.958 452.261 492.047 450.423 492.047C448.321 492.047 447.211 493.306 447.112 494.829H448.486C448.536 493.852 449.165 493.14 450.423 493.14C451.715 493.14 452.394 493.902 452.394 495.143ZM450.043 499.564C449.066 499.564 448.321 498.985 448.321 498.157C448.321 497.279 448.95 496.832 450.192 496.7L452.394 496.451V496.898C452.394 498.687 451.5 499.564 450.043 499.564Z" fill="#221F23"/>
<path d="M456.09 490.673H457.696V489.067H456.09V490.673ZM457.58 492.213H456.206V500.491H457.58V492.213Z" fill="#221F23"/>
<path d="M460.103 500.491H461.477V489.067H460.103V500.491Z" fill="#221F23"/>
<path d="M468.884 498.322C468.884 499.1 468.006 499.564 466.946 499.564C465.705 499.564 464.844 498.736 464.761 497.594H463.387C463.486 499.15 464.744 500.657 466.897 500.657C469.049 500.657 470.208 499.663 470.208 498.24C470.208 496.898 469.413 496.087 467.824 495.723L466.715 495.475C465.473 495.193 464.976 494.961 464.976 494.282C464.976 493.521 465.754 493.14 466.715 493.14C467.874 493.14 468.552 493.703 468.668 494.663H470.043C469.927 493.14 468.602 492.047 466.715 492.047C464.943 492.047 463.635 493.041 463.635 494.415C463.635 495.723 464.595 496.435 466.185 496.783L467.294 497.031C468.552 497.312 468.884 497.776 468.884 498.322Z" fill="#221F23"/>
<path d="M481.239 495.143V495.408L478.921 495.657C477.166 495.839 475.676 496.385 475.676 498.091C475.676 499.697 476.967 500.657 478.557 500.657C479.848 500.657 480.825 500.011 481.256 498.869H481.289V500.491H482.613V495.458C482.613 492.958 481.107 492.047 479.269 492.047C477.166 492.047 476.057 493.306 475.957 494.829H477.332C477.381 493.852 478.01 493.14 479.269 493.14C480.56 493.14 481.239 493.902 481.239 495.143ZM478.888 499.564C477.911 499.564 477.166 498.985 477.166 498.157C477.166 497.279 477.795 496.832 479.037 496.7L481.239 496.451V496.898C481.239 498.687 480.345 499.564 478.888 499.564Z" fill="#221F23"/>
<path d="M484.571 496.352C484.571 498.637 485.78 500.657 488.131 500.657C489.439 500.657 490.432 499.928 490.896 498.736H490.929V500.491H492.303V489.067H490.929V493.968H490.896C490.432 492.776 489.439 492.047 488.131 492.047C485.78 492.047 484.571 494.067 484.571 496.352ZM486.061 496.352C486.061 494.514 486.955 493.14 488.545 493.14C490.134 493.14 490.995 494.514 490.995 496.352C490.995 498.19 490.134 499.564 488.545 499.564C486.955 499.564 486.061 498.19 486.061 496.352Z" fill="#221F23"/>
<path d="M494.337 496.352C494.337 498.637 495.546 500.657 497.897 500.657C499.205 500.657 500.198 499.928 500.662 498.736H500.695V500.491H502.069V489.067H500.695V493.968H500.662C500.198 492.776 499.205 492.047 497.897 492.047C495.546 492.047 494.337 494.067 494.337 496.352ZM495.827 496.352C495.827 494.514 496.721 493.14 498.311 493.14C499.9 493.14 500.761 494.514 500.761 496.352C500.761 498.19 499.9 499.564 498.311 499.564C496.721 499.564 495.827 498.19 495.827 496.352Z" fill="#221F23"/>
<path d="M513.642 495.143V495.408L511.324 495.657C509.568 495.839 508.078 496.385 508.078 498.091C508.078 499.697 509.37 500.657 510.959 500.657C512.251 500.657 513.228 500.011 513.658 498.869H513.691V500.491H515.016V495.458C515.016 492.958 513.509 492.047 511.671 492.047C509.568 492.047 508.459 493.306 508.36 494.829H509.734C509.784 493.852 510.413 493.14 511.671 493.14C512.963 493.14 513.642 493.902 513.642 495.143ZM511.29 499.564C510.314 499.564 509.568 498.985 509.568 498.157C509.568 497.279 510.198 496.832 511.439 496.7L513.642 496.451V496.898C513.642 498.687 512.747 499.564 511.29 499.564Z" fill="#221F23"/>
<path d="M526.727 495.359V500.491H528.101V494.878C528.101 493.322 527.158 492.047 525.386 492.047C524.161 492.047 523.316 492.693 522.886 493.835H522.853V489.067H521.528V500.491H522.903V495.226C522.903 494.051 523.465 493.19 524.823 493.19C526.164 493.19 526.727 493.984 526.727 495.359Z" fill="#221F23"/>
<path d="M530.419 490.673H532.025V489.067H530.419V490.673ZM531.909 492.213H530.534V500.491H531.909V492.213Z" fill="#221F23"/>
<path d="M540.325 500.21C540.325 501.683 539.349 502.379 538.057 502.379C536.964 502.379 536.021 501.899 535.838 500.723H534.464C534.696 502.412 535.872 503.472 538.057 503.472C540.458 503.472 541.7 502.081 541.7 500.21V492.213H540.325V493.968H540.292C539.829 492.776 538.835 492.047 537.527 492.047C535.176 492.047 533.968 493.902 533.968 496.186C533.968 498.471 535.176 500.326 537.527 500.326C538.835 500.326 539.829 499.597 540.292 498.405H540.325V500.21ZM535.458 496.186C535.458 494.349 536.352 493.14 537.941 493.14C539.531 493.14 540.392 494.349 540.392 496.186C540.392 498.024 539.531 499.233 537.941 499.233C536.352 499.233 535.458 498.024 535.458 496.186Z" fill="#221F23"/>
<path d="M549.412 495.359V500.491H550.786V494.878C550.786 493.322 549.843 492.047 548.071 492.047C546.846 492.047 546.001 492.693 545.571 493.835H545.538V489.067H544.213V500.491H545.588V495.226C545.588 494.051 546.15 493.19 547.508 493.19C548.849 493.19 549.412 493.984 549.412 495.359Z" fill="#221F23"/>
<path d="M557.647 493.306V498.637C557.647 499.829 558.177 500.491 559.568 500.491H561.058V499.399H559.949C559.253 499.399 559.022 499.134 559.022 498.488V493.306H561.124V492.213H559.022V490.325H557.647V492.213H556.141V493.306H557.647Z" fill="#221F23"/>
<path d="M569.566 497.875H568.192C568.01 498.554 567.579 499.564 566.139 499.564C564.616 499.564 563.622 498.488 563.556 496.766H569.666C569.897 493.984 568.407 492.047 565.94 492.047C563.473 492.047 562.165 494.051 562.165 496.352C562.165 498.653 563.54 500.657 566.007 500.657C568.275 500.657 569.268 499.349 569.566 497.875ZM565.94 493.14C567.397 493.14 568.192 494.183 568.308 495.673H563.556C563.689 494.183 564.483 493.14 565.94 493.14Z" fill="#221F23"/>
<path d="M576.883 495.359V500.491H578.257V494.878C578.257 493.322 577.314 492.047 575.542 492.047C574.317 492.047 573.472 492.693 573.042 493.835H573.009V492.213H571.684V500.491H573.059V495.226C573.059 494.051 573.621 493.19 574.979 493.19C576.32 493.19 576.883 493.984 576.883 495.359Z" fill="#221F23"/>
<path d="M585.575 498.322C585.575 499.1 584.697 499.564 583.637 499.564C582.396 499.564 581.535 498.736 581.452 497.594H580.078C580.177 499.15 581.435 500.657 583.588 500.657C585.74 500.657 586.899 499.663 586.899 498.24C586.899 496.898 586.105 496.087 584.515 495.723L583.406 495.475C582.164 495.193 581.667 494.961 581.667 494.282C581.667 493.521 582.445 493.14 583.406 493.14C584.565 493.14 585.244 493.703 585.359 494.663H586.734C586.618 493.14 585.293 492.047 583.406 492.047C581.634 492.047 580.326 493.041 580.326 494.415C580.326 495.723 581.286 496.435 582.876 496.783L583.985 497.031C585.244 497.312 585.575 497.776 585.575 498.322Z" fill="#221F23"/>
<path d="M588.756 490.673H590.362V489.067H588.756V490.673ZM590.246 492.213H588.872V500.491H590.246V492.213Z" fill="#221F23"/>
<path d="M596.229 500.657C598.712 500.657 600.203 498.554 600.203 496.352C600.203 494.15 598.712 492.047 596.229 492.047C593.745 492.047 592.255 494.15 592.255 496.352C592.255 498.554 593.745 500.657 596.229 500.657ZM596.229 499.564C594.639 499.564 593.745 498.19 593.745 496.352C593.745 494.514 594.639 493.14 596.229 493.14C597.818 493.14 598.712 494.514 598.712 496.352C598.712 498.19 597.818 499.564 596.229 499.564Z" fill="#221F23"/>
<path d="M607.41 495.359V500.491H608.784V494.878C608.784 493.322 607.841 492.047 606.069 492.047C604.844 492.047 603.999 492.693 603.569 493.835H603.536V492.213H602.211V500.491H603.585V495.226C603.585 494.051 604.148 493.19 605.506 493.19C606.847 493.19 607.41 493.984 607.41 495.359Z" fill="#221F23"/>
<path d="M619.679 492.213L618.04 500.425L616.004 492.213H614.58L616.633 500.491H619.398L621.037 492.279L622.676 500.491H625.441L627.494 492.213H626.07L624.034 500.425L622.395 492.213H619.679Z" fill="#221F23"/>
<path d="M634.493 495.359V500.491H635.867V494.878C635.867 493.322 634.923 492.047 633.152 492.047C631.927 492.047 631.082 492.693 630.652 493.835H630.619V489.067H629.294V500.491H630.668V495.226C630.668 494.051 631.231 493.19 632.589 493.19C633.93 493.19 634.493 493.984 634.493 495.359Z" fill="#221F23"/>
<path d="M638.184 490.673H639.79V489.067H638.184V490.673ZM639.674 492.213H638.3V500.491H639.674V492.213Z" fill="#221F23"/>
<path d="M642.197 500.491H643.571V489.067H642.197V500.491Z" fill="#221F23"/>
<path d="M652.998 497.875H651.624C651.442 498.554 651.011 499.564 649.571 499.564C648.047 499.564 647.054 498.488 646.988 496.766H653.097C653.329 493.984 651.839 492.047 649.372 492.047C646.905 492.047 645.597 494.051 645.597 496.352C645.597 498.653 646.971 500.657 649.438 500.657C651.706 500.657 652.7 499.349 652.998 497.875ZM649.372 493.14C650.829 493.14 651.624 494.183 651.74 495.673H646.988C647.12 494.183 647.915 493.14 649.372 493.14Z" fill="#221F23"/>
<path d="M335.225 523.671H336.964L332.99 519.035L336.815 515.393H335.06L331.285 518.985V512.247H329.911V523.671H331.285V519.085L335.225 523.671Z" fill="#221F23"/>
<path d="M344.851 521.055H343.476C343.294 521.734 342.864 522.744 341.423 522.744C339.9 522.744 338.907 521.668 338.841 519.946H344.95C345.182 517.164 343.692 515.227 341.225 515.227C338.758 515.227 337.45 517.23 337.45 519.532C337.45 521.833 338.824 523.837 341.291 523.837C343.559 523.837 344.553 522.529 344.851 521.055ZM341.225 516.32C342.682 516.32 343.476 517.363 343.592 518.853H338.841C338.973 517.363 339.768 516.32 341.225 516.32Z" fill="#221F23"/>
<path d="M353.873 521.055H352.499C352.317 521.734 351.886 522.744 350.446 522.744C348.922 522.744 347.929 521.668 347.863 519.946H353.972C354.204 517.164 352.714 515.227 350.247 515.227C347.78 515.227 346.472 517.23 346.472 519.532C346.472 521.833 347.846 523.837 350.313 523.837C352.582 523.837 353.575 522.529 353.873 521.055ZM350.247 516.32C351.704 516.32 352.499 517.363 352.615 518.853H347.863C347.995 517.363 348.79 516.32 350.247 516.32Z" fill="#221F23"/>
<path d="M363.723 519.532C363.723 517.247 362.514 515.227 360.163 515.227C358.855 515.227 357.862 515.955 357.398 517.148H357.365V515.393H355.991V526.486H357.365V521.916H357.398C357.862 523.108 358.855 523.837 360.163 523.837C362.514 523.837 363.723 521.817 363.723 519.532ZM362.233 519.532C362.233 521.37 361.339 522.744 359.749 522.744C358.16 522.744 357.299 521.37 357.299 519.532C357.299 517.694 358.16 516.32 359.749 516.32C361.339 516.32 362.233 517.694 362.233 519.532Z" fill="#221F23"/>
<path d="M365.641 513.853H367.247V512.247H365.641V513.853ZM367.131 515.393H365.757V523.671H367.131V515.393Z" fill="#221F23"/>
<path d="M374.853 518.538V523.671H376.227V518.058C376.227 516.502 375.283 515.227 373.511 515.227C372.286 515.227 371.442 515.873 371.011 517.015H370.978V515.393H369.654V523.671H371.028V518.406C371.028 517.23 371.591 516.369 372.949 516.369C374.29 516.369 374.853 517.164 374.853 518.538Z" fill="#221F23"/>
<path d="M384.554 523.39C384.554 524.863 383.577 525.559 382.286 525.559C381.193 525.559 380.249 525.078 380.067 523.903H378.693C378.925 525.592 380.1 526.651 382.286 526.651C384.687 526.651 385.928 525.261 385.928 523.39V515.393H384.554V517.148H384.521C384.057 515.955 383.064 515.227 381.756 515.227C379.405 515.227 378.196 517.081 378.196 519.366C378.196 521.651 379.405 523.505 381.756 523.505C383.064 523.505 384.057 522.777 384.521 521.585H384.554V523.39ZM379.686 519.366C379.686 517.528 380.58 516.32 382.17 516.32C383.759 516.32 384.62 517.528 384.62 519.366C384.62 521.204 383.759 522.413 382.17 522.413C380.58 522.413 379.686 521.204 379.686 519.366Z" fill="#221F23"/>
<path d="M397.5 518.323V518.588L395.182 518.836C393.427 519.019 391.937 519.565 391.937 521.27C391.937 522.876 393.229 523.837 394.818 523.837C396.109 523.837 397.086 523.191 397.517 522.048H397.55V523.671H398.874V518.638C398.874 516.138 397.368 515.227 395.53 515.227C393.427 515.227 392.318 516.485 392.219 518.009H393.593C393.642 517.032 394.272 516.32 395.53 516.32C396.821 516.32 397.5 517.081 397.5 518.323ZM395.149 522.744C394.172 522.744 393.427 522.164 393.427 521.337C393.427 520.459 394.056 520.012 395.298 519.879L397.5 519.631V520.078C397.5 521.866 396.606 522.744 395.149 522.744Z" fill="#221F23"/>
<path d="M406.761 518.704C406.761 517.214 407.606 516.717 408.947 516.717H409.245V515.227C408.02 515.227 407.175 515.873 406.745 517.015H406.712V515.393H405.387V523.671H406.761V518.704Z" fill="#221F23"/>
<path d="M417.498 521.055H416.123C415.941 521.734 415.511 522.744 414.07 522.744C412.547 522.744 411.554 521.668 411.487 519.946H417.597C417.829 517.164 416.339 515.227 413.872 515.227C411.405 515.227 410.097 517.23 410.097 519.532C410.097 521.833 411.471 523.837 413.938 523.837C416.206 523.837 417.2 522.529 417.498 521.055ZM413.872 516.32C415.329 516.32 416.123 517.363 416.239 518.853H411.487C411.62 517.363 412.415 516.32 413.872 516.32Z" fill="#221F23"/>
<path d="M424.599 518.323V518.588L422.281 518.836C420.526 519.019 419.036 519.565 419.036 521.27C419.036 522.876 420.328 523.837 421.917 523.837C423.209 523.837 424.185 523.191 424.616 522.048H424.649V523.671H425.974V518.638C425.974 516.138 424.467 515.227 422.629 515.227C420.526 515.227 419.417 516.485 419.318 518.009H420.692C420.742 517.032 421.371 516.32 422.629 516.32C423.92 516.32 424.599 517.081 424.599 518.323ZM422.248 522.744C421.271 522.744 420.526 522.164 420.526 521.337C420.526 520.459 421.155 520.012 422.397 519.879L424.599 519.631V520.078C424.599 521.866 423.705 522.744 422.248 522.744Z" fill="#221F23"/>
<path d="M427.931 519.532C427.931 521.817 429.14 523.837 431.491 523.837C432.799 523.837 433.793 523.108 434.256 521.916H434.289V523.671H435.663V512.247H434.289V517.148H434.256C433.793 515.955 432.799 515.227 431.491 515.227C429.14 515.227 427.931 517.247 427.931 519.532ZM429.422 519.532C429.422 517.694 430.316 516.32 431.905 516.32C433.495 516.32 434.355 517.694 434.355 519.532C434.355 521.37 433.495 522.744 431.905 522.744C430.316 522.744 429.422 521.37 429.422 519.532Z" fill="#221F23"/>
<path d="M438.062 513.853H439.668V512.247H438.062V513.853ZM439.552 515.393H438.178V523.671H439.552V515.393Z" fill="#221F23"/>
<path d="M447.273 518.538V523.671H448.647V518.058C448.647 516.502 447.704 515.227 445.932 515.227C444.707 515.227 443.862 515.873 443.432 517.015H443.399V515.393H442.074V523.671H443.448V518.406C443.448 517.23 444.011 516.369 445.369 516.369C446.71 516.369 447.273 517.164 447.273 518.538Z" fill="#221F23"/>
<path d="M456.975 523.39C456.975 524.863 455.998 525.559 454.706 525.559C453.614 525.559 452.67 525.078 452.488 523.903H451.113C451.345 525.592 452.521 526.651 454.706 526.651C457.107 526.651 458.349 525.261 458.349 523.39V515.393H456.975V517.148H456.942C456.478 515.955 455.485 515.227 454.177 515.227C451.825 515.227 450.617 517.081 450.617 519.366C450.617 521.651 451.825 523.505 454.177 523.505C455.485 523.505 456.478 522.777 456.942 521.585H456.975V523.39ZM452.107 519.366C452.107 517.528 453.001 516.32 454.59 516.32C456.18 516.32 457.041 517.528 457.041 519.366C457.041 521.204 456.18 522.413 454.59 522.413C453.001 522.413 452.107 521.204 452.107 519.366Z" fill="#221F23"/>
<path d="M464.44 519.532C464.44 521.833 465.947 523.837 468.331 523.837C470.335 523.837 471.61 522.777 471.974 520.873H470.6C470.351 522.214 469.507 522.744 468.447 522.744C466.825 522.744 465.931 521.337 465.931 519.532C465.931 517.777 466.775 516.32 468.348 516.32C469.441 516.32 470.268 516.816 470.517 518.158H471.891C471.527 516.254 470.268 515.227 468.265 515.227C465.931 515.227 464.44 517.33 464.44 519.532Z" fill="#221F23"/>
<path d="M477.29 523.837C479.774 523.837 481.264 521.734 481.264 519.532C481.264 517.33 479.774 515.227 477.29 515.227C474.807 515.227 473.317 517.33 473.317 519.532C473.317 521.734 474.807 523.837 477.29 523.837ZM477.29 522.744C475.701 522.744 474.807 521.37 474.807 519.532C474.807 517.694 475.701 516.32 477.29 516.32C478.88 516.32 479.774 517.694 479.774 519.532C479.774 521.37 478.88 522.744 477.29 522.744Z" fill="#221F23"/>
<path d="M484.647 518.406C484.647 517.23 485.127 516.369 486.518 516.369C487.826 516.369 488.389 517.164 488.389 518.538V523.671H489.763V518.406C489.763 517.23 490.243 516.369 491.634 516.369C492.942 516.369 493.505 517.164 493.505 518.538V523.671H494.879V518.058C494.879 516.502 493.935 515.227 492.114 515.227C490.939 515.227 490.061 515.873 489.631 517.015H489.614C489.266 515.972 488.389 515.227 486.998 515.227C485.822 515.227 485.061 515.873 484.63 517.015H484.597V515.393H483.273V523.671H484.647V518.406Z" fill="#221F23"/>
<path d="M497.839 515.393H496.332V516.485H497.839V523.671H499.213V516.485H501.316V515.393H499.213V514.25C499.213 513.604 499.445 513.339 500.14 513.339H501.25V512.247H499.76C498.369 512.247 497.839 512.909 497.839 514.101V515.393Z" fill="#221F23"/>
<path d="M506.039 523.837C508.522 523.837 510.012 521.734 510.012 519.532C510.012 517.33 508.522 515.227 506.039 515.227C503.555 515.227 502.065 517.33 502.065 519.532C502.065 521.734 503.555 523.837 506.039 523.837ZM506.039 522.744C504.449 522.744 503.555 521.37 503.555 519.532C503.555 517.694 504.449 516.32 506.039 516.32C507.628 516.32 508.522 517.694 508.522 519.532C508.522 521.37 507.628 522.744 506.039 522.744Z" fill="#221F23"/>
<path d="M513.395 518.704C513.395 517.214 514.24 516.717 515.581 516.717H515.879V515.227C514.654 515.227 513.809 515.873 513.379 517.015H513.346V515.393H512.021V523.671H513.395V518.704Z" fill="#221F23"/>
<path d="M518.098 516.485V521.817C518.098 523.009 518.628 523.671 520.019 523.671H521.509V522.578H520.4C519.704 522.578 519.473 522.313 519.473 521.668V516.485H521.575V515.393H519.473V513.505H518.098V515.393H516.592V516.485H518.098Z" fill="#221F23"/>
<path d="M522.531 525.575H523.508L524.716 523.671V522.065H523.11V523.671H523.739L522.531 525.575Z" fill="#221F23"/>
<path d="M536.695 513.853H538.301V512.247H536.695V513.853ZM536.811 523.671H538.185V515.393H533.168V514.25C533.168 513.604 533.4 513.339 534.095 513.339H535.205V512.247H533.714C532.324 512.247 531.794 512.909 531.794 514.101V515.393H530.287V516.485H531.794V523.671H533.168V516.485H536.811V523.671Z" fill="#221F23"/>
<path d="M545.904 518.538V523.671H547.278V518.058C547.278 516.502 546.334 515.227 544.562 515.227C543.337 515.227 542.493 515.873 542.062 517.015H542.029V515.393H540.705V523.671H542.079V518.406C542.079 517.23 542.642 516.369 543.999 516.369C545.341 516.369 545.904 517.164 545.904 518.538Z" fill="#221F23"/>
<path d="M549.231 519.532C549.231 521.817 550.439 523.837 552.79 523.837C554.098 523.837 555.092 523.108 555.555 521.916H555.588V523.671H556.963V512.247H555.588V517.148H555.555C555.092 515.955 554.098 515.227 552.79 515.227C550.439 515.227 549.231 517.247 549.231 519.532ZM550.721 519.532C550.721 517.694 551.615 516.32 553.204 516.32C554.794 516.32 555.655 517.694 555.655 519.532C555.655 521.37 554.794 522.744 553.204 522.744C551.615 522.744 550.721 521.37 550.721 519.532Z" fill="#221F23"/>
<path d="M559.361 513.853H560.967V512.247H559.361V513.853ZM560.851 515.393H559.477V523.671H560.851V515.393Z" fill="#221F23"/>
<path d="M568.572 518.538V523.671H569.947V518.058C569.947 516.502 569.003 515.227 567.231 515.227C566.006 515.227 565.162 515.873 564.731 517.015H564.698V515.393H563.373V523.671H564.748V518.406C564.748 517.23 565.311 516.369 566.668 516.369C568.009 516.369 568.572 517.164 568.572 518.538Z" fill="#221F23"/>
<path d="M578.274 523.39C578.274 524.863 577.297 525.559 576.006 525.559C574.913 525.559 573.969 525.078 573.787 523.903H572.413C572.644 525.592 573.82 526.651 576.006 526.651C578.406 526.651 579.648 525.261 579.648 523.39V515.393H578.274V517.148H578.241C577.777 515.955 576.784 515.227 575.476 515.227C573.125 515.227 571.916 517.081 571.916 519.366C571.916 521.651 573.125 523.505 575.476 523.505C576.784 523.505 577.777 522.777 578.241 521.585H578.274V523.39ZM573.406 519.366C573.406 517.528 574.3 516.32 575.89 516.32C577.479 516.32 578.34 517.528 578.34 519.366C578.34 521.204 577.479 522.413 575.89 522.413C574.3 522.413 573.406 521.204 573.406 519.366Z" fill="#221F23"/>
<path d="M586.59 516.485V521.817C586.59 523.009 587.12 523.671 588.51 523.671H590.001V522.578H588.891C588.196 522.578 587.964 522.313 587.964 521.668V516.485H590.067V515.393H587.964V513.505H586.59V515.393H585.083V516.485H586.59Z" fill="#221F23"/>
<path d="M596.916 518.538V523.671H598.291V518.058C598.291 516.502 597.347 515.227 595.575 515.227C594.35 515.227 593.506 515.873 593.075 517.015H593.042V512.247H591.718V523.671H593.092V518.406C593.092 517.23 593.655 516.369 595.012 516.369C596.354 516.369 596.916 517.164 596.916 518.538Z" fill="#221F23"/>
<path d="M607.628 521.055H606.254C606.072 521.734 605.641 522.744 604.201 522.744C602.677 522.744 601.684 521.668 601.618 519.946H607.727C607.959 517.164 606.469 515.227 604.002 515.227C601.535 515.227 600.227 517.23 600.227 519.532C600.227 521.833 601.601 523.837 604.068 523.837C606.336 523.837 607.33 522.529 607.628 521.055ZM604.002 516.32C605.459 516.32 606.254 517.363 606.37 518.853H601.618C601.75 517.363 602.545 516.32 604.002 516.32Z" fill="#221F23"/>
<path d="M615.195 518.704C615.195 517.214 616.039 516.717 617.38 516.717H617.678V515.227C616.453 515.227 615.609 515.873 615.178 517.015H615.145V515.393H613.82V523.671H615.195V518.704Z" fill="#221F23"/>
<path d="M619.186 513.853H620.792V512.247H619.186V513.853ZM620.676 515.393H619.302V523.671H620.676V515.393Z" fill="#221F23"/>
<path d="M629.093 523.39C629.093 524.863 628.116 525.559 626.824 525.559C625.732 525.559 624.788 525.078 624.606 523.903H623.232C623.463 525.592 624.639 526.651 626.824 526.651C629.225 526.651 630.467 525.261 630.467 523.39V515.393H629.093V517.148H629.06C628.596 515.955 627.603 515.227 626.295 515.227C623.944 515.227 622.735 517.081 622.735 519.366C622.735 521.651 623.944 523.505 626.295 523.505C627.603 523.505 628.596 522.777 629.06 521.585H629.093V523.39ZM624.225 519.366C624.225 517.528 625.119 516.32 626.709 516.32C628.298 516.32 629.159 517.528 629.159 519.366C629.159 521.204 628.298 522.413 626.709 522.413C625.119 522.413 624.225 521.204 624.225 519.366Z" fill="#221F23"/>
<path d="M638.18 518.538V523.671H639.554V518.058C639.554 516.502 638.61 515.227 636.838 515.227C635.613 515.227 634.769 515.873 634.338 517.015H634.305V512.247H632.981V523.671H634.355V518.406C634.355 517.23 634.918 516.369 636.275 516.369C637.617 516.369 638.18 517.164 638.18 518.538Z" fill="#221F23"/>
<path d="M642.502 516.485V521.817C642.502 523.009 643.032 523.671 644.423 523.671H645.913V522.578H644.803C644.108 522.578 643.876 522.313 643.876 521.668V516.485H645.979V515.393H643.876V513.505H642.502V515.393H640.995V516.485H642.502Z" fill="#221F23"/>
<path d="M337.643 542.712C337.643 540.427 336.434 538.407 334.083 538.407C332.775 538.407 331.781 539.135 331.318 540.327H331.285V535.426H329.911V546.851H331.285V545.096H331.318C331.781 546.288 332.775 547.016 334.083 547.016C336.434 547.016 337.643 544.996 337.643 542.712ZM336.152 542.712C336.152 544.549 335.258 545.924 333.669 545.924C332.079 545.924 331.219 544.549 331.219 542.712C331.219 540.874 332.079 539.499 333.669 539.499C335.258 539.499 336.152 540.874 336.152 542.712Z" fill="#221F23"/>
<path d="M344.66 541.503V541.768L342.342 542.016C340.587 542.198 339.097 542.745 339.097 544.45C339.097 546.056 340.388 547.016 341.978 547.016C343.269 547.016 344.246 546.371 344.677 545.228H344.71V546.851H346.034V541.817C346.034 539.317 344.528 538.407 342.69 538.407C340.587 538.407 339.478 539.665 339.379 541.188H340.753C340.802 540.211 341.432 539.499 342.69 539.499C343.981 539.499 344.66 540.261 344.66 541.503ZM342.309 545.924C341.332 545.924 340.587 545.344 340.587 544.516C340.587 543.639 341.216 543.192 342.458 543.059L344.66 542.811V543.258C344.66 545.046 343.766 545.924 342.309 545.924Z" fill="#221F23"/>
<path d="M348.472 546.851H349.847V535.426H348.472V546.851Z" fill="#221F23"/>
<path d="M357.353 541.503V541.768L355.035 542.016C353.28 542.198 351.79 542.745 351.79 544.45C351.79 546.056 353.081 547.016 354.671 547.016C355.962 547.016 356.939 546.371 357.369 545.228H357.402V546.851H358.727V541.817C358.727 539.317 357.22 538.407 355.383 538.407C353.28 538.407 352.17 539.665 352.071 541.188H353.445C353.495 540.211 354.124 539.499 355.383 539.499C356.674 539.499 357.353 540.261 357.353 541.503ZM355.002 545.924C354.025 545.924 353.28 545.344 353.28 544.516C353.28 543.639 353.909 543.192 355.151 543.059L357.353 542.811V543.258C357.353 545.046 356.459 545.924 355.002 545.924Z" fill="#221F23"/>
<path d="M366.364 541.718V546.851H367.738V541.238C367.738 539.682 366.794 538.407 365.023 538.407C363.798 538.407 362.953 539.052 362.523 540.195H362.49V538.572H361.165V546.851H362.539V541.586C362.539 540.41 363.102 539.549 364.46 539.549C365.801 539.549 366.364 540.344 366.364 541.718Z" fill="#221F23"/>
<path d="M369.674 542.712C369.674 545.013 371.181 547.016 373.565 547.016C375.569 547.016 376.844 545.957 377.208 544.053H375.834C375.585 545.394 374.741 545.924 373.681 545.924C372.059 545.924 371.165 544.516 371.165 542.712C371.165 540.957 372.009 539.499 373.582 539.499C374.675 539.499 375.502 539.996 375.751 541.337H377.125C376.761 539.433 375.502 538.407 373.499 538.407C371.165 538.407 369.674 540.509 369.674 542.712Z" fill="#221F23"/>
<path d="M385.968 544.235H384.594C384.412 544.914 383.981 545.924 382.541 545.924C381.018 545.924 380.024 544.847 379.958 543.125H386.068C386.299 540.344 384.809 538.407 382.342 538.407C379.875 538.407 378.567 540.41 378.567 542.712C378.567 545.013 379.942 547.016 382.409 547.016C384.677 547.016 385.67 545.708 385.968 544.235ZM382.342 539.499C383.799 539.499 384.594 540.543 384.71 542.033H379.958C380.091 540.543 380.885 539.499 382.342 539.499Z" fill="#221F23"/>
<path d="M399.893 542.712C399.893 540.427 398.684 538.407 396.333 538.407C395.025 538.407 394.032 539.135 393.568 540.327H393.535V535.426H392.161V546.851H393.535V545.096H393.568C394.032 546.288 395.025 547.016 396.333 547.016C398.684 547.016 399.893 544.996 399.893 542.712ZM398.403 542.712C398.403 544.549 397.509 545.924 395.919 545.924C394.33 545.924 393.469 544.549 393.469 542.712C393.469 540.874 394.33 539.499 395.919 539.499C397.509 539.499 398.403 540.874 398.403 542.712Z" fill="#221F23"/>
<path d="M408.831 544.235H407.457C407.275 544.914 406.844 545.924 405.404 545.924C403.881 545.924 402.887 544.847 402.821 543.125H408.93C409.162 540.344 407.672 538.407 405.205 538.407C402.738 538.407 401.43 540.41 401.43 542.712C401.43 545.013 402.804 547.016 405.271 547.016C407.54 547.016 408.533 545.708 408.831 544.235ZM405.205 539.499C406.662 539.499 407.457 540.543 407.573 542.033H402.821C402.953 540.543 403.748 539.499 405.205 539.499Z" fill="#221F23"/>
<path d="M411.383 539.665V544.996C411.383 546.189 411.913 546.851 413.304 546.851H414.794V545.758H413.685C412.989 545.758 412.758 545.493 412.758 544.847V539.665H414.86V538.572H412.758V536.685H411.383V538.572H409.877V539.665H411.383Z" fill="#221F23"/>
<path d="M420.899 538.572L419.26 546.785L417.223 538.572H415.799L417.852 546.851H420.617L422.256 538.639L423.896 546.851H426.661L428.714 538.572H427.29L425.253 546.785L423.614 538.572H420.899Z" fill="#221F23"/>
<path d="M437.272 544.235H435.898C435.716 544.914 435.285 545.924 433.845 545.924C432.322 545.924 431.328 544.847 431.262 543.125H437.372C437.603 540.344 436.113 538.407 433.646 538.407C431.179 538.407 429.871 540.41 429.871 542.712C429.871 545.013 431.245 547.016 433.712 547.016C435.981 547.016 436.974 545.708 437.272 544.235ZM433.646 539.499C435.103 539.499 435.898 540.543 436.014 542.033H431.262C431.395 540.543 432.189 539.499 433.646 539.499Z" fill="#221F23"/>
<path d="M446.294 544.235H444.92C444.738 544.914 444.308 545.924 442.867 545.924C441.344 545.924 440.351 544.847 440.284 543.125H446.394C446.626 540.344 445.135 538.407 442.669 538.407C440.202 538.407 438.894 540.41 438.894 542.712C438.894 545.013 440.268 547.016 442.735 547.016C445.003 547.016 445.996 545.708 446.294 544.235ZM442.669 539.499C444.126 539.499 444.92 540.543 445.036 542.033H440.284C440.417 540.543 441.211 539.499 442.669 539.499Z" fill="#221F23"/>
<path d="M453.611 541.718V546.851H454.986V541.238C454.986 539.682 454.042 538.407 452.27 538.407C451.045 538.407 450.201 539.052 449.77 540.195H449.737V538.572H448.412V546.851H449.787V541.586C449.787 540.41 450.35 539.549 451.707 539.549C453.048 539.549 453.611 540.344 453.611 541.718Z" fill="#221F23"/>
<path d="M466.477 541.503V541.768L464.159 542.016C462.404 542.198 460.914 542.745 460.914 544.45C460.914 546.056 462.205 547.016 463.795 547.016C465.086 547.016 466.063 546.371 466.493 545.228H466.526V546.851H467.851V541.817C467.851 539.317 466.344 538.407 464.507 538.407C462.404 538.407 461.294 539.665 461.195 541.188H462.569C462.619 540.211 463.248 539.499 464.507 539.499C465.798 539.499 466.477 540.261 466.477 541.503ZM464.126 545.924C463.149 545.924 462.404 545.344 462.404 544.516C462.404 543.639 463.033 543.192 464.275 543.059L466.477 542.811V543.258C466.477 545.046 465.583 545.924 464.126 545.924Z" fill="#221F23"/>
<path d="M474.976 538.572H473.47V539.665H474.976V546.851H476.35V539.665H478.453V538.572H476.35V537.43C476.35 536.784 476.582 536.519 477.278 536.519H478.387V535.426H476.897C475.506 535.426 474.976 536.089 474.976 537.281V538.572Z" fill="#221F23"/>
<path d="M483.176 547.016C485.659 547.016 487.15 544.914 487.15 542.712C487.15 540.509 485.659 538.407 483.176 538.407C480.692 538.407 479.202 540.509 479.202 542.712C479.202 544.914 480.692 547.016 483.176 547.016ZM483.176 545.924C481.586 545.924 480.692 544.549 480.692 542.712C480.692 540.874 481.586 539.499 483.176 539.499C484.765 539.499 485.659 540.874 485.659 542.712C485.659 544.549 484.765 545.924 483.176 545.924Z" fill="#221F23"/>
<path d="M494.357 541.718V546.851H495.731V541.238C495.731 539.682 494.788 538.407 493.016 538.407C491.791 538.407 490.946 539.052 490.516 540.195H490.483V538.572H489.158V546.851H490.532V541.586C490.532 540.41 491.095 539.549 492.453 539.549C493.794 539.549 494.357 540.344 494.357 541.718Z" fill="#221F23"/>
<path d="M498.679 539.665V544.996C498.679 546.189 499.209 546.851 500.6 546.851H502.09V545.758H500.981C500.285 545.758 500.054 545.493 500.054 544.847V539.665H502.156V538.572H500.054V536.685H498.679V538.572H497.173V539.665H498.679Z" fill="#221F23"/>
<path d="M508.235 539.665V544.996C508.235 546.189 508.765 546.851 510.156 546.851H511.646V545.758H510.537C509.841 545.758 509.609 545.493 509.609 544.847V539.665H511.712V538.572H509.609V536.685H508.235V538.572H506.729V539.665H508.235Z" fill="#221F23"/>
<path d="M518.562 541.718V546.851H519.936V541.238C519.936 539.682 518.992 538.407 517.221 538.407C515.996 538.407 515.151 539.052 514.721 540.195H514.688V535.426H513.363V546.851H514.737V541.586C514.737 540.41 515.3 539.549 516.658 539.549C517.999 539.549 518.562 540.344 518.562 541.718Z" fill="#221F23"/>
<path d="M527.353 541.503V541.768L525.035 542.016C523.28 542.198 521.79 542.745 521.79 544.45C521.79 546.056 523.081 547.016 524.671 547.016C525.962 547.016 526.939 546.371 527.369 545.228H527.402V546.851H528.727V541.817C528.727 539.317 527.22 538.407 525.382 538.407C523.28 538.407 522.17 539.665 522.071 541.188H523.445C523.495 540.211 524.124 539.499 525.382 539.499C526.674 539.499 527.353 540.261 527.353 541.503ZM525.002 545.924C524.025 545.924 523.28 545.344 523.28 544.516C523.28 543.639 523.909 543.192 525.151 543.059L527.353 542.811V543.258C527.353 545.046 526.459 545.924 525.002 545.924Z" fill="#221F23"/>
<path d="M531.632 539.665V544.996C531.632 546.189 532.162 546.851 533.552 546.851H535.042V545.758H533.933C533.238 545.758 533.006 545.493 533.006 544.847V539.665H535.109V538.572H533.006V536.685H531.632V538.572H530.125V539.665H531.632Z" fill="#221F23"/>
<path d="M540.718 537.033H542.324V535.426H540.718V537.033ZM542.208 538.572H540.834V546.851H542.208V538.572Z" fill="#221F23"/>
<path d="M549.615 544.682C549.615 545.46 548.737 545.924 547.678 545.924C546.436 545.924 545.575 545.096 545.492 543.953H544.118C544.217 545.51 545.476 547.016 547.628 547.016C549.781 547.016 550.94 546.023 550.94 544.599C550.94 543.258 550.145 542.447 548.555 542.082L547.446 541.834C546.204 541.553 545.708 541.321 545.708 540.642C545.708 539.88 546.486 539.499 547.446 539.499C548.605 539.499 549.284 540.062 549.4 541.023H550.774C550.658 539.5 549.334 538.407 547.446 538.407C545.674 538.407 544.366 539.4 544.366 540.774C544.366 542.082 545.327 542.794 546.916 543.142L548.026 543.39C549.284 543.672 549.615 544.135 549.615 544.682Z" fill="#221F23"/>
<path d="M562.881 546.569C562.881 548.043 561.904 548.738 560.613 548.738C559.52 548.738 558.576 548.258 558.394 547.083H557.02C557.252 548.771 558.427 549.831 560.613 549.831C563.013 549.831 564.255 548.44 564.255 546.569V538.572H562.881V540.327H562.848C562.384 539.135 561.391 538.407 560.083 538.407C557.732 538.407 556.523 540.261 556.523 542.546C556.523 544.831 557.732 546.685 560.083 546.685C561.391 546.685 562.384 545.957 562.848 544.765H562.881V546.569ZM558.013 542.546C558.013 540.708 558.907 539.499 560.497 539.499C562.086 539.499 562.947 540.708 562.947 542.546C562.947 544.384 562.086 545.592 560.497 545.592C558.907 545.592 558.013 544.384 558.013 542.546Z" fill="#221F23"/>
<path d="M568.143 541.884C568.143 540.394 568.988 539.897 570.329 539.897H570.627V538.407C569.401 538.407 568.557 539.052 568.127 540.195H568.093V538.572H566.769V546.851H568.143V541.884Z" fill="#221F23"/>
<path d="M577.04 541.503V541.768L574.722 542.016C572.967 542.198 571.477 542.745 571.477 544.45C571.477 546.056 572.768 547.016 574.358 547.016C575.649 547.016 576.626 546.371 577.056 545.228H577.089V546.851H578.414V541.817C578.414 539.317 576.907 538.407 575.07 538.407C572.967 538.407 571.857 539.665 571.758 541.188H573.132C573.182 540.211 573.811 539.499 575.07 539.499C576.361 539.499 577.04 540.261 577.04 541.503ZM574.689 545.924C573.712 545.924 572.967 545.344 572.967 544.516C572.967 543.639 573.596 543.192 574.838 543.059L577.04 542.811V543.258C577.04 545.046 576.146 545.924 574.689 545.924Z" fill="#221F23"/>
<path d="M588.584 542.712C588.584 540.427 587.375 538.407 585.024 538.407C583.716 538.407 582.723 539.135 582.259 540.327H582.226V538.572H580.852V549.665H582.226V545.096H582.259C582.723 546.288 583.716 547.016 585.024 547.016C587.375 547.016 588.584 544.996 588.584 542.712ZM587.094 542.712C587.094 544.549 586.2 545.924 584.61 545.924C583.021 545.924 582.16 544.549 582.16 542.712C582.16 540.874 583.021 539.499 584.61 539.499C586.2 539.499 587.094 540.874 587.094 542.712Z" fill="#221F23"/>
<path d="M595.817 541.718V546.851H597.191V541.238C597.191 539.682 596.247 538.407 594.476 538.407C593.251 538.407 592.406 539.052 591.976 540.195H591.943V535.426H590.618V546.851H591.992V541.586C591.992 540.41 592.555 539.549 593.913 539.549C595.254 539.549 595.817 540.344 595.817 541.718Z" fill="#221F23"/>
<path d="M599.508 537.033H601.114V535.426H599.508V537.033ZM600.998 538.572H599.624V546.851H600.998V538.572Z" fill="#221F23"/>
<path d="M603.024 542.712C603.024 545.013 604.531 547.016 606.915 547.016C608.918 547.016 610.193 545.957 610.558 544.053H609.183C608.935 545.394 608.091 545.924 607.031 545.924C605.408 545.924 604.514 544.516 604.514 542.712C604.514 540.957 605.359 539.499 606.932 539.499C608.024 539.499 608.852 539.996 609.101 541.337H610.475C610.111 539.433 608.852 538.407 606.849 538.407C604.514 538.407 603.024 540.509 603.024 542.712Z" fill="#221F23"/>
<path d="M623.432 538.572H622.008L619.376 545.924L616.694 538.572H615.27L617.985 546.023H619.343L618.035 549.665H619.459L623.432 538.572Z" fill="#221F23"/>
<path d="M631.655 544.235H630.281C630.099 544.914 629.668 545.924 628.228 545.924C626.704 545.924 625.711 544.847 625.645 543.125H631.754C631.986 540.344 630.496 538.407 628.029 538.407C625.562 538.407 624.254 540.41 624.254 542.712C624.254 545.013 625.628 547.016 628.095 547.016C630.363 547.016 631.357 545.708 631.655 544.235ZM628.029 539.499C629.486 539.499 630.281 540.543 630.397 542.033H625.645C625.777 540.543 626.572 539.499 628.029 539.499Z" fill="#221F23"/>
<path d="M634.207 539.665V544.996C634.207 546.189 634.737 546.851 636.128 546.851H637.618V545.758H636.509C635.813 545.758 635.582 545.493 635.582 544.847V539.665H637.684V538.572H635.582V536.685H634.207V538.572H632.701V539.665H634.207Z" fill="#221F23"/>
<path d="M649.039 546.851H650.413V535.426H645.943C644.552 535.426 644.022 536.089 644.022 537.281V538.572H642.516V539.665H644.022V546.851H645.396V539.665H647.499V538.572H645.396V537.43C645.396 536.784 645.628 536.519 646.324 536.519H649.039V546.851Z" fill="#221F23"/>
<path d="M654.241 543.705V538.572H652.867V544.185C652.867 545.741 653.811 547.016 655.632 547.016C656.807 547.016 657.569 546.371 658 545.228H658.033V546.851H659.357V538.572H657.983V543.837C657.983 545.013 657.503 545.874 656.112 545.874C654.804 545.874 654.241 545.079 654.241 543.705Z" fill="#221F23"/>
<path d="M661.759 537.033H663.365V535.426H661.759V537.033ZM663.249 538.572H661.874V546.851H663.249V538.572Z" fill="#221F23"/>
<path d="M665.291 542.712C665.291 544.996 666.5 547.016 668.851 547.016C670.159 547.016 671.152 546.288 671.616 545.096H671.649V546.851H673.023V535.426H671.649V540.327H671.616C671.152 539.135 670.159 538.407 668.851 538.407C666.5 538.407 665.291 540.427 665.291 542.712ZM666.781 542.712C666.781 540.874 667.675 539.499 669.265 539.499C670.854 539.499 671.715 540.874 671.715 542.712C671.715 544.549 670.854 545.924 669.265 545.924C667.675 545.924 666.781 544.549 666.781 542.712Z" fill="#221F23"/>
<path d="M675.405 546.851H677.011V545.245H675.405V546.851Z" fill="#221F23"/>
<path d="M356.874 312.652L372.239 266.078H446.902L462.267 312.652H489.876L435.379 147H383.762L329.025 312.652H356.874ZM409.45 152.282L439.46 243.511H379.441L409.45 152.282Z" fill="#221F23"/>
<path d="M578.623 289.125H579.343V312.652H604.551V238.949C604.551 206.539 585.105 190.214 554.616 190.214C523.646 190.214 504.92 207.259 503.96 230.546H530.128C530.848 217.102 539.491 209.66 554.136 209.66C569.26 209.66 578.383 218.063 578.383 234.148V237.749L547.894 240.87C521.245 243.751 499.638 252.874 499.638 277.601C499.638 299.448 517.164 315.053 542.132 315.053C560.137 315.053 573.582 305.69 578.623 289.125ZM527.247 277.841C527.247 266.318 536.37 260.556 552.215 258.875L578.383 255.995V260.076C578.383 282.883 567.58 295.607 548.854 295.607C537.33 295.607 527.247 289.125 527.247 277.841Z" fill="#221F23"/>
</g>
</svg>
