<svg width="375" height="375" viewBox="0 0 375 375" fill="none" xmlns="http://www.w3.org/2000/svg">
<mask id="mask0_1301_4905" style="mask-type:alpha" maskUnits="userSpaceOnUse" x="0" y="0" width="375" height="375">
<rect width="375" height="375" fill="#0F0926"/>
</mask>
<g mask="url(#mask0_1301_4905)">
<rect width="375" height="375" fill="white"/>
<path d="M237.821 131.65H227.374V111.543H225.517V133.255H237.821V131.65Z" fill="#221F23"/>
<path d="M242.633 114.595V111.543H240.588V114.595H242.633ZM242.476 133.255V117.522H240.714V133.255H242.476Z" fill="#221F23"/>
<path d="M261.161 133.004V117.522H259.398V121.329H259.367C258.454 118.875 256.378 117.207 253.577 117.207C249.109 117.207 246.591 120.668 246.591 125.074C246.591 129.479 249.109 132.941 253.577 132.941C256.378 132.941 258.454 131.273 259.367 128.818H259.398V133.004C259.398 136.024 257.196 137.44 254.364 137.44C251.846 137.44 249.581 136.276 249.36 133.696H247.598C247.881 136.968 250.367 138.919 254.364 138.919C258.58 138.919 261.161 136.622 261.161 133.004ZM248.511 125.074C248.511 121.203 250.619 118.686 253.986 118.686C257.353 118.686 259.461 121.203 259.461 125.074C259.461 128.944 257.353 131.462 253.986 131.462C250.619 131.462 248.511 128.944 248.511 125.074Z" fill="#221F23"/>
<path d="M268.013 133.255V123.312C268.013 120.605 269.617 118.717 272.355 118.717C275.093 118.717 276.666 120.291 276.666 123.658V133.255H278.428V122.903C278.428 119.567 276.351 117.207 273.047 117.207C270.687 117.207 268.925 118.371 268.013 120.7H267.95V111.543H266.25V133.255H268.013Z" fill="#221F23"/>
<path d="M290.171 133.255V131.776H287.748C286.552 131.776 286.017 131.241 286.017 129.951V119.001H290.296V117.522H286.017V113.934H284.255V117.522H281.139V119.001H284.255V130.172C284.255 132.122 285.199 133.255 287.37 133.255H290.171Z" fill="#221F23"/>
<path d="M228.538 272.613V251.592L233.636 272.613H240.496L245.594 251.592V272.613H249.15V250.9H242.195L237.066 271.92L231.937 250.9H224.983V272.613H228.538Z" fill="#221F23"/>
<path d="M267.202 267.735H263.772C263.394 268.994 262.513 270.378 260.468 270.378C258.076 270.378 256.409 268.711 256.251 265.847H267.485C267.957 260.372 264.873 256.564 260.185 256.564C255.496 256.564 252.821 260.403 252.821 264.746C252.821 269.088 255.559 272.927 260.248 272.927C264.087 272.927 266.541 270.85 267.202 267.735ZM260.185 259.113C262.482 259.113 263.835 260.749 264.055 263.298H256.283C256.503 260.749 257.888 259.113 260.185 259.113Z" fill="#221F23"/>
<path d="M281.549 269.309H281.644V272.613H285.011V250.9H281.644V260.152H281.549C280.794 257.98 278.969 256.564 276.578 256.564C272.392 256.564 269.969 260.34 269.969 264.746C269.969 269.151 272.298 272.927 276.578 272.927C278.969 272.927 280.794 271.48 281.549 269.309ZM273.588 264.746C273.588 261.379 275.067 259.113 277.679 259.113C280.322 259.113 281.77 261.379 281.77 264.746C281.77 268.081 280.322 270.378 277.679 270.378C275.067 270.378 273.588 268.081 273.588 264.746Z" fill="#221F23"/>
<path d="M292.782 254.393V250.9H289.132V254.393H292.782ZM292.656 272.613V256.879H289.226V272.613H292.656Z" fill="#221F23"/>
<path d="M306.35 269.529H306.412V272.613H309.748V256.879H306.318V266.288C306.318 268.868 305.374 270.315 303.234 270.315C301.189 270.315 300.182 268.994 300.182 266.067V256.879H296.752V267.106C296.752 270.567 298.451 272.927 301.944 272.927C304.21 272.927 305.689 271.7 306.35 269.529Z" fill="#221F23"/>
<path d="M317.394 263.172C317.394 260.592 318.338 259.145 320.477 259.145C322.523 259.145 323.53 260.466 323.53 263.393V272.613H326.96V263.172C326.96 260.592 327.872 259.145 330.012 259.145C332.089 259.145 333.064 260.466 333.064 263.393V272.613H336.494V262.386C336.494 258.924 334.795 256.564 331.302 256.564C328.974 256.564 327.369 257.76 326.676 259.963H326.614C325.984 257.886 324.348 256.564 321.768 256.564C319.502 256.564 318.023 257.76 317.362 259.963H317.299V256.879H313.964V272.613H317.394V263.172Z" fill="#221F23"/>
<path d="M225.266 202.884H227.972V193.727H232C232.157 193.727 232.283 193.727 232.44 193.727L237.632 202.884H240.748L235.335 193.349C238.545 192.563 240.339 190.517 240.339 187.433C240.339 183.406 237.255 181.171 232 181.171H225.266V202.884ZM232.314 183.437C235.681 183.437 237.412 184.822 237.412 187.433C237.412 190.045 235.681 191.461 232.314 191.461H227.972V183.437H232.314Z" fill="#221F23"/>
<path d="M257.274 197.912H254.662C254.316 199.202 253.498 201.122 250.76 201.122C247.865 201.122 245.977 199.076 245.851 195.804H257.463C257.903 190.517 255.071 186.836 250.383 186.836C245.694 186.836 243.208 190.643 243.208 195.017C243.208 199.391 245.82 203.199 250.508 203.199C254.819 203.199 256.708 200.713 257.274 197.912ZM250.383 188.912C253.152 188.912 254.662 190.895 254.882 193.727H245.851C246.103 190.895 247.613 188.912 250.383 188.912Z" fill="#221F23"/>
<path d="M272.502 202.349C272.502 205.149 270.645 206.471 268.191 206.471C266.114 206.471 264.32 205.559 263.974 203.324H261.362C261.803 206.534 264.037 208.548 268.191 208.548C272.753 208.548 275.113 205.905 275.113 202.349V187.15H272.502V190.486H272.439C271.558 188.22 269.67 186.836 267.184 186.836C262.715 186.836 260.418 190.36 260.418 194.702C260.418 199.045 262.715 202.569 267.184 202.569C269.67 202.569 271.558 201.185 272.439 198.919H272.502V202.349ZM263.25 194.702C263.25 191.209 264.949 188.912 267.97 188.912C270.991 188.912 272.628 191.209 272.628 194.702C272.628 198.195 270.991 200.492 267.97 200.492C264.949 200.492 263.25 198.195 263.25 194.702Z" fill="#221F23"/>
<path d="M282.377 196.905V187.15H279.765V197.818C279.765 200.776 281.559 203.199 285.02 203.199C287.254 203.199 288.702 201.971 289.52 199.8H289.583V202.884H292.1V187.15H289.488V197.157C289.488 199.391 288.576 201.027 285.933 201.027C283.447 201.027 282.377 199.517 282.377 196.905Z" fill="#221F23"/>
<path d="M296.884 202.884H299.496V181.171H296.884V202.884Z" fill="#221F23"/>
<path d="M313.762 192.72V193.223L309.357 193.695C306.021 194.042 303.189 195.08 303.189 198.321C303.189 201.373 305.643 203.199 308.664 203.199C311.119 203.199 312.975 201.971 313.793 199.8H313.856V202.884H316.374V193.318C316.374 188.566 313.51 186.836 310.017 186.836C306.021 186.836 303.913 189.227 303.724 192.122H306.336C306.43 190.265 307.626 188.912 310.017 188.912C312.472 188.912 313.762 190.36 313.762 192.72ZM309.294 201.122C307.437 201.122 306.021 200.02 306.021 198.447C306.021 196.779 307.217 195.93 309.577 195.678L313.762 195.206V196.055C313.762 199.454 312.063 201.122 309.294 201.122Z" fill="#221F23"/>
<path d="M323.619 193.444C323.619 190.612 325.224 189.668 327.773 189.668H328.339V186.836C326.011 186.836 324.406 188.063 323.588 190.234H323.525V187.15H321.007V202.884H323.619V193.444Z" fill="#221F23"/>
<path d="M40.1549 203.342H47.396V202.054H41.6925V197.656H47.092V196.369H41.6925V192.292H47.2529V191.005H40.1549V203.342Z" fill="#221F23"/>
<path d="M48.716 194.402L51.3442 203.342H54.3836L57.0119 194.402H55.4743L52.8639 203.27L50.2536 194.402H48.716Z" fill="#221F23"/>
<path d="M66.0587 200.517H64.5748C64.3781 201.25 63.9132 202.34 62.3578 202.34C60.7129 202.34 59.6401 201.178 59.5686 199.319H66.166C66.4163 196.315 64.8072 194.223 62.1432 194.223C59.4792 194.223 58.0668 196.387 58.0668 198.872C58.0668 201.357 59.5507 203.52 62.2147 203.52C64.6642 203.52 65.7369 202.108 66.0587 200.517ZM62.1432 195.403C63.7166 195.403 64.5748 196.53 64.6999 198.139H59.5686C59.7116 196.53 60.5698 195.403 62.1432 195.403Z" fill="#221F23"/>
<path d="M69.8298 197.978C69.8298 196.369 70.7417 195.832 72.1899 195.832H72.5117V194.223C71.1887 194.223 70.2768 194.92 69.812 196.154H69.7762V194.402H68.3459V203.342H69.8298V197.978Z" fill="#221F23"/>
<path d="M81.4236 200.517H79.9397C79.743 201.25 79.2781 202.34 77.7227 202.34C76.0778 202.34 75.005 201.178 74.9335 199.319H81.5309C81.7812 196.315 80.1721 194.223 77.5081 194.223C74.8441 194.223 73.4317 196.387 73.4317 198.872C73.4317 201.357 74.9156 203.52 77.5796 203.52C80.0291 203.52 81.1018 202.108 81.4236 200.517ZM77.5081 195.403C79.0815 195.403 79.9397 196.53 80.0648 198.139H74.9335C75.0765 196.53 75.9347 195.403 77.5081 195.403Z" fill="#221F23"/>
<path d="M90.366 201.339C90.366 202.626 90.9381 203.342 92.44 203.342H94.0491V202.161H92.8512C92.1003 202.161 91.85 201.875 91.85 201.178V195.582H94.1206V194.402H91.85V192.364H90.366V194.402H85.6638V192.364H84.1798V194.402H82.5528V195.582H84.1798V201.339C84.1798 202.626 84.752 203.342 86.2538 203.342H87.8629V202.161H86.665C85.9141 202.161 85.6638 201.875 85.6638 201.178V195.582H90.366V201.339Z" fill="#221F23"/>
<path d="M39.5149 222.651H42.4113V222.136H40.13V220.377H42.2898V219.862H40.13V218.231H42.3541V217.716H39.5149V222.651Z" fill="#221F23"/>
<path d="M42.9393 219.075L43.9906 222.651H45.2064L46.2577 219.075H45.6427L44.5985 222.622L43.5544 219.075H42.9393Z" fill="#221F23"/>
<path d="M49.8765 221.521H49.2829C49.2042 221.814 49.0183 222.251 48.3961 222.251C47.7381 222.251 47.309 221.786 47.2804 221.042H49.9194C50.0195 219.84 49.3758 219.004 48.3102 219.004C47.2446 219.004 46.6797 219.869 46.6797 220.863C46.6797 221.857 47.2732 222.723 48.3388 222.723C49.3186 222.723 49.7477 222.158 49.8765 221.521ZM48.3102 219.476C48.9396 219.476 49.2829 219.926 49.3329 220.57H47.2804C47.3376 219.926 47.6809 219.476 48.3102 219.476Z" fill="#221F23"/>
<path d="M51.3849 220.506C51.3849 219.862 51.7496 219.647 52.3289 219.647H52.4576V219.004C51.9284 219.004 51.5637 219.283 51.3777 219.776H51.3634V219.075H50.7913V222.651H51.3849V220.506Z" fill="#221F23"/>
<path d="M56.0224 221.521H55.4288C55.3502 221.814 55.1642 222.251 54.542 222.251C53.8841 222.251 53.455 221.786 53.4264 221.042H56.0653C56.1654 219.84 55.5218 219.004 54.4562 219.004C53.3906 219.004 52.8256 219.869 52.8256 220.863C52.8256 221.857 53.4192 222.723 54.4848 222.723C55.4646 222.723 55.8937 222.158 56.0224 221.521ZM54.4562 219.476C55.0855 219.476 55.4288 219.926 55.4789 220.57H53.4264C53.4836 219.926 53.8269 219.476 54.4562 219.476Z" fill="#221F23"/>
<path d="M59.5994 221.85C59.5994 222.365 59.8282 222.651 60.429 222.651H61.0726V222.179H60.5934C60.2931 222.179 60.193 222.065 60.193 221.786V219.547H61.1012V219.075H60.193V218.26H59.5994V219.075H57.7185V218.26H57.1249V219.075H56.4741V219.547H57.1249V221.85C57.1249 222.365 57.3537 222.651 57.9545 222.651H58.5981V222.179H58.119C57.8186 222.179 57.7185 222.065 57.7185 221.786V219.547H59.5994V221.85Z" fill="#221F23"/>
<path d="M63.529 218.41H64.2227V217.716H63.529V218.41ZM64.1727 219.075H63.5791V222.651H64.1727V219.075Z" fill="#221F23"/>
<path d="M67.372 221.714C67.372 222.05 66.993 222.251 66.5352 222.251C65.9989 222.251 65.627 221.893 65.5912 221.4H64.9976C65.0405 222.072 65.5841 222.723 66.5138 222.723C67.4435 222.723 67.9441 222.293 67.9441 221.678C67.9441 221.099 67.6008 220.749 66.9143 220.591L66.4351 220.484C65.8988 220.363 65.6842 220.262 65.6842 219.969C65.6842 219.64 66.0203 219.476 66.4351 219.476C66.9357 219.476 67.229 219.719 67.279 220.134H67.8726C67.8225 219.476 67.2504 219.004 66.4351 219.004C65.6699 219.004 65.1049 219.433 65.1049 220.026C65.1049 220.591 65.5197 220.899 66.2063 221.049L66.6854 221.156C67.229 221.278 67.372 221.478 67.372 221.714Z" fill="#221F23"/>
<path d="M72.7088 220.341V220.456L71.7076 220.563C70.9495 220.641 70.3059 220.877 70.3059 221.614C70.3059 222.308 70.8637 222.723 71.5502 222.723C72.1081 222.723 72.53 222.444 72.716 221.95H72.7303V222.651H73.3024V220.477C73.3024 219.397 72.6516 219.004 71.8578 219.004C70.9495 219.004 70.4703 219.547 70.4274 220.205H71.021C71.0425 219.783 71.3142 219.476 71.8578 219.476C72.4156 219.476 72.7088 219.805 72.7088 220.341ZM71.6933 222.251C71.2713 222.251 70.9495 222 70.9495 221.643C70.9495 221.264 71.2213 221.071 71.7576 221.013L72.7088 220.906V221.099C72.7088 221.872 72.3226 222.251 71.6933 222.251Z" fill="#221F23"/>
<path d="M75.9009 220.863C75.9009 221.857 76.5517 222.723 77.5816 222.723C78.4469 222.723 78.9976 222.265 79.1549 221.442H78.5613C78.4541 222.022 78.0893 222.251 77.6316 222.251C76.9308 222.251 76.5446 221.643 76.5446 220.863C76.5446 220.105 76.9093 219.476 77.5887 219.476C78.0607 219.476 78.4183 219.69 78.5256 220.27H79.1192C78.9618 219.447 78.4183 219.004 77.5529 219.004C76.5446 219.004 75.9009 219.912 75.9009 220.863Z" fill="#221F23"/>
<path d="M81.4514 222.723C82.5241 222.723 83.1678 221.814 83.1678 220.863C83.1678 219.912 82.5241 219.004 81.4514 219.004C80.3786 219.004 79.735 219.912 79.735 220.863C79.735 221.814 80.3786 222.723 81.4514 222.723ZM81.4514 222.251C80.7648 222.251 80.3786 221.657 80.3786 220.863C80.3786 220.069 80.7648 219.476 81.4514 219.476C82.1379 219.476 82.5241 220.069 82.5241 220.863C82.5241 221.657 82.1379 222.251 81.4514 222.251Z" fill="#221F23"/>
<path d="M86.281 220.434V222.651H86.8746V220.227C86.8746 219.554 86.4669 219.004 85.7017 219.004C85.1725 219.004 84.8078 219.283 84.6218 219.776H84.6075V219.075H84.0354V222.651H84.629V220.377C84.629 219.869 84.8721 219.497 85.4586 219.497C86.0378 219.497 86.281 219.84 86.281 220.434Z" fill="#221F23"/>
<path d="M88.148 219.547V221.85C88.148 222.365 88.3769 222.651 88.9776 222.651H89.6213V222.179H89.1421C88.8417 222.179 88.7416 222.065 88.7416 221.786V219.547H89.6499V219.075H88.7416V218.26H88.148V219.075H87.4972V219.547H88.148Z" fill="#221F23"/>
<path d="M93.2963 221.521H92.7027C92.624 221.814 92.4381 222.251 91.8159 222.251C91.1579 222.251 90.7288 221.786 90.7002 221.042H93.3392C93.4393 219.84 92.7957 219.004 91.7301 219.004C90.6645 219.004 90.0995 219.869 90.0995 220.863C90.0995 221.857 90.6931 222.723 91.7587 222.723C92.7384 222.723 93.1675 222.158 93.2963 221.521ZM91.7301 219.476C92.3594 219.476 92.7027 219.926 92.7527 220.57H90.7002C90.7574 219.926 91.1007 219.476 91.7301 219.476Z" fill="#221F23"/>
<path d="M94.8047 220.377C94.8047 219.869 95.0121 219.497 95.6129 219.497C96.1778 219.497 96.421 219.84 96.421 220.434V222.651H97.0146V220.377C97.0146 219.869 97.222 219.497 97.8227 219.497C98.3877 219.497 98.6309 219.84 98.6309 220.434V222.651H99.2244V220.227C99.2244 219.554 98.8168 219.004 98.0301 219.004C97.5223 219.004 97.1433 219.283 96.9574 219.776H96.9502C96.8 219.326 96.421 219.004 95.8203 219.004C95.3125 219.004 94.9835 219.283 94.7976 219.776H94.7833V219.075H94.2111V222.651H94.8047V220.377Z" fill="#221F23"/>
<path d="M103.613 220.863C103.613 219.876 103.091 219.004 102.075 219.004C101.511 219.004 101.081 219.318 100.881 219.833H100.867V219.075H100.273V223.867H100.867V221.893H100.881C101.081 222.408 101.511 222.723 102.075 222.723C103.091 222.723 103.613 221.85 103.613 220.863ZM102.969 220.863C102.969 221.657 102.583 222.251 101.897 222.251C101.21 222.251 100.838 221.657 100.838 220.863C100.838 220.069 101.21 219.476 101.897 219.476C102.583 219.476 102.969 220.069 102.969 220.863Z" fill="#221F23"/>
<path d="M105.986 222.723C107.059 222.723 107.703 221.814 107.703 220.863C107.703 219.912 107.059 219.004 105.986 219.004C104.914 219.004 104.27 219.912 104.27 220.863C104.27 221.814 104.914 222.723 105.986 222.723ZM105.986 222.251C105.3 222.251 104.914 221.657 104.914 220.863C104.914 220.069 105.3 219.476 105.986 219.476C106.673 219.476 107.059 220.069 107.059 220.863C107.059 221.657 106.673 222.251 105.986 222.251Z" fill="#221F23"/>
<path d="M109.164 220.506C109.164 219.862 109.529 219.647 110.108 219.647H110.237V219.004C109.707 219.004 109.343 219.283 109.157 219.776H109.142V219.075H108.57V222.651H109.164V220.506Z" fill="#221F23"/>
<path d="M113.007 220.341V220.456L112.006 220.563C111.247 220.641 110.604 220.877 110.604 221.614C110.604 222.308 111.162 222.723 111.848 222.723C112.406 222.723 112.828 222.444 113.014 221.95H113.028V222.651H113.6V220.477C113.6 219.397 112.95 219.004 112.156 219.004C111.247 219.004 110.768 219.547 110.725 220.205H111.319C111.34 219.783 111.612 219.476 112.156 219.476C112.714 219.476 113.007 219.805 113.007 220.341ZM111.991 222.251C111.569 222.251 111.247 222 111.247 221.643C111.247 221.264 111.519 221.071 112.056 221.013L113.007 220.906V221.099C113.007 221.872 112.621 222.251 111.991 222.251Z" fill="#221F23"/>
<path d="M115.247 220.506C115.247 219.862 115.612 219.647 116.191 219.647H116.32V219.004C115.791 219.004 115.426 219.283 115.24 219.776H115.226V219.075H114.653V222.651H115.247V220.506Z" fill="#221F23"/>
<path d="M120.139 219.075H119.524L118.387 222.251L117.228 219.075H116.613L117.786 222.293H118.373L117.808 223.867H118.423L120.139 219.075Z" fill="#221F23"/>
<path d="M124.593 220.341V220.456L123.592 220.563C122.834 220.641 122.19 220.877 122.19 221.614C122.19 222.308 122.748 222.723 123.435 222.723C123.993 222.723 124.415 222.444 124.6 221.95H124.615V222.651H125.187V220.477C125.187 219.397 124.536 219.004 123.742 219.004C122.834 219.004 122.355 219.547 122.312 220.205H122.906C122.927 219.783 123.199 219.476 123.742 219.476C124.3 219.476 124.593 219.805 124.593 220.341ZM123.578 222.251C123.156 222.251 122.834 222 122.834 221.643C122.834 221.264 123.106 221.071 123.642 221.013L124.593 220.906V221.099C124.593 221.872 124.207 222.251 123.578 222.251Z" fill="#221F23"/>
<path d="M128.486 220.434V222.651H129.079V220.227C129.079 219.554 128.672 219.004 127.906 219.004C127.377 219.004 127.012 219.283 126.826 219.776H126.812V219.075H126.24V222.651H126.834V220.377C126.834 219.869 127.077 219.497 127.663 219.497C128.242 219.497 128.486 219.84 128.486 220.434Z" fill="#221F23"/>
<path d="M129.923 220.863C129.923 221.85 130.445 222.723 131.46 222.723C132.025 222.723 132.454 222.408 132.655 221.893H132.669V222.651H133.263V217.716H132.669V219.833H132.655C132.454 219.318 132.025 219.004 131.46 219.004C130.445 219.004 129.923 219.876 129.923 220.863ZM130.566 220.863C130.566 220.069 130.953 219.476 131.639 219.476C132.326 219.476 132.698 220.069 132.698 220.863C132.698 221.657 132.326 222.251 131.639 222.251C130.953 222.251 130.566 221.657 130.566 220.863Z" fill="#221F23"/>
<path d="M135.729 219.075L136.781 222.651H137.996L139.048 219.075H138.433L137.389 222.622L136.344 219.075H135.729Z" fill="#221F23"/>
<path d="M142.666 221.521H142.073C141.994 221.814 141.808 222.251 141.186 222.251C140.528 222.251 140.099 221.786 140.07 221.042H142.709C142.81 219.84 142.166 219.004 141.1 219.004C140.035 219.004 139.47 219.869 139.47 220.863C139.47 221.857 140.063 222.723 141.129 222.723C142.109 222.723 142.538 222.158 142.666 221.521ZM141.1 219.476C141.73 219.476 142.073 219.926 142.123 220.57H140.07C140.128 219.926 140.471 219.476 141.1 219.476Z" fill="#221F23"/>
<path d="M144.175 220.506C144.175 219.862 144.54 219.647 145.119 219.647H145.248V219.004C144.718 219.004 144.354 219.283 144.168 219.776H144.153V219.075H143.581V222.651H144.175V220.506Z" fill="#221F23"/>
<path d="M148.017 221.714C148.017 222.05 147.638 222.251 147.18 222.251C146.644 222.251 146.272 221.893 146.236 221.4H145.642C145.685 222.072 146.229 222.723 147.159 222.723C148.088 222.723 148.589 222.293 148.589 221.678C148.589 221.099 148.246 220.749 147.559 220.591L147.08 220.484C146.544 220.363 146.329 220.262 146.329 219.969C146.329 219.64 146.665 219.476 147.08 219.476C147.581 219.476 147.874 219.719 147.924 220.134H148.517C148.467 219.476 147.895 219.004 147.08 219.004C146.315 219.004 145.75 219.433 145.75 220.026C145.75 220.591 146.164 220.899 146.851 221.049L147.33 221.156C147.874 221.278 148.017 221.478 148.017 221.714Z" fill="#221F23"/>
<path d="M151.594 220.341V220.456L150.592 220.563C149.834 220.641 149.191 220.877 149.191 221.614C149.191 222.308 149.748 222.723 150.435 222.723C150.993 222.723 151.415 222.444 151.601 221.95H151.615V222.651H152.187V220.477C152.187 219.397 151.536 219.004 150.743 219.004C149.834 219.004 149.355 219.547 149.312 220.205H149.906C149.927 219.783 150.199 219.476 150.743 219.476C151.3 219.476 151.594 219.805 151.594 220.341ZM150.578 222.251C150.156 222.251 149.834 222 149.834 221.643C149.834 221.264 150.106 221.071 150.642 221.013L151.594 220.906V221.099C151.594 221.872 151.207 222.251 150.578 222.251Z" fill="#221F23"/>
<path d="M153.442 219.547V221.85C153.442 222.365 153.671 222.651 154.271 222.651H154.915V222.179H154.436C154.136 222.179 154.035 222.065 154.035 221.786V219.547H154.944V219.075H154.035V218.26H153.442V219.075H152.791V219.547H153.442Z" fill="#221F23"/>
<path d="M155.607 218.41H156.3V217.716H155.607V218.41ZM156.25 219.075H155.657V222.651H156.25V219.075Z" fill="#221F23"/>
<path d="M157.34 222.651H157.934V217.716H157.34V222.651Z" fill="#221F23"/>
<path d="M162.005 221.521H161.412C161.333 221.814 161.147 222.251 160.525 222.251C159.867 222.251 159.438 221.786 159.409 221.042H162.048C162.148 219.84 161.505 219.004 160.439 219.004C159.374 219.004 158.809 219.869 158.809 220.863C158.809 221.857 159.402 222.723 160.468 222.723C161.447 222.723 161.877 222.158 162.005 221.521ZM160.439 219.476C161.068 219.476 161.412 219.926 161.462 220.57H159.409C159.466 219.926 159.81 219.476 160.439 219.476Z" fill="#221F23"/>
<path d="M41.9393 232.542C41.9393 233.178 41.5174 233.479 40.9596 233.479C40.4875 233.479 40.0799 233.271 40.0012 232.764H39.4076C39.5078 233.493 40.0155 233.951 40.9596 233.951C41.9965 233.951 42.5329 233.35 42.5329 232.542V229.088H41.9393V229.846H41.925C41.7248 229.331 41.2957 229.016 40.7307 229.016C39.7152 229.016 39.1931 229.817 39.1931 230.804C39.1931 231.791 39.7152 232.592 40.7307 232.592C41.2957 232.592 41.7248 232.277 41.925 231.762H41.9393V232.542ZM39.8367 230.804C39.8367 230.01 40.2229 229.488 40.9095 229.488C41.5961 229.488 41.9679 230.01 41.9679 230.804C41.9679 231.598 41.5961 232.12 40.9095 232.12C40.2229 232.12 39.8367 231.598 39.8367 230.804Z" fill="#221F23"/>
<path d="M44.2123 230.518C44.2123 229.874 44.577 229.66 45.1563 229.66H45.285V229.016C44.7558 229.016 44.3911 229.295 44.2051 229.788H44.1908V229.088H43.6187V232.663H44.2123V230.518Z" fill="#221F23"/>
<path d="M47.3623 232.735C48.435 232.735 49.0786 231.827 49.0786 230.875C49.0786 229.924 48.435 229.016 47.3623 229.016C46.2895 229.016 45.6459 229.924 45.6459 230.875C45.6459 231.827 46.2895 232.735 47.3623 232.735ZM47.3623 232.263C46.6757 232.263 46.2895 231.669 46.2895 230.875C46.2895 230.082 46.6757 229.488 47.3623 229.488C48.0488 229.488 48.435 230.082 48.435 230.875C48.435 231.669 48.0488 232.263 47.3623 232.263Z" fill="#221F23"/>
<path d="M50.1269 229.56V231.862C50.1269 232.377 50.3557 232.663 50.9565 232.663H51.6001V232.191H51.121C50.8206 232.191 50.7205 232.077 50.7205 231.798V229.56H51.6287V229.088H50.7205V228.272H50.1269V229.088H49.4761V229.56H50.1269Z" fill="#221F23"/>
<path d="M55.2751 231.533H54.6815C54.6029 231.827 54.4169 232.263 53.7947 232.263C53.1368 232.263 52.7077 231.798 52.6791 231.054H55.318C55.4182 229.853 54.7745 229.016 53.7089 229.016C52.6433 229.016 52.0783 229.881 52.0783 230.875C52.0783 231.87 52.6719 232.735 53.7375 232.735C54.7173 232.735 55.1464 232.17 55.2751 231.533ZM53.7089 229.488C54.3383 229.488 54.6815 229.939 54.7316 230.582H52.6791C52.7363 229.939 53.0796 229.488 53.7089 229.488Z" fill="#221F23"/>
<path d="M58.2997 231.727C58.2997 232.063 57.9207 232.263 57.463 232.263C56.9266 232.263 56.5547 231.905 56.519 231.412H55.9254C55.9683 232.084 56.5118 232.735 57.4415 232.735C58.3712 232.735 58.8718 232.306 58.8718 231.691C58.8718 231.111 58.5286 230.761 57.842 230.604L57.3628 230.496C56.8265 230.375 56.6119 230.275 56.6119 229.982C56.6119 229.653 56.9481 229.488 57.3628 229.488C57.8635 229.488 58.1567 229.731 58.2067 230.146H58.8003C58.7503 229.488 58.1781 229.016 57.3628 229.016C56.5976 229.016 56.0326 229.445 56.0326 230.039C56.0326 230.604 56.4474 230.911 57.134 231.061L57.6132 231.169C58.1567 231.29 58.2997 231.491 58.2997 231.727Z" fill="#221F23"/>
<path d="M59.5165 230.875C59.5165 231.862 60.0386 232.735 61.0541 232.735C61.6191 232.735 62.0482 232.42 62.2484 231.905H62.2627V233.879H62.8563V229.088H62.2627V229.846H62.2484C62.0482 229.331 61.6191 229.016 61.0541 229.016C60.0386 229.016 59.5165 229.889 59.5165 230.875ZM60.1602 230.875C60.1602 230.082 60.5463 229.488 61.2329 229.488C61.9195 229.488 62.2913 230.082 62.2913 230.875C62.2913 231.669 61.9195 232.263 61.2329 232.263C60.5463 232.263 60.1602 231.669 60.1602 230.875Z" fill="#221F23"/>
<path d="M64.5072 231.305V229.088H63.9137V231.512C63.9137 232.184 64.3213 232.735 65.108 232.735C65.6158 232.735 65.9447 232.456 66.1307 231.963H66.145V232.663H66.7171V229.088H66.1235V231.362C66.1235 231.87 65.9161 232.241 65.3154 232.241C64.7504 232.241 64.5072 231.898 64.5072 231.305Z" fill="#221F23"/>
<path d="M70.7867 231.533H70.1931C70.1144 231.827 69.9285 232.263 69.3063 232.263C68.6483 232.263 68.2192 231.798 68.1906 231.054H70.8296C70.9297 229.853 70.2861 229.016 69.2205 229.016C68.1549 229.016 67.5899 229.881 67.5899 230.875C67.5899 231.87 68.1835 232.735 69.2491 232.735C70.2289 232.735 70.658 232.17 70.7867 231.533ZM69.2205 229.488C69.8498 229.488 70.1931 229.939 70.2432 230.582H68.1906C68.2478 229.939 68.5911 229.488 69.2205 229.488Z" fill="#221F23"/>
<path d="M73.6142 229.56V231.862C73.6142 232.377 73.8431 232.663 74.4438 232.663H75.0875V232.191H74.6083C74.3079 232.191 74.2078 232.077 74.2078 231.798V229.56H75.1161V229.088H74.2078V228.272H73.6142V229.088H72.9634V229.56H73.6142Z" fill="#221F23"/>
<path d="M78.9472 229.088H78.3322L77.1951 232.263L76.0365 229.088H75.4215L76.5943 232.306H77.1808L76.6158 233.879H77.2308L78.9472 229.088Z" fill="#221F23"/>
<path d="M82.9333 230.875C82.9333 229.889 82.4113 229.016 81.3957 229.016C80.8308 229.016 80.4017 229.331 80.2014 229.846H80.1871V229.088H79.5935V233.879H80.1871V231.905H80.2014C80.4017 232.42 80.8308 232.735 81.3957 232.735C82.4113 232.735 82.9333 231.862 82.9333 230.875ZM82.2897 230.875C82.2897 231.669 81.9035 232.263 81.2169 232.263C80.5304 232.263 80.1585 231.669 80.1585 230.875C80.1585 230.082 80.5304 229.488 81.2169 229.488C81.9035 229.488 82.2897 230.082 82.2897 230.875Z" fill="#221F23"/>
<path d="M86.7941 231.533H86.2005C86.1219 231.827 85.9359 232.263 85.3137 232.263C84.6558 232.263 84.2267 231.798 84.1981 231.054H86.837C86.9372 229.853 86.2935 229.016 85.2279 229.016C84.1623 229.016 83.5973 229.881 83.5973 230.875C83.5973 231.87 84.1909 232.735 85.2565 232.735C86.2363 232.735 86.6654 232.17 86.7941 231.533ZM85.2279 229.488C85.8573 229.488 86.2005 229.939 86.2506 230.582H84.1981C84.2553 229.939 84.5986 229.488 85.2279 229.488Z" fill="#221F23"/>
<path d="M87.9107 229.088H87.2599V229.56H87.9107V232.663H88.5043V229.56H89.4126V229.088H88.5043V228.594C88.5043 228.315 88.6044 228.201 88.9048 228.201H89.384V227.729H88.7403C88.1396 227.729 87.9107 228.015 87.9107 228.53V229.088Z" fill="#221F23"/>
<path d="M92.1524 230.353V230.468L91.1512 230.575C90.3931 230.654 89.7494 230.89 89.7494 231.626C89.7494 232.32 90.3073 232.735 90.9938 232.735C91.5517 232.735 91.9736 232.456 92.1595 231.963H92.1739V232.663H92.746V230.489C92.746 229.409 92.0952 229.016 91.3013 229.016C90.3931 229.016 89.9139 229.56 89.871 230.218H90.4646C90.4861 229.796 90.7578 229.488 91.3013 229.488C91.8592 229.488 92.1524 229.817 92.1524 230.353ZM91.1369 232.263C90.7149 232.263 90.3931 232.013 90.3931 231.655C90.3931 231.276 90.6649 231.083 91.2012 231.026L92.1524 230.918V231.111C92.1524 231.884 91.7662 232.263 91.1369 232.263Z" fill="#221F23"/>
<path d="M93.5845 230.875C93.5845 231.87 94.2353 232.735 95.2652 232.735C96.1305 232.735 96.6812 232.277 96.8385 231.455H96.2449C96.1377 232.034 95.7729 232.263 95.3152 232.263C94.6144 232.263 94.2282 231.655 94.2282 230.875C94.2282 230.117 94.5929 229.488 95.2723 229.488C95.7443 229.488 96.1019 229.703 96.2092 230.282H96.8028C96.6454 229.459 96.1019 229.016 95.2365 229.016C94.2282 229.016 93.5845 229.924 93.5845 230.875Z" fill="#221F23"/>
<path d="M100.623 231.533H100.029C99.9503 231.827 99.7643 232.263 99.1421 232.263C98.4842 232.263 98.0551 231.798 98.0265 231.054H100.665C100.766 229.853 100.122 229.016 99.0563 229.016C97.9907 229.016 97.4257 229.881 97.4257 230.875C97.4257 231.87 98.0193 232.735 99.0849 232.735C100.065 232.735 100.494 232.17 100.623 231.533ZM99.0563 229.488C99.6857 229.488 100.029 229.939 100.079 230.582H98.0265C98.0837 229.939 98.427 229.488 99.0563 229.488Z" fill="#221F23"/>
<path d="M103.45 229.56V231.862C103.45 232.377 103.679 232.663 104.28 232.663H104.923V232.191H104.444C104.144 232.191 104.044 232.077 104.044 231.798V229.56H104.952V229.088H104.044V228.272H103.45V229.088H102.799V229.56H103.45Z" fill="#221F23"/>
<path d="M107.911 230.446V232.663H108.504V230.239C108.504 229.567 108.097 229.016 107.331 229.016C106.802 229.016 106.437 229.295 106.251 229.788H106.237V227.729H105.665V232.663H106.259V230.389C106.259 229.881 106.502 229.51 107.088 229.51C107.667 229.51 107.911 229.853 107.911 230.446Z" fill="#221F23"/>
<path d="M111.708 230.353V230.468L110.706 230.575C109.948 230.654 109.305 230.89 109.305 231.626C109.305 232.32 109.863 232.735 110.549 232.735C111.107 232.735 111.529 232.456 111.715 231.963H111.729V232.663H112.301V230.489C112.301 229.409 111.651 229.016 110.857 229.016C109.948 229.016 109.469 229.56 109.426 230.218H110.02C110.041 229.796 110.313 229.488 110.857 229.488C111.415 229.488 111.708 229.817 111.708 230.353ZM110.692 232.263C110.27 232.263 109.948 232.013 109.948 231.655C109.948 231.276 110.22 231.083 110.757 231.026L111.708 230.918V231.111C111.708 231.884 111.322 232.263 110.692 232.263Z" fill="#221F23"/>
<path d="M113.556 229.56V231.862C113.556 232.377 113.785 232.663 114.386 232.663H115.029V232.191H114.55C114.25 232.191 114.15 232.077 114.15 231.798V229.56H115.058V229.088H114.15V228.272H113.556V229.088H112.905V229.56H113.556Z" fill="#221F23"/>
<path d="M117.795 229.088H117.145V229.56H117.795V232.663H118.389V229.56H119.297V229.088H118.389V228.594C118.389 228.315 118.489 228.201 118.79 228.201H119.269V227.729H118.625C118.024 227.729 117.795 228.015 117.795 228.53V229.088Z" fill="#221F23"/>
<path d="M122.825 231.533H122.231C122.153 231.827 121.967 232.263 121.344 232.263C120.686 232.263 120.257 231.798 120.229 231.054H122.868C122.968 229.853 122.324 229.016 121.259 229.016C120.193 229.016 119.628 229.881 119.628 230.875C119.628 231.87 120.222 232.735 121.287 232.735C122.267 232.735 122.696 232.17 122.825 231.533ZM121.259 229.488C121.888 229.488 122.231 229.939 122.281 230.582H120.229C120.286 229.939 120.629 229.488 121.259 229.488Z" fill="#221F23"/>
<path d="M125.892 230.353V230.468L124.891 230.575C124.133 230.654 123.489 230.89 123.489 231.626C123.489 232.32 124.047 232.735 124.734 232.735C125.292 232.735 125.714 232.456 125.899 231.963H125.914V232.663H126.486V230.489C126.486 229.409 125.835 229.016 125.041 229.016C124.133 229.016 123.654 229.56 123.611 230.218H124.205C124.226 229.796 124.498 229.488 125.041 229.488C125.599 229.488 125.892 229.817 125.892 230.353ZM124.877 232.263C124.455 232.263 124.133 232.013 124.133 231.655C124.133 231.276 124.405 231.083 124.941 231.026L125.892 230.918V231.111C125.892 231.884 125.506 232.263 124.877 232.263Z" fill="#221F23"/>
<path d="M127.741 229.56V231.862C127.741 232.377 127.969 232.663 128.57 232.663H129.214V232.191H128.735C128.434 232.191 128.334 232.077 128.334 231.798V229.56H129.242V229.088H128.334V228.272H127.741V229.088H127.09V229.56H127.741Z" fill="#221F23"/>
<path d="M130.52 231.305V229.088H129.927V231.512C129.927 232.184 130.335 232.735 131.121 232.735C131.629 232.735 131.958 232.456 132.144 231.963H132.158V232.663H132.73V229.088H132.137V231.362C132.137 231.87 131.929 232.241 131.329 232.241C130.764 232.241 130.52 231.898 130.52 231.305Z" fill="#221F23"/>
<path d="M134.411 230.518C134.411 229.874 134.776 229.66 135.355 229.66H135.484V229.016C134.955 229.016 134.59 229.295 134.404 229.788H134.39V229.088H133.818V232.663H134.411V230.518Z" fill="#221F23"/>
<path d="M139.049 231.533H138.455C138.377 231.827 138.191 232.263 137.568 232.263C136.91 232.263 136.481 231.798 136.453 231.054H139.092C139.192 229.853 138.548 229.016 137.483 229.016C136.417 229.016 135.852 229.881 135.852 230.875C135.852 231.87 136.446 232.735 137.511 232.735C138.491 232.735 138.92 232.17 139.049 231.533ZM137.483 229.488C138.112 229.488 138.455 229.939 138.505 230.582H136.453C136.51 229.939 136.853 229.488 137.483 229.488Z" fill="#221F23"/>
<path d="M142.073 231.727C142.073 232.063 141.694 232.263 141.237 232.263C140.7 232.263 140.328 231.905 140.293 231.412H139.699C139.742 232.084 140.285 232.735 141.215 232.735C142.145 232.735 142.645 232.306 142.645 231.691C142.645 231.111 142.302 230.761 141.616 230.604L141.136 230.496C140.6 230.375 140.386 230.275 140.386 229.982C140.386 229.653 140.722 229.488 141.136 229.488C141.637 229.488 141.93 229.731 141.98 230.146H142.574C142.524 229.488 141.952 229.016 141.136 229.016C140.371 229.016 139.806 229.445 139.806 230.039C139.806 230.604 140.221 230.911 140.908 231.061L141.387 231.169C141.93 231.29 142.073 231.491 142.073 231.727Z" fill="#221F23"/>
<path d="M147.41 230.353V230.468L146.409 230.575C145.651 230.654 145.007 230.89 145.007 231.626C145.007 232.32 145.565 232.735 146.252 232.735C146.809 232.735 147.231 232.456 147.417 231.963H147.432V232.663H148.004V230.489C148.004 229.409 147.353 229.016 146.559 229.016C145.651 229.016 145.172 229.56 145.129 230.218H145.722C145.744 229.796 146.016 229.488 146.559 229.488C147.117 229.488 147.41 229.817 147.41 230.353ZM146.395 232.263C145.973 232.263 145.651 232.013 145.651 231.655C145.651 231.276 145.923 231.083 146.459 231.026L147.41 230.918V231.111C147.41 231.884 147.024 232.263 146.395 232.263Z" fill="#221F23"/>
<path d="M151.302 230.446V232.663H151.896V230.239C151.896 229.567 151.488 229.016 150.723 229.016C150.194 229.016 149.829 229.295 149.643 229.788H149.629V229.088H149.057V232.663H149.65V230.389C149.65 229.881 149.894 229.51 150.48 229.51C151.059 229.51 151.302 229.853 151.302 230.446Z" fill="#221F23"/>
<path d="M156.202 232.735C157.274 232.735 157.918 231.827 157.918 230.875C157.918 229.924 157.274 229.016 156.202 229.016C155.129 229.016 154.485 229.924 154.485 230.875C154.485 231.827 155.129 232.735 156.202 232.735ZM156.202 232.263C155.515 232.263 155.129 231.669 155.129 230.875C155.129 230.082 155.515 229.488 156.202 229.488C156.888 229.488 157.274 230.082 157.274 230.875C157.274 231.669 156.888 232.263 156.202 232.263Z" fill="#221F23"/>
<path d="M159.379 230.518C159.379 229.874 159.744 229.66 160.323 229.66H160.452V229.016C159.923 229.016 159.558 229.295 159.372 229.788H159.358V229.088H158.786V232.663H159.379V230.518Z" fill="#221F23"/>
<path d="M163.58 232.542C163.58 233.178 163.159 233.479 162.601 233.479C162.129 233.479 161.721 233.271 161.642 232.764H161.049C161.149 233.493 161.657 233.951 162.601 233.951C163.638 233.951 164.174 233.35 164.174 232.542V229.088H163.58V229.846H163.566C163.366 229.331 162.937 229.016 162.372 229.016C161.356 229.016 160.834 229.817 160.834 230.804C160.834 231.791 161.356 232.592 162.372 232.592C162.937 232.592 163.366 232.277 163.566 231.762H163.58V232.542ZM161.478 230.804C161.478 230.01 161.864 229.488 162.551 229.488C163.237 229.488 163.609 230.01 163.609 230.804C163.609 231.598 163.237 232.12 162.551 232.12C161.864 232.12 161.478 231.598 161.478 230.804Z" fill="#221F23"/>
<path d="M167.412 230.353V230.468L166.411 230.575C165.653 230.654 165.01 230.89 165.01 231.626C165.01 232.32 165.567 232.735 166.254 232.735C166.812 232.735 167.234 232.456 167.42 231.963H167.434V232.663H168.006V230.489C168.006 229.409 167.355 229.016 166.561 229.016C165.653 229.016 165.174 229.56 165.131 230.218H165.725C165.746 229.796 166.018 229.488 166.561 229.488C167.119 229.488 167.412 229.817 167.412 230.353ZM166.397 232.263C165.975 232.263 165.653 232.013 165.653 231.655C165.653 231.276 165.925 231.083 166.461 231.026L167.412 230.918V231.111C167.412 231.884 167.026 232.263 166.397 232.263Z" fill="#221F23"/>
<path d="M171.305 230.446V232.663H171.898V230.239C171.898 229.567 171.491 229.016 170.725 229.016C170.196 229.016 169.832 229.295 169.646 229.788H169.631V229.088H169.059V232.663H169.653V230.389C169.653 229.881 169.896 229.51 170.482 229.51C171.062 229.51 171.305 229.853 171.305 230.446Z" fill="#221F23"/>
<path d="M172.899 228.422H173.593V227.729H172.899V228.422ZM173.543 229.088H172.949V232.663H173.543V229.088Z" fill="#221F23"/>
<path d="M174.418 230.875C174.418 231.87 175.069 232.735 176.099 232.735C176.964 232.735 177.515 232.277 177.672 231.455H177.078C176.971 232.034 176.606 232.263 176.149 232.263C175.448 232.263 175.062 231.655 175.062 230.875C175.062 230.117 175.426 229.488 176.106 229.488C176.578 229.488 176.935 229.703 177.043 230.282H177.636C177.479 229.459 176.935 229.016 176.07 229.016C175.062 229.016 174.418 229.924 174.418 230.875Z" fill="#221F23"/>
<path d="M39.1859 240.888C39.1859 241.875 39.708 242.747 40.7236 242.747C41.2885 242.747 41.7176 242.433 41.9179 241.918H41.9322V242.676H42.5258V237.741H41.9322V239.858H41.9179C41.7176 239.343 41.2885 239.028 40.7236 239.028C39.708 239.028 39.1859 239.901 39.1859 240.888ZM39.8296 240.888C39.8296 240.094 40.2158 239.5 40.9023 239.5C41.5889 239.5 41.9608 240.094 41.9608 240.888C41.9608 241.682 41.5889 242.275 40.9023 242.275C40.2158 242.275 39.8296 241.682 39.8296 240.888Z" fill="#221F23"/>
<path d="M44.2053 240.53C44.2053 239.887 44.57 239.672 45.1493 239.672H45.278V239.028C44.7488 239.028 44.3841 239.307 44.1981 239.801H44.1838V239.1H43.6117V242.676H44.2053V240.53Z" fill="#221F23"/>
<path d="M48.0481 240.366V240.48L47.0469 240.587C46.2888 240.666 45.6452 240.902 45.6452 241.639C45.6452 242.332 46.203 242.747 46.8896 242.747C47.4474 242.747 47.8693 242.468 48.0553 241.975H48.0696V242.676H48.6417V240.502C48.6417 239.422 47.9909 239.028 47.1971 239.028C46.2888 239.028 45.8097 239.572 45.7668 240.23H46.3603C46.3818 239.808 46.6536 239.5 47.1971 239.5C47.7549 239.5 48.0481 239.829 48.0481 240.366ZM47.0326 242.275C46.6107 242.275 46.2888 242.025 46.2888 241.667C46.2888 241.288 46.5606 241.095 47.097 241.038L48.0481 240.931V241.124C48.0481 241.896 47.662 242.275 47.0326 242.275Z" fill="#221F23"/>
<path d="M51.5202 239.1L50.8121 242.647L49.9325 239.1H49.3174L50.2043 242.676H51.3986L52.1066 239.129L52.8146 242.676H54.0089L54.8957 239.1H54.2807L53.401 242.647L52.693 239.1H51.5202Z" fill="#221F23"/>
<path d="M55.6231 238.435H56.3168V237.741H55.6231V238.435ZM56.2667 239.1H55.6732V242.676H56.2667V239.1Z" fill="#221F23"/>
<path d="M59.6019 240.459V242.676H60.1955V240.251C60.1955 239.579 59.7879 239.028 59.0226 239.028C58.4934 239.028 58.1287 239.307 57.9427 239.801H57.9284V239.1H57.3563V242.676H57.9499V240.402C57.9499 239.894 58.1931 239.522 58.7795 239.522C59.3588 239.522 59.6019 239.865 59.6019 240.459Z" fill="#221F23"/>
<path d="M63.7924 242.554C63.7924 243.191 63.3705 243.491 62.8126 243.491C62.3406 243.491 61.933 243.284 61.8543 242.776H61.2607C61.3609 243.505 61.8686 243.963 62.8126 243.963C63.8496 243.963 64.386 243.362 64.386 242.554V239.1H63.7924V239.858H63.7781C63.5779 239.343 63.1488 239.028 62.5838 239.028C61.5683 239.028 61.0462 239.829 61.0462 240.816C61.0462 241.803 61.5683 242.604 62.5838 242.604C63.1488 242.604 63.5779 242.29 63.7781 241.775H63.7924V242.554ZM61.6898 240.816C61.6898 240.022 62.076 239.5 62.7626 239.5C63.4491 239.5 63.821 240.022 63.821 240.816C63.821 241.61 63.4491 242.132 62.7626 242.132C62.076 242.132 61.6898 241.61 61.6898 240.816Z" fill="#221F23"/>
<path d="M69.3844 240.366V240.48L68.3832 240.587C67.6251 240.666 66.9814 240.902 66.9814 241.639C66.9814 242.332 67.5393 242.747 68.2258 242.747C68.7837 242.747 69.2056 242.468 69.3916 241.975H69.4059V242.676H69.978V240.502C69.978 239.422 69.3272 239.028 68.5334 239.028C67.6251 239.028 67.1459 239.572 67.103 240.23H67.6966C67.7181 239.808 67.9898 239.5 68.5334 239.5C69.0912 239.5 69.3844 239.829 69.3844 240.366ZM68.3689 242.275C67.9469 242.275 67.6251 242.025 67.6251 241.667C67.6251 241.288 67.8969 241.095 68.4332 241.038L69.3844 240.931V241.124C69.3844 241.896 68.9982 242.275 68.3689 242.275Z" fill="#221F23"/>
<path d="M73.2767 240.459V242.676H73.8703V240.251C73.8703 239.579 73.4626 239.028 72.6974 239.028C72.1682 239.028 71.8035 239.307 71.6175 239.801H71.6032V239.1H71.0311V242.676H71.6247V240.402C71.6247 239.894 71.8678 239.522 72.4543 239.522C73.0335 239.522 73.2767 239.865 73.2767 240.459Z" fill="#221F23"/>
<path d="M74.7138 240.888C74.7138 241.875 75.2359 242.747 76.2514 242.747C76.8164 242.747 77.2455 242.433 77.4457 241.918H77.46V242.676H78.0536V237.741H77.46V239.858H77.4457C77.2455 239.343 76.8164 239.028 76.2514 239.028C75.2359 239.028 74.7138 239.901 74.7138 240.888ZM75.3574 240.888C75.3574 240.094 75.7436 239.5 76.4302 239.5C77.1167 239.5 77.4886 240.094 77.4886 240.888C77.4886 241.682 77.1167 242.275 76.4302 242.275C75.7436 242.275 75.3574 241.682 75.3574 240.888Z" fill="#221F23"/>
<path d="M83.0522 240.366V240.48L82.0509 240.587C81.2929 240.666 80.6492 240.902 80.6492 241.639C80.6492 242.332 81.2071 242.747 81.8936 242.747C82.4514 242.747 82.8734 242.468 83.0593 241.975H83.0736V242.676H83.6458V240.502C83.6458 239.422 82.995 239.028 82.2011 239.028C81.2929 239.028 80.8137 239.572 80.7708 240.23H81.3644C81.3858 239.808 81.6576 239.5 82.2011 239.5C82.759 239.5 83.0522 239.829 83.0522 240.366ZM82.0366 242.275C81.6147 242.275 81.2929 242.025 81.2929 241.667C81.2929 241.288 81.5646 241.095 82.101 241.038L83.0522 240.931V241.124C83.0522 241.896 82.666 242.275 82.0366 242.275Z" fill="#221F23"/>
<path d="M89.7987 240.888C89.7987 239.901 89.2766 239.028 88.2611 239.028C87.6961 239.028 87.267 239.343 87.0667 239.858H87.0524V239.1H86.4588V243.892H87.0524V241.918H87.0667C87.267 242.433 87.6961 242.747 88.2611 242.747C89.2766 242.747 89.7987 241.875 89.7987 240.888ZM89.155 240.888C89.155 241.682 88.7688 242.275 88.0823 242.275C87.3957 242.275 87.0238 241.682 87.0238 240.888C87.0238 240.094 87.3957 239.5 88.0823 239.5C88.7688 239.5 89.155 240.094 89.155 240.888Z" fill="#221F23"/>
<path d="M92.8298 240.366V240.48L91.8286 240.587C91.0705 240.666 90.4269 240.902 90.4269 241.639C90.4269 242.332 90.9847 242.747 91.6713 242.747C92.2291 242.747 92.6511 242.468 92.837 241.975H92.8513V242.676H93.4234V240.502C93.4234 239.422 92.7726 239.028 91.9788 239.028C91.0705 239.028 90.5914 239.572 90.5485 240.23H91.1421C91.1635 239.808 91.4353 239.5 91.9788 239.5C92.5366 239.5 92.8298 239.829 92.8298 240.366ZM91.8143 242.275C91.3924 242.275 91.0705 242.025 91.0705 241.667C91.0705 241.288 91.3423 241.095 91.8787 241.038L92.8298 240.931V241.124C92.8298 241.896 92.4437 242.275 91.8143 242.275Z" fill="#221F23"/>
<path d="M95.0701 240.53C95.0701 239.887 95.4348 239.672 96.0141 239.672H96.1429V239.028C95.6136 239.028 95.2489 239.307 95.063 239.801H95.0487V239.1H94.4765V242.676H95.0701V240.53Z" fill="#221F23"/>
<path d="M97.1016 239.572V241.875C97.1016 242.39 97.3304 242.676 97.9312 242.676H98.5748V242.204H98.0957C97.7953 242.204 97.6952 242.089 97.6952 241.81V239.572H98.6034V239.1H97.6952V238.285H97.1016V239.1H96.4508V239.572H97.1016Z" fill="#221F23"/>
<path d="M99.2664 238.435H99.9601V237.741H99.2664V238.435ZM99.91 239.1H99.3165V242.676H99.91V239.1Z" fill="#221F23"/>
<path d="M100.785 240.888C100.785 241.882 101.436 242.747 102.466 242.747C103.331 242.747 103.882 242.29 104.039 241.467H103.445C103.338 242.046 102.973 242.275 102.516 242.275C101.815 242.275 101.429 241.667 101.429 240.888C101.429 240.13 101.793 239.5 102.473 239.5C102.945 239.5 103.302 239.715 103.41 240.294H104.003C103.846 239.472 103.302 239.028 102.437 239.028C101.429 239.028 100.785 239.937 100.785 240.888Z" fill="#221F23"/>
<path d="M105.406 241.317V239.1H104.812V241.524C104.812 242.197 105.22 242.747 106.007 242.747C106.514 242.747 106.843 242.468 107.029 241.975H107.044V242.676H107.616V239.1H107.022V241.374C107.022 241.882 106.815 242.254 106.214 242.254C105.649 242.254 105.406 241.911 105.406 241.317Z" fill="#221F23"/>
<path d="M108.703 242.676H109.297V237.741H108.703V242.676Z" fill="#221F23"/>
<path d="M112.539 240.366V240.48L111.538 240.587C110.78 240.666 110.136 240.902 110.136 241.639C110.136 242.332 110.694 242.747 111.38 242.747C111.938 242.747 112.36 242.468 112.546 241.975H112.56V242.676H113.132V240.502C113.132 239.422 112.482 239.028 111.688 239.028C110.78 239.028 110.3 239.572 110.257 240.23H110.851C110.872 239.808 111.144 239.5 111.688 239.5C112.246 239.5 112.539 239.829 112.539 240.366ZM111.523 242.275C111.101 242.275 110.78 242.025 110.78 241.667C110.78 241.288 111.051 241.095 111.588 241.038L112.539 240.931V241.124C112.539 241.896 112.153 242.275 111.523 242.275Z" fill="#221F23"/>
<path d="M114.779 240.53C114.779 239.887 115.144 239.672 115.723 239.672H115.852V239.028C115.323 239.028 114.958 239.307 114.772 239.801H114.758V239.1H114.186V242.676H114.779V240.53Z" fill="#221F23"/>
<path d="M117.931 240.888C117.931 241.875 118.453 242.747 119.469 242.747C120.034 242.747 120.463 242.433 120.663 241.918H120.677V242.676H121.271V237.741H120.677V239.858H120.663C120.463 239.343 120.034 239.028 119.469 239.028C118.453 239.028 117.931 239.901 117.931 240.888ZM118.575 240.888C118.575 240.094 118.961 239.5 119.647 239.5C120.334 239.5 120.706 240.094 120.706 240.888C120.706 241.682 120.334 242.275 119.647 242.275C118.961 242.275 118.575 241.682 118.575 240.888Z" fill="#221F23"/>
<path d="M122.307 238.435H123V237.741H122.307V238.435ZM122.95 239.1H122.357V242.676H122.95V239.1Z" fill="#221F23"/>
<path d="M126.586 242.554C126.586 243.191 126.164 243.491 125.606 243.491C125.134 243.491 124.727 243.284 124.648 242.776H124.054C124.154 243.505 124.662 243.963 125.606 243.963C126.643 243.963 127.18 243.362 127.18 242.554V239.1H126.586V239.858H126.572C126.371 239.343 125.942 239.028 125.377 239.028C124.362 239.028 123.84 239.829 123.84 240.816C123.84 241.803 124.362 242.604 125.377 242.604C125.942 242.604 126.371 242.29 126.572 241.775H126.586V242.554ZM124.483 240.816C124.483 240.022 124.87 239.5 125.556 239.5C126.243 239.5 126.615 240.022 126.615 240.816C126.615 241.61 126.243 242.132 125.556 242.132C124.87 242.132 124.483 241.61 124.483 240.816Z" fill="#221F23"/>
<path d="M128.215 238.435H128.909V237.741H128.215V238.435ZM128.859 239.1H128.265V242.676H128.859V239.1Z" fill="#221F23"/>
<path d="M130.206 239.572V241.875C130.206 242.39 130.435 242.676 131.036 242.676H131.679V242.204H131.2C130.9 242.204 130.8 242.089 130.8 241.81V239.572H131.708V239.1H130.8V238.285H130.206V239.1H129.555V239.572H130.206Z" fill="#221F23"/>
<path d="M134.573 240.366V240.48L133.572 240.587C132.814 240.666 132.171 240.902 132.171 241.639C132.171 242.332 132.728 242.747 133.415 242.747C133.973 242.747 134.395 242.468 134.581 241.975H134.595V242.676H135.167V240.502C135.167 239.422 134.516 239.028 133.722 239.028C132.814 239.028 132.335 239.572 132.292 240.23H132.886C132.907 239.808 133.179 239.5 133.722 239.5C134.28 239.5 134.573 239.829 134.573 240.366ZM133.558 242.275C133.136 242.275 132.814 242.025 132.814 241.667C132.814 241.288 133.086 241.095 133.622 241.038L134.573 240.931V241.124C134.573 241.896 134.187 242.275 133.558 242.275Z" fill="#221F23"/>
<path d="M136.22 242.676H136.814V237.741H136.22V242.676Z" fill="#221F23"/>
<path d="M142.095 242.676H142.688V237.741H140.757C140.157 237.741 139.928 238.027 139.928 238.542V239.1H139.277V239.572H139.928V242.676H140.522V239.572H141.43V239.1H140.522V238.606C140.522 238.328 140.622 238.213 140.922 238.213H142.095V242.676Z" fill="#221F23"/>
<path d="M145.93 240.366V240.48L144.928 240.587C144.17 240.666 143.527 240.902 143.527 241.639C143.527 242.332 144.084 242.747 144.771 242.747C145.329 242.747 145.751 242.468 145.937 241.975H145.951V242.676H146.523V240.502C146.523 239.422 145.872 239.028 145.079 239.028C144.17 239.028 143.691 239.572 143.648 240.23H144.242C144.263 239.808 144.535 239.5 145.079 239.5C145.636 239.5 145.93 239.829 145.93 240.366ZM144.914 242.275C144.492 242.275 144.17 242.025 144.17 241.667C144.17 241.288 144.442 241.095 144.978 241.038L145.93 240.931V241.124C145.93 241.896 145.543 242.275 144.914 242.275Z" fill="#221F23"/>
<path d="M147.148 239.1L148.2 242.676H149.415L150.467 239.1H149.852L148.807 242.647L147.763 239.1H147.148Z" fill="#221F23"/>
<path d="M152.598 242.747C153.671 242.747 154.314 241.839 154.314 240.888C154.314 239.937 153.671 239.028 152.598 239.028C151.525 239.028 150.881 239.937 150.881 240.888C150.881 241.839 151.525 242.747 152.598 242.747ZM152.598 242.275C151.911 242.275 151.525 241.682 151.525 240.888C151.525 240.094 151.911 239.5 152.598 239.5C153.284 239.5 153.671 240.094 153.671 240.888C153.671 241.682 153.284 242.275 152.598 242.275Z" fill="#221F23"/>
<path d="M155.775 240.53C155.775 239.887 156.14 239.672 156.719 239.672H156.848V239.028C156.319 239.028 155.954 239.307 155.768 239.801H155.754V239.1H155.182V242.676H155.775V240.53Z" fill="#221F23"/>
<path d="M157.087 242.676H157.781V241.982H157.087V242.676Z" fill="#221F23"/>
<path d="M162.841 239.894L162.176 239.736C161.36 239.543 161.131 239.336 161.131 238.964C161.131 238.463 161.575 238.184 162.218 238.184C162.976 238.184 163.42 238.621 163.477 239.207H164.114C164.028 238.356 163.413 237.67 162.19 237.67C161.26 237.67 160.466 238.184 160.466 238.993C160.466 239.679 160.953 240.115 161.982 240.359L162.648 240.516C163.284 240.666 163.577 240.931 163.577 241.388C163.577 241.911 163.069 242.232 162.34 242.232C161.589 242.232 161.024 241.646 160.981 240.938H160.345C160.409 241.875 161.074 242.747 162.369 242.747C163.541 242.747 164.249 242.139 164.249 241.396C164.249 240.537 163.756 240.108 162.841 239.894Z" fill="#221F23"/>
<path d="M165.371 239.572V241.875C165.371 242.39 165.599 242.676 166.2 242.676H166.844V242.204H166.365C166.064 242.204 165.964 242.089 165.964 241.81V239.572H166.872V239.1H165.964V238.285H165.371V239.1H164.72V239.572H165.371Z" fill="#221F23"/>
<path d="M168.179 240.53C168.179 239.887 168.544 239.672 169.123 239.672H169.252V239.028C168.723 239.028 168.358 239.307 168.172 239.801H168.158V239.1H167.586V242.676H168.179V240.53Z" fill="#221F23"/>
<path d="M171.329 242.747C172.402 242.747 173.045 241.839 173.045 240.888C173.045 239.937 172.402 239.028 171.329 239.028C170.256 239.028 169.613 239.937 169.613 240.888C169.613 241.839 170.256 242.747 171.329 242.747ZM171.329 242.275C170.643 242.275 170.256 241.682 170.256 240.888C170.256 240.094 170.643 239.5 171.329 239.5C172.016 239.5 172.402 240.094 172.402 240.888C172.402 241.682 172.016 242.275 171.329 242.275Z" fill="#221F23"/>
<path d="M176.159 240.459V242.676H176.752V240.251C176.752 239.579 176.345 239.028 175.579 239.028C175.05 239.028 174.685 239.307 174.499 239.801H174.485V239.1H173.913V242.676H174.507V240.402C174.507 239.894 174.75 239.522 175.336 239.522C175.916 239.522 176.159 239.865 176.159 240.459Z" fill="#221F23"/>
<path d="M180.349 242.554C180.349 243.191 179.927 243.491 179.369 243.491C178.897 243.491 178.49 243.284 178.411 242.776H177.817C177.918 243.505 178.425 243.963 179.369 243.963C180.406 243.963 180.943 243.362 180.943 242.554V239.1H180.349V239.858H180.335C180.135 239.343 179.706 239.028 179.141 239.028C178.125 239.028 177.603 239.829 177.603 240.816C177.603 241.803 178.125 242.604 179.141 242.604C179.706 242.604 180.135 242.29 180.335 241.775H180.349V242.554ZM178.247 240.816C178.247 240.022 178.633 239.5 179.319 239.5C180.006 239.5 180.378 240.022 180.378 240.816C180.378 241.61 180.006 242.132 179.319 242.132C178.633 242.132 178.247 241.61 178.247 240.816Z" fill="#221F23"/>
<path d="M39.6508 249.584V251.887C39.6508 252.402 39.8797 252.688 40.4804 252.688H41.124V252.216H40.6449C40.3445 252.216 40.2444 252.102 40.2444 251.823V249.584H41.1527V249.112H40.2444V248.297H39.6508V249.112H39V249.584H39.6508Z" fill="#221F23"/>
<path d="M44.9838 249.112H44.3688L43.2317 252.288L42.0731 249.112H41.458L42.6309 252.33H43.2174L42.6524 253.904H43.2674L44.9838 249.112Z" fill="#221F23"/>
<path d="M48.9699 250.9C48.9699 249.913 48.4479 249.041 47.4323 249.041C46.8673 249.041 46.4382 249.355 46.238 249.87H46.2237V249.112H45.6301V253.904H46.2237V251.93H46.238C46.4382 252.445 46.8673 252.76 47.4323 252.76C48.4479 252.76 48.9699 251.887 48.9699 250.9ZM48.3263 250.9C48.3263 251.694 47.9401 252.288 47.2535 252.288C46.567 252.288 46.1951 251.694 46.1951 250.9C46.1951 250.106 46.567 249.513 47.2535 249.513C47.9401 249.513 48.3263 250.106 48.3263 250.9Z" fill="#221F23"/>
<path d="M51.3432 252.76C52.4159 252.76 53.0596 251.851 53.0596 250.9C53.0596 249.949 52.4159 249.041 51.3432 249.041C50.2704 249.041 49.6268 249.949 49.6268 250.9C49.6268 251.851 50.2704 252.76 51.3432 252.76ZM51.3432 252.288C50.6566 252.288 50.2704 251.694 50.2704 250.9C50.2704 250.106 50.6566 249.513 51.3432 249.513C52.0297 249.513 52.4159 250.106 52.4159 250.9C52.4159 251.694 52.0297 252.288 51.3432 252.288Z" fill="#221F23"/>
<path d="M56.4731 252.566C56.4731 253.203 56.0512 253.503 55.4934 253.503C55.0213 253.503 54.6137 253.296 54.535 252.788H53.9414C54.0416 253.518 54.5493 253.975 55.4934 253.975C56.5303 253.975 57.0667 253.375 57.0667 252.566V249.112H56.4731V249.87H56.4588C56.2586 249.355 55.8295 249.041 55.2645 249.041C54.249 249.041 53.7269 249.842 53.7269 250.829C53.7269 251.816 54.249 252.617 55.2645 252.617C55.8295 252.617 56.2586 252.302 56.4588 251.787H56.4731V252.566ZM54.3705 250.829C54.3705 250.035 54.7567 249.513 55.4433 249.513C56.1299 249.513 56.5017 250.035 56.5017 250.829C56.5017 251.622 56.1299 252.145 55.4433 252.145C54.7567 252.145 54.3705 251.622 54.3705 250.829Z" fill="#221F23"/>
<path d="M58.7461 250.543C58.7461 249.899 59.1108 249.684 59.6901 249.684H59.8188V249.041C59.2896 249.041 58.9249 249.32 58.7389 249.813H58.7246V249.112H58.1525V252.688H58.7461V250.543Z" fill="#221F23"/>
<path d="M62.5889 250.378V250.493L61.5877 250.6C60.8296 250.678 60.186 250.914 60.186 251.651C60.186 252.345 60.7438 252.76 61.4304 252.76C61.9882 252.76 62.4101 252.481 62.5961 251.987H62.6104V252.688H63.1825V250.514C63.1825 249.434 62.5317 249.041 61.7379 249.041C60.8296 249.041 60.3505 249.584 60.3075 250.242H60.9011C60.9226 249.82 61.1944 249.513 61.7379 249.513C62.2957 249.513 62.5889 249.842 62.5889 250.378ZM61.5734 252.288C61.1514 252.288 60.8296 252.037 60.8296 251.68C60.8296 251.301 61.1014 251.108 61.6378 251.05L62.5889 250.943V251.136C62.5889 251.909 62.2027 252.288 61.5734 252.288Z" fill="#221F23"/>
<path d="M67.5754 250.9C67.5754 249.913 67.0534 249.041 66.0378 249.041C65.4728 249.041 65.0437 249.355 64.8435 249.87H64.8292V249.112H64.2356V253.904H64.8292V251.93H64.8435C65.0437 252.445 65.4728 252.76 66.0378 252.76C67.0534 252.76 67.5754 251.887 67.5754 250.9ZM66.9318 250.9C66.9318 251.694 66.5456 252.288 65.859 252.288C65.1725 252.288 64.8006 251.694 64.8006 250.9C64.8006 250.106 65.1725 249.513 65.859 249.513C66.5456 249.513 66.9318 250.106 66.9318 250.9Z" fill="#221F23"/>
<path d="M70.6996 250.471V252.688H71.2932V250.264C71.2932 249.591 70.8855 249.041 70.1203 249.041C69.5911 249.041 69.2263 249.32 69.0404 249.813H69.0261V247.753H68.454V252.688H69.0475V250.414C69.0475 249.906 69.2907 249.534 69.8771 249.534C70.4564 249.534 70.6996 249.877 70.6996 250.471Z" fill="#221F23"/>
<path d="M72.294 248.447H72.9877V247.753H72.294V248.447ZM72.9377 249.112H72.3441V252.688H72.9377V249.112Z" fill="#221F23"/>
<path d="M73.8127 250.9C73.8127 251.894 74.4635 252.76 75.4933 252.76C76.3587 252.76 76.9094 252.302 77.0667 251.479H76.4731C76.3658 252.059 76.0011 252.288 75.5434 252.288C74.8425 252.288 74.4563 251.68 74.4563 250.9C74.4563 250.142 74.8211 249.513 75.5005 249.513C75.9725 249.513 76.3301 249.727 76.4373 250.307H77.0309C76.8736 249.484 76.3301 249.041 75.4647 249.041C74.4563 249.041 73.8127 249.949 73.8127 250.9Z" fill="#221F23"/>
<path d="M79.421 250.9C79.421 251.887 79.9431 252.76 80.9586 252.76C81.5236 252.76 81.9527 252.445 82.153 251.93H82.1673V252.688H82.7609V247.753H82.1673V249.87H82.153C81.9527 249.355 81.5236 249.041 80.9586 249.041C79.9431 249.041 79.421 249.913 79.421 250.9ZM80.0647 250.9C80.0647 250.106 80.4509 249.513 81.1374 249.513C81.824 249.513 82.1959 250.106 82.1959 250.9C82.1959 251.694 81.824 252.288 81.1374 252.288C80.4509 252.288 80.0647 251.694 80.0647 250.9Z" fill="#221F23"/>
<path d="M86.829 251.558H86.2355C86.1568 251.851 85.9708 252.288 85.3486 252.288C84.6907 252.288 84.2616 251.823 84.233 251.079H86.872C86.9721 249.877 86.3284 249.041 85.2628 249.041C84.1972 249.041 83.6322 249.906 83.6322 250.9C83.6322 251.894 84.2258 252.76 85.2914 252.76C86.2712 252.76 86.7003 252.195 86.829 251.558ZM85.2628 249.513C85.8922 249.513 86.2355 249.963 86.2855 250.607H84.233C84.2902 249.963 84.6335 249.513 85.2628 249.513Z" fill="#221F23"/>
<path d="M87.9315 249.584V251.887C87.9315 252.402 88.1604 252.688 88.7611 252.688H89.4048V252.216H88.9256C88.6252 252.216 88.5251 252.102 88.5251 251.823V249.584H89.4334V249.112H88.5251V248.297H87.9315V249.112H87.2807V249.584H87.9315Z" fill="#221F23"/>
<path d="M92.2991 250.378V250.493L91.2978 250.6C90.5398 250.678 89.8961 250.914 89.8961 251.651C89.8961 252.345 90.4539 252.76 91.1405 252.76C91.6983 252.76 92.1203 252.481 92.3062 251.987H92.3205V252.688H92.8926V250.514C92.8926 249.434 92.2418 249.041 91.448 249.041C90.5398 249.041 90.0606 249.584 90.0177 250.242H90.6113C90.6327 249.82 90.9045 249.513 91.448 249.513C92.0058 249.513 92.2991 249.842 92.2991 250.378ZM91.2835 252.288C90.8616 252.288 90.5397 252.037 90.5397 251.68C90.5397 251.301 90.8115 251.108 91.3479 251.05L92.2991 250.943V251.136C92.2991 251.909 91.9129 252.288 91.2835 252.288Z" fill="#221F23"/>
<path d="M93.8957 248.447H94.5894V247.753H93.8957V248.447ZM94.5393 249.112H93.9457V252.688H94.5393V249.112Z" fill="#221F23"/>
<path d="M95.6289 252.688H96.2225V247.753H95.6289V252.688Z" fill="#221F23"/>
<path d="M99.4218 251.751C99.4218 252.087 99.0427 252.288 98.585 252.288C98.0487 252.288 97.6768 251.93 97.641 251.437H97.0474C97.0903 252.109 97.6339 252.76 98.5636 252.76C99.4933 252.76 99.9939 252.33 99.9939 251.715C99.9939 251.136 99.6506 250.786 98.9641 250.628L98.4849 250.521C97.9485 250.4 97.734 250.299 97.734 250.006C97.734 249.677 98.0701 249.513 98.4849 249.513C98.9855 249.513 99.2788 249.756 99.3288 250.171H99.9224C99.8723 249.513 99.3002 249.041 98.4849 249.041C97.7197 249.041 97.1547 249.47 97.1547 250.063C97.1547 250.628 97.5695 250.936 98.2561 251.086L98.7352 251.193C99.2787 251.315 99.4218 251.515 99.4218 251.751Z" fill="#221F23"/>
<path d="M104.759 250.378V250.493L103.757 250.6C102.999 250.678 102.356 250.914 102.356 251.651C102.356 252.345 102.913 252.76 103.6 252.76C104.158 252.76 104.58 252.481 104.766 251.987H104.78V252.688H105.352V250.514C105.352 249.434 104.701 249.041 103.908 249.041C102.999 249.041 102.52 249.584 102.477 250.242H103.071C103.092 249.82 103.364 249.513 103.908 249.513C104.465 249.513 104.759 249.842 104.759 250.378ZM103.743 252.288C103.321 252.288 102.999 252.037 102.999 251.68C102.999 251.301 103.271 251.108 103.807 251.05L104.759 250.943V251.136C104.759 251.909 104.372 252.288 103.743 252.288Z" fill="#221F23"/>
<path d="M106.198 250.9C106.198 251.887 106.72 252.76 107.735 252.76C108.3 252.76 108.73 252.445 108.93 251.93H108.944V252.688H109.538V247.753H108.944V249.87H108.93C108.73 249.355 108.3 249.041 107.735 249.041C106.72 249.041 106.198 249.913 106.198 250.9ZM106.842 250.9C106.842 250.106 107.228 249.513 107.914 249.513C108.601 249.513 108.973 250.106 108.973 250.9C108.973 251.694 108.601 252.288 107.914 252.288C107.228 252.288 106.842 251.694 106.842 250.9Z" fill="#221F23"/>
<path d="M110.416 250.9C110.416 251.887 110.938 252.76 111.954 252.76C112.519 252.76 112.948 252.445 113.148 251.93H113.162V252.688H113.756V247.753H113.162V249.87H113.148C112.948 249.355 112.519 249.041 111.954 249.041C110.938 249.041 110.416 249.913 110.416 250.9ZM111.06 250.9C111.06 250.106 111.446 249.513 112.133 249.513C112.819 249.513 113.191 250.106 113.191 250.9C113.191 251.694 112.819 252.288 112.133 252.288C111.446 252.288 111.06 251.694 111.06 250.9Z" fill="#221F23"/>
<path d="M118.755 250.378V250.493L117.753 250.6C116.995 250.678 116.352 250.914 116.352 251.651C116.352 252.345 116.91 252.76 117.596 252.76C118.154 252.76 118.576 252.481 118.762 251.987H118.776V252.688H119.348V250.514C119.348 249.434 118.697 249.041 117.904 249.041C116.995 249.041 116.516 249.584 116.473 250.242H117.067C117.088 249.82 117.36 249.513 117.904 249.513C118.461 249.513 118.755 249.842 118.755 250.378ZM117.739 252.288C117.317 252.288 116.995 252.037 116.995 251.68C116.995 251.301 117.267 251.108 117.803 251.05L118.755 250.943V251.136C118.755 251.909 118.368 252.288 117.739 252.288Z" fill="#221F23"/>
<path d="M124.407 250.471V252.688H125V250.264C125 249.591 124.593 249.041 123.828 249.041C123.298 249.041 122.934 249.32 122.748 249.813H122.733V247.753H122.161V252.688H122.755V250.414C122.755 249.906 122.998 249.534 123.584 249.534C124.164 249.534 124.407 249.877 124.407 250.471Z" fill="#221F23"/>
<path d="M126.001 248.447H126.695V247.753H126.001V248.447ZM126.645 249.112H126.051V252.688H126.645V249.112Z" fill="#221F23"/>
<path d="M130.281 252.566C130.281 253.203 129.859 253.503 129.301 253.503C128.829 253.503 128.421 253.296 128.342 252.788H127.749C127.849 253.518 128.357 253.975 129.301 253.975C130.338 253.975 130.874 253.375 130.874 252.566V249.112H130.281V249.87H130.266C130.066 249.355 129.637 249.041 129.072 249.041C128.056 249.041 127.534 249.842 127.534 250.829C127.534 251.816 128.056 252.617 129.072 252.617C129.637 252.617 130.066 252.302 130.266 251.787H130.281V252.566ZM128.178 250.829C128.178 250.035 128.564 249.513 129.251 249.513C129.937 249.513 130.309 250.035 130.309 250.829C130.309 251.622 129.937 252.145 129.251 252.145C128.564 252.145 128.178 251.622 128.178 250.829Z" fill="#221F23"/>
<path d="M134.206 250.471V252.688H134.799V250.264C134.799 249.591 134.391 249.041 133.626 249.041C133.097 249.041 132.732 249.32 132.546 249.813H132.532V247.753H131.96V252.688H132.553V250.414C132.553 249.906 132.797 249.534 133.383 249.534C133.962 249.534 134.206 249.877 134.206 250.471Z" fill="#221F23"/>
<path d="M137.763 249.584V251.887C137.763 252.402 137.992 252.688 138.592 252.688H139.236V252.216H138.757C138.456 252.216 138.356 252.102 138.356 251.823V249.584H139.265V249.112H138.356V248.297H137.763V249.112H137.112V249.584H137.763Z" fill="#221F23"/>
<path d="M142.911 251.558H142.317C142.239 251.851 142.053 252.288 141.431 252.288C140.773 252.288 140.343 251.823 140.315 251.079H142.954C143.054 249.877 142.41 249.041 141.345 249.041C140.279 249.041 139.714 249.906 139.714 250.9C139.714 251.894 140.308 252.76 141.373 252.76C142.353 252.76 142.782 252.195 142.911 251.558ZM141.345 249.513C141.974 249.513 142.317 249.963 142.367 250.607H140.315C140.372 249.963 140.715 249.513 141.345 249.513Z" fill="#221F23"/>
<path d="M146.071 250.471V252.688H146.665V250.264C146.665 249.591 146.257 249.041 145.492 249.041C144.963 249.041 144.598 249.32 144.412 249.813H144.398V249.112H143.826V252.688H144.419V250.414C144.419 249.906 144.663 249.534 145.249 249.534C145.828 249.534 146.071 249.877 146.071 250.471Z" fill="#221F23"/>
<path d="M149.826 251.751C149.826 252.087 149.447 252.288 148.989 252.288C148.453 252.288 148.081 251.93 148.045 251.437H147.451C147.494 252.109 148.038 252.76 148.967 252.76C149.897 252.76 150.398 252.33 150.398 251.715C150.398 251.136 150.055 250.786 149.368 250.628L148.889 250.521C148.352 250.4 148.138 250.299 148.138 250.006C148.138 249.677 148.474 249.513 148.889 249.513C149.389 249.513 149.683 249.756 149.733 250.171H150.326C150.276 249.513 149.704 249.041 148.889 249.041C148.124 249.041 147.559 249.47 147.559 250.063C147.559 250.628 147.973 250.936 148.66 251.086L149.139 251.193C149.683 251.315 149.826 251.515 149.826 251.751Z" fill="#221F23"/>
<path d="M151.2 248.447H151.893V247.753H151.2V248.447ZM151.843 249.112H151.25V252.688H151.843V249.112Z" fill="#221F23"/>
<path d="M154.428 252.76C155.5 252.76 156.144 251.851 156.144 250.9C156.144 249.949 155.5 249.041 154.428 249.041C153.355 249.041 152.711 249.949 152.711 250.9C152.711 251.851 153.355 252.76 154.428 252.76ZM154.428 252.288C153.741 252.288 153.355 251.694 153.355 250.9C153.355 250.106 153.741 249.513 154.428 249.513C155.114 249.513 155.5 250.106 155.5 250.9C155.5 251.694 155.114 252.288 154.428 252.288Z" fill="#221F23"/>
<path d="M159.257 250.471V252.688H159.851V250.264C159.851 249.591 159.443 249.041 158.678 249.041C158.149 249.041 157.784 249.32 157.598 249.813H157.584V249.112H157.012V252.688H157.605V250.414C157.605 249.906 157.848 249.534 158.435 249.534C159.014 249.534 159.257 249.877 159.257 250.471Z" fill="#221F23"/>
<path d="M164.557 249.112L163.849 252.659L162.969 249.112H162.354L163.241 252.688H164.435L165.143 249.141L165.851 252.688H167.046L167.933 249.112H167.317L166.438 252.659L165.73 249.112H164.557Z" fill="#221F23"/>
<path d="M170.956 250.471V252.688H171.549V250.264C171.549 249.591 171.142 249.041 170.376 249.041C169.847 249.041 169.482 249.32 169.296 249.813H169.282V247.753H168.71V252.688H169.304V250.414C169.304 249.906 169.547 249.534 170.133 249.534C170.712 249.534 170.956 249.877 170.956 250.471Z" fill="#221F23"/>
<path d="M172.55 248.447H173.244V247.753H172.55V248.447ZM173.194 249.112H172.6V252.688H173.194V249.112Z" fill="#221F23"/>
<path d="M174.283 252.688H174.877V247.753H174.283V252.688Z" fill="#221F23"/>
<path d="M178.949 251.558H178.355C178.276 251.851 178.09 252.288 177.468 252.288C176.81 252.288 176.381 251.823 176.353 251.079H178.992C179.092 249.877 178.448 249.041 177.382 249.041C176.317 249.041 175.752 249.906 175.752 250.9C175.752 251.894 176.345 252.76 177.411 252.76C178.391 252.76 178.82 252.195 178.949 251.558ZM177.382 249.513C178.012 249.513 178.355 249.963 178.405 250.607H176.353C176.41 249.963 176.753 249.513 177.382 249.513Z" fill="#221F23"/>
<path d="M41.689 262.7H42.44L40.7236 260.698L42.3756 259.125H41.6175L39.9869 260.676V257.766H39.3933V262.7H39.9869V260.719L41.689 262.7Z" fill="#221F23"/>
<path d="M45.8467 261.57H45.2531C45.1744 261.864 44.9885 262.3 44.3663 262.3C43.7083 262.3 43.2792 261.835 43.2506 261.091H45.8896C45.9897 259.89 45.346 259.053 44.2804 259.053C43.2148 259.053 42.6499 259.918 42.6499 260.912C42.6499 261.907 43.2435 262.772 44.309 262.772C45.2888 262.772 45.7179 262.207 45.8467 261.57ZM44.2804 259.525C44.9098 259.525 45.2531 259.976 45.3031 260.619H43.2506C43.3078 259.976 43.6511 259.525 44.2804 259.525Z" fill="#221F23"/>
<path d="M49.7438 261.57H49.1502C49.0715 261.864 48.8856 262.3 48.2634 262.3C47.6054 262.3 47.1763 261.835 47.1477 261.091H49.7867C49.8868 259.89 49.2431 259.053 48.1775 259.053C47.1119 259.053 46.547 259.918 46.547 260.912C46.547 261.907 47.1405 262.772 48.2061 262.772C49.1859 262.772 49.615 262.207 49.7438 261.57ZM48.1775 259.525C48.8069 259.525 49.1502 259.976 49.2002 260.619H47.1477C47.2049 259.976 47.5482 259.525 48.1775 259.525Z" fill="#221F23"/>
<path d="M53.9984 260.912C53.9984 259.926 53.4764 259.053 52.4608 259.053C51.8958 259.053 51.4667 259.368 51.2665 259.883H51.2522V259.125H50.6586V263.916H51.2522V261.942H51.2665C51.4667 262.457 51.8958 262.772 52.4608 262.772C53.4764 262.772 53.9984 261.899 53.9984 260.912ZM53.3548 260.912C53.3548 261.706 52.9686 262.3 52.282 262.3C51.5955 262.3 51.2236 261.706 51.2236 260.912C51.2236 260.119 51.5955 259.525 52.282 259.525C52.9686 259.525 53.3548 260.119 53.3548 260.912Z" fill="#221F23"/>
<path d="M54.8269 258.459H55.5206V257.766H54.8269V258.459ZM55.4706 259.125H54.877V262.7H55.4706V259.125Z" fill="#221F23"/>
<path d="M58.8058 260.483V262.7H59.3993V260.276C59.3993 259.604 58.9917 259.053 58.2265 259.053C57.6972 259.053 57.3325 259.332 57.1466 259.825H57.1323V259.125H56.5601V262.7H57.1537V260.426C57.1537 259.918 57.3969 259.547 57.9833 259.547C58.5626 259.547 58.8058 259.89 58.8058 260.483Z" fill="#221F23"/>
<path d="M62.9962 262.579C62.9962 263.215 62.5743 263.516 62.0165 263.516C61.5444 263.516 61.1368 263.308 61.0581 262.801H60.4645C60.5647 263.53 61.0724 263.988 62.0165 263.988C63.0534 263.988 63.5898 263.387 63.5898 262.579V259.125H62.9962V259.883H62.9819C62.7817 259.368 62.3526 259.053 61.7876 259.053C60.7721 259.053 60.25 259.854 60.25 260.841C60.25 261.828 60.7721 262.629 61.7876 262.629C62.3526 262.629 62.7817 262.314 62.9819 261.799H62.9962V262.579ZM60.8936 260.841C60.8936 260.047 61.2798 259.525 61.9664 259.525C62.653 259.525 63.0248 260.047 63.0248 260.841C63.0248 261.635 62.653 262.157 61.9664 262.157C61.2798 262.157 60.8936 261.635 60.8936 260.841Z" fill="#221F23"/>
<path d="M68.5882 260.39V260.505L67.587 260.612C66.8289 260.691 66.1853 260.927 66.1853 261.663C66.1853 262.357 66.7431 262.772 67.4297 262.772C67.9875 262.772 68.4094 262.493 68.5954 262H68.6097V262.7H69.1818V260.526C69.1818 259.446 68.531 259.053 67.7372 259.053C66.8289 259.053 66.3498 259.597 66.3068 260.255H66.9004C66.9219 259.833 67.1936 259.525 67.7372 259.525C68.295 259.525 68.5882 259.854 68.5882 260.39ZM67.5727 262.3C67.1507 262.3 66.8289 262.05 66.8289 261.692C66.8289 261.313 67.1007 261.12 67.637 261.063L68.5882 260.955V261.148C68.5882 261.921 68.202 262.3 67.5727 262.3Z" fill="#221F23"/>
<path d="M72.5885 260.555C72.5885 259.911 72.9532 259.697 73.5325 259.697H73.6612V259.053C73.132 259.053 72.7673 259.332 72.5813 259.825H72.567V259.125H71.9949V262.7H72.5885V260.555Z" fill="#221F23"/>
<path d="M77.226 261.57H76.6324C76.5537 261.864 76.3678 262.3 75.7456 262.3C75.0876 262.3 74.6585 261.835 74.6299 261.091H77.2689C77.369 259.89 76.7254 259.053 75.6598 259.053C74.5942 259.053 74.0292 259.918 74.0292 260.912C74.0292 261.907 74.6228 262.772 75.6884 262.772C76.6681 262.772 77.0972 262.207 77.226 261.57ZM75.6598 259.525C76.2891 259.525 76.6324 259.976 76.6825 260.619H74.6299C74.6871 259.976 75.0304 259.525 75.6598 259.525Z" fill="#221F23"/>
<path d="M80.2935 260.39V260.505L79.2923 260.612C78.5342 260.691 77.8905 260.927 77.8905 261.663C77.8905 262.357 78.4484 262.772 79.1349 262.772C79.6927 262.772 80.1147 262.493 80.3006 262H80.3149V262.7H80.8871V260.526C80.8871 259.446 80.2363 259.053 79.4424 259.053C78.5342 259.053 78.055 259.597 78.0121 260.255H78.6057C78.6271 259.833 78.8989 259.525 79.4424 259.525C80.0003 259.525 80.2935 259.854 80.2935 260.39ZM79.2779 262.3C78.856 262.3 78.5342 262.05 78.5342 261.692C78.5342 261.313 78.8059 261.12 79.3423 261.063L80.2935 260.955V261.148C80.2935 261.921 79.9073 262.3 79.2779 262.3Z" fill="#221F23"/>
<path d="M81.7328 260.912C81.7328 261.899 82.2548 262.772 83.2704 262.772C83.8353 262.772 84.2644 262.457 84.4647 261.942H84.479V262.7H85.0726V257.766H84.479V259.883H84.4647C84.2644 259.368 83.8353 259.053 83.2704 259.053C82.2548 259.053 81.7328 259.926 81.7328 260.912ZM82.3764 260.912C82.3764 260.119 82.7626 259.525 83.4492 259.525C84.1357 259.525 84.5076 260.119 84.5076 260.912C84.5076 261.706 84.1357 262.3 83.4492 262.3C82.7626 262.3 82.3764 261.706 82.3764 260.912Z" fill="#221F23"/>
<path d="M86.1085 258.459H86.8022V257.766H86.1085V258.459ZM86.7521 259.125H86.1585V262.7H86.7521V259.125Z" fill="#221F23"/>
<path d="M90.0873 260.483V262.7H90.6809V260.276C90.6809 259.604 90.2732 259.053 89.508 259.053C88.9788 259.053 88.6141 259.332 88.4281 259.825H88.4138V259.125H87.8417V262.7H88.4353V260.426C88.4353 259.918 88.6784 259.547 89.2649 259.547C89.8441 259.547 90.0873 259.89 90.0873 260.483Z" fill="#221F23"/>
<path d="M94.2778 262.579C94.2778 263.215 93.8558 263.516 93.298 263.516C92.826 263.516 92.4183 263.308 92.3397 262.801H91.7461C91.8462 263.53 92.354 263.988 93.298 263.988C94.335 263.988 94.8714 263.387 94.8714 262.579V259.125H94.2778V259.883H94.2635C94.0632 259.368 93.6341 259.053 93.0691 259.053C92.0536 259.053 91.5315 259.854 91.5315 260.841C91.5315 261.828 92.0536 262.629 93.0691 262.629C93.6341 262.629 94.0632 262.314 94.2635 261.799H94.2778V262.579ZM92.1752 260.841C92.1752 260.047 92.5614 259.525 93.2479 259.525C93.9345 259.525 94.3064 260.047 94.3064 260.841C94.3064 261.635 93.9345 262.157 93.2479 262.157C92.5614 262.157 92.1752 261.635 92.1752 260.841Z" fill="#221F23"/>
<path d="M97.5026 260.912C97.5026 261.907 98.1534 262.772 99.1832 262.772C100.049 262.772 100.599 262.314 100.757 261.492H100.163C100.056 262.071 99.691 262.3 99.2333 262.3C98.5324 262.3 98.1462 261.692 98.1462 260.912C98.1462 260.154 98.511 259.525 99.1904 259.525C99.6624 259.525 100.02 259.74 100.127 260.319H100.721C100.563 259.496 100.02 259.053 99.1546 259.053C98.1462 259.053 97.5026 259.961 97.5026 260.912Z" fill="#221F23"/>
<path d="M103.053 262.772C104.126 262.772 104.769 261.864 104.769 260.912C104.769 259.961 104.126 259.053 103.053 259.053C101.98 259.053 101.337 259.961 101.337 260.912C101.337 261.864 101.98 262.772 103.053 262.772ZM103.053 262.3C102.366 262.3 101.98 261.706 101.98 260.912C101.98 260.119 102.366 259.525 103.053 259.525C103.74 259.525 104.126 260.119 104.126 260.912C104.126 261.706 103.74 262.3 103.053 262.3Z" fill="#221F23"/>
<path d="M106.231 260.426C106.231 259.918 106.438 259.547 107.039 259.547C107.604 259.547 107.847 259.89 107.847 260.483V262.7H108.44V260.426C108.44 259.918 108.648 259.547 109.249 259.547C109.814 259.547 110.057 259.89 110.057 260.483V262.7H110.65V260.276C110.65 259.604 110.243 259.053 109.456 259.053C108.948 259.053 108.569 259.332 108.383 259.825H108.376C108.226 259.375 107.847 259.053 107.246 259.053C106.738 259.053 106.409 259.332 106.223 259.825H106.209V259.125H105.637V262.7H106.231V260.426Z" fill="#221F23"/>
<path d="M111.929 259.125H111.278V259.597H111.929V262.7H112.522V259.597H113.431V259.125H112.522V258.631C112.522 258.352 112.623 258.238 112.923 258.238H113.402V257.766H112.758C112.158 257.766 111.929 258.052 111.929 258.567V259.125Z" fill="#221F23"/>
<path d="M115.471 262.772C116.543 262.772 117.187 261.864 117.187 260.912C117.187 259.961 116.543 259.053 115.471 259.053C114.398 259.053 113.754 259.961 113.754 260.912C113.754 261.864 114.398 262.772 115.471 262.772ZM115.471 262.3C114.784 262.3 114.398 261.706 114.398 260.912C114.398 260.119 114.784 259.525 115.471 259.525C116.157 259.525 116.543 260.119 116.543 260.912C116.543 261.706 116.157 262.3 115.471 262.3Z" fill="#221F23"/>
<path d="M118.648 260.555C118.648 259.911 119.013 259.697 119.592 259.697H119.721V259.053C119.192 259.053 118.827 259.332 118.641 259.825H118.627V259.125H118.055V262.7H118.648V260.555Z" fill="#221F23"/>
<path d="M120.68 259.597V261.899C120.68 262.414 120.909 262.7 121.509 262.7H122.153V262.228H121.674C121.373 262.228 121.273 262.114 121.273 261.835V259.597H122.182V259.125H121.273V258.309H120.68V259.125H120.029V259.597H120.68Z" fill="#221F23"/>
<path d="M122.594 263.523H123.016L123.538 262.7V262.007H122.845V262.7H123.116L122.594 263.523Z" fill="#221F23"/>
<path d="M128.712 258.459H129.406V257.766H128.712V258.459ZM128.762 262.7H129.356V259.125H127.189V258.631C127.189 258.352 127.289 258.238 127.589 258.238H128.069V257.766H127.425C126.824 257.766 126.595 258.052 126.595 258.567V259.125H125.945V259.597H126.595V262.7H127.189V259.597H128.762V262.7Z" fill="#221F23"/>
<path d="M132.69 260.483V262.7H133.284V260.276C133.284 259.604 132.876 259.053 132.111 259.053C131.581 259.053 131.217 259.332 131.031 259.825H131.016V259.125H130.444V262.7H131.038V260.426C131.038 259.918 131.281 259.547 131.868 259.547C132.447 259.547 132.69 259.89 132.69 260.483Z" fill="#221F23"/>
<path d="M134.127 260.912C134.127 261.899 134.649 262.772 135.665 262.772C136.23 262.772 136.659 262.457 136.859 261.942H136.873V262.7H137.467V257.766H136.873V259.883H136.859C136.659 259.368 136.23 259.053 135.665 259.053C134.649 259.053 134.127 259.926 134.127 260.912ZM134.771 260.912C134.771 260.119 135.157 259.525 135.843 259.525C136.53 259.525 136.902 260.119 136.902 260.912C136.902 261.706 136.53 262.3 135.843 262.3C135.157 262.3 134.771 261.706 134.771 260.912Z" fill="#221F23"/>
<path d="M138.503 258.459H139.196V257.766H138.503V258.459ZM139.146 259.125H138.553V262.7H139.146V259.125Z" fill="#221F23"/>
<path d="M142.482 260.483V262.7H143.075V260.276C143.075 259.604 142.668 259.053 141.902 259.053C141.373 259.053 141.008 259.332 140.822 259.825H140.808V259.125H140.236V262.7H140.83V260.426C140.83 259.918 141.073 259.547 141.659 259.547C142.238 259.547 142.482 259.89 142.482 260.483Z" fill="#221F23"/>
<path d="M146.672 262.579C146.672 263.215 146.25 263.516 145.692 263.516C145.22 263.516 144.813 263.308 144.734 262.801H144.14C144.241 263.53 144.748 263.988 145.692 263.988C146.729 263.988 147.266 263.387 147.266 262.579V259.125H146.672V259.883H146.658C146.458 259.368 146.028 259.053 145.463 259.053C144.448 259.053 143.926 259.854 143.926 260.841C143.926 261.828 144.448 262.629 145.463 262.629C146.028 262.629 146.458 262.314 146.658 261.799H146.672V262.579ZM144.57 260.841C144.57 260.047 144.956 259.525 145.642 259.525C146.329 259.525 146.701 260.047 146.701 260.841C146.701 261.635 146.329 262.157 145.642 262.157C144.956 262.157 144.57 261.635 144.57 260.841Z" fill="#221F23"/>
<path d="M150.264 259.597V261.899C150.264 262.414 150.493 262.7 151.094 262.7H151.737V262.228H151.258C150.958 262.228 150.858 262.114 150.858 261.835V259.597H151.766V259.125H150.858V258.309H150.264V259.125H149.613V259.597H150.264Z" fill="#221F23"/>
<path d="M154.725 260.483V262.7H155.318V260.276C155.318 259.604 154.911 259.053 154.145 259.053C153.616 259.053 153.251 259.332 153.065 259.825H153.051V257.766H152.479V262.7H153.073V260.426C153.073 259.918 153.316 259.547 153.902 259.547C154.481 259.547 154.725 259.89 154.725 260.483Z" fill="#221F23"/>
<path d="M159.351 261.57H158.758C158.679 261.864 158.493 262.3 157.871 262.3C157.213 262.3 156.784 261.835 156.755 261.091H159.394C159.494 259.89 158.851 259.053 157.785 259.053C156.72 259.053 156.155 259.918 156.155 260.912C156.155 261.907 156.748 262.772 157.814 262.772C158.794 262.772 159.223 262.207 159.351 261.57ZM157.785 259.525C158.415 259.525 158.758 259.976 158.808 260.619H156.755C156.813 259.976 157.156 259.525 157.785 259.525Z" fill="#221F23"/>
<path d="M162.62 260.555C162.62 259.911 162.985 259.697 163.564 259.697H163.693V259.053C163.163 259.053 162.799 259.332 162.613 259.825H162.598V259.125H162.026V262.7H162.62V260.555Z" fill="#221F23"/>
<path d="M164.344 258.459H165.037V257.766H164.344V258.459ZM164.987 259.125H164.394V262.7H164.987V259.125Z" fill="#221F23"/>
<path d="M168.623 262.579C168.623 263.215 168.201 263.516 167.643 263.516C167.171 263.516 166.764 263.308 166.685 262.801H166.091C166.191 263.53 166.699 263.988 167.643 263.988C168.68 263.988 169.217 263.387 169.217 262.579V259.125H168.623V259.883H168.609C168.408 259.368 167.979 259.053 167.414 259.053C166.399 259.053 165.877 259.854 165.877 260.841C165.877 261.828 166.399 262.629 167.414 262.629C167.979 262.629 168.408 262.314 168.609 261.799H168.623V262.579ZM166.52 260.841C166.52 260.047 166.907 259.525 167.593 259.525C168.28 259.525 168.652 260.047 168.652 260.841C168.652 261.635 168.28 262.157 167.593 262.157C166.907 262.157 166.52 261.635 166.52 260.841Z" fill="#221F23"/>
<path d="M172.548 260.483V262.7H173.142V260.276C173.142 259.604 172.734 259.053 171.969 259.053C171.439 259.053 171.075 259.332 170.889 259.825H170.874V257.766H170.302V262.7H170.896V260.426C170.896 259.918 171.139 259.547 171.725 259.547C172.305 259.547 172.548 259.89 172.548 260.483Z" fill="#221F23"/>
<path d="M174.415 259.597V261.899C174.415 262.414 174.644 262.7 175.245 262.7H175.888V262.228H175.409C175.109 262.228 175.009 262.114 175.009 261.835V259.597H175.917V259.125H175.009V258.309H174.415V259.125H173.764V259.597H174.415Z" fill="#221F23"/>
<path d="M42.7332 270.925C42.7332 269.938 42.2111 269.065 41.1956 269.065C40.6306 269.065 40.2015 269.38 40.0012 269.895H39.9869V267.778H39.3933V272.713H39.9869V271.955H40.0012C40.2015 272.47 40.6306 272.784 41.1956 272.784C42.2111 272.784 42.7332 271.912 42.7332 270.925ZM42.0895 270.925C42.0895 271.719 41.7033 272.312 41.0168 272.312C40.3302 272.312 39.9583 271.719 39.9583 270.925C39.9583 270.131 40.3302 269.537 41.0168 269.537C41.7033 269.537 42.0895 270.131 42.0895 270.925Z" fill="#221F23"/>
<path d="M45.7644 270.403V270.517L44.7631 270.624C44.005 270.703 43.3614 270.939 43.3614 271.676C43.3614 272.369 43.9192 272.784 44.6058 272.784C45.1636 272.784 45.5856 272.505 45.7715 272.012H45.7858V272.713H46.3579V270.539C46.3579 269.459 45.7071 269.065 44.9133 269.065C44.005 269.065 43.5259 269.609 43.483 270.267H44.0766C44.098 269.845 44.3698 269.537 44.9133 269.537C45.4711 269.537 45.7644 269.866 45.7644 270.403ZM44.7488 272.312C44.3269 272.312 44.005 272.062 44.005 271.704C44.005 271.325 44.2768 271.132 44.8132 271.075L45.7644 270.968V271.161C45.7644 271.933 45.3782 272.312 44.7488 272.312Z" fill="#221F23"/>
<path d="M47.411 272.713H48.0046V267.778H47.411V272.713Z" fill="#221F23"/>
<path d="M51.2468 270.403V270.517L50.2456 270.624C49.4875 270.703 48.8439 270.939 48.8439 271.676C48.8439 272.369 49.4017 272.784 50.0883 272.784C50.6461 272.784 51.068 272.505 51.254 272.012H51.2683V272.713H51.8404V270.539C51.8404 269.459 51.1896 269.065 50.3958 269.065C49.4875 269.065 49.0084 269.609 48.9655 270.267H49.559C49.5805 269.845 49.8523 269.537 50.3958 269.537C50.9536 269.537 51.2468 269.866 51.2468 270.403ZM50.2313 272.312C49.8093 272.312 49.4875 272.062 49.4875 271.704C49.4875 271.325 49.7593 271.132 50.2957 271.075L51.2468 270.968V271.161C51.2468 271.933 50.8606 272.312 50.2313 272.312Z" fill="#221F23"/>
<path d="M55.1391 270.496V272.713H55.7327V270.288C55.7327 269.616 55.3251 269.065 54.5598 269.065C54.0306 269.065 53.6659 269.344 53.4799 269.838H53.4656V269.137H52.8935V272.713H53.4871V270.438C53.4871 269.931 53.7302 269.559 54.3167 269.559C54.896 269.559 55.1391 269.902 55.1391 270.496Z" fill="#221F23"/>
<path d="M56.5691 270.925C56.5691 271.919 57.2199 272.784 58.2497 272.784C59.1151 272.784 59.6657 272.327 59.8231 271.504H59.2295C59.1222 272.083 58.7575 272.312 58.2998 272.312C57.5989 272.312 57.2127 271.704 57.2127 270.925C57.2127 270.167 57.5775 269.537 58.2569 269.537C58.7289 269.537 59.0865 269.752 59.1937 270.331H59.7873C59.63 269.509 59.0865 269.065 58.2211 269.065C57.2127 269.065 56.5691 269.974 56.5691 270.925Z" fill="#221F23"/>
<path d="M63.6071 271.583H63.0135C62.9348 271.876 62.7489 272.312 62.1267 272.312C61.4687 272.312 61.0396 271.847 61.011 271.104H63.65C63.7501 269.902 63.1065 269.065 62.0409 269.065C60.9753 269.065 60.4103 269.931 60.4103 270.925C60.4103 271.919 61.0039 272.784 62.0695 272.784C63.0493 272.784 63.4784 272.219 63.6071 271.583ZM62.0409 269.537C62.6702 269.537 63.0135 269.988 63.0636 270.632H61.011C61.0682 269.988 61.4115 269.537 62.0409 269.537Z" fill="#221F23"/>
<path d="M69.6217 270.925C69.6217 269.938 69.0997 269.065 68.0841 269.065C67.5192 269.065 67.0901 269.38 66.8898 269.895H66.8755V267.778H66.2819V272.713H66.8755V271.955H66.8898C67.0901 272.47 67.5192 272.784 68.0841 272.784C69.0997 272.784 69.6217 271.912 69.6217 270.925ZM68.9781 270.925C68.9781 271.719 68.5919 272.312 67.9053 272.312C67.2188 272.312 66.8469 271.719 66.8469 270.925C66.8469 270.131 67.2188 269.537 67.9053 269.537C68.5919 269.537 68.9781 270.131 68.9781 270.925Z" fill="#221F23"/>
<path d="M73.4825 271.583H72.8889C72.8103 271.876 72.6243 272.312 72.0021 272.312C71.3442 272.312 70.9151 271.847 70.8865 271.104H73.5254C73.6256 269.902 72.9819 269.065 71.9163 269.065C70.8507 269.065 70.2857 269.931 70.2857 270.925C70.2857 271.919 70.8793 272.784 71.9449 272.784C72.9247 272.784 73.3538 272.219 73.4825 271.583ZM71.9163 269.537C72.5457 269.537 72.8889 269.988 72.939 270.632H70.8865C70.9437 269.988 71.287 269.537 71.9163 269.537Z" fill="#221F23"/>
<path d="M74.585 269.609V271.912C74.585 272.427 74.8139 272.713 75.4146 272.713H76.0582V272.241H75.5791C75.2787 272.241 75.1786 272.126 75.1786 271.847V269.609H76.0869V269.137H75.1786V268.322H74.585V269.137H73.9342V269.609H74.585Z" fill="#221F23"/>
<path d="M78.6951 269.137L77.9871 272.684L77.1074 269.137H76.4924L77.3792 272.713H78.5735L79.2815 269.166L79.9895 272.713H81.1839L82.0707 269.137H81.4556L80.576 272.684L79.868 269.137H78.6951Z" fill="#221F23"/>
<path d="M85.7675 271.583H85.1739C85.0952 271.876 84.9093 272.312 84.2871 272.312C83.6291 272.312 83.2 271.847 83.1714 271.104H85.8104C85.9105 269.902 85.2669 269.065 84.2013 269.065C83.1357 269.065 82.5707 269.931 82.5707 270.925C82.5707 271.919 83.1643 272.784 84.2299 272.784C85.2096 272.784 85.6387 272.219 85.7675 271.583ZM84.2013 269.537C84.8306 269.537 85.1739 269.988 85.2239 270.632H83.1714C83.2286 269.988 83.5719 269.537 84.2013 269.537Z" fill="#221F23"/>
<path d="M89.6646 271.583H89.071C88.9923 271.876 88.8064 272.312 88.1842 272.312C87.5262 272.312 87.0971 271.847 87.0685 271.104H89.7075C89.8076 269.902 89.1639 269.065 88.0984 269.065C87.0328 269.065 86.4678 269.931 86.4678 270.925C86.4678 271.919 87.0614 272.784 88.127 272.784C89.1067 272.784 89.5358 272.219 89.6646 271.583ZM88.0984 269.537C88.7277 269.537 89.071 269.988 89.121 270.632H87.0685C87.1257 269.988 87.469 269.537 88.0984 269.537Z" fill="#221F23"/>
<path d="M92.825 270.496V272.713H93.4186V270.288C93.4186 269.616 93.011 269.065 92.2458 269.065C91.7165 269.065 91.3518 269.344 91.1659 269.838H91.1516V269.137H90.5794V272.713H91.173V270.438C91.173 269.931 91.4162 269.559 92.0026 269.559C92.5819 269.559 92.825 269.902 92.825 270.496Z" fill="#221F23"/>
<path d="M98.3822 270.403V270.517L97.3809 270.624C96.6229 270.703 95.9792 270.939 95.9792 271.676C95.9792 272.369 96.537 272.784 97.2236 272.784C97.7814 272.784 98.2034 272.505 98.3893 272.012H98.4036V272.713H98.9758V270.539C98.9758 269.459 98.325 269.065 97.5311 269.065C96.6229 269.065 96.1437 269.609 96.1008 270.267H96.6944C96.7158 269.845 96.9876 269.537 97.5311 269.537C98.0889 269.537 98.3822 269.866 98.3822 270.403ZM97.3666 272.312C96.9447 272.312 96.6229 272.062 96.6229 271.704C96.6229 271.325 96.8946 271.132 97.431 271.075L98.3822 270.968V271.161C98.3822 271.933 97.996 272.312 97.3666 272.312Z" fill="#221F23"/>
<path d="M102.053 269.137H101.403V269.609H102.053V272.713H102.647V269.609H103.555V269.137H102.647V268.643C102.647 268.365 102.747 268.25 103.048 268.25H103.527V267.778H102.883C102.282 267.778 102.053 268.064 102.053 268.579V269.137Z" fill="#221F23"/>
<path d="M105.595 272.784C106.668 272.784 107.312 271.876 107.312 270.925C107.312 269.974 106.668 269.065 105.595 269.065C104.522 269.065 103.879 269.974 103.879 270.925C103.879 271.876 104.522 272.784 105.595 272.784ZM105.595 272.312C104.909 272.312 104.522 271.719 104.522 270.925C104.522 270.131 104.909 269.537 105.595 269.537C106.282 269.537 106.668 270.131 106.668 270.925C106.668 271.719 106.282 272.312 105.595 272.312Z" fill="#221F23"/>
<path d="M110.425 270.496V272.713H111.018V270.288C111.018 269.616 110.611 269.065 109.846 269.065C109.316 269.065 108.952 269.344 108.766 269.838H108.751V269.137H108.179V272.713H108.773V270.438C108.773 269.931 109.016 269.559 109.602 269.559C110.182 269.559 110.425 269.902 110.425 270.496Z" fill="#221F23"/>
<path d="M112.292 269.609V271.912C112.292 272.427 112.521 272.713 113.121 272.713H113.765V272.241H113.286C112.986 272.241 112.885 272.126 112.885 271.847V269.609H113.794V269.137H112.885V268.322H112.292V269.137H111.641V269.609H112.292Z" fill="#221F23"/>
<path d="M116.419 269.609V271.912C116.419 272.427 116.648 272.713 117.249 272.713H117.893V272.241H117.414C117.113 272.241 117.013 272.126 117.013 271.847V269.609H117.921V269.137H117.013V268.322H116.419V269.137H115.769V269.609H116.419Z" fill="#221F23"/>
<path d="M120.88 270.496V272.713H121.474V270.288C121.474 269.616 121.066 269.065 120.301 269.065C119.771 269.065 119.407 269.344 119.221 269.838H119.206V267.778H118.634V272.713H119.228V270.438C119.228 269.931 119.471 269.559 120.058 269.559C120.637 269.559 120.88 269.902 120.88 270.496Z" fill="#221F23"/>
<path d="M124.677 270.403V270.517L123.676 270.624C122.918 270.703 122.274 270.939 122.274 271.676C122.274 272.369 122.832 272.784 123.519 272.784C124.076 272.784 124.498 272.505 124.684 272.012H124.699V272.713H125.271V270.539C125.271 269.459 124.62 269.065 123.826 269.065C122.918 269.065 122.439 269.609 122.396 270.267H122.989C123.011 269.845 123.283 269.537 123.826 269.537C124.384 269.537 124.677 269.866 124.677 270.403ZM123.662 272.312C123.24 272.312 122.918 272.062 122.918 271.704C122.918 271.325 123.19 271.132 123.726 271.075L124.677 270.968V271.161C124.677 271.933 124.291 272.312 123.662 272.312Z" fill="#221F23"/>
<path d="M126.525 269.609V271.912C126.525 272.427 126.754 272.713 127.355 272.713H127.999V272.241H127.519C127.219 272.241 127.119 272.126 127.119 271.847V269.609H128.027V269.137H127.119V268.322H126.525V269.137H125.875V269.609H126.525Z" fill="#221F23"/>
<path d="M130.45 268.472H131.144V267.778H130.45V268.472ZM131.094 269.137H130.5V272.713H131.094V269.137Z" fill="#221F23"/>
<path d="M134.293 271.776C134.293 272.112 133.914 272.312 133.456 272.312C132.92 272.312 132.548 271.955 132.512 271.461H131.919C131.962 272.133 132.505 272.784 133.435 272.784C134.365 272.784 134.865 272.355 134.865 271.74C134.865 271.161 134.522 270.81 133.835 270.653L133.356 270.546C132.82 270.424 132.605 270.324 132.605 270.031C132.605 269.702 132.941 269.537 133.356 269.537C133.857 269.537 134.15 269.781 134.2 270.195H134.794C134.744 269.537 134.172 269.065 133.356 269.065C132.591 269.065 132.026 269.494 132.026 270.088C132.026 270.653 132.441 270.961 133.127 271.111L133.607 271.218C134.15 271.34 134.293 271.54 134.293 271.776Z" fill="#221F23"/>
<path d="M140.023 272.591C140.023 273.228 139.601 273.528 139.044 273.528C138.571 273.528 138.164 273.321 138.085 272.813H137.492C137.592 273.542 138.099 274 139.044 274C140.08 274 140.617 273.399 140.617 272.591V269.137H140.023V269.895H140.009C139.809 269.38 139.38 269.065 138.815 269.065C137.799 269.065 137.277 269.866 137.277 270.853C137.277 271.84 137.799 272.641 138.815 272.641C139.38 272.641 139.809 272.327 140.009 271.812H140.023V272.591ZM137.921 270.853C137.921 270.059 138.307 269.537 138.993 269.537C139.68 269.537 140.052 270.059 140.052 270.853C140.052 271.647 139.68 272.169 138.993 272.169C138.307 272.169 137.921 271.647 137.921 270.853Z" fill="#221F23"/>
<path d="M142.296 270.567C142.296 269.924 142.661 269.709 143.24 269.709H143.369V269.065C142.84 269.065 142.475 269.344 142.289 269.838H142.275V269.137H141.703V272.713H142.296V270.567Z" fill="#221F23"/>
<path d="M146.139 270.403V270.517L145.138 270.624C144.38 270.703 143.736 270.939 143.736 271.676C143.736 272.369 144.294 272.784 144.98 272.784C145.538 272.784 145.96 272.505 146.146 272.012H146.161V272.713H146.733V270.539C146.733 269.459 146.082 269.065 145.288 269.065C144.38 269.065 143.901 269.609 143.858 270.267H144.451C144.473 269.845 144.744 269.537 145.288 269.537C145.846 269.537 146.139 269.866 146.139 270.403ZM145.124 272.312C144.702 272.312 144.38 272.062 144.38 271.704C144.38 271.325 144.652 271.132 145.188 271.075L146.139 270.968V271.161C146.139 271.933 145.753 272.312 145.124 272.312Z" fill="#221F23"/>
<path d="M151.126 270.925C151.126 269.938 150.603 269.065 149.588 269.065C149.023 269.065 148.594 269.38 148.394 269.895H148.379V269.137H147.786V273.929H148.379V271.955H148.394C148.594 272.47 149.023 272.784 149.588 272.784C150.603 272.784 151.126 271.912 151.126 270.925ZM150.482 270.925C150.482 271.719 150.096 272.312 149.409 272.312C148.723 272.312 148.351 271.719 148.351 270.925C148.351 270.131 148.723 269.537 149.409 269.537C150.096 269.537 150.482 270.131 150.482 270.925Z" fill="#221F23"/>
<path d="M154.25 270.496V272.713H154.843V270.288C154.843 269.616 154.436 269.065 153.67 269.065C153.141 269.065 152.776 269.344 152.591 269.838H152.576V267.778H152.004V272.713H152.598V270.438C152.598 269.931 152.841 269.559 153.427 269.559C154.007 269.559 154.25 269.902 154.25 270.496Z" fill="#221F23"/>
<path d="M155.844 268.472H156.538V267.778H155.844V268.472ZM156.488 269.137H155.894V272.713H156.488V269.137Z" fill="#221F23"/>
<path d="M157.363 270.925C157.363 271.919 158.014 272.784 159.043 272.784C159.909 272.784 160.459 272.327 160.617 271.504H160.023C159.916 272.083 159.551 272.312 159.094 272.312C158.393 272.312 158.006 271.704 158.006 270.925C158.006 270.167 158.371 269.537 159.051 269.537C159.523 269.537 159.88 269.752 159.987 270.331H160.581C160.424 269.509 159.88 269.065 159.015 269.065C158.006 269.065 157.363 269.974 157.363 270.925Z" fill="#221F23"/>
<path d="M166.178 269.137H165.563L164.426 272.312L163.267 269.137H162.652L163.825 272.355H164.412L163.847 273.929H164.462L166.178 269.137Z" fill="#221F23"/>
<path d="M169.73 271.583H169.136C169.057 271.876 168.871 272.312 168.249 272.312C167.591 272.312 167.162 271.847 167.134 271.104H169.773C169.873 269.902 169.229 269.065 168.163 269.065C167.098 269.065 166.533 269.931 166.533 270.925C166.533 271.919 167.126 272.784 168.192 272.784C169.172 272.784 169.601 272.219 169.73 271.583ZM168.163 269.537C168.793 269.537 169.136 269.988 169.186 270.632H167.134C167.191 269.988 167.534 269.537 168.163 269.537Z" fill="#221F23"/>
<path d="M170.832 269.609V271.912C170.832 272.427 171.061 272.713 171.662 272.713H172.305V272.241H171.826C171.526 272.241 171.426 272.126 171.426 271.847V269.609H172.334V269.137H171.426V268.322H170.832V269.137H170.181V269.609H170.832Z" fill="#221F23"/>
<path d="M177.239 272.713H177.832V267.778H175.901C175.3 267.778 175.072 268.064 175.072 268.579V269.137H174.421V269.609H175.072V272.713H175.665V269.609H176.573V269.137H175.665V268.643C175.665 268.365 175.765 268.25 176.066 268.25H177.239V272.713Z" fill="#221F23"/>
<path d="M179.486 271.354V269.137H178.892V271.561C178.892 272.234 179.3 272.784 180.086 272.784C180.594 272.784 180.923 272.505 181.109 272.012H181.123V272.713H181.695V269.137H181.102V271.411C181.102 271.919 180.894 272.291 180.294 272.291C179.729 272.291 179.486 271.947 179.486 271.354Z" fill="#221F23"/>
<path d="M182.733 268.472H183.426V267.778H182.733V268.472ZM183.376 269.137H182.783V272.713H183.376V269.137Z" fill="#221F23"/>
<path d="M184.259 270.925C184.259 271.912 184.781 272.784 185.796 272.784C186.361 272.784 186.79 272.47 186.99 271.955H187.005V272.713H187.598V267.778H187.005V269.895H186.99C186.79 269.38 186.361 269.065 185.796 269.065C184.781 269.065 184.259 269.938 184.259 270.925ZM184.902 270.925C184.902 270.131 185.288 269.537 185.975 269.537C186.662 269.537 187.033 270.131 187.033 270.925C187.033 271.719 186.662 272.312 185.975 272.312C185.288 272.312 184.902 271.719 184.902 270.925Z" fill="#221F23"/>
<path d="M188.627 272.713H189.321V272.019H188.627V272.713Z" fill="#221F23"/>
<path d="M51.0407 171.552L57.6774 151.435H89.9279L96.5646 171.552H108.49L84.9503 100H62.655L39.0116 171.552H51.0407ZM73.7508 102.281L86.7132 141.687H60.7884L73.7508 102.281Z" fill="#221F23"/>
<path d="M146.824 161.39H147.135V171.552H158.023V139.717C158.023 125.717 149.624 118.666 136.454 118.666C123.077 118.666 114.988 126.028 114.573 136.087H125.877C126.188 130.28 129.921 127.065 136.247 127.065C142.78 127.065 146.72 130.695 146.72 137.643V139.198L133.55 140.546C122.04 141.791 112.707 145.731 112.707 156.412C112.707 165.849 120.277 172.589 131.062 172.589C138.839 172.589 144.646 168.545 146.824 161.39ZM124.632 156.516C124.632 151.538 128.573 149.05 135.417 148.324L146.72 147.079V148.842C146.72 158.694 142.054 164.19 133.965 164.19C128.988 164.19 124.632 161.39 124.632 156.516Z" fill="#221F23"/>
</g>
</svg>
