<svg width="720" height="800" viewBox="0 0 720 800" fill="none" xmlns="http://www.w3.org/2000/svg">
<rect width="720" height="800" fill="#E0EDE3"/>
<path d="M279.54 399.392C297.975 399.392 306.981 388.697 309.936 384.053C284.747 394.607 257.87 360.412 257.87 342.681C257.87 336.068 261.95 332.972 265.891 332.972C275.319 332.972 287.702 347.607 289.532 359.709L308.388 331.283C306.981 331.705 305.574 331.987 304.026 331.987C297.834 331.987 289.954 327.765 279.54 327.765C258.292 327.765 243.657 342.119 243.657 363.508C243.657 384.897 258.292 399.392 279.54 399.392Z" fill="#1C5144"/>
<path d="M389.916 363.508C389.916 337.756 378.377 327.765 365.853 327.765C355.862 327.765 348.404 333.957 344.605 344.37V326.077C341.368 328.75 325.748 336.631 317.024 337.475C321.245 339.586 321.245 347.325 321.245 354.643V403.05C321.245 410.368 320.823 417.967 317.024 420.5H348.686C344.745 418.529 344.605 410.368 344.605 403.05V382.787C348.404 393.2 355.44 399.392 364.587 399.392C378.659 399.392 389.916 389.4 389.916 363.508ZM345.168 363.508C345.168 346.34 351.078 335.223 356.566 335.223C361.491 335.223 365.994 343.526 365.994 363.508C365.994 383.631 361.491 391.933 356.566 391.933C351.078 391.933 345.168 380.817 345.168 363.508Z" fill="#1C5144"/>
<path d="M472.778 381.239V356.613C472.778 334.238 460.817 327.765 450.263 327.765C439.569 327.765 431.125 335.083 428.029 344.37V326.077C424.652 328.75 409.032 336.631 400.448 337.475C404.529 339.586 404.529 347.325 404.529 354.643V381.239C404.529 388.556 404.248 396.014 400.589 398.407H432.11C428.17 396.436 428.029 388.556 428.029 381.239V363.508C428.029 346.34 433.236 335.786 440.272 335.786C447.027 335.786 449.278 344.652 449.278 352.391V381.239C449.278 388.556 448.997 396.014 445.338 398.407H477C472.919 396.436 472.778 388.556 472.778 381.239Z" fill="#1C5144"/>
<g opacity="0.5">
<path d="M295.929 474.043H298.419V462.181H304.921C312.055 462.181 316.53 459.183 316.53 453.526C316.53 447.87 312.055 444.914 304.921 444.914H295.929V474.043ZM305.132 447.067C310.24 447.067 313.87 448.841 313.87 453.526C313.87 458.255 310.24 460.07 305.132 460.07H298.419V447.067H305.132Z" fill="#1C5144"/>
<path d="M319.531 474.043H322.148L325.568 464.798H340.259L343.678 474.043H346.296L335.446 444.914H330.38L319.531 474.043ZM332.913 445.041L339.457 462.645H326.37L332.913 445.041Z" fill="#1C5144"/>
<path d="M353.949 474.043H361.464C371.638 474.043 376.788 467.795 376.788 459.479C376.788 451.162 371.638 444.914 361.464 444.914H353.949V474.043ZM361.041 447.067C369.611 447.067 374.128 451.585 374.128 459.479C374.128 467.373 369.611 471.89 361.041 471.89H356.44V447.067H361.041Z" fill="#1C5144"/>
<path d="M403.015 471.89H388.831V460.07H402.298V457.917H388.831V447.067H402.678V444.914H386.34V474.043H403.015V471.89Z" fill="#1C5144"/>
<path d="M429.218 471.89H415.203V444.914H412.712V474.043H429.218V471.89Z" fill="#1C5144"/>
</g>
</svg>
