<svg width="332" height="331" viewBox="0 0 332 331" fill="none" xmlns="http://www.w3.org/2000/svg">
<rect opacity="0.2" x="38.8383" y="38.4332" width="254.944" height="254.944" stroke="#EEF7F2" stroke-width="0.620301"/>
<path fill-rule="evenodd" clip-rule="evenodd" d="M207.199 206.796C211.903 194.859 214.624 180.734 214.624 165.595C214.624 150.456 211.903 136.331 207.199 124.394C229.028 132.997 243.538 148.233 243.538 165.595C243.538 182.957 229.028 198.193 207.199 206.796ZM124.798 206.795C102.971 198.192 88.4624 182.956 88.4624 165.595C88.4624 148.234 102.971 132.998 124.798 124.395C120.094 136.332 117.374 150.457 117.374 165.595C117.374 180.733 120.094 194.858 124.798 206.795ZM124.798 206.795C136.735 211.499 150.861 214.22 166 214.22C181.138 214.22 195.263 211.5 207.199 206.796C198.596 228.624 183.36 243.133 165.999 243.133C148.637 243.133 133.401 228.624 124.798 206.795ZM124.798 124.395C133.401 102.566 148.637 88.0574 165.999 88.0574C183.36 88.0574 198.596 102.566 207.199 124.394C195.263 119.69 181.138 116.97 166 116.97C150.861 116.97 136.735 119.691 124.798 124.395Z" fill="#EEF7F2"/>
<ellipse opacity="0.2" cx="224.308" cy="165.905" rx="106.692" ry="111.964" stroke="#EEF7F2" stroke-width="0.620301"/>
<ellipse opacity="0.2" cx="166" cy="107.597" rx="106.692" ry="111.964" transform="rotate(90 166 107.597)" stroke="#EEF7F2" stroke-width="0.620301"/>
<ellipse opacity="0.2" cx="166" cy="223.903" rx="106.692" ry="111.964" transform="rotate(90 166 223.903)" stroke="#EEF7F2" stroke-width="0.620301"/>
<ellipse opacity="0.2" cx="107.692" cy="165.905" rx="106.692" ry="111.964" stroke="#EEF7F2" stroke-width="0.620301"/>
<line opacity="0.2" y1="-0.31015" x2="254.323" y2="-0.31015" transform="matrix(1 -8.74228e-08 -8.74228e-08 -1 38.8383 165.595)" stroke="#EEF7F2" stroke-width="0.620301"/>
<line opacity="0.2" y1="-0.31015" x2="254.323" y2="-0.31015" transform="matrix(1 -8.74228e-08 -8.74228e-08 -1 38.8383 243.133)" stroke="#EEF7F2" stroke-width="0.620301"/>
<line opacity="0.2" y1="-0.31015" x2="254.323" y2="-0.31015" transform="matrix(1 -8.74228e-08 -8.74228e-08 -1 38.8383 88.0574)" stroke="#EEF7F2" stroke-width="0.620301"/>
<line opacity="0.2" y1="-0.31015" x2="359.774" y2="-0.31015" transform="matrix(0.707107 0.707107 0.707107 -0.707107 38.8383 38.4332)" stroke="#EEF7F2" stroke-width="0.620301"/>
<line opacity="0.2" x1="293.457" y1="38.6525" x2="39.0577" y2="293.051" stroke="#EEF7F2" stroke-width="0.620301"/>
<line opacity="0.2" x1="166.31" y1="38.4332" x2="166.31" y2="292.757" stroke="#EEF7F2" stroke-width="0.620301"/>
<line opacity="0.2" x1="243.848" y1="38.4332" x2="243.848" y2="292.757" stroke="#EEF7F2" stroke-width="0.620301"/>
<line opacity="0.2" x1="88.7726" y1="38.4332" x2="88.7725" y2="292.757" stroke="#EEF7F2" stroke-width="0.620301"/>
</svg>
