<svg width="74" height="41" viewBox="0 0 74 41" fill="none" xmlns="http://www.w3.org/2000/svg">
<path opacity="0.1" d="M13.6214 25.59C13.7814 25.37 13.9814 25.29 14.2214 25.35C14.4814 25.41 14.6014 25.59 14.5814 25.89C14.4214 26.95 13.8014 27.95 12.7214 28.89C11.6414 29.83 10.2314 30.3 8.49145 30.3C6.45145 30.3 4.75145 29.6 3.39145 28.2C2.05145 26.8 1.38145 24.96 1.38145 22.68C1.38145 20.56 2.07145 18.8 3.45145 17.4C4.85145 16 6.55145 15.3 8.55145 15.3C10.3514 15.3 11.7314 15.75 12.6914 16.65C13.6714 17.53 14.1614 18.55 14.1614 19.71C14.1614 20.75 13.6514 21.45 12.6314 21.81L5.37145 24.48C5.75145 25.52 6.32145 26.33 7.08145 26.91C7.84145 27.49 8.74145 27.78 9.78145 27.78C10.6814 27.78 11.4614 27.58 12.1214 27.18C12.8014 26.76 13.3014 26.23 13.6214 25.59ZM7.95145 16.44C7.01145 16.44 6.26145 16.89 5.70145 17.79C5.14145 18.69 4.86145 19.87 4.86145 21.33C4.86145 22.01 4.92145 22.65 5.04145 23.25L10.0214 21.09C10.5414 20.85 10.8014 20.43 10.8014 19.83C10.8014 19.11 10.5214 18.37 9.96145 17.61C9.42145 16.83 8.75145 16.44 7.95145 16.44ZM30.3727 15.6C30.7327 15.6 30.9127 15.74 30.9127 16.02V16.11C30.9127 16.31 30.6627 16.6 30.1627 16.98C29.6827 17.34 29.3727 17.71 29.2327 18.09L24.7627 29.34C24.6227 29.78 24.3327 30 23.8927 30H22.6327C22.2327 30 21.9327 29.78 21.7327 29.34L16.3927 18.09C16.2327 17.75 15.9627 17.39 15.5827 17.01C15.2027 16.63 15.0127 16.33 15.0127 16.11V16.02C15.0127 15.74 15.1927 15.6 15.5527 15.6H20.5627C20.9027 15.6 21.0727 15.75 21.0727 16.05V16.14C21.0727 16.28 20.9727 16.45 20.7727 16.65C20.5927 16.85 20.4427 17.05 20.3227 17.25C20.2227 17.43 20.2327 17.73 20.3527 18.15L24.0427 27.48L27.5527 18.57C27.7127 17.97 27.7127 17.56 27.5527 17.34C27.3927 17.1 27.1727 16.88 26.8927 16.68C26.6327 16.46 26.5027 16.28 26.5027 16.14V16.05C26.5027 15.75 26.6827 15.6 27.0427 15.6H30.3727ZM43.4164 25.59C43.5764 25.37 43.7764 25.29 44.0164 25.35C44.2764 25.41 44.3964 25.59 44.3764 25.89C44.2164 26.95 43.5964 27.95 42.5164 28.89C41.4364 29.83 40.0264 30.3 38.2864 30.3C36.2464 30.3 34.5464 29.6 33.1864 28.2C31.8464 26.8 31.1764 24.96 31.1764 22.68C31.1764 20.56 31.8664 18.8 33.2464 17.4C34.6464 16 36.3464 15.3 38.3464 15.3C40.1464 15.3 41.5264 15.75 42.4864 16.65C43.4664 17.53 43.9564 18.55 43.9564 19.71C43.9564 20.75 43.4464 21.45 42.4264 21.81L35.1664 24.48C35.5464 25.52 36.1164 26.33 36.8764 26.91C37.6364 27.49 38.5364 27.78 39.5764 27.78C40.4764 27.78 41.2564 27.58 41.9164 27.18C42.5964 26.76 43.0964 26.23 43.4164 25.59ZM37.7464 16.44C36.8064 16.44 36.0564 16.89 35.4964 17.79C34.9364 18.69 34.6564 19.87 34.6564 21.33C34.6564 22.01 34.7164 22.65 34.8364 23.25L39.8164 21.09C40.3364 20.85 40.5964 20.43 40.5964 19.83C40.5964 19.11 40.3164 18.37 39.7564 17.61C39.2164 16.83 38.5464 16.44 37.7464 16.44ZM54.4013 15.3C55.2613 15.3 55.9313 15.54 56.4113 16.02C56.9113 16.5 57.1613 17.1 57.1613 17.82C57.1613 19.08 56.6413 19.71 55.6013 19.71C55.1613 19.71 54.8213 19.59 54.5813 19.35C54.3413 19.11 54.1913 18.84 54.1313 18.54C54.0713 18.24 53.9313 17.97 53.7113 17.73C53.4913 17.49 53.1913 17.37 52.8113 17.37C52.1513 17.37 51.6413 17.73 51.2813 18.45C50.9213 19.17 50.7413 20.05 50.7413 21.09V27.51C50.7413 27.95 50.9713 28.34 51.4313 28.68C51.8913 29.02 52.1213 29.28 52.1213 29.46V29.58C52.1213 29.86 51.9113 30 51.4913 30H46.8413C46.4213 30 46.2113 29.86 46.2113 29.58V29.46C46.2113 29.28 46.4013 29.02 46.7813 28.68C47.1613 28.34 47.3513 27.95 47.3513 27.51V19.44C47.3513 18.98 47.1313 18.59 46.6913 18.27C46.2713 17.93 46.0613 17.67 46.0613 17.49V17.4C46.0613 17.18 46.2413 16.97 46.6013 16.77L49.5413 15.42C50.1213 15.14 50.4113 15.31 50.4113 15.93V18.27C51.0913 16.29 52.4213 15.3 54.4013 15.3ZM73.0339 15.6C73.3739 15.6 73.5439 15.74 73.5439 16.02V16.14C73.5439 16.36 73.3539 16.66 72.9739 17.04C72.5939 17.4 72.3039 17.8 72.1039 18.24L66.4339 30.66C66.0739 31.48 65.7639 32.13 65.5039 32.61C65.2639 33.09 64.9039 33.67 64.4239 34.35C63.9639 35.03 63.4339 35.54 62.8339 35.88C62.2339 36.22 61.5839 36.39 60.8839 36.39C59.7039 36.39 58.7339 36.08 57.9739 35.46C57.2139 34.86 56.8339 34.19 56.8339 33.45C56.8339 33.01 56.9639 32.65 57.2239 32.37C57.4839 32.09 57.8439 31.95 58.3039 31.95C58.7439 31.95 59.1039 32.11 59.3839 32.43C59.6639 32.77 59.8539 33.14 59.9539 33.54C60.0739 33.96 60.2539 34.33 60.4939 34.65C60.7339 34.99 61.0439 35.16 61.4239 35.16C62.4639 35.16 63.5839 33.67 64.7839 30.69L58.9339 18.24C58.7139 17.8 58.4039 17.4 58.0039 17.04C57.6039 16.66 57.4039 16.36 57.4039 16.14V16.02C57.4039 15.74 57.5839 15.6 57.9439 15.6H62.6839C63.0239 15.6 63.1939 15.75 63.1939 16.05V16.14C63.1939 16.3 63.1039 16.48 62.9239 16.68C62.7439 16.88 62.6139 17.07 62.5339 17.25C62.4739 17.43 62.5339 17.77 62.7139 18.27L66.6739 27.36L70.3939 18.6C70.5739 18 70.5739 17.59 70.3939 17.37C70.2139 17.13 69.9639 16.91 69.6439 16.71C69.3239 16.49 69.1639 16.3 69.1639 16.14V16.05C69.1639 15.75 69.3439 15.6 69.7039 15.6H73.0339Z" fill="#F8F8F9"/>
</svg>
