<svg width="120" height="41" viewBox="0 0 120 41" fill="none" xmlns="http://www.w3.org/2000/svg">
<path opacity="0.1" d="M9.01465 30.3C6.55465 30.3 4.58465 29.55 3.10465 28.05C1.62465 26.55 0.884648 24.75 0.884648 22.65C0.884648 20.55 1.60465 18.8 3.04465 17.4C4.48465 16 6.24465 15.3 8.32465 15.3C10.6446 15.3 12.5446 16.04 14.0246 17.52C15.5046 18.98 16.2446 20.77 16.2446 22.89C16.2446 24.99 15.5746 26.75 14.2346 28.17C12.8946 29.59 11.1546 30.3 9.01465 30.3ZM9.46465 29.16C10.4246 29.16 11.2046 28.72 11.8046 27.84C12.4046 26.94 12.7046 25.7 12.7046 24.12C12.7046 22 12.2446 20.19 11.3246 18.69C10.4246 17.19 9.29465 16.44 7.93465 16.44C6.85465 16.44 5.99465 16.88 5.35465 17.76C4.73465 18.62 4.42465 19.86 4.42465 21.48C4.42465 23.44 4.89465 25.21 5.83465 26.79C6.79465 28.37 8.00465 29.16 9.46465 29.16ZM25.5526 30.3C23.3926 30.3 21.5626 29.57 20.0626 28.11C18.5826 26.63 17.8426 24.84 17.8426 22.74C17.8426 20.52 18.5726 18.73 20.0326 17.37C21.4926 16.01 23.2826 15.32 25.4026 15.3C27.0426 15.28 28.4526 15.68 29.6326 16.5C30.8326 17.3 31.4326 18.22 31.4326 19.26C31.4326 19.64 31.3026 19.96 31.0426 20.22C30.8026 20.46 30.4226 20.57 29.9026 20.55C29.4226 20.53 28.9926 20.3 28.6126 19.86C28.2326 19.42 27.9226 18.95 27.6826 18.45C27.4426 17.95 27.0726 17.49 26.5726 17.07C26.0926 16.65 25.5126 16.44 24.8326 16.44C23.8126 16.44 22.9826 16.88 22.3426 17.76C21.7026 18.64 21.3826 19.74 21.3826 21.06C21.3826 23.1 21.8726 24.74 22.8526 25.98C23.8326 27.2 25.1226 27.81 26.7226 27.81C28.4626 27.81 29.7526 26.99 30.5926 25.35C30.7526 25.11 30.9626 25.02 31.2226 25.08C31.4826 25.14 31.5926 25.32 31.5526 25.62C31.3926 26.9 30.7826 28 29.7226 28.92C28.6826 29.84 27.2926 30.3 25.5526 30.3ZM40.6698 30.3C38.5098 30.3 36.6798 29.57 35.1798 28.11C33.6998 26.63 32.9598 24.84 32.9598 22.74C32.9598 20.52 33.6898 18.73 35.1498 17.37C36.6098 16.01 38.3998 15.32 40.5198 15.3C42.1598 15.28 43.5698 15.68 44.7498 16.5C45.9498 17.3 46.5498 18.22 46.5498 19.26C46.5498 19.64 46.4198 19.96 46.1598 20.22C45.9198 20.46 45.5398 20.57 45.0198 20.55C44.5398 20.53 44.1098 20.3 43.7298 19.86C43.3498 19.42 43.0398 18.95 42.7998 18.45C42.5598 17.95 42.1898 17.49 41.6898 17.07C41.2098 16.65 40.6298 16.44 39.9498 16.44C38.9298 16.44 38.0998 16.88 37.4598 17.76C36.8198 18.64 36.4998 19.74 36.4998 21.06C36.4998 23.1 36.9898 24.74 37.9698 25.98C38.9498 27.2 40.2398 27.81 41.8398 27.81C43.5798 27.81 44.8698 26.99 45.7098 25.35C45.8698 25.11 46.0798 25.02 46.3398 25.08C46.5998 25.14 46.7098 25.32 46.6698 25.62C46.5098 26.9 45.8998 28 44.8398 28.92C43.7998 29.84 42.4098 30.3 40.6698 30.3ZM61.367 27.3C61.407 27.74 61.517 28.09 61.697 28.35C61.897 28.59 62.087 28.74 62.267 28.8C62.467 28.86 62.637 28.94 62.777 29.04C62.937 29.14 63.017 29.27 63.017 29.43C63.017 29.93 62.207 30.18 60.587 30.18C59.787 30.18 59.197 30.06 58.817 29.82C58.457 29.56 58.247 29.08 58.187 28.38C57.387 29.66 55.997 30.3 54.017 30.3C52.337 30.3 50.977 29.91 49.937 29.13C48.917 28.33 48.407 27.21 48.407 25.77C48.387 24.35 48.897 23.25 49.937 22.47C50.977 21.67 52.287 21.27 53.867 21.27C55.307 21.27 56.467 21.61 57.347 22.29L57.287 21.69C57.107 19.85 56.787 18.51 56.327 17.67C55.867 16.83 55.137 16.41 54.137 16.41C53.517 16.41 52.997 16.6 52.577 16.98C52.177 17.36 51.897 17.78 51.737 18.24C51.597 18.68 51.387 19.09 51.107 19.47C50.827 19.85 50.477 20.04 50.057 20.04C49.617 20.04 49.257 19.92 48.977 19.68C48.717 19.42 48.587 19.08 48.587 18.66C48.587 17.7 49.107 16.9 50.147 16.26C51.207 15.62 52.537 15.3 54.137 15.3C56.017 15.3 57.537 15.86 58.697 16.98C59.857 18.08 60.547 19.6 60.767 21.54L61.367 27.3ZM55.007 29.16C55.827 29.16 56.487 28.86 56.987 28.26C57.507 27.66 57.747 26.95 57.707 26.13L57.617 25.2C57.557 24.34 57.267 23.66 56.747 23.16C56.227 22.66 55.567 22.41 54.767 22.41C53.927 22.41 53.247 22.68 52.727 23.22C52.207 23.74 51.947 24.45 51.947 25.35C51.947 26.41 52.227 27.31 52.787 28.05C53.367 28.79 54.107 29.16 55.007 29.16ZM70.1715 30.27C68.3115 30.27 66.8015 29.92 65.6415 29.22C64.4815 28.5 63.9015 27.7 63.9015 26.82C63.9015 26.38 64.0315 26.04 64.2915 25.8C64.5715 25.56 64.9415 25.44 65.4015 25.44C65.8015 25.44 66.1315 25.57 66.3915 25.83C66.6715 26.09 66.8915 26.41 67.0515 26.79C67.2115 27.17 67.3915 27.55 67.5915 27.93C67.8115 28.29 68.1315 28.6 68.5515 28.86C68.9915 29.12 69.5315 29.25 70.1715 29.25C70.9915 29.25 71.6515 29.05 72.1515 28.65C72.6715 28.25 72.9315 27.68 72.9315 26.94C72.9315 26.2 72.6315 25.63 72.0315 25.23C71.4315 24.81 70.7015 24.5 69.8415 24.3C69.0015 24.1 68.1515 23.87 67.2915 23.61C66.4315 23.35 65.7015 22.89 65.1015 22.23C64.5015 21.55 64.2015 20.66 64.2015 19.56C64.2015 18.34 64.7515 17.33 65.8515 16.53C66.9515 15.71 68.3615 15.3 70.0815 15.3C71.8615 15.3 73.3015 15.67 74.4015 16.41C75.5215 17.13 76.0815 17.95 76.0815 18.87C76.0815 19.25 75.9515 19.56 75.6915 19.8C75.4315 20.04 75.1015 20.16 74.7015 20.16C74.3215 20.16 74.0015 20.03 73.7415 19.77C73.5015 19.51 73.2915 19.2 73.1115 18.84C72.9515 18.46 72.7715 18.09 72.5715 17.73C72.3915 17.35 72.1015 17.03 71.7015 16.77C71.3215 16.51 70.8415 16.38 70.2615 16.38C69.5415 16.38 68.9415 16.6 68.4615 17.04C67.9815 17.48 67.7415 18.03 67.7415 18.69C67.7415 19.43 68.0415 20.01 68.6415 20.43C69.2415 20.85 69.9615 21.17 70.8015 21.39C71.6615 21.59 72.5215 21.82 73.3815 22.08C74.2415 22.34 74.9715 22.8 75.5715 23.46C76.1715 24.12 76.4715 25 76.4715 26.1C76.4715 27.3 75.8915 28.3 74.7315 29.1C73.5915 29.88 72.0715 30.27 70.1715 30.27ZM81.2312 13.11C80.4912 13.11 79.8912 12.9 79.4312 12.48C78.9712 12.06 78.7412 11.52 78.7412 10.86C78.7412 10.2 78.9712 9.66 79.4312 9.24C79.8912 8.82 80.4912 8.61 81.2312 8.61C81.9512 8.61 82.5312 8.82 82.9712 9.24C83.4312 9.66 83.6612 10.2 83.6612 10.86C83.6612 11.52 83.4312 12.06 82.9712 12.48C82.5312 12.9 81.9512 13.11 81.2312 13.11ZM79.0112 30C78.5912 30 78.3812 29.85 78.3812 29.55V29.43C78.3812 29.25 78.5612 28.99 78.9212 28.65C79.3012 28.31 79.4912 27.92 79.4912 27.48V19.62C79.4912 19.16 79.3012 18.73 78.9212 18.33C78.5612 17.93 78.3812 17.67 78.3812 17.55V17.46C78.3812 17.3 78.5612 17.12 78.9212 16.92L81.9212 15.42C82.2612 15.28 82.5212 15.27 82.7012 15.39C82.9012 15.49 83.0012 15.67 83.0012 15.93V27.48C83.0012 27.92 83.2012 28.31 83.6012 28.65C84.0212 28.99 84.2312 29.25 84.2312 29.43V29.55C84.2312 29.85 84.0112 30 83.5712 30H79.0112ZM94.1807 30.3C91.7207 30.3 89.7507 29.55 88.2707 28.05C86.7907 26.55 86.0507 24.75 86.0507 22.65C86.0507 20.55 86.7707 18.8 88.2107 17.4C89.6507 16 91.4107 15.3 93.4907 15.3C95.8107 15.3 97.7107 16.04 99.1907 17.52C100.671 18.98 101.411 20.77 101.411 22.89C101.411 24.99 100.741 26.75 99.4007 28.17C98.0607 29.59 96.3207 30.3 94.1807 30.3ZM94.6307 29.16C95.5907 29.16 96.3707 28.72 96.9707 27.84C97.5707 26.94 97.8707 25.7 97.8707 24.12C97.8707 22 97.4107 20.19 96.4907 18.69C95.5907 17.19 94.4607 16.44 93.1007 16.44C92.0207 16.44 91.1607 16.88 90.5207 17.76C89.9007 18.62 89.5907 19.86 89.5907 21.48C89.5907 23.44 90.0607 25.21 91.0007 26.79C91.9607 28.37 93.1707 29.16 94.6307 29.16ZM118.309 27.48C118.329 27.92 118.509 28.32 118.849 28.68C119.209 29.02 119.389 29.28 119.389 29.46V29.58C119.389 29.88 119.169 30.03 118.729 30.03H114.349C113.909 30.03 113.689 29.88 113.689 29.58V29.46C113.689 29.28 113.869 29.02 114.229 28.68C114.609 28.32 114.789 27.92 114.769 27.48L114.469 21.69C114.329 18.39 113.279 16.74 111.319 16.74C110.379 16.74 109.619 17.09 109.039 17.79C108.459 18.47 108.169 19.36 108.169 20.46V27.51C108.169 27.95 108.369 28.34 108.769 28.68C109.189 29.02 109.399 29.28 109.399 29.46V29.58C109.399 29.88 109.179 30.03 108.739 30.03H104.089C103.669 30.03 103.459 29.88 103.459 29.58V29.46C103.459 29.28 103.659 29.02 104.059 28.68C104.459 28.34 104.659 27.95 104.659 27.51V19.47C104.659 19.09 104.539 18.78 104.299 18.54C104.079 18.3 103.859 18.11 103.639 17.97C103.419 17.81 103.309 17.64 103.309 17.46V17.37C103.309 17.17 103.489 16.99 103.849 16.83L106.759 15.42C107.079 15.28 107.309 15.27 107.449 15.39C107.609 15.49 107.689 15.68 107.689 15.96V17.91C108.109 17.09 108.719 16.45 109.519 15.99C110.319 15.53 111.229 15.3 112.249 15.3C113.789 15.3 115.089 15.83 116.149 16.89C117.209 17.95 117.809 19.59 117.949 21.81L118.309 27.48Z" fill="#F8F8F9"/>
</svg>
