<svg width="40" height="41" viewBox="0 0 40 41" fill="none" xmlns="http://www.w3.org/2000/svg">
<path opacity="0.1" d="M8.63715 7.95C9.77715 7.95 10.7671 8.27 11.6071 8.91C12.4471 9.55 12.8671 10.31 12.8671 11.19C12.8671 11.51 12.7371 11.81 12.4771 12.09C12.2371 12.35 11.9071 12.48 11.4871 12.48C10.8271 12.48 10.3471 12.31 10.0471 11.97C9.74715 11.61 9.58715 11.22 9.56715 10.8C9.54715 10.36 9.41715 9.96 9.17715 9.6C8.93715 9.24 8.53715 9.06 7.97715 9.06C7.01715 9.04 6.44715 9.71 6.26715 11.07C6.08715 12.43 6.22715 13.94 6.68715 15.6H10.6471C10.7871 15.6 10.9071 15.65 11.0071 15.75C11.1071 15.85 11.1571 15.97 11.1571 16.11V16.59C11.1571 16.91 10.9871 17.07 10.6471 17.07H6.80715V27.48C6.80715 27.92 7.04715 28.32 7.52715 28.68C8.00715 29.02 8.24715 29.28 8.24715 29.46V29.58C8.24715 29.86 8.07715 30 7.73715 30H2.66715C2.30715 30 2.12715 29.86 2.12715 29.58V29.46C2.12715 29.28 2.31715 29.02 2.69715 28.68C3.09715 28.32 3.29715 27.92 3.29715 27.48V17.07H0.987148C0.627148 17.07 0.447148 16.91 0.447148 16.59V16.11C0.447148 15.97 0.497148 15.85 0.597148 15.75C0.717148 15.65 0.847148 15.6 0.987148 15.6H3.29715V13.35C3.29715 11.75 3.75715 10.45 4.67715 9.45C5.59715 8.45 6.91715 7.95 8.63715 7.95ZM19.3467 30.3C16.8867 30.3 14.9167 29.55 13.4367 28.05C11.9567 26.55 11.2167 24.75 11.2167 22.65C11.2167 20.55 11.9367 18.8 13.3767 17.4C14.8167 16 16.5767 15.3 18.6567 15.3C20.9767 15.3 22.8767 16.04 24.3567 17.52C25.8367 18.98 26.5767 20.77 26.5767 22.89C26.5767 24.99 25.9067 26.75 24.5667 28.17C23.2267 29.59 21.4867 30.3 19.3467 30.3ZM19.7967 29.16C20.7567 29.16 21.5367 28.72 22.1367 27.84C22.7367 26.94 23.0367 25.7 23.0367 24.12C23.0367 22 22.5767 20.19 21.6567 18.69C20.7567 17.19 19.6267 16.44 18.2667 16.44C17.1867 16.44 16.3267 16.88 15.6867 17.76C15.0667 18.62 14.7567 19.86 14.7567 21.48C14.7567 23.44 15.2267 25.21 16.1667 26.79C17.1267 28.37 18.3367 29.16 19.7967 29.16ZM36.8446 15.3C37.7046 15.3 38.3746 15.54 38.8546 16.02C39.3546 16.5 39.6046 17.1 39.6046 17.82C39.6046 19.08 39.0846 19.71 38.0446 19.71C37.6046 19.71 37.2646 19.59 37.0246 19.35C36.7846 19.11 36.6346 18.84 36.5746 18.54C36.5146 18.24 36.3746 17.97 36.1546 17.73C35.9346 17.49 35.6346 17.37 35.2546 17.37C34.5946 17.37 34.0846 17.73 33.7246 18.45C33.3646 19.17 33.1846 20.05 33.1846 21.09V27.51C33.1846 27.95 33.4146 28.34 33.8746 28.68C34.3346 29.02 34.5646 29.28 34.5646 29.46V29.58C34.5646 29.86 34.3546 30 33.9346 30H29.2846C28.8646 30 28.6546 29.86 28.6546 29.58V29.46C28.6546 29.28 28.8446 29.02 29.2246 28.68C29.6046 28.34 29.7946 27.95 29.7946 27.51V19.44C29.7946 18.98 29.5746 18.59 29.1346 18.27C28.7146 17.93 28.5046 17.67 28.5046 17.49V17.4C28.5046 17.18 28.6846 16.97 29.0446 16.77L31.9846 15.42C32.5646 15.14 32.8546 15.31 32.8546 15.93V18.27C33.5346 16.29 34.8646 15.3 36.8446 15.3Z" fill="#3F4852"/>
</svg>
