<svg width="97" height="41" viewBox="0 0 97 41" fill="none" xmlns="http://www.w3.org/2000/svg">
<path opacity="0.1" d="M8.50086 30.3C6.34086 30.3 4.51086 29.57 3.01086 28.11C1.53086 26.63 0.790859 24.84 0.790859 22.74C0.790859 20.52 1.52086 18.73 2.98086 17.37C4.44086 16.01 6.23086 15.32 8.35086 15.3C9.99086 15.28 11.4009 15.68 12.5809 16.5C13.7809 17.3 14.3809 18.22 14.3809 19.26C14.3809 19.64 14.2509 19.96 13.9909 20.22C13.7509 20.46 13.3709 20.57 12.8509 20.55C12.3709 20.53 11.9409 20.3 11.5609 19.86C11.1809 19.42 10.8709 18.95 10.6309 18.45C10.3909 17.95 10.0209 17.49 9.52086 17.07C9.04086 16.65 8.46086 16.44 7.78086 16.44C6.76086 16.44 5.93086 16.88 5.29086 17.76C4.65086 18.64 4.33086 19.74 4.33086 21.06C4.33086 23.1 4.82086 24.74 5.80086 25.98C6.78086 27.2 8.07086 27.81 9.67086 27.81C11.4109 27.81 12.7009 26.99 13.5409 25.35C13.7009 25.11 13.9109 25.02 14.1709 25.08C14.4309 25.14 14.5409 25.32 14.5009 25.62C14.3409 26.9 13.7309 28 12.6709 28.92C11.6309 29.84 10.2409 30.3 8.50086 30.3ZM24.578 15.3C25.438 15.3 26.108 15.54 26.588 16.02C27.088 16.5 27.338 17.1 27.338 17.82C27.338 19.08 26.818 19.71 25.778 19.71C25.338 19.71 24.998 19.59 24.758 19.35C24.518 19.11 24.368 18.84 24.308 18.54C24.248 18.24 24.108 17.97 23.888 17.73C23.668 17.49 23.368 17.37 22.988 17.37C22.328 17.37 21.818 17.73 21.458 18.45C21.098 19.17 20.918 20.05 20.918 21.09V27.51C20.918 27.95 21.148 28.34 21.608 28.68C22.068 29.02 22.298 29.28 22.298 29.46V29.58C22.298 29.86 22.088 30 21.668 30H17.018C16.598 30 16.388 29.86 16.388 29.58V29.46C16.388 29.28 16.578 29.02 16.958 28.68C17.338 28.34 17.528 27.95 17.528 27.51V19.44C17.528 18.98 17.308 18.59 16.868 18.27C16.448 17.93 16.238 17.67 16.238 17.49V17.4C16.238 17.18 16.418 16.97 16.778 16.77L19.718 15.42C20.298 15.14 20.588 15.31 20.588 15.93V18.27C21.268 16.29 22.598 15.3 24.578 15.3ZM41.1805 27.3C41.2205 27.74 41.3305 28.09 41.5105 28.35C41.7105 28.59 41.9005 28.74 42.0805 28.8C42.2805 28.86 42.4505 28.94 42.5905 29.04C42.7505 29.14 42.8305 29.27 42.8305 29.43C42.8305 29.93 42.0205 30.18 40.4005 30.18C39.6005 30.18 39.0105 30.06 38.6305 29.82C38.2705 29.56 38.0605 29.08 38.0005 28.38C37.2005 29.66 35.8105 30.3 33.8305 30.3C32.1505 30.3 30.7905 29.91 29.7505 29.13C28.7305 28.33 28.2205 27.21 28.2205 25.77C28.2005 24.35 28.7105 23.25 29.7505 22.47C30.7905 21.67 32.1005 21.27 33.6805 21.27C35.1205 21.27 36.2805 21.61 37.1605 22.29L37.1005 21.69C36.9205 19.85 36.6005 18.51 36.1405 17.67C35.6805 16.83 34.9505 16.41 33.9505 16.41C33.3305 16.41 32.8105 16.6 32.3905 16.98C31.9905 17.36 31.7105 17.78 31.5505 18.24C31.4105 18.68 31.2005 19.09 30.9205 19.47C30.6405 19.85 30.2905 20.04 29.8705 20.04C29.4305 20.04 29.0705 19.92 28.7905 19.68C28.5305 19.42 28.4005 19.08 28.4005 18.66C28.4005 17.7 28.9205 16.9 29.9605 16.26C31.0205 15.62 32.3505 15.3 33.9505 15.3C35.8305 15.3 37.3505 15.86 38.5105 16.98C39.6705 18.08 40.3605 19.6 40.5805 21.54L41.1805 27.3ZM34.8205 29.16C35.6405 29.16 36.3005 28.86 36.8005 28.26C37.3205 27.66 37.5605 26.95 37.5205 26.13L37.4305 25.2C37.3705 24.34 37.0805 23.66 36.5605 23.16C36.0405 22.66 35.3805 22.41 34.5805 22.41C33.7405 22.41 33.0605 22.68 32.5405 23.22C32.0205 23.74 31.7605 24.45 31.7605 25.35C31.7605 26.41 32.0405 27.31 32.6005 28.05C33.1805 28.79 33.9205 29.16 34.8205 29.16ZM51.1264 7.95C52.2664 7.95 53.2564 8.27 54.0964 8.91C54.9364 9.55 55.3564 10.31 55.3564 11.19C55.3564 11.51 55.2264 11.81 54.9664 12.09C54.7264 12.35 54.3964 12.48 53.9764 12.48C53.3164 12.48 52.8364 12.31 52.5364 11.97C52.2364 11.61 52.0764 11.22 52.0564 10.8C52.0364 10.36 51.9064 9.96 51.6664 9.6C51.4264 9.24 51.0264 9.06 50.4664 9.06C49.5064 9.04 48.9364 9.71 48.7564 11.07C48.5764 12.43 48.7164 13.94 49.1764 15.6H53.1364C53.2764 15.6 53.3964 15.65 53.4964 15.75C53.5964 15.85 53.6464 15.97 53.6464 16.11V16.59C53.6464 16.91 53.4764 17.07 53.1364 17.07H49.2964V27.48C49.2964 27.92 49.5364 28.32 50.0164 28.68C50.4964 29.02 50.7364 29.28 50.7364 29.46V29.58C50.7364 29.86 50.5664 30 50.2264 30H45.1564C44.7964 30 44.6164 29.86 44.6164 29.58V29.46C44.6164 29.28 44.8064 29.02 45.1864 28.68C45.5864 28.32 45.7864 27.92 45.7864 27.48V17.07H43.4764C43.1164 17.07 42.9364 16.91 42.9364 16.59V16.11C42.9364 15.97 42.9864 15.85 43.0864 15.75C43.2064 15.65 43.3364 15.6 43.4764 15.6H45.7864V13.35C45.7864 11.75 46.2464 10.45 47.1664 9.45C48.0864 8.45 49.4064 7.95 51.1264 7.95ZM60.4334 30.3C59.1334 30.3 58.1034 29.89 57.3434 29.07C56.6034 28.23 56.2334 27.02 56.2334 25.44V17.07H54.5234C54.1834 17.07 54.0134 16.9 54.0134 16.56V16.14C54.0134 15.78 54.1834 15.6 54.5234 15.6H55.4534C56.2134 15.6 56.8234 15.34 57.2834 14.82C57.7634 14.3 58.0634 13.59 58.1834 12.69C58.2434 12.25 58.4434 12.03 58.7834 12.03H59.2334C59.6134 12.03 59.8034 12.25 59.8034 12.69L59.8334 15.6H63.6134C63.7734 15.6 63.9034 15.65 64.0034 15.75C64.1034 15.85 64.1534 15.98 64.1534 16.14V16.56C64.1534 16.9 63.9734 17.07 63.6134 17.07H59.8334V25.47C59.8334 26.17 59.9934 26.72 60.3134 27.12C60.6334 27.5 61.0434 27.69 61.5434 27.69C62.7434 27.69 63.4534 27.17 63.6734 26.13C63.7534 25.97 63.8734 25.87 64.0334 25.83C64.1934 25.79 64.3334 25.81 64.4534 25.89C64.5934 25.97 64.6634 26.1 64.6634 26.28C64.6634 27.36 64.2734 28.3 63.4934 29.1C62.7334 29.9 61.7134 30.3 60.4334 30.3ZM77.9584 25.59C78.1184 25.37 78.3184 25.29 78.5584 25.35C78.8184 25.41 78.9384 25.59 78.9184 25.89C78.7584 26.95 78.1384 27.95 77.0584 28.89C75.9784 29.83 74.5684 30.3 72.8284 30.3C70.7884 30.3 69.0884 29.6 67.7284 28.2C66.3884 26.8 65.7184 24.96 65.7184 22.68C65.7184 20.56 66.4084 18.8 67.7884 17.4C69.1884 16 70.8884 15.3 72.8884 15.3C74.6884 15.3 76.0684 15.75 77.0284 16.65C78.0084 17.53 78.4984 18.55 78.4984 19.71C78.4984 20.75 77.9884 21.45 76.9684 21.81L69.7084 24.48C70.0884 25.52 70.6584 26.33 71.4184 26.91C72.1784 27.49 73.0784 27.78 74.1184 27.78C75.0184 27.78 75.7984 27.58 76.4584 27.18C77.1384 26.76 77.6384 26.23 77.9584 25.59ZM72.2884 16.44C71.3484 16.44 70.5984 16.89 70.0384 17.79C69.4784 18.69 69.1984 19.87 69.1984 21.33C69.1984 22.01 69.2584 22.65 69.3784 23.25L74.3584 21.09C74.8784 20.85 75.1384 20.43 75.1384 19.83C75.1384 19.11 74.8584 18.37 74.2984 17.61C73.7584 16.83 73.0884 16.44 72.2884 16.44ZM94.8833 27.51C94.8833 27.95 95.0733 28.35 95.4533 28.71C95.8333 29.07 96.0233 29.33 96.0233 29.49V29.58C96.0233 29.86 95.8533 30 95.5133 30H92.3933C92.0333 30 91.8333 29.81 91.7933 29.43L91.7033 28.38C90.7033 29.66 89.3033 30.3 87.5033 30.3C85.5833 30.3 83.9333 29.61 82.5533 28.23C81.1933 26.85 80.5133 25.03 80.5133 22.77C80.5133 20.59 81.1833 18.8 82.5233 17.4C83.8833 16 85.5633 15.3 87.5633 15.3C89.1233 15.3 90.4333 15.81 91.4933 16.83V11.19C91.4933 10.81 91.3733 10.5 91.1333 10.26C90.9133 10.02 90.6833 9.83 90.4433 9.69C90.2233 9.53 90.1133 9.36 90.1133 9.18V9.12C90.1133 8.86 90.2933 8.66 90.6533 8.52L93.8333 7.5C94.5333 7.26 94.8833 7.44 94.8833 8.04V27.51ZM88.3133 29.16C89.1333 29.16 89.8633 28.82 90.5033 28.14C91.1633 27.46 91.4933 26.51 91.4933 25.29V20.49C91.4933 19.49 91.1133 18.57 90.3533 17.73C89.5933 16.87 88.7033 16.44 87.6833 16.44C86.5633 16.44 85.6633 16.9 84.9833 17.82C84.3033 18.72 83.9533 19.96 83.9333 21.54C83.8933 23.64 84.2733 25.43 85.0733 26.91C85.8933 28.39 86.9733 29.14 88.3133 29.16Z" fill="#3F4852"/>
</svg>
