<svg width="279" height="253" viewBox="0 0 279 253" fill="none" xmlns="http://www.w3.org/2000/svg">
<g opacity="0.5">
<path d="M127.513 142.183C127.626 142.223 127.749 142.223 127.862 142.183C133.505 144.482 139.847 139.798 141.855 134.649C144.211 128.511 139.818 121.441 134.175 119.172C132.751 118.662 131.235 118.467 129.729 118.601C128.223 118.734 126.764 119.193 125.453 119.945C124.142 120.698 123.01 121.726 122.135 122.959C121.26 124.191 120.663 125.599 120.385 127.085C119.708 130.036 120.042 133.13 121.335 135.868C122.627 138.607 124.803 140.831 127.513 142.183V142.183ZM131.382 120.045C137.2 120.045 141.127 126.59 141.011 131.914C140.895 137.238 133.418 143.551 127.862 140.642C125.898 139.609 124.262 138.049 123.137 136.137C122.011 134.225 121.441 132.037 121.491 129.82C121.4 128.497 121.594 127.171 122.059 125.93C122.525 124.689 123.25 123.562 124.187 122.625C125.124 121.688 126.251 120.962 127.492 120.497C128.733 120.032 130.06 119.838 131.382 119.929L131.382 120.045Z" fill="#E9F3F3"/>
<path d="M118.349 136.54C119.723 139.545 122.015 142.037 124.896 143.658C127.776 145.278 131.096 145.943 134.378 145.558C134.46 145.595 134.55 145.614 134.64 145.614C134.73 145.614 134.819 145.595 134.902 145.558C135.454 145.354 136.007 145.121 136.531 144.889C137.071 144.672 137.596 144.42 138.102 144.132C138.191 144.079 138.27 144.01 138.334 143.929C141.509 142.197 143.953 139.379 145.219 135.992C146.486 132.605 146.489 128.875 145.229 125.485C142.32 118.358 132.604 112.481 125.185 115.885C123.345 116.753 121.7 117.986 120.35 119.509C119.001 121.032 117.976 122.814 117.336 124.746C116.697 126.677 116.457 128.719 116.631 130.747C116.805 132.774 117.389 134.745 118.349 136.54ZM123.993 118.27C130.945 113.587 139.818 118.59 143.513 125.107C147.556 132.292 142.844 140.409 136.094 143.638C133.18 144.524 130.054 144.41 127.212 143.313C124.37 142.217 121.978 140.201 120.414 137.587C118.732 134.606 117.963 131.197 118.203 127.783C118.284 125.816 118.876 123.903 119.922 122.235C120.968 120.567 122.431 119.2 124.167 118.27L123.993 118.27Z" fill="#E9F3F3"/>
<path d="M116.08 119.347C112.734 123.914 113.578 131.274 115.004 136.307C117.738 145.965 128.473 149.369 137.578 147.304C139.632 146.849 141.568 145.97 143.261 144.722C144.955 143.475 146.368 141.887 147.411 140.06C148.931 138.225 149.904 136 150.217 133.638C150.531 131.277 150.174 128.875 149.186 126.707C145.898 118.241 137.2 110.998 127.745 112.656C123.156 113.347 118.993 115.734 116.08 119.347ZM146.742 124.758C147.915 126.434 148.649 128.377 148.877 130.409C149.106 132.442 148.822 134.5 148.051 136.394C146.465 140.079 143.716 143.144 140.226 145.122V145.122C132.575 148.031 121.753 146.634 117.505 138.954C115.156 134.117 114.589 128.605 115.905 123.391C117.04 118.387 121.549 116.03 126.029 114.663C134.698 111.696 142.582 117.485 146.742 124.758V124.758Z" fill="#E9F3F3"/>
<path d="M111.193 118.183C110.388 120.723 110.248 123.428 110.786 126.038C111.251 129.296 111.135 132.67 111.717 135.929C112.851 142.183 118.088 145.674 123.062 149.078C128.037 152.481 134.902 150.59 140.051 149.369C140.166 149.347 140.269 149.285 140.342 149.194C144.597 147.345 148.167 144.212 150.553 140.234C152.154 138.1 153.177 135.589 153.523 132.944C153.87 130.3 153.528 127.61 152.531 125.136C149.979 119.496 145.96 114.644 140.895 111.085C138.283 109.685 135.383 108.907 132.421 108.811C129.46 108.715 126.516 109.304 123.819 110.532C120.909 111.579 118.233 112.947 115.469 114.139C114.523 114.495 113.658 115.036 112.923 115.73C112.189 116.424 111.601 117.258 111.193 118.183V118.183ZM139.382 111.812C143.979 114.052 146.801 118.736 149.506 122.808C151.19 125.107 152.133 127.863 152.211 130.711C152.289 133.559 151.498 136.363 149.942 138.75C147.353 142.881 143.31 147.478 138.306 148.292C138.198 148.316 138.099 148.366 138.015 148.438C133.709 149.427 128.299 150.416 124.546 148.438C122.616 147.179 120.761 145.81 118.989 144.336C116.152 142.52 114.081 139.725 113.171 136.481C112.798 134.368 112.613 132.227 112.618 130.081C112.444 127.521 111.92 125.019 111.804 122.488C111.484 116.205 117.448 114.779 122.073 112.743C124.705 111.302 127.626 110.471 130.622 110.31C133.618 110.148 136.611 110.662 139.382 111.812V111.812Z" fill="#E9F3F3"/>
<path d="M107.79 116.583C106.879 119.54 106.689 122.673 107.237 125.718C107.76 129.529 108.197 133.282 108.43 137.122C108.485 139.801 109.358 142.4 110.931 144.569C112.91 147.187 116.75 147.798 119.339 149.456C121.829 151.392 124.739 152.717 127.833 153.325C130.598 153.646 133.396 153.528 136.124 152.976L136.357 152.976L137.375 152.715L137.754 152.715C140.62 151.991 143.392 150.936 146.015 149.573C148.673 147.719 150.8 145.201 152.183 142.271C155.557 136.453 158.583 131.798 156.576 124.816C155.563 122.115 153.952 119.678 151.863 117.689C149.325 114.734 146.542 111.999 143.543 109.514C140.877 107.321 137.629 105.955 134.197 105.583C130.765 105.211 127.3 105.849 124.226 107.42C120.579 108.97 116.85 110.32 113.055 111.463C111.847 111.863 110.746 112.531 109.834 113.418C108.922 114.305 108.223 115.387 107.79 116.583ZM141.07 109.311C143.828 111.269 146.356 113.533 148.605 116.06C150.919 118.266 152.943 120.759 154.626 123.478C157.943 129.674 154.626 135.26 151.572 140.554C150.061 143.525 147.951 146.15 145.375 148.264C142.924 149.681 140.248 150.665 137.463 151.173C137.463 151.173 137.463 151.173 137.463 151.173C134.725 152.026 131.83 152.249 128.994 151.826C126.157 151.403 123.454 150.344 121.084 148.729C118.935 147.432 116.688 146.303 114.364 145.355C110.699 143.58 110.088 139.536 109.826 135.987C109.535 131.129 108.459 126.242 108.401 121.442C108.232 119.459 108.745 117.478 109.856 115.827C110.967 114.176 112.609 112.955 114.51 112.365C117.038 111.686 119.525 110.86 121.957 109.892C128.444 107.1 134.583 105.063 141.07 109.311Z" fill="#E9F3F3"/>
<path d="M105.782 111.202C104.895 111.859 104.157 112.697 103.616 113.659C103.074 114.622 102.742 115.687 102.64 116.787C102.729 122.285 103.137 127.773 103.862 133.224C104.124 136.656 103.6 141.311 105.142 144.482C106.918 147.645 109.863 149.984 113.346 150.998C115.411 151.813 117.564 152.511 119.629 153.267C121.695 154.024 123.848 155.42 126.03 156.177C130.684 157.893 134.931 156.526 139.47 155.013C140.475 154.751 141.495 154.547 142.524 154.402C144.698 154.056 146.812 153.409 148.808 152.482C152.008 150.911 153.928 146.664 155.819 143.929C158.295 140.611 159.977 136.77 160.735 132.7C161.71 129.297 161.71 125.688 160.735 122.285C157.826 115.972 151.193 112.743 146.481 108.089C144.2 105.447 141.273 103.442 137.986 102.271C133.951 100.89 129.57 100.89 125.535 102.271C121.637 103.609 118.262 106.111 114.364 107.507C111.338 108.312 108.447 109.557 105.782 111.202V111.202ZM135.368 102.969C139.339 103.801 142.92 105.93 145.55 109.02C149.623 113.267 155.063 115.973 158.466 120.86C160.085 123.626 160.555 126.915 159.775 130.024C159.408 134.447 157.872 138.694 155.324 142.329C153.557 145.745 151.135 148.779 148.197 151.26C146.403 152.261 144.423 152.885 142.379 153.093V153.093C142.379 153.093 142.379 153.093 142.204 153.093L140.575 153.355C140.441 153.387 140.32 153.457 140.226 153.558C137.899 154.169 135.63 154.896 133.273 155.391C128.328 156.496 124.546 153.646 120.211 151.929C116.208 150.777 112.382 149.084 108.837 146.896C105.171 143.987 105.928 138.635 105.549 134.533L104.589 122.518C104.24 118.387 103.542 114.722 107.295 111.929C109.676 110.434 112.277 109.325 115.004 108.641C117.9 107.487 120.718 106.146 123.44 104.627C127.079 102.637 131.307 102.008 135.368 102.852L135.368 102.969Z" fill="#E9F3F3"/>
<path d="M103.193 107.303C97.142 112.772 99.4111 121.849 100.08 128.889C100.517 133.544 101.622 138.111 101.913 142.795C101.851 144.341 102.129 145.882 102.727 147.31C103.325 148.737 104.229 150.016 105.375 151.056C108.284 153.5 112.851 153.966 116.371 155.042C118.981 155.703 121.546 156.529 124.051 157.515C125.877 158.549 127.834 159.332 129.87 159.842C134.125 160.312 138.428 159.618 142.321 157.835C142.426 157.857 142.535 157.857 142.641 157.835C146.044 155.944 149.943 156.322 153.23 153.878C156.292 150.925 158.589 147.271 159.921 143.231C163.121 136.045 166.234 127.667 164.808 119.638C164.255 116.496 160.008 115.158 158.117 113.034C155.127 109.694 151.835 106.636 148.284 103.9C144.764 101.223 141.419 97.7614 137.084 96.4814C133.012 95.5787 128.761 95.9337 124.895 97.4996C121.11 99.2237 117.429 101.166 113.869 103.318C110.175 105.034 106.48 104.365 103.193 107.303ZM130.597 97.4414C136.415 96.7432 140.139 99.0705 144.444 102.532C147.528 105.005 150.757 107.245 153.608 109.951C155.795 112.599 158.284 114.981 161.026 117.049C164.983 119.376 163.557 124.787 163.295 128.685C162.55 133.505 161.027 138.172 158.786 142.504C157.445 146.612 155.059 150.301 151.863 153.209C149.345 154.54 146.62 155.435 143.804 155.856C143.69 155.828 143.57 155.828 143.455 155.856C139.047 158.086 134.073 158.947 129.171 158.329C127.299 157.736 125.503 156.925 123.819 155.915C122.315 155.331 120.769 154.864 119.193 154.518C115.064 153.543 111.026 152.219 107.12 150.562C102.786 148.38 103.455 143.115 102.989 139.1C102.146 131.216 100.08 123.158 100.604 115.187C100.836 113.048 101.702 111.027 103.092 109.384C104.481 107.74 106.33 106.55 108.4 105.965C110.088 105.5 111.804 105.412 113.491 104.86C115.224 104.156 116.881 103.279 118.437 102.241C122.117 99.8217 126.256 98.1876 130.597 97.4414V97.4414Z" fill="#E9F3F3"/>
<path d="M94.8723 111.201C94.3086 114.853 94.5369 118.584 95.5414 122.14C96.6221 127.74 97.1966 133.426 97.2578 139.129C97.2578 145.616 98.596 153.471 105.461 156.293C108.836 157.689 112.472 157.514 115.934 158.591C120.009 159.397 123.934 160.83 127.571 162.838C130.41 164.37 133.712 164.805 136.851 164.06C139.76 163.653 141.767 161.442 144.298 160.395C146.218 159.813 148.226 159.609 150.116 159.202C151.974 158.676 153.732 157.85 155.324 156.758C158.657 154.672 161.166 151.496 162.422 147.769C164.197 143.376 166.378 139.042 167.891 134.562C168.987 130.151 169.418 125.601 169.171 121.063C169.171 113.907 161.898 108.932 156.313 105.819C149.098 101.805 144.036 94.183 135.542 92.7576C126.262 91.1285 118.291 97.4121 109.592 98.7794C106.171 99.1207 102.934 100.49 100.306 102.708C97.6783 104.925 95.7839 107.886 94.8723 111.201V111.201ZM125.709 95.0558C128.479 94.1199 131.421 93.8042 134.327 94.1309C137.232 94.4577 140.031 95.419 142.524 96.9467C145.898 99.1285 148.546 102.299 151.775 104.714C155.004 107.129 159.338 108.903 162.742 111.812C164.642 113.314 166.109 115.292 166.993 117.546C167.877 119.801 168.147 122.249 167.775 124.641C167.6 127.143 167.629 129.645 167.222 132.118C166.627 134.609 165.739 137.022 164.575 139.303C162.567 143.754 161.317 149.107 158.117 152.889C156.331 154.737 154.182 156.193 151.804 157.165C149.869 157.912 147.844 158.401 145.782 158.62C145.685 158.605 145.587 158.605 145.491 158.62C144.791 158.744 144.107 158.949 143.455 159.231C143.455 159.231 143.455 159.231 143.455 159.231C140.545 160.453 138.305 162.635 134.727 162.867C129.724 163.216 126.785 159.667 122.218 158.678C117.651 157.689 113.316 156.584 108.72 155.769C106.288 155.223 104.079 153.952 102.386 152.124C100.692 150.295 99.5938 147.995 99.2359 145.529C98.6152 140.99 98.372 136.407 98.5087 131.827C98.2759 126.852 96.7923 122.081 96.1523 117.136C95.7825 114.955 95.9152 112.718 96.5403 110.595C97.1654 108.473 98.2665 106.521 99.7596 104.889C103.309 101.078 108.487 100.379 113.374 99.5067C115.115 99.0916 116.789 98.4356 118.349 97.5576C120.722 96.5251 123.186 95.7167 125.709 95.143L125.709 95.0558Z" fill="#E9F3F3"/>
<path d="M106.161 94.4161C102.446 95.2847 99.0187 97.0985 96.2114 99.6816C89.9568 105.063 90.1605 112.889 91.2659 120.395C91.9932 125.427 92.8077 130.431 93.1568 135.522C93.1882 140.681 93.6455 145.828 94.5241 150.911C97.2878 162.14 109.332 161.791 118.466 163.944C123.353 165.108 127.514 168.89 132.75 167.813C135.921 167.173 139.063 167.144 142.175 166.271C143.176 165.954 144.149 165.555 145.085 165.079L147.354 164.002C149.377 163.317 151.478 162.887 153.608 162.722C156.889 162.073 159.795 160.188 161.725 157.457C167.136 149.951 168.91 139.827 171.79 131.275C173.236 127.752 174.034 123.997 174.147 120.191C174.147 116.351 171.238 113.529 168.619 110.998C161.696 104.22 152.474 100.554 145.346 94.0961C138.219 87.6379 129.957 90.3142 121.317 92.3215C116.372 93.3688 111.222 93.3979 106.161 94.4161ZM137.812 91.2452C142.554 92.0597 146.103 96.5979 150.03 99.1871C152.037 100.496 154.016 101.863 155.848 103.26C158.321 105.034 161.143 106.169 163.528 108.118C167.281 111.027 172.256 115.1 172.867 120.075C173.39 124.584 170.947 129.267 169.696 133.456C168.183 138.547 166.525 143.522 164.634 148.497C162.743 153.471 160.561 158.708 155.179 160.86C153.58 161.329 151.928 161.593 150.263 161.646C150.158 161.616 150.047 161.616 149.943 161.646C149.697 161.687 149.454 161.745 149.216 161.82C149.051 161.806 148.886 161.806 148.721 161.82C146.306 162.46 144.125 164.031 141.739 164.729C139.895 165.24 138.004 165.561 136.095 165.689C133.561 166.212 130.968 166.388 128.386 166.213C125.95 165.332 123.57 164.302 121.259 163.13C116.316 161.779 111.306 160.691 106.248 159.871C103.76 159.472 101.442 158.358 99.577 156.663C97.712 154.969 96.3808 152.768 95.746 150.329C94.175 145.297 94.6987 139.217 94.3496 133.98C94.0005 129.209 93.186 124.526 92.4587 119.813C91.2678 114.887 91.6337 109.714 93.506 105.005C94.7927 102.765 96.5083 100.799 98.5549 99.222C100.601 97.6446 102.939 96.4861 105.433 95.8125C108.188 95.1538 111.009 94.8121 113.841 94.7943C116.065 94.5406 118.271 94.1421 120.444 93.6016C126.146 92.6125 132.052 90.2852 137.812 91.2452Z" fill="#E9F3F3"/>
<path d="M135.222 138.663C136.669 137.935 137.844 136.762 138.577 135.318C139.31 133.873 139.562 132.232 139.295 130.634C138.539 126.009 134.553 121.296 129.404 122.314C119.339 124.321 125.215 142.183 135.222 138.663ZM127.251 124.729C130.393 121.18 135.572 125.194 137.113 128.103C138.306 130.343 138.335 136.191 135.164 137.267C135.087 137.255 135.009 137.255 134.931 137.267C134.931 137.267 134.67 137.267 134.553 137.267C134.437 137.267 134.321 137.267 134.204 137.267C134.072 137.223 133.929 137.223 133.797 137.267C127.368 138.751 122.975 129.616 127.251 124.729Z" fill="#E9F3F3"/>
<path d="M134.612 134.184C135.121 133.802 135.531 133.303 135.804 132.729C135.991 132.302 136.087 131.842 136.087 131.376C136.087 130.911 135.991 130.45 135.804 130.024C135.426 129.11 134.801 128.319 134 127.739C133.199 127.158 132.253 126.811 131.266 126.736C128.677 126.736 127.95 130.024 128.706 131.973C128.936 132.648 129.317 133.262 129.822 133.766C130.326 134.27 130.94 134.652 131.615 134.882C132.134 135.021 132.678 135.03 133.201 134.909C133.724 134.787 134.208 134.538 134.612 134.184V134.184ZM131.15 133.02C130.722 132.725 130.368 132.335 130.116 131.881C129.864 131.427 129.72 130.921 129.695 130.402C129.634 130.09 129.653 129.768 129.752 129.465C129.85 129.163 130.025 128.891 130.258 128.675C130.491 128.46 130.776 128.307 131.085 128.233C131.394 128.158 131.716 128.164 132.023 128.249C132.563 128.449 133.058 128.756 133.477 129.15C133.897 129.545 134.233 130.02 134.466 130.547C134.639 130.936 134.692 131.368 134.62 131.787C134.547 132.207 134.352 132.595 134.059 132.904C133.975 132.922 133.896 132.958 133.826 133.008C133.756 133.057 133.697 133.121 133.652 133.194C133.526 133.206 133.399 133.206 133.274 133.194C133.177 133.178 133.079 133.178 132.983 133.194C132.367 133.303 131.734 133.242 131.15 133.02V133.02Z" fill="#E9F3F3"/>
<path d="M96.0074 90.8373C92.7752 92.4377 90.0717 94.9345 88.2199 98.0295C86.368 101.125 85.4459 104.687 85.5636 108.292C85.6698 112.168 86.2462 116.017 87.28 119.754C88.6024 125.336 89.1892 131.067 89.0255 136.801C88.8509 143.812 87.6 155.158 94.291 159.842C97.9145 161.841 101.848 163.217 105.927 163.914C109.622 164.991 113.171 166.445 116.778 167.667C116.846 167.682 116.915 167.682 116.982 167.667C120.201 168.931 123.506 169.962 126.873 170.751C131.675 171.223 136.523 170.888 141.215 169.762C149.39 167.9 157.739 166.329 163.877 160.162C166.197 157.542 167.845 154.397 168.677 150.998C169.866 146.41 171.422 141.925 173.332 137.587C176.735 130.75 181.186 123.041 178.423 115.303C176.241 109.136 169.695 105.208 164.226 102.241C161.082 100.65 158.04 98.8621 155.121 96.8882C151.542 94.2991 148.226 91.39 144.415 89.15C136.735 84.6408 129.869 87.3463 121.898 89.5864C113.462 92.1464 104.298 86.7936 96.0074 90.8373ZM128.473 89.179C130.975 88.2976 133.636 87.9586 136.279 88.1843C138.923 88.41 141.488 89.1953 143.804 90.4882C147.292 92.5984 150.6 94.9919 153.695 97.6446C156.849 99.8329 160.166 101.778 163.615 103.463C171.033 107.506 178.481 112.714 177.899 122.081C177.12 127.007 175.359 131.726 172.721 135.958C170.793 139.716 169.29 143.677 168.241 147.769C167.314 152.681 164.932 157.202 161.404 160.743C157.302 163.976 152.448 166.117 147.295 166.969C142.089 168.463 136.732 169.37 131.324 169.674C128.268 169.788 125.225 169.211 122.422 167.987C120.886 167.312 119.288 166.786 117.651 166.416C114.248 165.311 110.931 164.002 107.527 162.867C102.64 161.238 97.4037 161.092 93.5928 157.223C89.7819 153.354 90.4509 146.547 90.3637 141.805C90.6306 136.704 90.5334 131.59 90.0727 126.503C88.5891 117.281 84.4872 107.594 89.2582 98.6337C90.6419 96.2512 92.6103 94.261 94.9773 92.851C97.3443 91.441 100.032 90.6578 102.786 90.5755C107.615 90.2554 112.298 91.7973 117.098 91.8263C120.997 91.4925 124.828 90.601 128.473 89.179V89.179Z" fill="#E9F3F3"/>
<path d="M85.7379 90.488C79.3378 98.8081 81.3161 111.87 83.3524 121.296C85.1677 127.687 85.9822 134.321 85.767 140.961C85.3306 145.994 84.5161 151.55 86.7852 156.263C90.4798 164.001 99.3526 167.609 107.149 169.151C109.939 169.575 112.698 170.178 115.411 170.954C118.32 171.856 120.851 173.311 123.673 174.212C128.426 175.488 133.418 175.587 138.218 174.503C138.218 174.503 138.218 174.503 138.364 174.503C142.728 173.514 147.091 174.009 151.426 172.816C155.67 171.482 159.619 169.349 163.062 166.532C166.107 164.483 168.587 161.703 170.277 158.445C170.9 156.712 171.339 154.918 171.586 153.092C172.254 150.26 173.229 147.509 174.495 144.889C177.753 137.296 184.328 131.768 184.677 123.07C184.839 119.894 184.256 116.724 182.972 113.814C181.689 110.905 179.742 108.336 177.288 106.314C173.454 104.074 169.502 102.044 165.448 100.234C160.681 97.5683 156.214 94.3986 152.124 90.7789C146.306 85.7752 139.848 82.6334 131.993 84.2625C129.666 84.7571 127.484 85.7753 125.215 86.4735C122.611 87.2399 119.894 87.5451 117.185 87.3753C111.891 87.2298 107.091 84.9607 101.913 84.2043C98.9014 83.7202 95.8156 84.0472 92.9727 85.1516C90.1298 86.256 87.6325 88.0981 85.7379 90.488V90.488ZM107.934 87.0262C112.158 88.3395 116.578 88.9104 120.996 88.7135C126.058 88.4226 130.48 85.8043 135.542 85.1352C145.637 84.0298 152.328 93.4553 159.891 98.4299C163.99 100.967 168.246 103.241 172.633 105.237C174.773 106.079 176.718 107.35 178.349 108.971C179.979 110.591 181.262 112.528 182.117 114.663C183.32 117.576 183.813 120.733 183.555 123.875C183.297 127.016 182.296 130.051 180.633 132.728C178.975 135.638 176.793 138.052 175.193 140.961C173.506 144.045 172.132 147.291 171.091 150.649C169.957 154.372 170.073 157.834 167.397 160.976C165.046 163.626 162.322 165.92 159.31 167.783C156.219 169.759 152.815 171.195 149.244 172.031C146.945 172.278 144.631 172.366 142.32 172.292C141.054 172.435 139.807 172.708 138.597 173.107C133.848 174.091 128.94 174.012 124.226 172.874C119.338 171.594 115.178 169.122 110.116 168.22C101.971 166.823 92.6616 164.089 88.4143 156.35C86.0579 152.103 86.6688 146.838 87.0761 142.212C87.6219 137.13 87.3469 131.993 86.2616 126.997C83.847 116.554 81.1997 106.081 84.7488 95.5499C88.2979 85.0189 98.7707 84.3498 107.934 87.0262Z" fill="#E9F3F3"/>
<path d="M78.8731 91.0996C75.964 101.398 78.2913 113.034 80.2404 123.304C81.2004 128.394 82.5386 133.224 81.2586 138.402C79.9986 142.674 79.6127 147.156 80.124 151.58C80.6352 155.131 81.9086 158.53 83.8569 161.543C85.8053 164.556 88.3824 167.112 91.4114 169.035C99.3824 174.097 109.244 172.351 117.593 175.959C120.898 177.61 124.442 178.729 128.095 179.275C132.275 179.566 136.474 179.361 140.605 178.664C148.505 177.946 156.242 175.982 163.528 172.846C170.219 169.762 172.809 162.897 175.398 156.555C177.259 151.987 178.307 147.042 180.75 142.707C183.194 138.373 186.569 136.104 188.46 132.002C191.064 125.748 191.323 118.765 189.187 112.336C186.947 105.645 179.383 101.892 173.419 99.1287C169.841 97.4415 166.147 95.9869 162.627 94.2123C158.695 92.002 155.018 89.3682 151.659 86.3577C145.637 81.4995 139.266 79.0849 131.645 81.2958C127.661 82.9054 123.543 84.1611 119.339 85.0486C114.335 85.6304 109.535 83.0995 105.113 81.2086C94.146 76.2922 82.4513 78.8813 78.8731 91.0996ZM106.277 83.0413C109.402 84.6313 112.76 85.7115 116.226 86.2413C120.354 86.3372 124.451 85.502 128.212 83.7977C131.247 82.4881 134.484 81.7106 137.783 81.4995C141.696 81.6918 145.45 83.106 148.517 85.5431C153.696 89.0922 157.914 93.2814 163.645 96.0742C169.483 98.4866 175.158 101.275 180.634 104.423C183.444 106.183 185.72 108.676 187.217 111.634C188.714 114.592 189.375 117.903 189.129 121.209C189.245 124.559 188.622 127.893 187.305 130.975C185.988 134.057 184.008 136.811 181.507 139.042C177.376 144.016 176.096 151.027 173.71 156.904C170.947 163.624 168.154 169.413 160.968 172.264C155.205 174.491 149.2 176.034 143.077 176.86C138.86 177.504 134.602 177.844 130.335 177.879C125.44 177.473 120.673 176.099 116.313 173.835C111.944 172.648 107.474 171.869 102.961 171.508C97.9661 170.758 93.2425 168.756 89.2296 165.689C81.0259 158.94 80.2986 148.467 82.5968 138.838C84.2841 131.827 81.8404 124.758 80.6476 117.863C78.844 107.536 76.284 92.3214 84.3714 83.9431C90.306 77.7176 99.4697 80.0449 106.277 83.0413Z" fill="#E9F3F3"/>
<path d="M73.7529 103.696C74.3347 112.103 77.5057 120.394 77.1857 128.889C76.8657 137.384 73.6074 144.482 75.3238 152.86C76.6713 159.103 79.876 164.792 84.5166 169.18C90.0149 174.504 97.1422 176.395 104.502 177.529C108.883 178.055 113.206 178.98 117.419 180.293C121.037 181.934 124.918 182.92 128.881 183.202C130.522 183.068 132.148 182.785 133.739 182.359C136.545 181.879 139.387 181.646 142.234 181.66C145.143 181.515 148.052 181.253 150.961 180.875C151.281 180.875 151.572 180.875 151.863 180.875C152.095 180.861 152.328 180.861 152.561 180.875L154.161 180.613C154.218 180.626 154.278 180.626 154.335 180.613C160.72 179.691 166.648 176.768 171.267 172.264C173.812 169.405 175.69 166.017 176.765 162.344C178.566 157.049 181.071 152.019 184.212 147.391C186.743 143.638 190.03 140.758 192.765 137.093C194.845 133.563 195.968 129.552 196.023 125.456C196.683 118.018 194.5 110.607 189.914 104.714C184.474 97.7614 175.019 95.6959 167.485 91.8267C162.963 89.507 158.709 86.6974 154.801 83.4485C151.586 80.6778 147.74 78.7397 143.601 77.8048C139.866 77.078 136.011 77.2778 132.372 78.3866C126.553 79.8994 122.044 83.5067 115.79 82.4594C111.143 81.1685 106.625 79.4547 102.291 77.3393C97.8339 75.5259 92.9937 74.8558 88.2112 75.3902C75.062 76.583 73.0256 92.9322 73.7529 103.696ZM120.299 83.3321C124.662 82.9539 128.677 80.423 132.779 79.0266C138.25 77.3837 144.146 77.9367 149.215 80.5685C151.564 81.9556 153.775 83.5628 155.819 85.3685C158.335 87.2864 160.968 89.045 163.703 90.634C169.195 93.6416 174.869 96.3038 180.692 98.605C192.125 103.521 195.907 116.554 194.307 127.958C193.405 134.62 189.39 138.256 185.259 143.115C181.521 147.642 178.571 152.765 176.532 158.271C175.556 161.427 174.33 164.501 172.867 167.464C171.106 170.276 168.741 172.661 165.943 174.446C162.11 176.811 157.815 178.329 153.346 178.897C148.374 179.715 143.345 180.143 138.306 180.177C136.224 180.259 134.157 180.561 132.139 181.079C128.781 181.816 125.282 181.595 122.044 180.438C117.616 178.797 113.063 177.513 108.43 176.598C103.005 176.073 97.6732 174.831 92.5749 172.904C88.5219 170.934 84.9746 168.061 82.2058 164.505C79.4371 160.95 77.5206 156.807 76.6038 152.395C74.3056 142.707 79.7166 133.514 78.3202 123.856C76.8657 113.645 74.0147 103.754 75.4111 93.3395C75.84 89.6643 76.903 86.0913 78.553 82.7794C81.2294 77.6884 86.2621 75.943 91.7603 75.8266C102 75.7975 110.291 84.3503 120.357 83.4485L120.299 83.3321Z" fill="#E9F3F3"/>
<path d="M73.4906 79.4628C70.1471 84.8237 68.5042 91.0709 68.7778 97.383C68.8856 100.604 69.3938 103.8 70.2905 106.896C71.8515 112.353 72.8267 117.96 73.1997 123.623C73.2933 128.824 72.6667 134.013 71.3378 139.042C70.3007 143.994 70.0163 149.074 70.4942 154.111C71.0188 157.77 72.2822 161.284 74.2076 164.44C76.133 167.596 78.6802 170.327 81.6943 172.467C88.6754 177.679 96.961 180.861 105.636 181.66C108.286 181.845 110.915 182.263 113.491 182.911C115.673 183.551 117.767 184.598 119.891 185.442C124.458 187.275 129.549 185.442 134.233 185.442C135.978 185.442 137.695 185.442 139.44 185.442C139.789 185.442 140.168 185.442 140.517 185.442C140.866 185.442 142 185.442 142.728 185.442C149.477 185.646 156.662 185.82 162.8 182.94C170.684 179.217 176.59 171.536 180.459 163.973C182.654 159.73 185.235 155.699 188.168 151.929C191.077 148.06 193.259 143.667 196.255 139.798C200.084 134.993 202.212 129.055 202.307 122.913C202.402 116.77 200.458 110.769 196.779 105.849C194.679 102.215 191.785 99.102 188.313 96.743C184.764 94.5903 180.808 93.3102 177.259 91.0993C172.604 88.1902 168.066 85.0193 163.237 82.372C159.421 80.2011 155.721 77.8317 152.153 75.2737C148.583 73.0857 144.388 72.1443 140.226 72.5973C136.457 72.6954 132.767 73.6928 129.462 75.5064C124.113 78.1238 117.976 78.6326 112.269 76.9319C103.862 75.0701 96.7053 68.2046 87.8034 69.8919C84.884 70.4063 82.1037 71.5229 79.6395 73.1707C77.1753 74.8186 75.0812 76.9614 73.4906 79.4628V79.4628ZM105.025 76.1464C113.084 79.3465 122.218 81.121 130.16 76.8155C133.668 74.7571 137.69 73.7405 141.755 73.8848C145.82 74.0291 149.76 75.3282 153.113 77.6301C156.115 79.7877 159.265 81.7319 162.539 83.4484C166.262 85.4557 169.637 87.9575 173.273 90.1393C176.435 92.2313 179.74 94.0978 183.164 95.7248C186.593 96.98 189.667 99.046 192.124 101.747C195.044 104.75 197.323 108.315 198.823 112.226C200.323 116.136 201.013 120.311 200.852 124.496C200.543 128.618 199.257 132.607 197.099 136.132C194.887 139.079 192.829 142.138 190.932 145.296C188.991 148.585 186.782 151.709 184.328 154.634C182.135 158.09 180.191 161.696 178.51 165.427C174.776 172.963 168.502 178.939 160.793 182.3C154.189 184.715 146.713 184.017 139.818 183.9C136.306 183.692 132.783 183.789 129.287 184.191C126.395 184.804 123.395 184.684 120.56 183.842C118.058 182.998 115.673 181.747 113.113 180.933C108.691 179.624 103.774 179.798 99.2362 178.867C94.1931 177.742 89.4132 175.658 85.1561 172.729C80.8633 170.129 77.3753 166.391 75.0797 161.928C72.7841 157.465 71.7708 152.453 72.1524 147.449C72.676 137.5 75.847 128.365 74.4506 118.358C73.2869 109.834 69.9123 101.776 70.6396 93.0484C70.8368 89.3739 71.8284 85.7857 73.546 82.5313C75.2636 79.2769 77.6664 76.4336 80.5888 74.1973C83.6481 72.137 87.2293 70.987 90.9162 70.881C95.8326 70.8228 100.313 74.2846 105.025 76.1464V76.1464Z" fill="#E9F3F3"/>
<path d="M71.0183 70.2121C66.5699 76.7181 64.2429 84.4408 64.3565 92.3213C64.3274 96.6618 64.6191 100.999 65.2292 105.296C66.2467 109.876 67.5289 114.392 69.0692 118.823C71.6874 129.384 64.531 138.722 63.5419 148.904C62.7565 157.253 67.8474 165.282 73.2293 171.188C79.0331 177.345 86.5364 181.639 94.7858 183.522C99.2949 184.599 103.95 184.599 108.401 185.937C112.851 187.275 115.557 191.435 119.804 193.093C125.942 195.537 131.441 191.522 137.55 191.057C140.924 190.795 144.299 190.824 147.703 190.882L148.11 190.882C150.815 190.882 153.492 190.882 156.168 190.882C156.245 190.895 156.324 190.895 156.401 190.882C157.012 190.882 157.652 190.882 158.263 190.882C162.219 190.269 165.925 188.567 168.968 185.966C176.416 180.148 181.739 171.217 187.121 163.478C192.939 155.246 200.358 147.973 205.274 139.216C209.754 131.274 209.114 122.634 206.525 114.227C205.678 110.253 204.131 106.461 201.958 103.027C199.009 99.919 195.776 97.0944 192.299 94.5905C189.366 91.9206 186.002 89.7665 182.35 88.2195C177.74 86.1619 173.337 83.6681 169.201 80.7721C161.608 76.1176 154.655 70.503 145.492 69.1357C135.921 67.7975 126.699 73.0048 117.128 72.6557C111.804 72.4812 107.12 69.3684 102.582 67.0993C98.608 65.2149 94.4017 63.865 90.0731 63.0847C86.5479 62.2925 82.8683 62.5446 79.4842 63.8104C76.1001 65.0762 73.1582 67.3008 71.0183 70.2121V70.2121ZM108.139 71.5794C115.79 75.303 123.324 74.1394 131.412 72.2775C136.314 70.8253 141.445 70.3023 146.539 70.7357C151.133 71.6317 155.504 73.4314 159.397 76.0303C162.859 78.0958 166.176 80.4231 169.608 82.5467C172.917 84.9079 176.399 87.0181 180.023 88.8595C182.433 89.7251 184.768 90.7856 187.005 92.0305C189.137 93.4814 191.168 95.0754 193.085 96.8014C196.227 99.5069 199.98 101.66 202.016 105.383C204.131 109.744 205.675 114.359 206.612 119.114C207.829 124.126 207.608 129.38 205.972 134.271C203.063 143.26 195.063 150.213 189.507 157.544C183.95 164.875 178.598 173.602 172.052 180.962C168.686 184.893 164.216 187.721 159.223 189.079C158.267 189.298 157.293 189.434 156.314 189.486C156.219 189.455 156.117 189.455 156.023 189.486C154.714 189.486 153.375 189.486 152.066 189.486C150.757 189.486 149.157 189.486 147.645 189.486C141.434 189.153 135.212 189.851 129.23 191.551C123.237 193.559 119.397 191.697 114.684 188.031C111.245 185.384 107.133 183.752 102.815 183.319C92.8367 181.893 84.1675 179.275 76.4584 172.468C68.7492 165.66 62.9019 155.013 65.6656 144.511C68.0801 135.289 72.4438 127.056 70.0583 117.282C68.4384 112.611 67.1647 107.827 66.2474 102.969C65.7148 98.4415 65.5591 93.8779 65.7819 89.325C66.3637 79.9285 70.3783 68.583 79.8911 64.9757C89.404 61.3684 100.08 67.5648 108.139 71.5794Z" fill="#E9F3F3"/>
<path d="M60.8647 79.4918C58.5802 88.7661 58.9024 98.4911 61.7956 107.594C63.397 112.307 64.4608 117.187 64.9666 122.139C65.1993 127.579 62.5811 132.845 60.9229 137.878C58.084 146.154 58.3529 155.181 61.6793 163.274C64.7314 170.767 70.3237 176.947 77.4758 180.729C81.1542 182.587 84.9898 184.115 88.9377 185.296C93.6505 186.838 98.3342 188.555 103.163 189.689C105.763 190.142 108.282 190.976 110.64 192.162C112.387 193.272 114.058 194.496 115.643 195.827C118.821 198.353 122.866 199.524 126.902 199.086C131.299 198.294 135.643 197.225 139.905 195.886C142.653 195.328 145.452 195.065 148.255 195.1C148.349 195.133 148.451 195.133 148.546 195.1C152.415 195.1 156.371 196.206 160.182 194.635C164.312 192.66 168.173 190.167 171.673 187.216C179.208 181.398 184.822 173.049 191.571 166.329C198.46 159.852 204.273 152.32 208.793 144.016C210.805 140.24 212.19 136.163 212.895 131.943C213.313 126.961 213.41 121.956 213.186 116.961C213.23 112.777 212.33 108.637 210.552 104.849C208.774 101.061 206.164 97.7237 202.917 95.0847C199.833 92.6266 196.566 90.4091 193.142 88.4518C188.982 85.8918 185.259 82.8082 181.215 80.1027C172.866 74.4881 163.266 71.3754 153.986 67.7681C149.51 65.901 144.652 65.1329 139.818 65.528C134.465 65.9935 129.316 67.3608 123.905 67.4189C106.945 67.5935 88.9959 49.3533 72.3848 60.6407C66.1302 65.0044 62.8138 72.5681 60.8647 79.4918ZM94.0287 60.3207C98.5669 61.7752 103.134 63.3753 107.643 64.9753C112.036 66.9103 116.677 68.2224 121.433 68.8735C125.892 69.0829 130.36 68.7212 134.727 67.7971C140.993 66.483 147.503 66.9877 153.491 69.2517C163.674 72.519 173.393 77.0852 182.408 82.8373C186.044 85.3682 189.448 88.0155 193.23 90.3428C197.474 92.7297 201.386 95.664 204.866 99.0701C208.527 102.939 210.869 107.868 211.557 113.15C211.746 115.726 211.746 118.313 211.557 120.889C211.557 123.798 211.732 126.707 211.557 129.616C211.237 139.885 204.313 150.445 197.739 157.922C194.655 161.413 191.251 164.613 187.964 167.929C184.677 171.245 181.215 175.434 177.869 179.187C174.637 182.799 171.028 186.056 167.106 188.904C165.247 190.275 163.303 191.528 161.287 192.656C159.201 193.78 156.847 194.313 154.48 194.198C154.48 194.198 154.48 194.198 154.48 194.198C153.113 194.198 151.746 193.995 150.407 193.966C149.796 193.966 149.215 193.966 148.604 193.966C146.377 193.995 144.153 194.141 141.942 194.402C137.584 195.219 133.272 196.268 129.025 197.544C126.511 198.065 123.907 197.973 121.436 197.274C118.964 196.575 116.698 195.291 114.829 193.529C111.173 190.831 106.941 189.019 102.465 188.235C98.0432 187.187 93.7378 185.529 89.4323 184.133C84.588 182.686 79.9305 180.674 75.5558 178.14C71.3436 175.306 67.8107 171.574 65.2105 167.214C62.6102 162.853 61.0069 157.971 60.5156 152.918C59.2938 142.736 65.2866 134.387 66.3339 124.641C66.5553 120.287 65.933 115.93 64.5011 111.812C62.8189 106.499 61.6117 101.047 60.8938 95.521C59.8923 85.3606 62.5316 75.1746 68.3412 66.7789C74.4503 58.1098 84.574 57.2661 94.0287 60.3207Z" fill="#E9F3F3"/>
<path d="M54.3484 87.0552C54.3484 97.6153 58.7994 107.186 60.1666 117.485C61.5339 127.783 53.5048 136.597 52.923 147.012C52.3007 155.245 54.2394 163.469 58.4735 170.557C62.7076 177.645 69.0299 183.251 76.5741 186.605C80.6675 188.34 84.8764 189.788 89.1706 190.94C94.0325 191.838 98.7895 193.232 103.367 195.1C107.614 197.282 111.804 199.783 115.818 202.373C118.852 204.857 122.539 206.413 126.436 206.853C129.743 206.417 132.875 205.112 135.513 203.071C139.895 200.564 144.811 199.138 149.855 198.911C153.957 198.62 157.971 199.26 162.044 198.591C165.116 197.96 167.996 196.615 170.451 194.663C173.777 192.548 176.726 189.894 179.179 186.809C181.886 182.757 185.048 179.028 188.604 175.696C191.706 173.017 194.436 169.935 196.721 166.532C199.368 162.692 202.539 159.201 205.186 155.449C207.833 151.696 209.899 147.856 212.401 144.19C214.928 140.681 217.083 136.917 218.83 132.961C221.491 125.419 221.419 117.182 218.626 109.688C215.896 102.063 211.248 95.2698 205.128 89.9643C202.122 87.2514 198.824 84.8805 195.295 82.8951C191.397 80.626 187.79 77.8333 184.124 75.2151C176.685 70.0349 168.32 66.3315 159.484 64.3059C154.977 63.3227 150.409 62.6423 145.811 62.2695C141.55 62.3132 137.307 62.8205 133.156 63.7822C124.501 64.416 115.808 63.2675 107.614 60.4076C98.3343 57.324 90.5088 52.4076 80.3559 53.513C63.3085 55.2003 54.5811 71.2005 54.3484 87.0552ZM100.516 59.0404C110.243 63.3402 120.81 65.4077 131.44 65.0913C131.491 65.1129 131.545 65.1241 131.6 65.1241C131.655 65.1241 131.709 65.1129 131.76 65.0913C132.284 65.0913 132.807 65.0913 133.302 64.9168C135.491 64.7231 137.667 64.4025 139.818 63.9568C139.941 63.9344 140.053 63.8732 140.138 63.7822C141.186 63.6077 142.204 63.4331 143.222 63.3168C145.345 63.356 147.459 63.5996 149.535 64.044C152.345 64.2791 155.141 64.6578 157.913 65.1786C166.701 66.9621 175.041 70.494 182.437 75.5642C196.168 84.9024 211.528 93.2225 217.346 109.834C220.342 117.828 220.112 126.674 216.706 134.503C214.76 138.254 212.533 141.852 210.044 145.267C207.869 149.113 205.419 152.798 202.713 156.292C197.477 162.372 193.812 169.47 187.644 174.707C184.798 177.192 182.276 180.027 180.139 183.143C177.656 186.801 174.567 190.009 171.004 192.627C170.927 192.617 170.849 192.617 170.771 192.627C167.218 195.64 162.745 197.354 158.088 197.485C153.372 197.359 148.654 197.612 143.978 198.242C140.156 199.108 136.513 200.634 133.215 202.751C131.211 204.114 128.922 204.999 126.524 205.34C123.548 205.228 120.694 204.133 118.407 202.227C114.48 199.696 110.436 197.34 106.363 195.013C102.173 192.731 97.646 191.13 92.9524 190.271C83.4396 188.176 73.3159 184.918 66.1885 178.082C59.2637 171.529 55.1015 162.581 54.552 153.063C54.1069 147.808 54.7607 142.517 56.4721 137.528C58.1594 132.816 61.2139 128.394 61.6794 123.303C62.5812 113.383 57.8975 103.899 56.3848 94.2116C54.6108 83.7768 56.9689 73.0612 62.9594 64.335C66.6527 59.3886 72.0945 56.0382 78.1741 54.9676C86.3487 53.2512 93.156 55.9276 100.516 59.0404Z" fill="#E9F3F3"/>
<path d="M49.9559 77.3101C48.3506 85.0282 48.6804 93.0235 50.9159 100.583C52.4175 104.826 53.6514 109.16 54.6104 113.558C55.2669 119.272 54.6204 125.06 52.7195 130.489C50.1013 139.594 47.9195 147.769 49.2286 157.34C50.305 165.253 53.3595 175.231 59.5851 180.613C62.749 182.963 66.052 185.12 69.476 187.071C73.2376 189.752 77.4146 191.797 81.8398 193.122C85.135 193.856 88.3726 194.829 91.5272 196.031C94.3913 197.371 97.1699 198.887 99.8472 200.569C104.938 203.479 109.127 207.784 114.829 209.646C119.942 210.91 125.325 210.502 130.189 208.482C134.908 206.801 139.78 205.583 144.735 204.846C148.213 204.472 151.711 204.316 155.208 204.38C159.336 204.682 163.478 204.025 167.31 202.46C170.621 200.785 173.645 198.596 176.27 195.973C179.79 192.802 183.426 189.718 186.917 186.518C194.28 180.156 200.749 172.826 206.146 164.729C208.619 160.685 210.568 156.38 212.954 152.307C215.749 147.711 218.246 142.94 220.43 138.023C224.154 129.296 225.899 120.19 222.554 110.998C219.396 102.672 214.542 95.0929 208.299 88.7429C204.895 85.1938 200.503 82.9247 196.983 79.6083C193.692 76.2567 189.928 73.4046 185.812 71.1428C181.884 69.1187 177.821 67.369 173.652 65.9063C168.561 64.0736 163.528 62.299 158.466 60.4081C153.138 58.3822 147.402 57.6639 141.739 58.3136C138.597 58.6918 135.484 59.3027 132.313 59.5354C128.666 59.6433 125.032 59.0508 121.607 57.7899C114.829 55.7535 108.313 52.1463 101.535 49.9353C101.069 49.7608 100.633 49.6153 100.167 49.4699C99.12 49.1499 98.0727 48.888 97.0254 48.6553C96.9192 48.6406 96.8115 48.6406 96.7054 48.6553C90.6703 47.6947 84.5302 47.5869 78.4652 48.3353C71.1 49.3203 64.2569 52.6805 58.9741 57.9063C53.5632 62.7936 51.265 70.241 49.9559 77.3101ZM90.2471 49.4989C93.1811 49.5247 96.105 49.8463 98.9745 50.4589C103.687 51.8553 108.225 54.2408 112.764 56.0154C117.458 57.9991 122.328 59.538 127.309 60.6118C131.788 61.0343 136.305 60.7397 140.691 59.739C151.979 58.0517 161.579 63.4336 172.052 66.7209C176.906 68.3146 181.609 70.3396 186.103 72.7719C188.476 73.9857 190.702 75.4695 192.735 77.1937C194.539 78.7938 195.994 80.7138 197.943 82.1974C202.139 85.0901 206.037 88.3938 209.579 92.0593C213.084 96.102 216.083 100.557 218.51 105.325C221.182 110.06 222.735 115.344 223.048 120.772C222.857 126.895 221.36 132.905 218.656 138.402C216.639 142.919 214.316 147.293 211.703 151.493C209.114 155.885 206.961 160.54 204.314 164.904C201.441 169.09 198.167 172.988 194.539 176.54C190.936 180.488 187.129 184.246 183.135 187.798C177.928 192.395 172.837 197.951 166.553 201.064C162.551 202.669 158.211 203.249 153.928 202.751C151.704 202.722 149.48 202.809 147.266 203.013C147.189 202.999 147.11 202.999 147.033 203.013C143.95 203.181 140.885 203.599 137.869 204.264C132.808 206.115 127.628 207.621 122.364 208.773C112.473 209.995 105.287 201.849 97.3163 197.428C93.5863 195.253 89.5856 193.581 85.418 192.453C80.2484 191.301 75.3237 189.243 70.8724 186.373C66.9568 184.099 63.1871 181.582 59.5851 178.838C55.5123 175.347 53.7668 169.5 52.1377 164.555C49.1437 154.575 49.3779 143.905 52.8068 134.067C55.5414 124.961 57.0832 116.874 54.4359 107.565C53.2141 103.23 51.5268 99.0703 50.5959 94.6485C49.8686 90.2175 49.8686 85.6975 50.5959 81.2665C51.5559 72.5392 54.1159 63.9573 60.6323 57.9936C65.7847 53.1868 72.36 50.185 79.3671 49.4408C82.9907 49.2061 86.6262 49.2255 90.2471 49.4989V49.4989Z" fill="#E9F3F3"/>
<path d="M54.4938 50.8947C48.9726 58.0304 45.1161 66.3099 43.2064 75.1277C40.0355 91.826 51.2647 106.604 50.5665 122.954C49.7188 127.79 48.3231 132.513 46.4064 137.034C45.2251 141.296 44.6474 145.702 44.6901 150.125C44.459 159.43 46.4537 168.656 50.5083 177.034C53.544 183.644 58.3971 189.254 64.5011 193.209C67.8458 195.121 71.4526 196.532 75.2067 197.398C80.267 198.771 85.2326 200.472 90.0723 202.489C94.4955 204.341 98.6454 206.788 102.407 209.762C105.358 212.282 108.738 214.253 112.385 215.58C121.258 218.489 129.52 214.94 137.753 211.885C142.077 210.269 146.549 209.08 151.106 208.336C156.487 207.493 161.782 208.336 167.164 207.958C172.87 207.329 178.198 204.798 182.291 200.772C183.773 199.416 185.127 197.926 186.335 196.322C188.951 193.193 191.739 190.211 194.684 187.391C196.963 184.88 198.989 182.151 200.735 179.245C203.208 175.434 206.553 172.176 209.201 168.539C218.423 156.234 227.615 142.008 229.564 126.474C230.395 119.61 229.659 112.648 227.412 106.11C224.723 99.1134 220.417 92.8529 214.844 87.8405C208.822 82.0223 201.957 76.9604 195.528 71.4913C191.083 67.6695 186.029 64.621 180.575 62.473C180.472 62.3564 180.342 62.2665 180.197 62.2112C179.644 62.0367 179.062 61.8621 178.509 61.7167C177.957 61.5712 176.56 61.0476 175.6 60.7567C175.478 60.7122 175.344 60.7122 175.222 60.7567C167.338 58.5748 159.309 56.9457 151.309 55.2293C146.695 54.3082 141.991 53.9081 137.287 54.0366C132.166 54.5159 127 54.1125 122.014 52.8438C117.622 51.3893 113.287 49.3238 108.982 47.782C104.134 46.0333 99.2015 44.5284 94.2032 43.2728C86.5536 41.0637 78.4915 40.6851 70.6685 42.1674C64.4519 43.1835 58.7562 46.2568 54.4938 50.8947V50.8947ZM99.9342 46.1819C104.443 47.491 108.865 49.0911 113.287 50.7202C117.005 52.3502 120.812 53.7683 124.691 54.9675C128.821 55.5928 133.012 55.71 137.171 55.3166C142.183 55.1983 147.192 55.667 152.095 56.713C160.153 58.4294 168.24 60.0876 176.124 62.3567C176.221 62.4733 176.354 62.555 176.502 62.5894C177.25 62.7387 177.988 62.9331 178.713 63.1712C184.827 65.4615 190.475 68.8424 195.382 73.1495C201.201 78.095 207.339 82.6623 212.837 87.8696C218.598 92.9073 223.084 99.2377 225.928 106.343C228.146 112.807 228.862 119.691 228.023 126.474C226.423 141.368 217.026 154.983 208.502 166.852C206.35 169.761 203.819 172.67 201.55 175.58C199.281 178.489 196.924 182.474 194.248 185.674C191.571 188.874 188.924 190.62 186.626 193.5L184.531 196.205C184.393 196.243 184.271 196.325 184.182 196.438C183.401 197.477 182.535 198.45 181.593 199.347C181.045 199.862 180.462 200.338 179.848 200.772C179.709 200.86 179.606 200.994 179.557 201.151C174.361 205.089 167.905 206.992 161.404 206.503C153.137 206.174 144.89 207.54 137.171 210.518C128.444 213.66 120.822 216.976 111.542 213.893C107.457 212.057 103.68 209.604 100.341 206.62C96.9511 204.301 93.3233 202.351 89.5196 200.802C82.1304 197.689 73.8685 196.554 66.7121 192.947C59.9746 189.191 54.6361 183.353 51.4974 176.307C47.4306 167.757 45.5513 158.33 46.0283 148.874C46.0975 144.221 46.8925 139.608 48.3846 135.201C49.9761 131.41 51.1185 127.446 51.7883 123.39L51.7883 123.215L51.7883 122.575C52.312 107.564 43.061 94.0661 43.9919 78.9386C44.4573 69.8622 49.2865 60.873 54.232 53.4257C58.5084 47.0256 66.2466 44.2038 73.5194 42.8947C82.3922 41.3819 91.6141 43.7383 99.9342 46.1819Z" fill="#E9F3F3"/>
<path d="M51.5855 47.2008C46.3781 54.5318 39.949 61.4555 38.5817 70.7065C37.7115 79.8862 38.7009 89.1472 41.4908 97.9358C42.9 102.496 44.0653 107.128 44.9817 111.812C45.7342 117.648 45.0963 123.579 43.1199 129.122C41.5196 133.169 40.2262 137.331 39.2508 141.573C38.8437 146.617 38.8437 151.685 39.2508 156.729C39.5742 166.001 42.7206 174.952 48.2691 182.388C50.9996 186.774 54.4065 190.701 58.3637 194.024C62.7683 197.495 67.6722 200.281 72.9093 202.286C72.9763 202.301 73.0459 202.301 73.1129 202.286C80.3593 204.748 87.3223 207.976 93.884 211.915C99.9932 215.406 105.811 219.333 112.735 221.021C119.081 222.245 125.648 221.536 131.586 218.984C138.14 216.181 144.963 214.056 151.95 212.642C160.037 211.362 168.299 213.457 176.416 212.293C180.303 211.656 184.018 210.227 187.331 208.096C190.644 205.964 193.483 203.174 195.674 199.9C201.26 192.453 203.907 183.348 209.696 176.075C215.503 168.274 220.808 160.112 225.58 151.638C228.169 147.42 230.38 142.911 232.736 138.663C235.32 134.989 237.222 130.88 238.351 126.532C239.636 118.363 238.524 109.996 235.151 102.445C228.431 86.503 215.107 73.9938 200.416 65.441C187.48 58.2205 173.349 53.3917 158.699 51.1863C151.048 49.9063 143.426 49.2954 135.688 48.6554C127.95 48.0153 121.579 44.408 114.335 42.6335L114.19 42.6335C109.792 41.3544 105.311 40.3824 100.779 39.7243C90.5967 38.2116 81.113 35.128 70.6984 35.9716C66.767 36.2181 62.9177 37.2051 59.3528 38.8807C56.134 40.9911 53.47 43.8447 51.5855 47.2008V47.2008ZM89.2585 39.1135C99.3577 40.6896 109.339 42.9444 119.135 45.8626L122.044 46.8226C122.772 47.1135 123.47 47.3753 124.197 47.6081C125.564 48.0735 126.932 48.4808 128.27 48.8299C128.648 48.8299 128.997 49.0626 129.346 49.1499C129.459 49.1923 129.583 49.1923 129.695 49.1499C132.562 49.8324 135.482 50.2704 138.423 50.459C149.039 51.0821 159.581 52.6298 169.928 55.0845C188.07 59.1641 204.798 68.0001 218.394 80.6847C225.078 87.1627 230.469 94.8536 234.278 103.347C238.351 112.452 239.864 124.612 234.743 133.543C229.623 142.474 224.678 150.998 219.471 159.725C216.955 164.245 214.167 168.607 211.121 172.787C208.237 176.193 205.712 179.888 203.587 183.813C198.554 193.704 193.376 205.428 182.292 209.82C172.925 213.544 162.539 210.228 152.794 211.45L151.805 211.624C145.614 212.759 139.573 214.594 133.797 217.093C127.194 220.261 119.739 221.19 112.561 219.741C105.462 218.024 99.2077 213.37 92.924 209.82C87.2891 206.532 81.3455 203.804 75.1784 201.675V201.675C65.5427 198.398 57.2121 192.117 51.4109 183.755C48.6738 180.032 46.2786 176.069 44.2545 171.915C42.0956 166.358 41.1053 160.416 41.3454 154.46C40.792 149.614 40.9586 144.712 41.8399 139.914C43.2654 134.94 45.2145 130.14 46.4363 125.107C48.7345 115.652 46.1163 106.925 43.5272 97.8486C41.9651 92.8785 40.9888 87.7431 40.6181 82.5466C39.9504 77.3408 40.2363 72.057 41.4617 66.9537C43.3299 61.9723 46.0683 57.3625 49.5491 53.339C52.0576 49.6922 54.7775 46.1953 57.6946 42.8662C61.5346 39.0553 67.4692 38.2116 72.5893 37.8044C78.1794 37.4747 83.7884 37.9152 89.2585 39.1135V39.1135Z" fill="#E9F3F3"/>
<path d="M40.9084 51.099C37.843 58.2237 35.6643 65.6979 34.4211 73.3538C33.0829 82.343 35.643 91.3031 37.7375 99.9431C39.1277 104.666 39.8235 109.566 39.803 114.489C39.3612 119.373 38.2047 124.166 36.3702 128.714C33.4611 137.151 30.552 145.122 30.552 154.198C30.5971 162.09 32.3123 169.883 35.5848 177.064C39.1076 184.807 43.9286 191.891 49.8394 198.009C55.521 203.112 62.3769 206.73 69.796 208.541C78.381 210.995 86.741 214.178 94.7853 218.053C103.018 222.213 111.396 226.373 120.706 227.363C127.575 227.693 134.404 226.144 140.458 222.882C144.381 220.993 148.472 219.474 152.677 218.344C154.89 217.895 157.139 217.651 159.397 217.617C159.461 217.68 159.54 217.726 159.626 217.751C159.712 217.776 159.803 217.78 159.891 217.762C160.851 217.762 161.811 217.559 162.801 217.471C163.091 217.471 163.382 217.471 163.673 217.471C171.499 216.977 179.441 217.762 186.946 214.562C194.917 211.277 201.924 206.022 207.31 199.29C212.488 192.337 212.256 183.609 215.543 176.017C218.83 168.424 225.172 161.471 231.019 155.391C236.939 149.654 242.021 143.112 246.118 135.958C250.051 128.34 251.311 119.621 249.696 111.201C247.921 101.98 242.423 94.2995 237.798 86.3576C233.172 78.4157 228.779 71.1719 221.71 65.7901C214.203 59.9422 205.993 55.0558 197.274 51.2445C188.37 47.7803 178.993 45.6814 169.462 45.019C158.902 44.0008 148.4 43.9717 137.928 41.8771C127.455 39.7826 117.215 36.5825 106.625 34.8953C101.884 34.1098 97.0544 33.848 92.2835 33.3534C86.7561 32.7716 81.3743 31.4916 75.8761 30.7643C67.4978 29.6879 59.1195 30.3861 52.1958 35.5643C47.1136 39.6417 43.2161 45.0057 40.9084 51.099ZM88.1525 34.1971C99.2743 35.2872 110.327 36.9965 121.258 39.3171C131.167 42.0794 141.286 44.0253 151.513 45.1353C161.733 45.5212 171.921 46.4925 182.03 48.0444C191.947 50.2632 201.399 54.2015 209.957 59.6809C218.35 64.1694 225.597 70.5302 231.136 78.2702C233.667 81.9938 235.848 85.9502 238.118 89.9066C240.387 93.863 243.063 97.8776 245.07 102.154C247.206 106.597 248.444 111.417 248.714 116.339C248.983 121.262 248.279 126.189 246.641 130.838C243.732 139.565 237.419 146.344 231.252 152.889C225.704 158.369 220.733 164.403 216.416 170.897C212.285 177.733 211.819 185.442 209.23 192.773C206.321 201.5 196.924 208.104 189.128 212.09C180.401 216.541 171.528 215.493 162.335 216.337C158.973 216.404 155.619 216.705 152.299 217.239C147.571 218.434 142.993 220.161 138.655 222.388C133.789 224.828 128.446 226.169 123.004 226.315C117.616 226.083 112.318 224.85 107.382 222.679C98.6544 219.188 90.538 213.951 81.5197 210.868C73.5488 208.162 65.2287 206.533 57.7813 202.431C49.694 197.98 44.1085 189.66 39.5121 181.864C35.0072 174.166 32.4321 165.493 32.0066 156.584C31.4829 146.838 34.5957 138.285 37.8248 129.267C41.0354 121.389 41.8845 112.747 40.2685 104.394C38.2321 94.5613 34.9157 85.0776 35.7593 74.8956C36.7932 66.6074 39.1093 58.5302 42.6248 50.9536C45.3197 43.812 50.4786 37.869 57.1704 34.1971C66.8287 29.077 77.9124 32.917 88.1525 34.1971Z" fill="#E9F3F3"/>
<path d="M21.708 43.3315C20.2891 54.4777 20.8008 65.7849 23.2208 76.7573C24.7044 83.6519 27.3808 90.1392 28.6608 97.1211C30.4279 106.685 28.7588 116.566 23.9481 125.02C21.8244 128.86 19.4098 132.351 17.6644 136.365C15.9897 140.403 14.7418 144.606 13.9407 148.903C12.399 157.221 12.399 165.75 13.9407 174.067C15.7654 182.363 19.9241 189.963 25.9263 195.973C31.3874 202.481 37.3604 208.542 43.7882 214.097C50.1883 219.217 57.3156 219.915 65.1994 220.846C74.523 221.454 83.7265 223.283 92.5741 226.286C100.341 229.195 105.636 235.944 113.229 239.086C116.83 240.342 120.669 240.769 124.458 240.337C129.159 240.093 133.83 239.451 138.422 238.417C144.066 237.079 149.36 234.315 154.829 232.424C158.499 231.137 162.291 230.23 166.146 229.719C168.298 229.719 170.509 229.428 172.691 229.311L173.622 229.311C173.728 229.328 173.836 229.328 173.942 229.311C190.204 228.439 207.077 227.74 219.092 215.289C224.503 209.675 225.172 201.733 226.219 194.402C227.659 186.225 231.627 178.706 237.565 172.904C242.888 167.085 248.997 162.111 254.205 156.205C259.634 150.089 263.841 142.989 266.598 135.289C272.154 119.434 267.79 101.107 261.419 86.1537C258.13 78.067 253.487 70.6 247.688 64.0735C241.638 57.8199 234.526 52.6884 226.684 48.917C211.033 40.8879 193.317 37.717 175.949 36.2624C166.902 35.506 157.797 35.3315 148.691 35.3024C137.921 34.9326 127.231 33.312 116.836 30.4732C112.211 29.3678 107.498 28.5241 102.872 27.3023C98.3657 25.9574 94.016 24.1336 89.8978 21.8622C82.7213 17.6702 75.255 13.9954 67.5557 10.8658C56.5011 6.96755 43.5846 7.37484 34.3918 15.2876C26.4499 22.095 23.1044 33.2078 21.708 43.3315ZM62.232 10.6622C70.9594 12.4949 78.7849 17.2659 86.5232 21.4841C94.0282 25.5387 102.084 28.4786 110.436 30.2114C120.195 32.728 130.094 34.6707 140.08 36.0297C149.418 37.0188 158.96 36.4369 168.328 36.8733C187.033 37.8042 205.972 40.626 223.135 48.5098C231.641 52.2914 239.396 57.5732 246.03 64.1026C252.61 71.1678 257.714 79.4757 261.041 88.5392C267.092 103.696 270.525 120.976 264.619 136.656C258.714 152.336 245.972 161.413 235.383 173.136C230.839 177.906 227.498 183.69 225.637 190.009C223.659 197.486 224.357 205.166 219.964 211.915C215.019 219.45 205.012 223.755 196.546 225.646C189.004 227.047 181.352 227.777 173.68 227.828V227.828C171.26 227.776 168.839 227.903 166.437 228.206C165.913 228.206 165.36 228.206 164.837 228.206C164.673 228.224 164.52 228.296 164.4 228.41C158.342 229.541 152.423 231.316 146.742 233.704C137.549 237.341 126.931 240.075 116.953 238.533C108.749 237.224 103.105 229.631 95.8905 226.053C88.1514 222.673 79.9022 220.608 71.483 219.944C62.3193 218.81 53.0683 218.984 45.301 213.369C41.9555 210.772 38.8761 207.848 36.1082 204.642C33.1991 201.297 29.8245 198.155 26.799 194.809C23.526 191.286 20.6931 187.379 18.3625 183.173C16.1039 178.529 14.77 173.49 14.4352 168.336C13.4619 158.984 14.4527 149.531 17.3443 140.583C20.2535 131.856 26.3335 124.874 28.9808 116.118C31.148 108.274 31.148 99.9899 28.9808 92.1465C27.4972 85.921 25.1699 79.9864 23.9481 73.6445C22.875 67.8865 22.3007 62.0466 22.2317 56.1898C22.2317 44.5533 23.7735 32.3642 29.9699 22.415C37.0682 11.244 49.7519 8.04395 62.232 10.6622V10.6622Z" fill="#E9F3F3"/>
<path d="M13.6204 50.8953C13.9373 60.5361 15.9052 70.051 19.4386 79.0265C23.1557 89.0342 23.6039 99.9629 20.7186 110.241C17.8095 119.667 9.08214 126.387 4.9221 135.202C1.47261 142.951 0.0414584 151.448 0.762066 159.9C2.17796 176.75 7.99653 192.931 17.6349 206.824C21.6663 213.04 26.8863 218.399 32.9951 222.591C39.5945 226.682 47.1184 229.043 54.8717 229.457C64.2972 230.359 73.8391 230.155 83.2065 231.755C92.093 233.169 100.269 237.462 106.479 243.973C111.919 249.559 117.33 253.399 125.505 252.701C134.465 251.799 142.64 245.806 150.611 242.053C156.137 239.399 162.015 237.547 168.065 236.555C169.345 236.381 170.596 236.206 171.876 236.09C171.973 236.075 172.071 236.075 172.167 236.09V236.09C187.353 234.548 203.12 235.362 216.59 227.159C223.366 223.265 228.703 217.286 231.804 210.111C235.266 201.559 234.713 191.988 238.292 183.522C241.87 175.056 251.004 169.675 258.044 163.973C264.727 158.702 269.771 151.639 272.59 143.609C275.695 134.195 277.554 124.415 278.117 114.518C278.959 104.367 277.394 94.1607 273.55 84.7283C266.597 68.6246 255.357 54.7382 241.055 44.5825C237.824 42.0824 234.309 39.9732 230.582 38.2988C226.026 36.72 221.283 35.7421 216.473 35.3897C211.874 34.6797 207.318 33.7084 202.829 32.4806C197.958 31.3482 192.99 30.6761 187.993 30.4733C177.393 29.8861 166.764 30.1001 156.196 31.1133C145.636 32.0152 134.872 32.917 124.574 29.8624C115.469 27.186 107.294 21.8914 99.1775 17.1205C91.1287 12.4101 82.7701 8.25023 74.1591 4.66946C58.6535 -1.84697 40.617 -2.66153 27.6132 9.61495C17.024 19.7678 13.6204 36.757 13.6204 50.8953ZM54.348 1.09121C65.0536 1.32394 75.2064 6.38582 84.6319 10.924C100.487 18.575 115.09 30.8224 133.04 33.0042C143.629 34.3133 154.567 32.4806 165.04 31.7242C175.859 30.889 186.737 31.25 197.477 32.8006C202.248 33.557 206.815 35.1861 211.586 36.0588C216.357 36.9315 221.186 37.3097 225.928 38.4152C235.208 40.597 243.382 47.8407 250.306 54.1826C264.852 67.9427 276.11 86.7066 276.808 107.129C276.841 116.356 275.727 125.551 273.492 134.503C272.091 142.827 268.575 150.65 263.281 157.224C258.306 163.042 251.644 166.911 245.826 171.769C240.155 176.45 236.23 182.908 234.684 190.097C232.997 197.631 232.793 205.224 229.186 212.235C225.138 219.371 218.879 224.997 211.353 228.264C199.338 234.082 185.607 233.297 172.516 234.519C172.459 234.505 172.399 234.505 172.342 234.519C170.975 234.519 169.607 234.81 168.269 235.013C167.513 235.013 166.727 235.217 165.971 235.333C165.865 235.312 165.756 235.312 165.651 235.333C158.677 236.899 151.946 239.394 145.636 242.752C136.589 247.29 126 254.388 115.701 249.53C112.384 247.618 109.43 245.136 106.974 242.199C104.327 239.421 101.301 237.031 97.9848 235.101C90.4096 231.324 82.0972 229.259 73.6355 229.05C64.3845 228.322 54.9589 228.613 45.8825 226.548C37.6566 224.405 30.2729 219.821 24.7041 213.399C19.211 207.095 14.6907 200.006 11.2931 192.366C7.25321 184.09 4.44062 175.27 2.9439 166.184C1.21461 156.562 2.06786 146.655 5.41665 137.471C8.99486 128.278 17.0531 121.616 21.1841 112.743C24.9659 104.918 24.5586 94.7067 23.075 86.3575C22.0413 81.7629 20.6404 77.2587 18.8859 72.8883C17.0335 67.6825 15.8222 62.2704 15.2786 56.7717C13.6494 40.917 17.1113 21.1932 29.126 9.78949C36.0758 3.70926 45.1276 0.587561 54.348 1.09121Z" fill="#E9F3F3"/>
</g>
</svg>
