<svg width="1440" height="696" viewBox="0 0 1440 696" fill="none" xmlns="http://www.w3.org/2000/svg">
<mask id="mask0_660_1669" style="mask-type:alpha" maskUnits="userSpaceOnUse" x="0" y="0" width="1440" height="696">
<rect width="1440" height="696" fill="#F9FDFD"/>
</mask>
<g mask="url(#mask0_660_1669)">
<rect width="1440" height="696" fill="#0F0926"/>
<path d="M464.564 116H447.459L436.312 86.0461H377.936L366.788 116H350.194L398.104 -11.0486H416.229L464.564 116ZM390.785 51.1567L382.786 72.9413H431.461L423.377 51.1567L407.719 4.94945H406.869L390.785 51.1567ZM495.539 116H480.562V-11.7294H495.539V116ZM540.81 116H525.833V-11.7294H540.81V116ZM586.081 9.71483H571.104V-10.1977H586.081V9.71483ZM586.081 116H571.104V25.0322H586.081V116ZM608.717 91.0668C608.717 81.7062 611.95 74.5014 618.418 69.4524C624.885 64.3466 633.792 61.7937 645.138 61.7937H669.39V54.986C669.39 41.8812 662.412 35.3288 648.457 35.3288C642.216 35.3288 637.167 36.8038 633.31 39.7538C629.509 42.7038 627.466 46.6182 627.183 51.4971H612.546C613.227 42.9307 616.886 36.1514 623.523 31.1591C630.445 25.8831 638.983 23.2451 649.137 23.2451C660.484 23.2451 669.192 26.1384 675.262 31.9249C681.332 37.7115 684.367 45.824 684.367 56.2625V97.7043C684.367 99.1793 684.452 100.371 684.623 101.278C684.793 102.129 685.303 102.924 686.154 103.661C687.005 104.342 688.253 104.682 689.899 104.682C690.976 104.682 692.083 104.569 693.217 104.342V116C690.778 116.681 688.225 117.021 685.559 117.021C675.347 117.021 670.241 111.688 670.241 101.023H669.22C667.235 106.015 663.462 110.043 657.902 113.107C652.343 116.17 646.046 117.702 639.011 117.702C629.991 117.702 622.673 115.262 617.056 110.384C611.497 105.448 608.717 99.0091 608.717 91.0668ZM624.204 89.3649C624.204 94.3005 625.821 98.1865 629.055 101.023C632.288 103.803 636.657 105.193 642.16 105.193C650.215 105.193 656.768 102.64 661.817 97.5341C666.866 92.3716 669.39 85.7341 669.39 77.6216V72.7711H646.329C639.011 72.7711 633.48 74.2178 629.735 77.111C626.048 79.9476 624.204 84.0322 624.204 89.3649ZM729.894 116H714.747V25.0322H728.022L729.894 41.9663H731.17C734.007 36.123 738.091 31.5562 743.424 28.2658C748.813 24.9187 754.94 23.2451 761.805 23.2451C771.563 23.2451 779.25 26.5639 784.866 33.2014C790.539 39.8389 793.376 48.8024 793.376 60.0918V116H778.228V61.6235C778.228 45.0014 771.08 36.6903 756.784 36.6903C748.785 36.6903 742.289 39.612 737.297 45.4552C732.362 51.2985 729.894 58.9572 729.894 68.4312V116ZM882.982 84.9399H898.469C897.618 94.7543 893.449 102.725 885.96 108.852C878.699 114.752 869.508 117.702 858.389 117.702C845.227 117.702 834.704 113.419 826.818 104.852C818.933 96.286 814.99 84.9115 814.99 70.7288C814.99 56.3759 818.933 44.9163 826.818 36.3499C834.874 27.6134 845.625 23.2451 859.07 23.2451C869.678 23.2451 878.585 26.1668 885.79 32.01C893.052 37.91 897.108 45.4552 897.959 54.6456H882.641C881.337 48.8591 878.528 44.4341 874.217 41.3706C869.905 38.2504 864.686 36.6903 858.559 36.6903C849.652 36.6903 842.731 39.7538 837.796 45.8807C832.917 52.0076 830.477 60.3471 830.477 70.899C830.477 81.5644 832.945 89.8471 837.881 95.7471C842.873 101.59 849.709 104.512 858.389 104.512C865.14 104.512 870.756 102.725 875.238 99.151C879.72 95.5769 882.301 90.8399 882.982 84.9399ZM956.42 117.702C943.372 117.702 932.962 113.475 925.19 105.023C917.304 96.4562 913.361 85.025 913.361 70.7288C913.361 56.2625 917.247 44.8028 925.019 36.3499C932.905 27.6134 943.315 23.2451 956.25 23.2451C968.787 23.2451 978.63 26.9326 985.778 34.3076C992.926 41.6826 996.5 51.6673 996.5 64.2615C996.5 67.8923 996.33 71.0125 995.99 73.6221H928.678C928.622 83.6067 931.09 91.4072 936.082 97.0235C941.074 102.583 947.967 105.363 956.76 105.363C963.341 105.363 968.901 103.831 973.439 100.768C978.034 97.7043 980.899 93.6481 982.034 88.599H997.181C995.649 97.2788 991.111 104.313 983.566 109.703C976.304 115.036 967.255 117.702 956.42 117.702ZM928.849 62.4745H981.523C981.523 53.8514 979.311 47.2423 974.886 42.6471C970.461 37.9951 964.192 35.6692 956.079 35.6692C948.137 35.6692 941.67 38.137 936.678 43.0725C931.685 47.9514 929.076 54.4187 928.849 62.4745ZM1079.04 116H1063.22V-11.0486H1082.87L1150.35 96.1726H1151.21L1150.01 57.624V-11.0486H1165.67V116H1146.01L1078.7 8.77878H1078.02L1079.04 45.7956V116ZM1191.12 70.899C1191.12 56.8298 1195.11 45.3701 1203.11 36.5201C1211.28 27.6701 1221.92 23.2451 1235.02 23.2451C1248.13 23.2451 1258.6 27.6701 1266.43 36.5201C1274.42 45.2 1278.42 56.6028 1278.42 70.7288C1278.42 84.6846 1274.42 96.0024 1266.43 104.682C1258.6 113.362 1248.13 117.702 1235.02 117.702C1221.98 117.702 1211.34 113.419 1203.11 104.852C1195.11 96.1726 1191.12 84.8548 1191.12 70.899ZM1206.6 70.4735C1206.6 80.9687 1209.07 89.2514 1214.01 95.3216C1219 101.335 1225.95 104.342 1234.85 104.342C1243.53 104.342 1250.37 101.307 1255.36 95.2365C1260.41 89.1663 1262.94 80.8553 1262.94 70.3033C1262.94 59.9783 1260.47 51.8091 1255.53 45.7956C1250.6 39.7254 1243.7 36.6903 1234.85 36.6903C1226.17 36.6903 1219.28 39.7254 1214.18 45.7956C1209.13 51.8091 1206.6 60.0351 1206.6 70.4735ZM1317.48 116H1297.91V94.0452H1317.48V116ZM1380.37 102.385H1420.62V116H1339.61V111.66C1339.61 106.951 1340.37 102.016 1341.91 96.8534C1342.36 95.0947 1343.32 92.9389 1344.8 90.386C1345.03 89.9889 1345.37 89.3933 1345.82 88.599C1346.33 87.7481 1346.67 87.1524 1346.84 86.812C1347.07 86.4716 1347.38 85.9894 1347.78 85.3654C1348.23 84.7413 1348.6 84.2591 1348.88 83.9187C1349.17 83.5216 1349.51 83.0394 1349.9 82.4721C1350.36 81.9048 1350.81 81.3658 1351.27 80.8553C1351.78 80.3447 1352.32 79.8057 1352.88 79.2384L1357.56 74.5581L1363.26 69.7928L1368.71 65.623C1368.99 65.3961 1369.42 65.0841 1369.99 64.687C1370.55 64.2899 1371.29 63.7793 1372.2 63.1553C1373.16 62.4745 1374.04 61.8504 1374.84 61.2831C1377.33 59.3543 1379.29 57.9644 1380.71 57.1134C1388.65 51.4971 1394.38 46.3346 1397.9 41.6259C1401.42 36.8605 1403.17 31.2725 1403.17 24.862C1403.17 17.8273 1401.08 12.3245 1396.88 8.35329C1392.74 4.38214 1387.12 2.39656 1380.03 2.39656C1372.2 2.39656 1366.16 4.66579 1361.9 9.20426C1357.71 13.686 1355.83 19.7846 1356.29 27.4999H1341.14C1340.63 16.097 1344.06 6.7932 1351.44 -0.411616C1358.98 -7.61643 1368.8 -11.2188 1380.88 -11.2188C1392.4 -11.2188 1401.64 -7.90008 1408.62 -1.26258C1415.6 5.37493 1419.09 13.9696 1419.09 24.5216C1419.09 28.9466 1418.49 33.0596 1417.3 36.8605C1416.17 40.6048 1414.35 44.1788 1411.85 47.5826C1409.36 50.9865 1406.52 54.1634 1403.35 57.1134C1400.17 60.0634 1396.23 63.2971 1391.52 66.8144L1383.86 72.2605C1380.34 74.7 1377.62 76.6856 1375.69 78.2173C1372.63 80.6 1370.36 82.4437 1368.88 83.7485C1366.04 86.0745 1363.89 88.1735 1362.41 90.0457C1358.56 94.8678 1356.34 99.3495 1355.78 103.491C1363.72 102.753 1371.92 102.385 1380.37 102.385Z" fill="#ECFEFF"/>
<path d="M215.611 506.049H198.507L187.359 476.095H128.983L117.835 506.049H101.242L149.151 379H167.276L215.611 506.049ZM141.833 441.205L133.833 462.99H182.509L174.424 441.205L158.767 394.998H157.916L141.833 441.205ZM223.95 481.115C223.95 471.755 227.184 464.55 233.651 459.501C240.119 454.395 249.025 451.842 260.372 451.842H284.624V445.035C284.624 431.93 277.646 425.377 263.69 425.377C257.45 425.377 252.401 426.852 248.543 429.802C244.742 432.752 242.7 436.667 242.416 441.546H227.78C228.46 432.979 232.12 426.2 238.757 421.208C245.678 415.932 254.216 413.294 264.371 413.294C275.717 413.294 284.425 416.187 290.496 421.974C296.566 427.76 299.601 435.873 299.601 446.311V487.753C299.601 489.228 299.686 490.419 299.856 491.327C300.026 492.178 300.537 492.972 301.388 493.71C302.239 494.39 303.487 494.731 305.132 494.731C306.21 494.731 307.316 494.617 308.451 494.39V506.049C306.011 506.729 303.459 507.07 300.792 507.07C290.581 507.07 285.475 501.737 285.475 491.072H284.454C282.468 496.064 278.696 500.092 273.136 503.155C267.576 506.219 261.279 507.751 254.245 507.751C245.224 507.751 237.906 505.311 232.29 500.432C226.73 495.497 223.95 489.058 223.95 481.115ZM239.438 479.413C239.438 484.349 241.055 488.235 244.288 491.072C247.522 493.851 251.89 495.241 257.393 495.241C265.449 495.241 272.001 492.688 277.05 487.583C282.099 482.42 284.624 475.783 284.624 467.67V462.82H261.563C254.245 462.82 248.713 464.266 244.969 467.16C241.282 469.996 239.438 474.081 239.438 479.413ZM388.867 506.049H332.448V379H389.037C400.497 379 409.545 381.95 416.183 387.85C422.877 393.693 426.224 401.494 426.224 411.251C426.224 418.002 424.636 423.874 421.459 428.866C418.338 433.859 413.828 437.518 407.928 439.844V441.205C414.793 443.361 420.069 447.105 423.756 452.438C427.5 457.714 429.373 464.011 429.373 471.329C429.373 481.938 425.713 490.391 418.395 496.688C411.134 502.928 401.291 506.049 388.867 506.049ZM348.106 392.445V434.398H386.654C394.029 434.398 399.759 432.582 403.844 428.951C407.928 425.264 409.971 420.13 409.971 413.549C409.971 407.025 407.843 401.891 403.588 398.147C399.39 394.346 393.746 392.445 386.654 392.445H348.106ZM348.106 447.843V492.433H387.335C395.618 492.433 401.915 490.448 406.226 486.476C410.595 482.505 412.779 477.002 412.779 469.968C412.779 462.763 410.51 457.288 405.971 453.544C401.433 449.743 395.221 447.843 387.335 447.843H348.106ZM467.496 506.049H453.71V378.319H468.857V432.525H469.963C472.346 426.796 476.402 422.172 482.132 418.655C487.862 415.081 494.358 413.294 501.619 413.294C512.909 413.294 522.156 417.662 529.361 426.399C536.565 434.965 540.168 446.339 540.168 460.522C540.168 474.705 536.565 486.164 529.361 494.901C522.156 503.467 512.625 507.751 500.768 507.751C493.62 507.751 487.238 506.19 481.622 503.07C476.005 499.893 472.119 495.61 469.963 490.221H468.857L467.496 506.049ZM468.857 455.161V466.819C468.857 474.875 471.552 481.513 476.941 486.732C482.331 491.951 488.997 494.561 496.939 494.561C505.222 494.561 511.944 491.611 517.107 485.711C522.269 479.811 524.851 471.414 524.851 460.522C524.851 449.516 522.298 441.149 517.192 435.419C512.086 429.632 505.392 426.739 497.109 426.739C488.883 426.739 482.104 429.405 476.771 434.738C471.495 440.014 468.857 446.822 468.857 455.161ZM653.941 464.437H670.195C668.493 477.598 662.565 488.093 652.41 495.922C642.368 503.808 630.001 507.751 615.308 507.751C597.494 507.751 583.141 501.794 572.249 489.88C561.3 477.91 555.826 462.167 555.826 442.652C555.826 423.137 561.3 407.394 572.249 395.424C583.198 383.453 597.551 377.468 615.308 377.468C629.944 377.468 642.198 381.354 652.069 389.126C662.054 396.955 668.096 407.394 670.195 420.442H653.941C651.786 411.478 647.247 404.472 640.326 399.423C633.462 394.317 625.122 391.764 615.308 391.764C602.316 391.764 591.906 396.388 584.077 405.635C576.419 414.939 572.59 427.278 572.59 442.652C572.59 458.139 576.419 470.507 584.077 479.754C591.679 488.944 602.004 493.539 615.053 493.539C625.491 493.539 634.057 490.958 640.752 485.796C647.503 480.633 651.899 473.513 653.941 464.437ZM754.525 474.988H770.013C769.162 484.803 764.992 492.774 757.504 498.901C750.242 504.801 741.052 507.751 729.932 507.751C716.771 507.751 706.247 503.467 698.362 494.901C690.476 486.335 686.533 474.96 686.533 460.777C686.533 446.425 690.476 434.965 698.362 426.399C706.418 417.662 717.168 413.294 730.613 413.294C741.222 413.294 750.129 416.215 757.333 422.059C764.595 427.959 768.651 435.504 769.502 444.694H754.185C752.88 438.908 750.072 434.483 745.76 431.419C741.449 428.299 736.23 426.739 730.103 426.739C721.196 426.739 714.275 429.802 709.339 435.929C704.46 442.056 702.021 450.396 702.021 460.948C702.021 471.613 704.489 479.896 709.424 485.796C714.417 491.639 721.253 494.561 729.932 494.561C736.683 494.561 742.3 492.774 746.781 489.2C751.263 485.625 753.844 480.888 754.525 474.988ZM843.11 506.049H794.861V379H843.11C860.867 379 874.709 384.815 884.637 396.445C894.622 407.961 899.614 423.363 899.614 442.652C899.614 461.884 894.622 477.258 884.637 488.774C874.653 500.29 860.81 506.049 843.11 506.049ZM810.689 393.466V491.582H842.259C855.024 491.582 864.98 487.214 872.128 478.477C879.276 469.741 882.85 457.714 882.85 442.397C882.85 426.852 879.22 414.825 871.958 406.316C864.753 397.749 854.854 393.466 842.259 393.466H810.689ZM1003.94 378.319V506.049H990.327L988.795 490.221H987.944C985.505 495.553 981.42 499.808 975.69 502.985C970.017 506.162 963.578 507.751 956.373 507.751C944.573 507.751 935.099 503.581 927.951 495.241C920.86 486.788 917.314 475.471 917.314 461.288C917.314 446.765 920.917 435.135 928.121 426.399C935.326 417.662 944.8 413.294 956.544 413.294C963.975 413.294 970.443 415.052 975.946 418.57C981.448 422.087 985.448 426.852 987.944 432.866H988.795V378.319H1003.94ZM988.795 466.819V455.161C988.795 446.765 986.129 439.929 980.796 434.653C975.463 429.377 968.712 426.739 960.543 426.739C951.75 426.739 944.914 429.831 940.035 436.014C935.213 442.141 932.802 450.623 932.802 461.458C932.802 471.953 935.241 480.094 940.12 485.881C944.999 491.667 951.693 494.561 960.203 494.561C968.429 494.561 975.236 491.951 980.626 486.732C986.072 481.286 988.795 474.648 988.795 466.819ZM1121.2 506.049H1036.7V379H1121.2V393.466H1052.53V433.717H1112.7V447.502H1052.53V491.582H1121.2V506.049ZM1179.24 507.751C1166.19 507.751 1155.78 503.524 1148.01 495.071C1140.12 486.505 1136.18 475.074 1136.18 460.777C1136.18 446.311 1140.07 434.851 1147.84 426.399C1155.73 417.662 1166.14 413.294 1179.07 413.294C1191.61 413.294 1201.45 416.981 1208.6 424.356C1215.75 431.731 1219.32 441.716 1219.32 454.31C1219.32 457.941 1219.15 461.061 1218.81 463.671H1151.5C1151.44 473.655 1153.91 481.456 1158.9 487.072C1163.89 492.632 1170.79 495.412 1179.58 495.412C1186.16 495.412 1191.72 493.88 1196.26 490.816C1200.85 487.753 1203.72 483.697 1204.85 478.648H1220C1218.47 487.327 1213.93 494.362 1206.39 499.751C1199.12 505.084 1190.08 507.751 1179.24 507.751ZM1151.67 452.523H1204.34C1204.34 443.9 1202.13 437.291 1197.71 432.696C1193.28 428.044 1187.01 425.718 1178.9 425.718C1170.96 425.718 1164.49 428.186 1159.5 433.121C1154.51 438 1151.9 444.467 1151.67 452.523ZM1261.19 506.049H1245.36V379H1328.5V393.466H1261.19V442.056H1321.52V455.842H1261.19V506.049ZM1390.02 415.081V427.59H1368.24V506.049H1353.09V427.59H1336.75V415.081H1353.09V403.082C1353.09 394.573 1355.42 388.162 1360.07 383.85C1364.72 379.482 1371.3 377.298 1379.81 377.298C1383.84 377.298 1387.24 377.695 1390.02 378.489V390.828C1387.07 390.261 1384.35 389.977 1381.85 389.977C1377.03 389.977 1373.54 391.169 1371.39 393.551C1369.29 395.934 1368.24 399.622 1368.24 404.614V415.081H1390.02ZM1454.02 452.353V438.993H1518.01V506.049H1505.07L1503.37 483.924H1502.1C1498.18 491.299 1492.17 497.113 1484.06 501.368C1476 505.623 1467.04 507.751 1457.16 507.751C1440.37 507.751 1426.67 502.021 1416.06 490.561C1405.45 479.101 1400.15 463.472 1400.15 443.673C1400.15 423.59 1405.62 407.564 1416.57 395.594C1427.64 383.51 1442.27 377.468 1460.48 377.468C1474.27 377.468 1486.07 381.127 1495.88 388.446C1505.64 395.764 1511.37 405.21 1513.07 416.783H1496.9C1494.92 408.954 1490.61 402.827 1483.97 398.402C1477.33 393.977 1469.28 391.764 1459.8 391.764C1446.3 391.764 1435.78 396.416 1428.23 405.72C1420.69 415.024 1416.91 427.788 1416.91 444.013C1416.91 460.068 1420.6 472.407 1427.98 481.03C1435.41 489.597 1445.53 493.88 1458.36 493.88C1470.95 493.88 1481.08 489.965 1488.74 482.137C1496.45 474.421 1500.56 464.493 1501.07 452.353H1454.02ZM1538.86 515.324C1538.86 511.126 1540.11 507.467 1542.6 504.347C1545.1 501.17 1548.44 498.901 1552.64 497.539V496.263C1549.98 495.525 1547.79 493.993 1546.09 491.667C1544.39 489.341 1543.54 486.76 1543.54 483.924C1543.54 480.35 1544.62 477.229 1546.77 474.563C1548.93 471.897 1551.79 470.025 1555.37 468.947V467.84C1546.69 462.451 1542.35 454.338 1542.35 443.503C1542.35 434.312 1545.47 427.051 1551.71 421.718C1558.17 416.102 1566.43 413.294 1576.47 413.294C1583.67 413.294 1589.43 414.599 1593.74 417.208C1595.56 412.273 1598.79 408.358 1603.45 405.465C1608.15 402.572 1613.57 401.125 1619.7 401.125V413.719C1615.56 413.719 1611.93 414.542 1608.81 416.187C1605.74 417.832 1603.73 420.016 1602.76 422.739C1608.38 428.356 1611.19 435.447 1611.19 444.013C1611.19 452.863 1608.1 460.012 1601.91 465.458C1595.73 470.904 1587.59 473.627 1577.49 473.627C1573.52 473.627 1569.41 473.173 1565.15 472.265C1559.93 473.116 1557.32 475.896 1557.32 480.605C1557.32 485.824 1561.38 488.434 1569.49 488.434H1593.57C1602.2 488.434 1608.89 490.448 1613.66 494.475C1618.48 498.447 1620.89 503.978 1620.89 511.069C1620.89 519.692 1617.06 526.273 1609.4 530.812C1601.74 535.35 1590.99 537.619 1577.15 537.619C1564.5 537.619 1554.94 535.662 1548.47 531.748C1542.06 527.833 1538.86 522.359 1538.86 515.324ZM1557.32 443.673C1557.32 449.63 1559.08 454.31 1562.6 457.714C1566.12 461.118 1570.85 462.82 1576.81 462.82C1582.94 462.82 1587.73 461.118 1591.19 457.714C1594.65 454.253 1596.38 449.573 1596.38 443.673C1596.38 437.716 1594.6 433.008 1591.02 429.547C1587.5 426.03 1582.77 424.271 1576.81 424.271C1570.85 424.271 1566.12 426.058 1562.6 429.632C1559.08 433.149 1557.32 437.83 1557.32 443.673ZM1552.64 512.856C1552.64 521.82 1561.07 526.301 1577.92 526.301C1596.58 526.301 1605.91 521.423 1605.91 511.665C1605.91 504.574 1601.32 501.028 1592.13 501.028H1567.62C1557.63 501.028 1552.64 504.971 1552.64 512.856Z" fill="#ECFEFF"/>
<path d="M875.147 605.425H842.215V597H845.704C854.327 597 861.22 595.128 866.382 591.384C871.601 587.64 874.75 582.307 875.828 575.386H885.954V701.073H875.147V605.425ZM959.137 690.946H1002.2V701.073H923.907V696.733C923.907 690.72 925.127 684.791 927.566 678.948C928.985 675.487 932.247 670.892 937.352 665.162C938.771 663.574 940.983 661.532 943.99 659.035C945.919 657.39 948.188 655.603 950.798 653.674L958.286 648.228L965.264 643.378C973.547 637.364 979.532 631.833 983.219 626.784C986.907 621.735 988.75 615.778 988.75 608.914C988.75 601.255 986.425 595.213 981.773 590.788C977.177 586.363 970.965 584.151 963.137 584.151C954.513 584.151 947.848 586.618 943.139 591.554C938.487 596.433 936.388 602.957 936.842 611.126H925.694C925.184 600.007 928.474 591.072 935.565 584.321C942.713 577.343 952.074 573.854 963.647 573.854C974.596 573.854 983.503 577.116 990.367 583.64C997.062 589.994 1000.41 598.22 1000.41 608.318C1000.41 617.168 997.969 624.855 993.09 631.379C988.779 637.336 981.886 643.888 972.412 651.036L965.094 656.312L957.605 661.844L951.138 666.949C950.06 667.8 949.096 668.594 948.245 669.332C947.45 670.069 946.685 670.835 945.947 671.63C945.21 672.424 944.614 673.076 944.16 673.587C943.763 674.097 943.167 674.892 942.373 675.969C941.579 676.991 940.955 677.757 940.501 678.267C937.551 682.125 935.991 686.578 935.821 691.627C943.706 691.173 951.478 690.946 959.137 690.946ZM1063.04 702.775C1050.96 702.775 1041.43 699.201 1034.45 692.053C1027.7 684.791 1024.58 675.147 1025.09 663.12H1037.09C1036.69 672.707 1038.82 680.054 1043.47 685.16C1048.18 690.209 1054.7 692.733 1063.04 692.733C1071.44 692.733 1078.19 690.379 1083.29 685.67C1088.4 680.905 1090.95 674.665 1090.95 666.949C1090.95 659.007 1088.28 652.71 1082.95 648.058C1077.68 643.406 1070.47 641.08 1061.34 641.08H1054.36V630.869H1061.68C1070.24 630.869 1076.94 628.628 1081.76 624.146C1086.58 619.664 1088.99 613.821 1088.99 606.616C1088.99 599.581 1086.67 594.079 1082.02 590.107C1077.36 586.136 1071.27 584.151 1063.72 584.151C1055.44 584.151 1049.03 586.675 1044.49 591.724C1040.01 596.773 1037.77 603.95 1037.77 613.254H1026.11C1025.6 601.454 1028.92 591.98 1036.06 584.831C1043.21 577.513 1052.43 573.854 1063.72 573.854C1074.16 573.854 1082.95 576.747 1090.1 582.534C1097.3 588.377 1100.91 596.405 1100.91 606.616C1100.91 619.891 1094.38 629.422 1081.34 635.208V636.23C1088.43 638.839 1093.79 642.839 1097.42 648.228C1101.11 653.561 1102.95 659.659 1102.95 666.524C1102.95 677.359 1099.23 686.153 1091.8 692.904C1084.37 699.484 1074.78 702.775 1063.04 702.775ZM1194.77 575.386V663.12H1210.85V672.821H1194.77V701.073H1183.79V672.821H1120.73V662.184L1176.64 575.386H1194.77ZM1183.79 582.534L1132.56 663.12H1183.79V582.534ZM1272.12 618.615C1283.3 618.615 1292.69 622.586 1300.29 630.528C1307.83 638.414 1311.61 648.398 1311.61 660.482C1311.61 673.019 1307.72 683.174 1299.95 690.946C1292.06 698.832 1282.19 702.775 1270.33 702.775C1258.93 702.775 1249.57 699.116 1242.25 691.797C1234.99 684.536 1231.44 674.977 1231.62 663.12H1243.02C1242.85 671.573 1245.23 678.636 1250.17 684.309C1255.22 689.925 1261.99 692.733 1270.5 692.733C1279.24 692.733 1286.28 689.869 1291.61 684.139C1296.94 678.352 1299.61 670.637 1299.61 660.993C1299.61 651.462 1296.91 643.69 1291.52 637.676C1286.13 631.606 1279.07 628.571 1270.33 628.571C1264.72 628.571 1259.47 629.876 1254.59 632.485C1249.71 635.038 1246.37 638.272 1244.55 642.186H1234.25L1236.72 575.386H1306.41V585.342H1246.51L1244.38 629.252L1244.89 629.422C1247.56 626.188 1251.41 623.579 1256.46 621.593C1261.57 619.607 1266.79 618.615 1272.12 618.615ZM1378.66 702.775C1350.92 702.775 1337.05 681.302 1337.05 638.357C1337.05 595.355 1351.32 573.854 1379.85 573.854C1390.57 573.854 1399.23 576.662 1405.81 582.279C1412.39 587.838 1416.08 595.44 1416.87 605.084H1405.13C1404.39 598.106 1401.75 592.859 1397.21 589.342C1392.67 585.768 1386.89 583.98 1379.85 583.98C1357.73 583.98 1347.52 602.73 1349.22 640.229H1349.9C1355.69 627.124 1366.1 620.572 1381.13 620.572C1392.08 620.572 1401.07 624.344 1408.1 631.89C1415.08 639.378 1418.57 649.249 1418.57 661.503C1418.57 673.757 1414.97 683.742 1407.76 691.457C1400.56 699.002 1390.86 702.775 1378.66 702.775ZM1379.51 692.733C1387.62 692.733 1394.12 689.897 1399 684.224C1403.93 678.494 1406.4 670.807 1406.4 661.163C1406.4 651.632 1403.93 644.144 1399 638.697C1394.12 633.251 1387.62 630.528 1379.51 630.528C1370.72 630.528 1363.88 633.592 1359 639.719C1354.24 645.959 1351.86 653.334 1351.86 661.844C1351.86 670.807 1354.41 678.239 1359.51 684.139C1364.51 689.869 1371.17 692.733 1379.51 692.733ZM1447.25 609.254H1437.29V575.386H1516.94V583.13C1505.09 599.922 1494.56 618.955 1485.37 640.229C1476.18 662.07 1469.8 682.352 1466.23 701.073H1454.23C1457.52 683.089 1463.62 663.574 1472.52 642.527C1481.15 622.16 1491.36 603.099 1503.16 585.342H1447.25V609.254ZM1535.07 669.162C1535.07 662.581 1536.68 656.653 1539.92 651.377C1543.21 646.044 1547.8 641.931 1553.7 639.038V637.676C1548.09 635.18 1543.58 631.152 1540.17 625.593C1536.77 620.033 1535.07 614.048 1535.07 607.637C1535.07 597.936 1538.73 589.937 1546.05 583.64C1553.48 577.23 1563.01 574.024 1574.64 574.024C1586.38 574.024 1595.91 577.173 1603.23 583.47C1610.66 589.71 1614.38 597.766 1614.38 607.637C1614.38 614.048 1612.7 620.005 1609.36 625.507C1606.01 630.954 1601.53 635.01 1595.91 637.676V639.038C1601.7 641.931 1606.21 646.072 1609.44 651.462C1612.73 656.794 1614.38 662.694 1614.38 669.162C1614.38 679.033 1610.72 687.117 1603.4 693.414C1596.14 699.655 1586.55 702.775 1574.64 702.775C1562.84 702.775 1553.31 699.655 1546.05 693.414C1538.73 687.117 1535.07 679.033 1535.07 669.162ZM1546.73 608.914C1546.73 616.516 1549.28 622.557 1554.38 627.039C1559.49 631.521 1566.24 633.762 1574.64 633.762C1583.26 633.762 1590.1 631.493 1595.15 626.954C1600.2 622.416 1602.72 616.402 1602.72 608.914C1602.72 601.312 1600.17 595.298 1595.06 590.873C1589.96 586.392 1583.15 584.151 1574.64 584.151C1566.01 584.151 1559.21 586.42 1554.21 590.958C1549.22 595.44 1546.73 601.425 1546.73 608.914ZM1546.73 667.8C1546.73 675.459 1549.28 681.529 1554.38 686.011C1559.49 690.493 1566.24 692.733 1574.64 692.733C1583.32 692.733 1590.15 690.464 1595.15 685.926C1600.2 681.331 1602.72 675.289 1602.72 667.8C1602.72 660.255 1600.17 654.242 1595.06 649.76C1589.96 645.278 1583.15 643.037 1574.64 643.037C1566.01 643.037 1559.21 645.306 1554.21 649.845C1549.22 654.383 1546.73 660.369 1546.73 667.8ZM1676.07 702.775C1665.92 702.775 1657.49 699.938 1650.8 694.265C1644.22 688.535 1640.5 681.047 1639.65 671.8H1651.14C1651.82 678.381 1654.4 683.515 1658.88 687.202C1663.42 690.89 1669.26 692.733 1676.41 692.733C1698.82 692.733 1708.86 673.956 1706.54 636.4H1705.86C1699.73 649.448 1689.21 655.972 1674.29 655.972C1663.39 655.972 1654.46 652.228 1647.48 644.739C1640.62 637.194 1637.18 627.323 1637.18 615.126C1637.18 602.815 1640.79 592.887 1647.99 585.342C1655.14 577.683 1664.78 573.854 1676.92 573.854C1704.84 573.854 1718.79 595.752 1718.79 639.548C1718.79 662.184 1715.19 678.437 1707.98 688.308C1700.84 697.953 1690.2 702.775 1676.07 702.775ZM1676.07 646.016C1684.98 646.016 1691.84 642.981 1696.67 636.91C1701.54 630.727 1703.98 623.295 1703.98 614.615C1703.98 605.538 1701.4 598.163 1696.24 592.49C1691.13 586.817 1684.41 583.98 1676.07 583.98C1667.79 583.98 1661.24 586.817 1656.42 592.49C1651.65 598.106 1649.27 605.765 1649.27 615.466C1649.27 624.997 1651.71 632.485 1656.59 637.931C1661.46 643.321 1667.96 646.016 1676.07 646.016Z" fill="#ECFEFF"/>
<path opacity="0.1" d="M428.526 639.038L438.823 641.335C436.554 655.064 432.554 667.006 426.825 677.161L448.779 701.073H434.824L420.868 685.756C411.224 697.102 397.693 702.775 380.277 702.775C368.761 702.775 359.457 699.825 352.365 693.925C345.274 688.025 341.728 680.196 341.728 670.438C341.728 663.063 343.998 656.341 348.536 650.27C353.074 644.2 360.279 638.244 370.15 632.4V631.209C363.286 624.515 358.464 618.87 355.684 614.275C353.131 610.077 351.855 605.255 351.855 599.808C351.855 591.696 354.549 585.143 359.939 580.151C365.328 575.159 372.505 572.663 381.468 572.663C390.091 572.663 397.012 575.074 402.232 579.896C407.451 584.718 410.061 591.129 410.061 599.128C410.061 605.028 408.274 610.531 404.7 615.636C401.125 620.742 395.084 626.217 386.574 632.06V633.592L419.847 670.013C424.328 659.347 427.222 649.022 428.526 639.038ZM362.322 599.808C362.322 604.063 363.485 608.205 365.811 612.232C368.137 616.26 372.249 620.997 378.15 626.443H379.937C393.041 617.196 399.594 608.091 399.594 599.128C399.594 593.965 397.892 589.824 394.488 586.704C391.141 583.583 386.687 582.023 381.128 582.023C375.568 582.023 371.03 583.668 367.512 586.959C364.052 590.193 362.322 594.476 362.322 599.808ZM352.536 669.843C352.536 677.104 355.032 682.834 360.024 687.032C365.073 691.173 371.937 693.244 380.617 693.244C387.538 693.244 394.006 691.939 400.019 689.33C406.033 686.72 410.826 683.259 414.4 678.948L377.299 638.187C360.79 646.81 352.536 657.362 352.536 669.843ZM496.603 667.8H486.051V633.081C491.327 633.819 495.214 634.187 497.71 634.187C507.184 634.187 514.644 631.861 520.09 627.209C525.593 622.557 528.344 616.204 528.344 608.148C528.344 600.206 525.791 593.993 520.686 589.512C515.58 584.973 508.659 582.704 499.922 582.704C491.356 582.704 484.633 584.86 479.754 589.171C474.876 593.426 472.266 599.298 471.926 606.786H460.948C461.289 596.348 465.004 588.065 472.096 581.938C479.244 575.755 488.633 572.663 500.263 572.663C512.176 572.663 521.707 575.896 528.855 582.364C536.06 588.888 539.662 597.482 539.662 608.148C539.662 619.551 535.719 628.514 527.834 635.038C519.948 641.562 509.538 644.569 496.603 644.058V667.8ZM499.752 701.073H482.563V684.309H499.752V701.073ZM577.87 663.631H572.85L569.871 609.765V574.024H580.849V609.765L577.87 663.631ZM581.87 701.073H568.68V688.734H581.87V701.073Z" fill="#ECFEFF"/>
<path d="M-783.734 264.477V183.976H-772.417V263.285C-772.417 275.312 -768.984 284.73 -762.12 291.537C-755.256 298.345 -745.895 301.749 -734.038 301.749C-722.238 301.749 -712.906 298.345 -706.042 291.537C-699.177 284.73 -695.745 275.312 -695.745 263.285V183.976H-684.427V264.477C-684.427 279.057 -688.88 290.8 -697.787 299.707C-706.637 308.386 -718.721 312.726 -734.038 312.726C-749.469 312.726 -761.609 308.386 -770.459 299.707C-779.309 290.857 -783.734 279.113 -783.734 264.477ZM-638.475 311.024H-649.453V220.907H-639.752L-638.305 239.544H-637.454C-634.844 233.019 -630.958 228.084 -625.796 224.737C-620.577 221.39 -614.535 219.716 -607.67 219.716V229.843C-628.207 230.523 -638.475 243.288 -638.475 268.136V311.024ZM-577.972 311.024H-588.353V183.976H-577.376V238.522H-576.355C-574.029 232.679 -569.944 227.999 -564.101 224.481C-558.201 220.964 -551.592 219.206 -544.274 219.206C-532.984 219.206 -523.765 223.545 -516.617 232.225C-509.299 240.735 -505.64 252.024 -505.64 266.094C-505.64 279.936 -509.299 291.197 -516.617 299.877C-523.992 308.443 -533.637 312.726 -545.55 312.726C-552.812 312.726 -559.222 311.166 -564.782 308.046C-570.341 304.926 -574.199 300.699 -576.355 295.367H-577.376L-577.972 311.024ZM-577.376 259.796V273.242C-577.376 281.581 -574.426 288.531 -568.526 294.09C-562.569 299.707 -555.365 302.515 -546.912 302.515C-538.515 302.515 -531.424 299.536 -525.638 293.58C-519.851 287.453 -516.958 278.291 -516.958 266.094C-516.958 254.237 -519.709 245.217 -525.212 239.033C-530.715 232.793 -537.891 229.672 -546.741 229.672C-555.535 229.672 -562.853 232.509 -568.696 238.182C-574.483 243.798 -577.376 251.003 -577.376 259.796ZM-488.195 286.261C-488.195 276.957 -485.047 269.838 -478.75 264.902C-472.396 259.967 -463.574 257.499 -452.285 257.499H-427.011V250.181C-427.011 235.544 -434.783 228.226 -450.327 228.226C-457.249 228.226 -462.837 229.843 -467.091 233.076C-471.289 236.31 -473.559 240.621 -473.899 246.011H-484.366C-483.855 237.955 -480.366 231.516 -473.899 226.694C-467.489 221.702 -459.461 219.206 -449.817 219.206C-438.981 219.206 -430.67 222.042 -424.884 227.715C-419.097 233.331 -416.204 241.245 -416.204 251.457V294.856C-416.317 297.295 -416.005 299.082 -415.268 300.217C-414.53 301.295 -412.8 302.004 -410.077 302.345C-408.999 302.345 -407.893 302.231 -406.758 302.004V311.024C-408.46 311.592 -410.389 311.875 -412.545 311.875C-421.905 311.875 -426.5 306.486 -426.33 295.707H-427.351C-429.45 300.813 -433.308 304.926 -438.925 308.046C-444.541 311.166 -450.895 312.726 -457.986 312.726C-466.95 312.726 -474.239 310.287 -479.856 305.408C-485.415 300.529 -488.195 294.147 -488.195 286.261ZM-476.792 285.24C-476.792 290.857 -475.034 295.225 -471.516 298.345C-467.999 301.465 -463.149 303.025 -456.965 303.025C-447.888 303.025 -440.683 300.16 -435.351 294.431C-429.791 288.701 -427.011 281.269 -427.011 272.135V266.774H-452.114C-460.34 266.774 -466.524 268.363 -470.665 271.54C-474.75 274.66 -476.792 279.227 -476.792 285.24ZM-371.954 311.024H-382.931V220.907H-373.4L-371.784 237.842H-370.762C-367.983 231.998 -363.87 227.431 -358.424 224.141C-352.977 220.851 -346.879 219.206 -340.128 219.206C-330.484 219.206 -322.853 222.439 -317.237 228.906C-311.564 235.317 -308.727 244.054 -308.727 255.116V311.024H-319.705V256.137C-319.705 238.494 -327.363 229.672 -342.681 229.672C-351.587 229.672 -358.679 232.849 -363.955 239.203C-369.287 245.444 -371.954 253.698 -371.954 263.966V311.024ZM-265.754 203.633H-276.561V185.933H-265.754V203.633ZM-265.754 311.024H-276.561V220.907H-265.754V311.024ZM-240.395 284.049H-229.928C-229.928 290.006 -227.687 294.743 -223.206 298.26C-218.667 301.777 -212.54 303.536 -204.825 303.536C-197.734 303.536 -192.117 302.004 -187.976 298.941C-183.834 295.82 -181.764 291.594 -181.764 286.261C-181.764 278.489 -186.132 273.837 -194.869 272.306L-215.292 268.306C-230.722 265.356 -238.438 257.697 -238.438 245.33C-238.438 237.274 -235.488 230.92 -229.588 226.268C-223.688 221.56 -215.717 219.206 -205.676 219.206C-195.351 219.206 -187.267 221.645 -181.423 226.524C-175.523 231.403 -172.517 238.012 -172.403 246.351H-182.87C-183.381 234.268 -190.926 228.226 -205.506 228.226C-212.427 228.226 -217.788 229.644 -221.589 232.481C-225.39 235.317 -227.29 239.203 -227.29 244.139C-227.29 251.797 -222.128 256.619 -211.803 258.605L-193.167 262.094C-177.793 265.101 -170.106 273.327 -170.106 286.772C-170.106 294.714 -173.311 301.011 -179.721 305.663C-186.075 310.372 -194.386 312.726 -204.655 312.726C-215.66 312.726 -224.369 310.145 -230.779 304.982C-237.19 299.763 -240.395 292.785 -240.395 284.049ZM-158.788 230.353V220.907H-142.96V191.805L-131.982 187.635V220.907H-111.559V230.353H-131.982V287.282C-131.982 290.8 -131.444 294.005 -130.366 296.898C-128.777 300.529 -124.891 302.345 -118.707 302.345C-115.587 302.345 -113.205 301.976 -111.559 301.238V311.024C-113.999 311.819 -117.091 312.216 -120.835 312.216C-135.585 312.216 -142.96 304.16 -142.96 288.048V230.353H-158.788ZM-33.2709 311.024H-44.5887V183.976H8.76662C21.6445 183.976 31.4589 187.096 38.2099 193.336C44.9609 199.577 48.3364 208.2 48.3364 219.206C48.3364 234.466 41.245 245.16 27.0623 251.287V252.478C39.4864 254.974 45.6984 262.973 45.6984 276.475V297.579C45.6984 303.593 46.294 308.074 47.4854 311.024H35.9123C34.7777 308.698 34.2104 303.649 34.2104 295.877V279.283C34.2104 271.965 32.6503 266.718 29.5301 263.541C26.4666 260.364 21.1056 258.775 13.4469 258.775H-33.2709V311.024ZM-33.2709 194.613V248.138H4.59691C14.2411 248.138 21.9565 245.614 27.7431 240.565C33.5863 235.516 36.508 228.793 36.508 220.397C36.508 203.207 26.9772 194.613 7.91566 194.613H-33.2709ZM108.329 312.726C95.8484 312.726 85.8071 308.5 78.2052 300.047C70.4898 291.481 66.6321 280.219 66.6321 266.264C66.6321 252.081 70.433 240.678 78.035 232.055C85.7504 223.489 95.8484 219.206 108.329 219.206C120.526 219.206 130.085 222.836 137.007 230.098C143.928 237.359 147.388 247.202 147.388 259.626C147.388 262.236 147.19 265.072 146.793 268.136H78.035C77.9782 279.085 80.7013 287.68 86.2042 293.92C91.7071 300.104 99.2523 303.195 108.84 303.195C116.158 303.195 122.285 301.494 127.221 298.09C132.213 294.629 135.39 290.062 136.751 284.389H147.899C146.424 292.899 142.084 299.763 134.879 304.982C127.674 310.145 118.824 312.726 108.329 312.726ZM78.035 259.116H136.411C136.411 249.358 133.972 241.869 129.093 236.65C124.214 231.374 117.293 228.736 108.329 228.736C99.536 228.736 92.3595 231.516 86.7999 237.076C81.297 242.635 78.3754 249.982 78.035 259.116ZM164.493 319.704C164.493 315.506 165.684 311.79 168.067 308.557C170.506 305.323 173.797 303.054 177.938 301.749V300.728C175.385 299.707 173.314 298.146 171.726 296.047C170.194 293.948 169.428 291.566 169.428 288.899C169.428 285.495 170.449 282.517 172.492 279.964C174.591 277.411 177.285 275.624 180.576 274.603V273.582C172.18 268.193 167.982 260.052 167.982 249.159C167.982 240.082 171.017 232.878 177.087 227.545C183.157 221.985 191.043 219.206 200.744 219.206C208.629 219.206 214.671 220.652 218.869 223.545C220.628 219.12 223.663 215.575 227.974 212.908C232.343 210.242 237.335 208.909 242.951 208.909V218.695C238.583 218.695 234.811 219.631 231.634 221.503C228.457 223.318 226.471 225.673 225.677 228.566C230.896 234.239 233.506 241.217 233.506 249.5C233.506 258.52 230.499 265.668 224.485 270.944C218.415 276.39 210.615 279.113 201.084 279.113C196.432 279.113 192.206 278.603 188.405 277.582C182.448 278.432 179.47 281.496 179.47 286.772C179.47 292.388 183.668 295.196 192.064 295.196H217.337C225.393 295.196 231.69 297.069 236.229 300.813C240.824 304.557 243.122 309.748 243.122 316.385C243.122 324.668 239.491 330.965 232.229 335.277C224.968 339.645 214.756 341.829 201.595 341.829C189.284 341.829 180.009 339.9 173.768 336.043C167.584 332.185 164.493 326.739 164.493 319.704ZM178.959 249.33C178.959 256.024 180.916 261.271 184.831 265.072C188.745 268.873 194.049 270.774 200.744 270.774C207.551 270.774 212.884 268.873 216.742 265.072C220.599 261.215 222.528 255.967 222.528 249.33C222.528 242.635 220.571 237.359 216.657 233.502C212.742 229.644 207.438 227.715 200.744 227.715C193.936 227.715 188.603 229.672 184.746 233.587C180.888 237.444 178.959 242.692 178.959 249.33ZM174.279 318.172C174.279 328.157 183.497 333.149 201.935 333.149C222.188 333.149 232.314 327.76 232.314 316.981C232.314 314.201 231.662 311.904 230.357 310.088C229.109 308.216 227.379 306.968 225.166 306.344C221.876 305.266 219.096 304.727 216.827 304.727H190.787C185.398 304.727 181.285 305.919 178.448 308.301C175.669 310.684 174.279 313.974 174.279 318.172ZM326.09 220.907H337.068V311.024H328.048L326.261 294.26H325.069C322.63 299.763 318.574 304.217 312.9 307.62C307.227 311.024 300.874 312.726 293.839 312.726C284.649 312.726 277.387 309.776 272.054 303.876C266.722 297.92 264.055 289.552 264.055 278.773V220.907H275.033V277.582C275.033 294.204 282.237 302.515 296.647 302.515C305.611 302.515 312.759 299.366 318.091 293.069C323.424 286.772 326.09 278.404 326.09 267.966V220.907ZM379.956 311.024H369.149V183.976H379.956V311.024ZM405.315 286.261C405.315 276.957 408.464 269.838 414.761 264.902C421.114 259.967 429.936 257.499 441.226 257.499H466.499V250.181C466.499 235.544 458.727 228.226 443.183 228.226C436.262 228.226 430.674 229.843 426.419 233.076C422.221 236.31 419.951 240.621 419.611 246.011H409.144C409.655 237.955 413.144 231.516 419.611 226.694C426.022 221.702 434.049 219.206 443.693 219.206C454.529 219.206 462.84 222.042 468.627 227.715C474.413 233.331 477.306 241.245 477.306 251.457V294.856C477.193 297.295 477.505 299.082 478.242 300.217C478.98 301.295 480.71 302.004 483.433 302.345C484.511 302.345 485.617 302.231 486.752 302.004V311.024C485.05 311.592 483.121 311.875 480.965 311.875C471.605 311.875 467.01 306.486 467.18 295.707H466.159C464.06 300.813 460.202 304.926 454.586 308.046C448.969 311.166 442.615 312.726 435.524 312.726C426.561 312.726 419.271 310.287 413.654 305.408C408.095 300.529 405.315 294.147 405.315 286.261ZM416.718 285.24C416.718 290.857 418.476 295.225 421.994 298.345C425.511 301.465 430.362 303.025 436.545 303.025C445.622 303.025 452.827 300.16 458.16 294.431C463.719 288.701 466.499 281.269 466.499 272.135V266.774H441.396C433.17 266.774 426.986 268.363 422.845 271.54C418.76 274.66 416.718 279.227 416.718 285.24ZM521.556 311.024H510.579V220.907H520.28L521.727 239.544H522.578C525.187 233.019 529.073 228.084 534.236 224.737C539.455 221.39 545.497 219.716 552.361 219.716V229.843C531.825 230.523 521.556 243.288 521.556 268.136V311.024Z" fill="#ECFEFF"/>
<path opacity="0.1" d="M980.095 311.024H906.147V183.976H917.464V300.047H980.095V311.024ZM1013.79 203.633H1002.99V185.933H1013.79V203.633ZM1013.79 311.024H1002.99V220.907H1013.79V311.024ZM1038.3 319.704C1038.3 315.506 1039.49 311.79 1041.88 308.557C1044.31 305.323 1047.6 303.054 1051.75 301.749V300.728C1049.19 299.707 1047.12 298.146 1045.53 296.047C1044 293.948 1043.24 291.566 1043.24 288.899C1043.24 285.495 1044.26 282.517 1046.3 279.964C1048.4 277.411 1051.09 275.624 1054.38 274.603V273.582C1045.99 268.193 1041.79 260.052 1041.79 249.159C1041.79 240.082 1044.83 232.878 1050.9 227.545C1056.97 221.985 1064.85 219.206 1074.55 219.206C1082.44 219.206 1088.48 220.652 1092.68 223.545C1094.44 219.12 1097.47 215.575 1101.78 212.908C1106.15 210.242 1111.14 208.909 1116.76 208.909V218.695C1112.39 218.695 1108.62 219.631 1105.44 221.503C1102.27 223.318 1100.28 225.673 1099.49 228.566C1104.7 234.239 1107.31 241.217 1107.31 249.5C1107.31 258.52 1104.31 265.668 1098.29 270.944C1092.22 276.39 1084.42 279.113 1074.89 279.113C1070.24 279.113 1066.01 278.603 1062.21 277.582C1056.26 278.432 1053.28 281.496 1053.28 286.772C1053.28 292.388 1057.48 295.196 1065.87 295.196H1091.15C1099.2 295.196 1105.5 297.069 1110.04 300.813C1114.63 304.557 1116.93 309.748 1116.93 316.385C1116.93 324.668 1113.3 330.965 1106.04 335.277C1098.78 339.645 1088.56 341.829 1075.4 341.829C1063.09 341.829 1053.82 339.9 1047.58 336.043C1041.39 332.185 1038.3 326.739 1038.3 319.704ZM1052.77 249.33C1052.77 256.024 1054.72 261.271 1058.64 265.072C1062.55 268.873 1067.86 270.774 1074.55 270.774C1081.36 270.774 1086.69 268.873 1090.55 265.072C1094.41 261.215 1096.34 255.967 1096.34 249.33C1096.34 242.635 1094.38 237.359 1090.47 233.502C1086.55 229.644 1081.25 227.715 1074.55 227.715C1067.74 227.715 1062.41 229.672 1058.55 233.587C1054.7 237.444 1052.77 242.692 1052.77 249.33ZM1048.09 318.172C1048.09 328.157 1057.31 333.149 1075.74 333.149C1096 333.149 1106.12 327.76 1106.12 316.981C1106.12 314.201 1105.47 311.904 1104.17 310.088C1102.92 308.216 1101.19 306.968 1098.97 306.344C1095.68 305.266 1092.9 304.727 1090.64 304.727H1064.6C1059.21 304.727 1055.09 305.919 1052.26 308.301C1049.48 310.684 1048.09 313.974 1048.09 318.172ZM1150.29 311.024H1139.31V183.976H1150.29V237.501H1151.31C1154.15 231.828 1158.29 227.375 1163.73 224.141C1169.18 220.851 1175.25 219.206 1181.94 219.206C1191.47 219.206 1199.08 222.411 1204.75 228.821C1210.48 235.232 1213.34 243.94 1213.34 254.946V311.024H1202.37V255.967C1202.37 238.437 1194.71 229.672 1179.39 229.672C1170.65 229.672 1163.62 232.793 1158.29 239.033C1152.95 245.217 1150.29 253.357 1150.29 263.456V311.024ZM1228.66 230.353V220.907H1244.49V191.805L1255.47 187.635V220.907H1275.89V230.353H1255.47V287.282C1255.47 290.8 1256.01 294.005 1257.08 296.898C1258.67 300.529 1262.56 302.345 1268.74 302.345C1271.86 302.345 1274.24 301.976 1275.89 301.238V311.024C1273.45 311.819 1270.36 312.216 1266.61 312.216C1251.86 312.216 1244.49 304.16 1244.49 288.048V230.353H1228.66Z" fill="#ECFEFF"/>
</g>
</svg>
