<svg width="720" height="696" viewBox="0 0 720 696" fill="none" xmlns="http://www.w3.org/2000/svg">
<mask id="mask0_660_1439" style="mask-type:alpha" maskUnits="userSpaceOnUse" x="0" y="0" width="720" height="696">
<rect width="720" height="696" fill="#F9FDFD"/>
</mask>
<g mask="url(#mask0_660_1439)">
<rect width="720" height="696" fill="#0F0926"/>
<path fill-rule="evenodd" clip-rule="evenodd" d="M269.735 278.173C258.13 278.173 247.849 283.839 241.507 292.557C253.998 295.778 264.301 304.442 269.734 315.87C275.168 304.442 285.471 295.778 297.963 292.557C291.621 283.839 281.34 278.173 269.735 278.173ZM302.153 300.149C286.06 303.245 273.9 317.407 273.9 334.404H273.899H265.57H265.569C265.569 317.407 253.409 303.245 237.317 300.149C237.259 300.295 237.202 300.44 237.146 300.587L236.226 303.326C235.331 306.415 234.851 309.68 234.851 313.057C234.851 332.323 250.469 347.941 269.735 347.941C288.959 347.941 304.551 332.391 304.619 313.183V312.931C304.603 308.417 303.729 304.105 302.153 300.149ZM312.949 312.796C312.808 289.049 293.515 269.842 269.735 269.842C251.87 269.842 236.537 280.683 229.955 296.144L229.86 296.112L229.32 297.723C228.926 298.759 228.572 299.813 228.258 300.885L185.683 427.695L192.672 426.369C229.68 419.349 259.456 391.943 269.891 356.271C283.738 356.222 296.05 349.661 303.924 339.491C299.042 379.065 268.926 410.831 230.169 418.183L231.722 426.368C277.975 417.594 312.949 376.963 312.949 328.155V313.197L312.949 313.057L312.949 312.917V312.796H312.949ZM198.215 416.542L228.551 326.187C233.29 341.064 245.867 352.445 261.43 355.474C252.185 385.117 228.283 408.301 198.215 416.542Z" fill="#46415B"/>
<path fill-rule="evenodd" clip-rule="evenodd" d="M510.711 278.173C499.106 278.173 488.825 283.839 482.483 292.557C494.975 295.778 505.277 304.442 510.711 315.87C516.144 304.442 526.447 295.778 538.939 292.557C532.597 283.839 522.316 278.173 510.711 278.173ZM543.129 300.149C527.036 303.245 514.876 317.407 514.876 334.404H514.876H506.546H506.545C506.545 317.407 494.386 303.245 478.293 300.149C478.235 300.295 478.178 300.441 478.122 300.587L477.202 303.326C476.307 306.414 475.827 309.68 475.827 313.057C475.827 332.323 491.445 347.941 510.711 347.941C529.932 347.941 545.522 332.396 545.595 313.193V312.921C545.578 308.41 544.705 304.102 543.129 300.149ZM553.925 312.796C553.785 289.049 534.491 269.842 510.711 269.842C492.846 269.842 477.513 280.683 470.931 296.144L470.837 296.112L470.296 297.724C469.903 298.759 469.548 299.813 469.235 300.884L426.66 427.695L433.649 426.369C470.656 419.349 500.432 391.943 510.867 356.271C524.714 356.222 537.026 349.661 544.901 339.491C540.018 379.065 509.902 410.831 471.146 418.183L472.698 426.368C518.951 417.594 553.926 376.963 553.926 328.155V313.208L553.926 313.057L553.926 312.906V312.796H553.925ZM439.191 416.542L469.527 326.187C474.266 341.064 486.844 352.445 502.406 355.474C493.161 385.117 469.26 408.301 439.191 416.542Z" fill="#ECFEFF"/>
<circle opacity="0.4" cx="231.22" cy="333.369" r="38.3773" stroke="url(#paint0_linear_660_1439)" stroke-width="1.42138"/>
<circle opacity="0.4" r="38.3773" transform="matrix(-1 0 0 1 308.33 333.369)" stroke="url(#paint1_linear_660_1439)" stroke-width="1.42138"/>
<circle opacity="0.4" r="96.6539" transform="matrix(1 0 0 -1 173.654 327.683)" stroke="url(#paint2_linear_660_1439)" stroke-width="1.42138"/>
<circle opacity="0.4" r="96.6539" transform="matrix(1 0 0 -1 212.742 327.683)" stroke="url(#paint3_linear_660_1439)" stroke-width="1.42138"/>
<circle opacity="0.4" r="39.088" transform="matrix(-1 0 0 1 269.597 312.759)" stroke="url(#paint4_linear_660_1439)" stroke-width="1.42138"/>
</g>
<defs>
<linearGradient id="paint0_linear_660_1439" x1="269.597" y1="294.992" x2="192.843" y2="371.746" gradientUnits="userSpaceOnUse">
<stop stop-color="#ECFEFF"/>
<stop offset="1" stop-color="#ECFEFF" stop-opacity="0"/>
</linearGradient>
<linearGradient id="paint1_linear_660_1439" x1="76.7545" y1="0" x2="0" y2="76.7545" gradientUnits="userSpaceOnUse">
<stop stop-color="#ECFEFF"/>
<stop offset="1" stop-color="#ECFEFF" stop-opacity="0"/>
</linearGradient>
<linearGradient id="paint2_linear_660_1439" x1="193.308" y1="-1.03783e-05" x2="19.1886" y2="143.204" gradientUnits="userSpaceOnUse">
<stop stop-color="#ECFEFF"/>
<stop offset="1" stop-color="#ECFEFF" stop-opacity="0"/>
</linearGradient>
<linearGradient id="paint3_linear_660_1439" x1="193.308" y1="-1.03783e-05" x2="19.1886" y2="143.204" gradientUnits="userSpaceOnUse">
<stop stop-color="#ECFEFF"/>
<stop offset="1" stop-color="#ECFEFF" stop-opacity="0"/>
</linearGradient>
<linearGradient id="paint4_linear_660_1439" x1="78.1759" y1="0" x2="0" y2="78.1759" gradientUnits="userSpaceOnUse">
<stop stop-color="#ECFEFF"/>
<stop offset="1" stop-color="#ECFEFF" stop-opacity="0"/>
</linearGradient>
</defs>
</svg>
