<svg width="375" height="400" viewBox="0 0 375 400" fill="none" xmlns="http://www.w3.org/2000/svg">
<mask id="mask0_1302_4443" style="mask-type:alpha" maskUnits="userSpaceOnUse" x="0" y="0" width="375" height="400">
<rect width="375" height="400" fill="#0F0926"/>
</mask>
<g mask="url(#mask0_1302_4443)">
<rect width="375" height="400" fill="#0F0926"/>
<path d="M90.1558 71H80.5393L74.2718 54.1592H41.4513L35.1839 71H25.8544L52.7902 -0.42998H62.9808L90.1558 71ZM48.6757 34.5434L44.1784 46.7913H71.5447L66.9996 34.5434L58.1965 8.56455H57.718L48.6757 34.5434ZM107.571 71H99.1503V-0.812726H107.571V71ZM133.023 71H124.603V-0.812726H133.023V71ZM158.476 11.2438H150.056V0.0484527H158.476V11.2438ZM158.476 71H150.056V19.8556H158.476V71ZM171.202 56.9819C171.202 51.7192 173.02 47.6684 176.656 44.8297C180.292 41.9591 185.3 40.5238 191.679 40.5238H205.314V36.6964C205.314 29.3285 201.391 25.6446 193.545 25.6446C190.037 25.6446 187.198 26.4739 185.029 28.1324C182.892 29.791 181.744 31.9918 181.584 34.7348H173.355C173.738 29.9186 175.795 26.1071 179.527 23.3003C183.418 20.334 188.218 18.8509 193.928 18.8509C200.307 18.8509 205.203 20.4775 208.616 23.7309C212.028 26.9842 213.735 31.5453 213.735 37.414V60.7137C213.735 61.543 213.783 62.2128 213.878 62.7231C213.974 63.2015 214.261 63.6481 214.74 64.0627C215.218 64.4455 215.92 64.6368 216.845 64.6368C217.451 64.6368 218.073 64.5731 218.711 64.4455V71C217.339 71.3827 215.904 71.5741 214.405 71.5741C208.664 71.5741 205.793 68.5759 205.793 62.5796H205.219C204.102 65.3864 201.981 67.651 198.856 69.3733C195.73 71.0957 192.189 71.9569 188.234 71.9569C183.163 71.9569 179.049 70.5854 175.891 67.8423C172.765 65.0674 171.202 61.4473 171.202 56.9819ZM179.91 56.0251C179.91 58.8 180.819 60.9848 182.637 62.5796C184.455 64.1425 186.911 64.9239 190.005 64.9239C194.534 64.9239 198.218 63.4886 201.056 60.618C203.895 57.7155 205.314 53.9837 205.314 49.4227V46.6956H192.349C188.234 46.6956 185.125 47.509 183.02 49.1356C180.946 50.7304 179.91 53.0269 179.91 56.0251ZM239.331 71H230.815V19.8556H238.278L239.331 29.3764H240.049C241.643 26.0911 243.94 23.5235 246.938 21.6736C249.968 19.7918 253.413 18.8509 257.272 18.8509C262.758 18.8509 267.08 20.7167 270.238 24.4485C273.427 28.1803 275.022 33.2198 275.022 39.567V71H266.506V40.4282C266.506 31.0828 262.487 26.4101 254.449 26.4101C249.952 26.4101 246.3 28.0527 243.493 31.3379C240.718 34.6232 239.331 38.9291 239.331 44.2556V71ZM325.401 53.5372H334.109C333.63 59.0551 331.286 63.5365 327.076 66.9812C322.993 70.2983 317.826 71.9569 311.574 71.9569C304.175 71.9569 298.258 69.5488 293.825 64.7325C289.391 59.9163 287.174 53.5213 287.174 45.5474C287.174 37.4778 289.391 31.0349 293.825 26.2187C298.354 21.3068 304.398 18.8509 311.957 18.8509C317.922 18.8509 322.929 20.4935 326.98 23.7787C331.063 27.0958 333.343 31.3379 333.821 36.505H325.21C324.476 33.2517 322.897 30.7638 320.473 29.0415C318.049 27.2872 315.115 26.4101 311.67 26.4101C306.662 26.4101 302.771 28.1324 299.996 31.5772C297.253 35.0219 295.882 39.7105 295.882 45.6431C295.882 51.6394 297.269 56.2962 300.044 59.6133C302.851 62.8985 306.694 64.5412 311.574 64.5412C315.37 64.5412 318.528 63.5365 321.047 61.527C323.567 59.5176 325.018 56.8543 325.401 53.5372ZM366.69 71.9569C359.354 71.9569 353.501 69.5807 349.131 64.8282C344.698 60.012 342.481 53.5851 342.481 45.5474C342.481 37.414 344.666 30.9711 349.036 26.2187C353.469 21.3068 359.322 18.8509 366.594 18.8509C373.643 18.8509 379.177 20.9241 383.196 25.0705C387.215 29.2169 389.224 34.8305 389.224 41.9113C389.224 43.9526 389.128 45.7069 388.937 47.1741H351.093C351.061 52.7877 352.448 57.1733 355.255 60.331C358.062 63.4567 361.937 65.0196 366.881 65.0196C370.581 65.0196 373.707 64.1584 376.258 62.4361C378.842 60.7137 380.453 58.4332 381.091 55.5945H389.607C388.746 60.4745 386.194 64.4295 381.952 67.4596C377.869 70.4578 372.782 71.9569 366.69 71.9569ZM351.189 40.9066H380.804C380.804 36.0585 379.56 32.3426 377.072 29.7591C374.584 27.1437 371.059 25.836 366.498 25.836C362.033 25.836 358.397 27.2234 355.59 29.9983C352.783 32.7413 351.316 36.3774 351.189 40.9066ZM435.632 71H426.733V-0.42998H437.785L475.725 59.8525H476.203L475.533 38.1795V-0.42998H484.336V71H473.285L435.441 10.7175H435.058L435.632 31.5293V71ZM498.641 45.6431C498.641 37.733 500.89 31.2901 505.387 26.3144C509.98 21.3387 515.961 18.8509 523.329 18.8509C530.696 18.8509 536.581 21.3387 540.983 26.3144C545.48 31.1944 547.729 37.6054 547.729 45.5474C547.729 53.3937 545.48 59.7568 540.983 64.6368C536.581 69.5169 530.696 71.9569 523.329 71.9569C515.993 71.9569 510.012 69.5488 505.387 64.7325C500.89 59.8525 498.641 53.4894 498.641 45.6431ZM507.349 45.4039C507.349 51.3045 508.736 55.9613 511.511 59.3741C514.318 62.755 518.225 64.4455 523.233 64.4455C528.113 64.4455 531.956 62.7391 534.763 59.3262C537.602 55.9134 539.021 51.2407 539.021 45.3082C539.021 39.5032 537.634 34.9102 534.859 31.5293C532.084 28.1165 528.209 26.4101 523.233 26.4101C518.353 26.4101 514.478 28.1165 511.607 31.5293C508.768 34.9102 507.349 39.5351 507.349 45.4039ZM569.689 71H558.685V58.6564H569.689V71ZM605.045 63.3451H627.675V71H582.128V68.56C582.128 65.9127 582.559 63.1378 583.42 60.2353C583.675 59.2465 584.217 58.0345 585.046 56.5992C585.174 56.3759 585.365 56.041 585.621 55.5945C585.908 55.116 586.099 54.7811 586.195 54.5898C586.322 54.3984 586.498 54.1273 586.721 53.7764C586.976 53.4256 587.183 53.1545 587.343 52.9631C587.502 52.7398 587.694 52.4687 587.917 52.1498C588.172 51.8308 588.427 51.5278 588.682 51.2407C588.97 50.9537 589.273 50.6507 589.591 50.3317L592.223 47.7003L595.428 45.0211L598.49 42.6768C598.65 42.5492 598.889 42.3738 599.208 42.1505C599.527 41.9272 599.942 41.6402 600.452 41.2893C600.994 40.9066 601.489 40.5557 601.935 40.2368C603.338 39.1523 604.439 38.3709 605.236 37.8925C609.702 34.7348 612.923 31.8323 614.901 29.185C616.878 26.5058 617.867 23.3641 617.867 19.7599C617.867 15.8048 616.687 12.711 614.326 10.4783C611.998 8.2456 608.84 7.12925 604.853 7.12925C600.452 7.12925 597.055 8.40507 594.663 10.9567C592.303 13.4765 591.25 16.9052 591.505 21.243H582.989C582.702 14.832 584.632 9.60116 588.778 5.55043C593.02 1.4997 598.538 -0.525666 605.332 -0.525666C611.807 -0.525666 617.006 1.34022 620.929 5.07199C624.852 8.80377 626.814 13.6359 626.814 19.5685C626.814 22.0564 626.479 24.3688 625.809 26.5058C625.171 28.6109 624.15 30.6203 622.747 32.534C621.343 34.4478 619.749 36.2339 617.963 37.8925C616.176 39.551 613.96 41.3691 611.312 43.3466L607.006 46.4086C605.029 47.7801 603.498 48.8964 602.413 49.7576C600.691 51.0972 599.415 52.1338 598.586 52.8674C596.991 54.1751 595.779 55.3553 594.95 56.4078C592.781 59.1189 591.537 61.6387 591.218 63.967C595.684 63.5524 600.292 63.3451 605.045 63.3451Z" fill="#ECFEFF"/>
<path d="M-49.8119 290.295H-59.4284L-65.6959 273.454H-98.5163L-104.784 290.295H-114.113L-87.1775 218.865H-76.9869L-49.8119 290.295ZM-91.292 253.839L-95.7893 266.087H-68.4229L-72.968 253.839L-81.7712 227.86H-82.2496L-91.292 253.839ZM-45.1233 276.277C-45.1233 271.014 -43.3052 266.964 -39.6691 264.125C-36.033 261.254 -31.0254 259.819 -24.6463 259.819H-11.011V255.992C-11.011 248.624 -14.9342 244.94 -22.7805 244.94C-26.289 244.94 -29.1277 245.769 -31.2966 247.428C-33.4335 249.086 -34.5818 251.287 -34.7413 254.03H-42.9703C-42.5876 249.214 -40.5303 245.402 -36.7985 242.596C-32.9073 239.629 -28.107 238.146 -22.3977 238.146C-16.0186 238.146 -11.1226 239.773 -7.70983 243.026C-4.29701 246.279 -2.5906 250.841 -2.5906 256.709V280.009C-2.5906 280.838 -2.54275 281.508 -2.44707 282.018C-2.35138 282.497 -2.06432 282.943 -1.58589 283.358C-1.10746 283.741 -0.405756 283.932 0.519214 283.932C1.12523 283.932 1.74719 283.868 2.3851 283.741V290.295C1.01359 290.678 -0.421703 290.869 -1.92079 290.869C-7.66198 290.869 -10.5326 287.871 -10.5326 281.875H-11.1067C-12.223 284.682 -14.3441 286.946 -17.4699 288.669C-20.5956 290.391 -24.136 291.252 -28.0911 291.252C-33.1624 291.252 -37.277 289.881 -40.4346 287.138C-43.5604 284.363 -45.1233 280.743 -45.1233 276.277ZM-36.4158 275.32C-36.4158 278.095 -35.5068 280.28 -33.6887 281.875C-31.8707 283.438 -29.4147 284.219 -26.3209 284.219C-21.7917 284.219 -18.1078 282.784 -15.2691 279.913C-12.4304 277.011 -11.011 273.279 -11.011 268.718V265.991H-23.9765C-28.0911 265.991 -31.2009 266.804 -33.306 268.431C-35.3792 270.026 -36.4158 272.322 -36.4158 275.32ZM47.597 290.295H15.8769V218.865H47.6927C54.1356 218.865 59.2229 220.524 62.9547 223.841C66.7183 227.126 68.6002 231.512 68.6002 236.998C68.6002 240.793 67.7071 244.095 65.9209 246.901C64.1667 249.708 61.631 251.766 58.3139 253.073V253.839C62.1732 255.051 65.1395 257.156 67.2127 260.154C69.3178 263.12 70.3704 266.661 70.3704 270.775C70.3704 276.74 68.3131 281.492 64.1986 285.033C60.116 288.541 54.5821 290.295 47.597 290.295ZM24.6801 226.425V250.011H46.3531C50.4995 250.011 53.7209 248.991 56.0174 246.949C58.3139 244.876 59.4621 241.99 59.4621 238.29C59.4621 234.622 58.266 231.735 55.8739 229.63C53.5136 227.493 50.34 226.425 46.3531 226.425H24.6801ZM24.6801 257.571V282.64H46.7358C51.3925 282.64 54.9329 281.524 57.357 279.291C59.813 277.059 61.0409 273.965 61.0409 270.01C61.0409 265.959 59.7651 262.881 57.2135 260.776C54.6618 258.639 51.1693 257.571 46.7358 257.571H24.6801ZM91.8042 290.295H84.0535V218.483H92.5696V248.959H93.1916C94.5312 245.737 96.8117 243.138 100.033 241.16C103.255 239.151 106.907 238.146 110.989 238.146C117.337 238.146 122.535 240.602 126.586 245.514C130.637 250.33 132.662 256.725 132.662 264.699C132.662 272.673 130.637 279.116 126.586 284.028C122.535 288.844 117.177 291.252 110.511 291.252C106.492 291.252 102.904 290.375 99.7461 288.621C96.5885 286.835 94.4036 284.427 93.1916 281.396H92.5696L91.8042 290.295ZM92.5696 261.685V268.24C92.5696 272.769 94.0847 276.5 97.1148 279.435C100.145 282.369 103.893 283.836 108.358 283.836C113.015 283.836 116.794 282.178 119.697 278.861C122.599 275.544 124.051 270.823 124.051 264.699C124.051 258.511 122.615 253.807 119.745 250.585C116.874 247.332 113.11 245.705 108.454 245.705C103.829 245.705 100.017 247.204 97.0191 250.203C94.0528 253.169 92.5696 256.996 92.5696 261.685ZM196.629 266.9H205.767C204.81 274.3 201.477 280.2 195.768 284.602C190.122 289.035 183.169 291.252 174.908 291.252C164.893 291.252 156.823 287.903 150.699 281.205C144.543 274.475 141.465 265.624 141.465 254.652C141.465 243.68 144.543 234.829 150.699 228.099C156.855 221.369 164.925 218.004 174.908 218.004C183.137 218.004 190.026 220.189 195.576 224.559C201.19 228.96 204.587 234.829 205.767 242.165H196.629C195.417 237.125 192.865 233.186 188.974 230.348C185.114 227.477 180.426 226.042 174.908 226.042C167.604 226.042 161.751 228.641 157.349 233.84C153.044 239.071 150.891 246.008 150.891 254.652C150.891 263.36 153.044 270.313 157.349 275.512C161.623 280.679 167.428 283.262 174.764 283.262C180.633 283.262 185.449 281.811 189.213 278.909C193.009 276.006 195.48 272.003 196.629 266.9ZM253.179 272.832H261.887C261.408 278.35 259.064 282.832 254.854 286.276C250.771 289.594 245.604 291.252 239.353 291.252C231.953 291.252 226.036 288.844 221.603 284.028C217.169 279.212 214.953 272.817 214.953 264.843C214.953 256.773 217.169 250.33 221.603 245.514C226.132 240.602 232.176 238.146 239.735 238.146C245.7 238.146 250.708 239.789 254.758 243.074C258.841 246.391 261.121 250.633 261.6 255.8H252.988C252.254 252.547 250.676 250.059 248.252 248.337C245.828 246.583 242.893 245.705 239.448 245.705C234.441 245.705 230.55 247.428 227.775 250.872C225.032 254.317 223.66 259.006 223.66 264.938C223.66 270.935 225.048 275.591 227.823 278.909C230.629 282.194 234.473 283.836 239.353 283.836C243.148 283.836 246.306 282.832 248.826 280.822C251.345 278.813 252.797 276.15 253.179 272.832ZM302.984 290.295H275.857V218.865H302.984C312.968 218.865 320.75 222.135 326.332 228.673C331.945 235.148 334.752 243.808 334.752 254.652C334.752 265.465 331.945 274.108 326.332 280.583C320.718 287.058 312.936 290.295 302.984 290.295ZM284.756 226.999V282.162H302.506C309.682 282.162 315.28 279.706 319.299 274.794C323.318 269.882 325.327 263.12 325.327 254.509C325.327 245.769 323.286 239.007 319.203 234.223C315.152 229.407 309.587 226.999 302.506 226.999H284.756ZM393.408 218.483V290.295H385.753L384.892 281.396H384.413C383.042 284.395 380.746 286.787 377.524 288.573C374.335 290.359 370.714 291.252 366.664 291.252C360.029 291.252 354.703 288.908 350.684 284.219C346.697 279.467 344.704 273.104 344.704 265.13C344.704 256.964 346.729 250.426 350.78 245.514C354.83 240.602 360.157 238.146 366.759 238.146C370.938 238.146 374.574 239.135 377.668 241.112C380.761 243.09 383.01 245.769 384.413 249.15H384.892V218.483H393.408ZM384.892 268.24V261.685C384.892 256.964 383.393 253.121 380.395 250.155C377.396 247.189 373.601 245.705 369.008 245.705C364.064 245.705 360.221 247.444 357.478 250.92C354.767 254.365 353.411 259.133 353.411 265.225C353.411 271.126 354.783 275.703 357.526 278.956C360.269 282.21 364.032 283.836 368.817 283.836C373.441 283.836 377.269 282.369 380.299 279.435C383.361 276.373 384.892 272.641 384.892 268.24ZM459.336 290.295H411.828V218.865H459.336V226.999H420.727V249.629H454.552V257.379H420.727V282.162H459.336V290.295ZM491.965 291.252C484.629 291.252 478.776 288.876 474.407 284.124C469.973 279.307 467.756 272.88 467.756 264.843C467.756 256.709 469.941 250.266 474.311 245.514C478.744 240.602 484.597 238.146 491.869 238.146C498.918 238.146 504.452 240.219 508.471 244.366C512.49 248.512 514.499 254.126 514.499 261.207C514.499 263.248 514.404 265.002 514.212 266.469H476.368C476.336 272.083 477.724 276.469 480.531 279.626C483.337 282.752 487.213 284.315 492.157 284.315C495.856 284.315 498.982 283.454 501.534 281.731C504.117 280.009 505.728 277.728 506.366 274.89H514.882C514.021 279.77 511.469 283.725 507.227 286.755C503.145 289.753 498.057 291.252 491.965 291.252ZM476.464 260.202H506.079C506.079 255.354 504.835 251.638 502.347 249.054C499.859 246.439 496.335 245.131 491.774 245.131C487.308 245.131 483.672 246.519 480.866 249.294C478.059 252.037 476.592 255.673 476.464 260.202ZM538.038 290.295H529.139V218.865H575.882V226.999H538.038V254.317H571.959V262.068H538.038V290.295ZM610.473 239.151V246.184H598.225V290.295H589.709V246.184H580.523V239.151H589.709V232.405C589.709 227.621 591.017 224.016 593.632 221.592C596.247 219.136 599.947 217.908 604.732 217.908C606.996 217.908 608.91 218.132 610.473 218.578V225.516C608.814 225.197 607.283 225.037 605.88 225.037C603.169 225.037 601.207 225.707 599.995 227.047C598.815 228.386 598.225 230.459 598.225 233.266V239.151H610.473ZM646.451 260.106V252.595H682.429V290.295H675.157L674.2 277.856H673.482C671.282 282.002 667.901 285.272 663.34 287.664C658.811 290.056 653.771 291.252 648.221 291.252C638.78 291.252 631.077 288.031 625.113 281.588C619.148 275.145 616.166 266.358 616.166 255.226C616.166 243.935 619.244 234.925 625.4 228.195C631.62 221.401 639.849 218.004 650.087 218.004C657.838 218.004 664.472 220.061 669.99 224.176C675.476 228.29 678.697 233.601 679.654 240.108H670.564C669.448 235.706 667.024 232.261 663.292 229.774C659.56 227.286 655.031 226.042 649.704 226.042C642.113 226.042 636.197 228.657 631.955 233.888C627.712 239.119 625.591 246.295 625.591 255.418C625.591 264.444 627.665 271.381 631.811 276.229C635.989 281.046 641.683 283.454 648.891 283.454C655.972 283.454 661.665 281.253 665.971 276.851C670.309 272.514 672.621 266.932 672.908 260.106H646.451ZM694.151 295.51C694.151 293.15 694.852 291.093 696.256 289.338C697.659 287.552 699.541 286.276 701.901 285.511V284.793C700.402 284.379 699.174 283.517 698.217 282.21C697.261 280.902 696.782 279.451 696.782 277.856C696.782 275.847 697.388 274.092 698.6 272.593C699.812 271.094 701.423 270.042 703.432 269.436V268.814C698.552 265.784 696.112 261.223 696.112 255.13C696.112 249.963 697.867 245.881 701.375 242.883C705.011 239.725 709.652 238.146 715.297 238.146C719.348 238.146 722.586 238.88 725.01 240.347C726.03 237.572 727.848 235.371 730.464 233.745C733.111 232.118 736.157 231.305 739.602 231.305V238.385C737.273 238.385 735.232 238.848 733.478 239.773C731.756 240.698 730.623 241.926 730.081 243.457C733.239 246.614 734.818 250.601 734.818 255.418C734.818 260.393 733.079 264.412 729.603 267.474C726.126 270.536 721.549 272.067 715.872 272.067C713.639 272.067 711.326 271.812 708.934 271.302C706 271.78 704.533 273.343 704.533 275.99C704.533 278.925 706.813 280.392 711.374 280.392H724.914C729.762 280.392 733.526 281.524 736.205 283.789C738.916 286.021 740.272 289.131 740.272 293.118C740.272 297.966 738.119 301.666 733.813 304.218C729.507 306.769 723.463 308.045 715.68 308.045C708.568 308.045 703.193 306.945 699.557 304.744C695.953 302.543 694.151 299.465 694.151 295.51ZM704.533 255.226C704.533 258.575 705.521 261.207 707.499 263.12C709.477 265.034 712.14 265.991 715.489 265.991C718.934 265.991 721.629 265.034 723.574 263.12C725.52 261.175 726.493 258.543 726.493 255.226C726.493 251.877 725.488 249.23 723.479 247.284C721.501 245.307 718.838 244.318 715.489 244.318C712.14 244.318 709.477 245.323 707.499 247.332C705.521 249.31 704.533 251.941 704.533 255.226ZM701.901 294.123C701.901 299.162 706.638 301.682 716.111 301.682C726.604 301.682 731.851 298.939 731.851 293.453C731.851 289.466 729.268 287.473 724.101 287.473H710.322C704.708 287.473 701.901 289.689 701.901 294.123Z" fill="#ECFEFF"/>
<path d="M320.996 347.167H302.481V342.431H304.442C309.291 342.431 313.166 341.378 316.068 339.273C319.003 337.168 320.773 334.17 321.379 330.278H327.072V400.943H320.996V347.167ZM368.217 395.25H392.426V400.943H348.41V398.503C348.41 395.122 349.096 391.789 350.468 388.504C351.265 386.558 353.099 383.974 355.97 380.753C356.767 379.86 358.011 378.712 359.701 377.308C360.786 376.383 362.062 375.379 363.529 374.294L367.739 371.232L371.662 368.505C376.319 365.124 379.684 362.014 381.757 359.176C383.83 356.337 384.867 352.988 384.867 349.129C384.867 344.823 383.559 341.426 380.944 338.938C378.36 336.45 374.868 335.206 370.466 335.206C365.618 335.206 361.87 336.594 359.223 339.369C356.608 342.112 355.427 345.78 355.683 350.373H349.415C349.128 344.121 350.978 339.097 354.965 335.302C358.984 331.379 364.246 329.417 370.753 329.417C376.909 329.417 381.917 331.251 385.776 334.919C389.54 338.491 391.421 343.116 391.421 348.794C391.421 353.769 390.05 358.091 387.307 361.759C384.883 365.108 381.008 368.792 375.681 372.811L371.566 375.777L367.356 378.887L363.72 381.758C363.114 382.236 362.572 382.683 362.094 383.097C361.647 383.512 361.216 383.943 360.802 384.389C360.387 384.836 360.052 385.202 359.797 385.489C359.574 385.777 359.239 386.223 358.792 386.829C358.346 387.403 357.995 387.834 357.74 388.121C356.081 390.29 355.204 392.794 355.108 395.632C359.542 395.377 363.912 395.25 368.217 395.25ZM426.634 401.9C419.84 401.9 414.482 399.89 410.559 395.871C406.763 391.789 405.009 386.367 405.296 379.605H412.042C411.819 384.995 413.015 389.126 415.63 391.996C418.277 394.835 421.945 396.254 426.634 396.254C431.355 396.254 435.15 394.931 438.021 392.283C440.891 389.604 442.327 386.096 442.327 381.758C442.327 377.292 440.828 373.752 437.829 371.137C434.863 368.521 430.812 367.213 425.677 367.213H421.754V361.472H425.869C430.685 361.472 434.448 360.212 437.16 357.693C439.871 355.173 441.226 351.888 441.226 347.837C441.226 343.882 439.919 340.788 437.303 338.555C434.688 336.323 431.259 335.206 427.017 335.206C422.36 335.206 418.756 336.626 416.204 339.464C413.685 342.303 412.425 346.338 412.425 351.569H405.87C405.583 344.934 407.449 339.608 411.468 335.589C415.487 331.474 420.67 329.417 427.017 329.417C432.886 329.417 437.829 331.044 441.848 334.297C445.899 337.582 447.924 342.096 447.924 347.837C447.924 355.3 444.256 360.659 436.92 363.912V364.486C440.907 365.954 443.921 368.202 445.963 371.232C448.036 374.23 449.073 377.659 449.073 381.519C449.073 387.611 446.983 392.554 442.805 396.35C438.627 400.05 433.236 401.9 426.634 401.9ZM500.695 330.278V379.605H509.738V385.059H500.695V400.943H494.524V385.059H459.072V379.079L490.505 330.278H500.695ZM494.524 334.297L465.722 379.605H494.524V334.297ZM544.185 354.583C550.468 354.583 555.747 356.815 560.021 361.281C564.263 365.714 566.384 371.328 566.384 378.122C566.384 385.171 564.199 390.88 559.83 395.25C555.396 399.683 549.846 401.9 543.18 401.9C536.769 401.9 531.507 399.842 527.392 395.728C523.309 391.645 521.316 386.271 521.412 379.605H527.823C527.727 384.357 529.066 388.328 531.841 391.518C534.68 394.675 538.492 396.254 543.276 396.254C548.188 396.254 552.143 394.644 555.141 391.422C558.139 388.169 559.638 383.831 559.638 378.409C559.638 373.05 558.123 368.681 555.093 365.3C552.063 361.887 548.092 360.18 543.18 360.18C540.023 360.18 537.072 360.914 534.329 362.381C531.586 363.817 529.704 365.635 528.684 367.835H522.895L524.282 330.278H563.466V335.876H529.784L528.588 360.563L528.875 360.659C530.374 358.841 532.543 357.374 535.382 356.257C538.252 355.141 541.187 354.583 544.185 354.583ZM604.085 401.9C588.488 401.9 580.689 389.827 580.689 365.682C580.689 341.506 588.711 329.417 604.755 329.417C610.783 329.417 615.647 330.996 619.347 334.154C623.047 337.279 625.12 341.553 625.566 346.976H618.964C618.549 343.053 617.066 340.102 614.515 338.125C611.963 336.115 608.71 335.111 604.755 335.111C592.315 335.111 586.574 345.652 587.531 366.735H587.914C591.167 359.367 597.02 355.683 605.472 355.683C611.628 355.683 616.683 357.804 620.638 362.046C624.562 366.257 626.523 371.806 626.523 378.696C626.523 385.585 624.498 391.199 620.447 395.537C616.396 399.779 610.942 401.9 604.085 401.9ZM604.563 396.254C609.124 396.254 612.776 394.659 615.519 391.47C618.294 388.248 619.682 383.927 619.682 378.504C619.682 373.146 618.294 368.936 615.519 365.874C612.776 362.812 609.124 361.281 604.563 361.281C599.619 361.281 595.776 363.003 593.033 366.448C590.354 369.956 589.014 374.103 589.014 378.887C589.014 383.927 590.449 388.105 593.32 391.422C596.127 394.644 599.875 396.254 604.563 396.254ZM642.646 349.32H637.049V330.278H681.83V334.632C675.164 344.073 669.247 354.774 664.08 366.735C658.913 379.015 655.325 390.417 653.315 400.943H646.57C648.419 390.832 651.848 379.86 656.856 368.027C661.704 356.576 667.445 345.859 674.079 335.876H642.646V349.32ZM692.021 383.002C692.021 379.302 692.93 375.969 694.748 373.002C696.598 370.004 699.181 367.692 702.498 366.065V365.3C699.341 363.896 696.805 361.632 694.891 358.506C692.977 355.38 692.021 352.015 692.021 348.411C692.021 342.957 694.078 338.46 698.192 334.919C702.371 331.315 707.729 329.513 714.268 329.513C720.87 329.513 726.229 331.283 730.343 334.823C734.521 338.332 736.611 342.861 736.611 348.411C736.611 352.015 735.67 355.364 733.788 358.458C731.906 361.52 729.386 363.801 726.229 365.3V366.065C729.482 367.692 732.018 370.02 733.836 373.05C735.686 376.048 736.611 379.366 736.611 383.002C736.611 388.551 734.553 393.097 730.439 396.637C726.356 400.145 720.966 401.9 714.268 401.9C707.633 401.9 702.275 400.145 698.192 396.637C694.078 393.097 692.021 388.551 692.021 383.002ZM698.575 349.129C698.575 353.403 700.01 356.799 702.881 359.319C705.752 361.839 709.547 363.099 714.268 363.099C719.116 363.099 722.959 361.823 725.798 359.271C728.637 356.72 730.056 353.339 730.056 349.129C730.056 344.855 728.621 341.474 725.75 338.986C722.88 336.466 719.052 335.206 714.268 335.206C709.42 335.206 705.592 336.482 702.785 339.034C699.979 341.553 698.575 344.918 698.575 349.129ZM698.575 382.236C698.575 386.542 700.01 389.955 702.881 392.475C705.752 394.994 709.547 396.254 714.268 396.254C719.148 396.254 722.991 394.978 725.798 392.427C728.637 389.843 730.056 386.446 730.056 382.236C730.056 377.994 728.621 374.613 725.75 372.093C722.88 369.574 719.052 368.314 714.268 368.314C709.42 368.314 705.592 369.59 702.785 372.141C699.979 374.693 698.575 378.058 698.575 382.236ZM771.297 401.9C765.588 401.9 760.851 400.305 757.087 397.115C753.388 393.894 751.298 389.684 750.82 384.485H757.279C757.662 388.185 759.113 391.071 761.633 393.144C764.184 395.218 767.469 396.254 771.488 396.254C784.087 396.254 789.732 385.697 788.425 364.582H788.042C784.597 371.918 778.681 375.586 770.292 375.586C764.168 375.586 759.145 373.481 755.222 369.271C751.362 365.029 749.433 359.479 749.433 352.621C749.433 345.7 751.458 340.118 755.509 335.876C759.527 331.57 764.95 329.417 771.775 329.417C787.468 329.417 795.314 341.729 795.314 366.352C795.314 379.079 793.289 388.217 789.238 393.766C785.219 399.189 779.239 401.9 771.297 401.9ZM771.297 369.988C776.304 369.988 780.164 368.282 782.875 364.869C785.618 361.392 786.989 357.214 786.989 352.334C786.989 347.231 785.538 343.084 782.636 339.895C779.765 336.705 775.986 335.111 771.297 335.111C766.64 335.111 762.956 336.705 760.245 339.895C757.566 343.053 756.226 347.358 756.226 352.813C756.226 358.171 757.598 362.381 760.341 365.443C763.084 368.473 766.736 369.988 771.297 369.988Z" fill="#ECFEFF"/>
<path opacity="0.1" d="M69.8946 366.065L75.6837 367.357C74.4078 375.076 72.1592 381.79 68.9378 387.499L81.2813 400.943H73.435L65.5887 392.331C60.1665 398.71 52.5594 401.9 42.7675 401.9C36.2927 401.9 31.0619 400.241 27.0749 396.924C23.088 393.607 21.0945 389.205 21.0945 383.719C21.0945 379.573 22.3703 375.793 24.922 372.38C27.4736 368.968 31.5243 365.619 37.0742 362.333V361.664C33.2148 357.9 30.5037 354.726 28.9408 352.143C27.5055 349.782 26.7879 347.071 26.7879 344.009C26.7879 339.448 28.3029 335.764 31.333 332.958C34.363 330.151 38.3978 328.747 43.4373 328.747C48.2854 328.747 52.1767 330.103 55.1111 332.814C58.0455 335.525 59.5126 339.129 59.5126 343.627C59.5126 346.944 58.5079 350.038 56.4985 352.908C54.4891 355.779 51.0922 358.857 46.3079 362.142V363.003L65.0146 383.48C67.5344 377.484 69.161 371.679 69.8946 366.065ZM32.6726 344.009C32.6726 346.402 33.3264 348.73 34.6342 350.995C35.9419 353.259 38.2543 355.922 41.5714 358.984H42.5761C49.944 353.785 53.6279 348.666 53.6279 343.627C53.6279 340.724 52.6711 338.396 50.7573 336.642C48.8755 334.887 46.3717 334.01 43.2459 334.01C40.1202 334.01 37.5685 334.935 35.591 336.785C33.6454 338.603 32.6726 341.011 32.6726 344.009ZM27.1706 383.384C27.1706 387.467 28.574 390.688 31.3808 393.049C34.2195 395.377 38.0789 396.541 42.9589 396.541C46.8501 396.541 50.4862 395.808 53.8671 394.341C57.2481 392.873 59.9432 390.928 61.9527 388.504L41.093 365.587C31.8114 370.435 27.1706 376.367 27.1706 383.384ZM108.169 382.236H102.237V362.716C105.203 363.131 107.388 363.338 108.791 363.338C114.118 363.338 118.312 362.03 121.374 359.415C124.468 356.799 126.015 353.227 126.015 348.698C126.015 344.233 124.579 340.74 121.709 338.22C118.838 335.669 114.947 334.393 110.035 334.393C105.219 334.393 101.439 335.605 98.6963 338.029C95.9533 340.421 94.4861 343.722 94.2947 347.933H88.1229C88.3143 342.064 90.4034 337.407 94.3904 333.962C98.4092 330.486 103.688 328.747 110.226 328.747C116.925 328.747 122.283 330.565 126.302 334.202C130.353 337.87 132.378 342.702 132.378 348.698C132.378 355.109 130.161 360.149 125.728 363.817C121.294 367.484 115.441 369.175 108.169 368.888V382.236ZM109.939 400.943H100.275V391.518H109.939V400.943ZM153.86 379.892H151.037L149.362 349.607V329.513H155.534V349.607L153.86 379.892ZM156.108 400.943H148.692V394.006H156.108V400.943Z" fill="#ECFEFF"/>
<path d="M-611.669 155.477V110.218H-605.306V154.808C-605.306 161.569 -603.376 166.864 -599.517 170.692C-595.658 174.519 -590.395 176.433 -583.729 176.433C-577.095 176.433 -571.848 174.519 -567.988 170.692C-564.129 166.864 -562.199 161.569 -562.199 154.808V110.218H-555.836V155.477C-555.836 163.675 -558.34 170.277 -563.348 175.284C-568.323 180.165 -575.117 182.605 -583.729 182.605C-592.404 182.605 -599.23 180.165 -604.206 175.284C-609.181 170.309 -611.669 163.706 -611.669 155.477ZM-530.001 181.648H-536.173V130.982H-530.718L-529.905 141.459H-529.427C-527.96 137.791 -525.775 135.016 -522.872 133.135C-519.938 131.253 -516.541 130.312 -512.682 130.312V136.005C-524.228 136.388 -530.001 143.564 -530.001 157.535V181.648ZM-495.984 181.648H-501.821V110.218H-495.649V140.885H-495.075C-493.768 137.6 -491.471 134.969 -488.186 132.991C-484.869 131.014 -481.153 130.025 -477.038 130.025C-470.691 130.025 -465.508 132.465 -461.489 137.345C-457.375 142.129 -455.317 148.476 -455.317 156.386C-455.317 164.169 -457.375 170.5 -461.489 175.38C-465.636 180.196 -471.058 182.605 -477.756 182.605C-481.839 182.605 -485.443 181.727 -488.569 179.973C-491.694 178.219 -493.863 175.843 -495.075 172.844H-495.649L-495.984 181.648ZM-495.649 152.846V160.405C-495.649 165.094 -493.991 169.001 -490.674 172.127C-487.325 175.284 -483.274 176.863 -478.521 176.863C-473.801 176.863 -469.814 175.189 -466.561 171.84C-463.307 168.395 -461.681 163.244 -461.681 156.386C-461.681 149.72 -463.228 144.649 -466.321 141.172C-469.415 137.664 -473.45 135.909 -478.426 135.909C-483.37 135.909 -487.484 137.504 -490.769 140.694C-494.023 143.851 -495.649 147.902 -495.649 152.846ZM-445.51 167.725C-445.51 162.494 -443.739 158.492 -440.199 155.717C-436.627 152.942 -431.667 151.554 -425.32 151.554H-411.11V147.44C-411.11 139.211 -415.48 135.096 -424.219 135.096C-428.111 135.096 -431.252 136.005 -433.645 137.823C-436.005 139.641 -437.281 142.065 -437.472 145.095H-443.357C-443.07 140.566 -441.108 136.946 -437.472 134.235C-433.868 131.428 -429.355 130.025 -423.932 130.025C-417.84 130.025 -413.168 131.62 -409.914 134.809C-406.661 137.967 -405.034 142.416 -405.034 148.157V172.557C-405.098 173.929 -404.923 174.934 -404.508 175.572C-404.093 176.178 -403.121 176.576 -401.59 176.768C-400.984 176.768 -400.362 176.704 -399.724 176.576V181.648C-400.681 181.967 -401.765 182.126 -402.977 182.126C-408.24 182.126 -410.823 179.096 -410.728 173.036H-411.302C-412.482 175.906 -414.651 178.219 -417.808 179.973C-420.966 181.727 -424.538 182.605 -428.525 182.605C-433.565 182.605 -437.663 181.233 -440.821 178.49C-443.947 175.747 -445.51 172.159 -445.51 167.725ZM-439.099 167.151C-439.099 170.309 -438.11 172.765 -436.132 174.519C-434.155 176.273 -431.428 177.15 -427.951 177.15C-422.848 177.15 -418.797 175.54 -415.799 172.318C-412.673 169.097 -411.11 164.918 -411.11 159.783V156.769H-425.224C-429.849 156.769 -433.326 157.662 -435.654 159.448C-437.95 161.203 -439.099 163.77 -439.099 167.151ZM-380.156 181.648H-386.328V130.982H-380.969L-380.06 140.502H-379.486C-377.923 137.217 -375.611 134.65 -372.549 132.8C-369.487 130.95 -366.058 130.025 -362.262 130.025C-356.84 130.025 -352.55 131.843 -349.393 135.479C-346.203 139.083 -344.608 143.995 -344.608 150.215V181.648H-350.78V150.789C-350.78 140.869 -355.086 135.909 -363.698 135.909C-368.705 135.909 -372.692 137.696 -375.658 141.268C-378.657 144.776 -380.156 149.417 -380.156 155.19V181.648ZM-320.447 121.269H-326.523V111.318H-320.447V121.269ZM-320.447 181.648H-326.523V130.982H-320.447V181.648ZM-306.19 166.481H-300.305C-300.305 169.83 -299.045 172.494 -296.526 174.471C-293.974 176.449 -290.529 177.437 -286.192 177.437C-282.205 177.437 -279.047 176.576 -276.719 174.854C-274.39 173.1 -273.226 170.723 -273.226 167.725C-273.226 163.356 -275.682 160.74 -280.594 159.879L-292.076 157.63C-300.752 155.972 -305.09 151.666 -305.09 144.713C-305.09 140.183 -303.431 136.611 -300.114 133.996C-296.797 131.348 -292.316 130.025 -286.67 130.025C-280.865 130.025 -276.32 131.396 -273.035 134.139C-269.718 136.882 -268.027 140.598 -267.963 145.287H-273.848C-274.135 138.493 -278.377 135.096 -286.574 135.096C-290.466 135.096 -293.48 135.894 -295.617 137.488C-297.754 139.083 -298.822 141.268 -298.822 144.043C-298.822 148.349 -295.92 151.06 -290.115 152.176L-279.637 154.138C-270.993 155.828 -266.672 160.453 -266.672 168.012C-266.672 172.478 -268.474 176.018 -272.078 178.634C-275.65 181.281 -280.323 182.605 -286.096 182.605C-292.284 182.605 -297.18 181.153 -300.784 178.251C-304.388 175.316 -306.19 171.393 -306.19 166.481ZM-260.308 136.292V130.982H-251.41V114.619L-245.238 112.275V130.982H-233.755V136.292H-245.238V168.299C-245.238 170.277 -244.935 172.079 -244.329 173.706C-243.436 175.747 -241.251 176.768 -237.774 176.768C-236.02 176.768 -234.68 176.56 -233.755 176.146V181.648C-235.127 182.094 -236.865 182.317 -238.97 182.317C-247.263 182.317 -251.41 177.788 -251.41 168.73V136.292H-260.308ZM-189.74 181.648H-196.103V110.218H-166.105C-158.865 110.218 -153.347 111.972 -149.551 115.48C-145.756 118.989 -143.858 123.837 -143.858 130.025C-143.858 138.605 -147.845 144.617 -155.819 148.062V148.731C-148.834 150.135 -145.341 154.632 -145.341 162.223V174.088C-145.341 177.469 -145.006 179.989 -144.336 181.648H-150.843C-151.481 180.34 -151.8 177.501 -151.8 173.132V163.802C-151.8 159.688 -152.677 156.737 -154.431 154.951C-156.154 153.165 -159.168 152.272 -163.474 152.272H-189.74V181.648ZM-189.74 116.198V146.291H-168.449C-163.027 146.291 -158.689 144.872 -155.436 142.033C-152.151 139.195 -150.508 135.415 -150.508 130.695C-150.508 121.03 -155.867 116.198 -166.583 116.198H-189.74ZM-110.128 182.605C-117.145 182.605 -122.791 180.228 -127.065 175.476C-131.403 170.66 -133.572 164.328 -133.572 156.482C-133.572 148.508 -131.435 142.097 -127.161 137.249C-122.823 132.433 -117.145 130.025 -110.128 130.025C-103.271 130.025 -97.8965 132.066 -94.0052 136.149C-90.114 140.231 -88.1684 145.765 -88.1684 152.75C-88.1684 154.218 -88.28 155.812 -88.5033 157.535H-127.161C-127.193 163.69 -125.662 168.523 -122.568 172.031C-119.474 175.508 -115.232 177.246 -109.841 177.246C-105.727 177.246 -102.282 176.289 -99.5072 174.375C-96.7004 172.43 -94.9143 169.862 -94.1488 166.673H-87.8813C-88.7106 171.457 -91.1506 175.316 -95.2013 178.251C-99.2521 181.153 -104.228 182.605 -110.128 182.605ZM-127.161 152.463H-94.3401C-94.3401 146.977 -95.7117 142.767 -98.4547 139.833C-101.198 136.866 -105.089 135.383 -110.128 135.383C-115.072 135.383 -119.107 136.946 -122.233 140.072C-125.327 143.198 -126.969 147.328 -127.161 152.463ZM-78.5519 186.528C-78.5519 184.167 -77.882 182.078 -76.5424 180.26C-75.1709 178.442 -73.321 177.166 -70.9926 176.433V175.859C-72.4279 175.284 -73.5921 174.407 -74.4852 173.227C-75.3464 172.047 -75.7769 170.707 -75.7769 169.208C-75.7769 167.295 -75.2028 165.62 -74.0546 164.185C-72.8745 162.75 -71.3594 161.745 -69.5095 161.171V160.597C-74.23 157.567 -76.5903 152.99 -76.5903 146.866C-76.5903 141.762 -74.8839 137.712 -71.471 134.713C-68.0582 131.588 -63.6248 130.025 -58.1706 130.025C-53.7371 130.025 -50.3403 130.838 -47.98 132.465C-46.9913 129.977 -45.2848 127.983 -42.8608 126.484C-40.4048 124.985 -37.598 124.236 -34.4404 124.236V129.738C-36.8963 129.738 -39.0174 130.264 -40.8035 131.317C-42.5897 132.337 -43.706 133.661 -44.1526 135.288C-41.2182 138.477 -39.751 142.4 -39.751 147.057C-39.751 152.128 -41.4414 156.147 -44.8224 159.113C-48.2352 162.175 -52.6208 163.706 -57.9793 163.706C-60.5947 163.706 -62.9709 163.419 -65.1079 162.845C-68.4569 163.324 -70.1314 165.046 -70.1314 168.012C-70.1314 171.17 -67.7712 172.749 -63.0506 172.749H-48.8412C-44.312 172.749 -40.7716 173.801 -38.22 175.906C-35.6365 178.012 -34.3447 180.93 -34.3447 184.662C-34.3447 189.319 -36.386 192.859 -40.4686 195.283C-44.5512 197.739 -50.2924 198.967 -57.6922 198.967C-64.6135 198.967 -69.8284 197.882 -73.3369 195.714C-76.8135 193.545 -78.5519 190.483 -78.5519 186.528ZM-70.4185 146.961C-70.4185 150.725 -69.3181 153.675 -67.1173 155.812C-64.9165 157.949 -61.9343 159.018 -58.1706 159.018C-54.3432 159.018 -51.345 157.949 -49.1761 155.812C-47.0072 153.643 -45.9228 150.693 -45.9228 146.961C-45.9228 143.198 -47.0231 140.231 -49.2239 138.062C-51.4247 135.894 -54.407 134.809 -58.1706 134.809C-61.9981 134.809 -64.9963 135.909 -67.1652 138.11C-69.3341 140.279 -70.4185 143.23 -70.4185 146.961ZM-73.0499 185.666C-73.0499 191.28 -67.8669 194.087 -57.5008 194.087C-46.1141 194.087 -40.4208 191.057 -40.4208 184.997C-40.4208 183.434 -40.7876 182.142 -41.5212 181.121C-42.2229 180.069 -43.1957 179.367 -44.4396 179.016C-46.2895 178.41 -47.8524 178.107 -49.1282 178.107H-63.7683C-66.7984 178.107 -69.1108 178.777 -70.7056 180.117C-72.2684 181.456 -73.0499 183.306 -73.0499 185.666ZM12.3025 130.982H18.4743V181.648H13.4029L12.3982 172.223H11.7284C10.3569 175.316 8.07635 177.82 4.8868 179.734C1.69725 181.648 -1.87504 182.605 -5.83009 182.605C-10.9972 182.605 -15.0798 180.946 -18.078 177.629C-21.0761 174.28 -22.5752 169.575 -22.5752 163.515V130.982H-16.4034V162.845C-16.4034 172.191 -12.3527 176.863 -4.25126 176.863C0.78823 176.863 4.80706 175.093 7.80524 171.553C10.8034 168.012 12.3025 163.308 12.3025 157.439V130.982ZM42.5873 181.648H36.5112V110.218H42.5873V181.648ZM56.8446 167.725C56.8446 162.494 58.6148 158.492 62.1552 155.717C65.7274 152.942 70.6872 151.554 77.0344 151.554H91.2439V147.44C91.2439 139.211 86.8742 135.096 78.1348 135.096C74.2435 135.096 71.1018 136.005 68.7097 137.823C66.3494 139.641 65.0736 142.065 64.8822 145.095H58.9975C59.2846 140.566 61.2461 136.946 64.8822 134.235C68.4864 131.428 72.9996 130.025 78.4219 130.025C84.5139 130.025 89.1866 131.62 92.4399 134.809C95.6933 137.967 97.3199 142.416 97.3199 148.157V172.557C97.2562 173.929 97.4316 174.934 97.8462 175.572C98.2609 176.178 99.2337 176.576 100.765 176.768C101.371 176.768 101.993 176.704 102.631 176.576V181.648C101.674 181.967 100.589 182.126 99.3772 182.126C94.1144 182.126 91.5309 179.096 91.6266 173.036H91.0525C89.8723 175.906 87.7035 178.219 84.5458 179.973C81.3881 181.727 77.8158 182.605 73.8289 182.605C68.7894 182.605 64.6908 181.233 61.5332 178.49C58.4074 175.747 56.8446 172.159 56.8446 167.725ZM63.2555 167.151C63.2555 170.309 64.2443 172.765 66.2218 174.519C68.1993 176.273 70.9264 177.15 74.403 177.15C79.5063 177.15 83.557 175.54 86.5552 172.318C89.681 169.097 91.2439 164.918 91.2439 159.783V156.769H77.1301C72.5052 156.769 69.0286 157.662 66.7003 159.448C64.4038 161.203 63.2555 163.77 63.2555 167.151ZM122.198 181.648H116.027V130.982H121.481L122.294 141.459H122.773C124.24 137.791 126.425 135.016 129.327 133.135C132.261 131.253 135.658 130.312 139.518 130.312V136.005C127.972 136.388 122.198 143.564 122.198 157.535V181.648Z" fill="#ECFEFF"/>
<path opacity="0.1" d="M230.001 181.648H188.425V110.218H194.788V175.476H230.001V181.648ZM248.947 121.269H242.871V111.318H248.947V121.269ZM248.947 181.648H242.871V130.982H248.947V181.648ZM262.725 186.528C262.725 184.167 263.395 182.078 264.735 180.26C266.106 178.442 267.956 177.166 270.285 176.433V175.859C268.849 175.284 267.685 174.407 266.792 173.227C265.931 172.047 265.5 170.707 265.5 169.208C265.5 167.295 266.074 165.62 267.223 164.185C268.403 162.75 269.918 161.745 271.768 161.171V160.597C267.047 157.567 264.687 152.99 264.687 146.866C264.687 141.762 266.393 137.712 269.806 134.713C273.219 131.588 277.653 130.025 283.107 130.025C287.54 130.025 290.937 130.838 293.297 132.465C294.286 129.977 295.992 127.983 298.417 126.484C300.872 124.985 303.679 124.236 306.837 124.236V129.738C304.381 129.738 302.26 130.264 300.474 131.317C298.688 132.337 297.571 133.661 297.125 135.288C300.059 138.477 301.526 142.4 301.526 147.057C301.526 152.128 299.836 156.147 296.455 159.113C293.042 162.175 288.657 163.706 283.298 163.706C280.683 163.706 278.306 163.419 276.169 162.845C272.82 163.324 271.146 165.046 271.146 168.012C271.146 171.17 273.506 172.749 278.227 172.749H292.436C296.965 172.749 300.506 173.801 303.057 175.906C305.641 178.012 306.933 180.93 306.933 184.662C306.933 189.319 304.891 192.859 300.809 195.283C296.726 197.739 290.985 198.967 283.585 198.967C276.664 198.967 271.449 197.882 267.94 195.714C264.464 193.545 262.725 190.483 262.725 186.528ZM270.859 146.961C270.859 150.725 271.959 153.675 274.16 155.812C276.361 157.949 279.343 159.018 283.107 159.018C286.934 159.018 289.932 157.949 292.101 155.812C294.27 153.643 295.355 150.693 295.355 146.961C295.355 143.198 294.254 140.231 292.053 138.062C289.853 135.894 286.87 134.809 283.107 134.809C279.279 134.809 276.281 135.909 274.112 138.11C271.943 140.279 270.859 143.23 270.859 146.961ZM268.227 185.666C268.227 191.28 273.41 194.087 283.776 194.087C295.163 194.087 300.857 191.057 300.857 184.997C300.857 183.434 300.49 182.142 299.756 181.121C299.054 180.069 298.082 179.367 296.838 179.016C294.988 178.41 293.425 178.107 292.149 178.107H277.509C274.479 178.107 272.167 178.777 270.572 180.117C269.009 181.456 268.227 183.306 268.227 185.666ZM325.687 181.648H319.515V110.218H325.687V140.311H326.261C327.856 137.122 330.184 134.618 333.246 132.8C336.308 130.95 339.721 130.025 343.485 130.025C348.843 130.025 353.117 131.827 356.307 135.431C359.528 139.035 361.139 143.931 361.139 150.119V181.648H354.967V150.693C354.967 140.837 350.661 135.909 342.05 135.909C337.138 135.909 333.183 137.664 330.184 141.172C327.186 144.649 325.687 149.226 325.687 154.903V181.648ZM369.751 136.292V130.982H378.65V114.619L384.821 112.275V130.982H396.304V136.292H384.821V168.299C384.821 170.277 385.124 172.079 385.73 173.706C386.624 175.747 388.808 176.768 392.285 176.768C394.039 176.768 395.379 176.56 396.304 176.146V181.648C394.932 182.094 393.194 182.317 391.089 182.317C382.796 182.317 378.65 177.788 378.65 168.73V136.292H369.751Z" fill="#ECFEFF"/>
</g>
</svg>
