<svg width="426" height="271" xmlns="http://www.w3.org/2000/svg"><g fill-rule="nonzero" fill="none"><path d="M.079 98.802v85.735a167285041007940930 167285041007940930 0 0 1 71.637-13.887c39.564 0 71.637-32.167 71.637-71.848 0-39.68-32.073-71.849-71.637-71.849S.079 59.121.079 98.802z" fill="#983BE9"/><path d="M60.572 188.724v24.4c0 16.717-13.552 30.269-30.27 30.269H6.082a6.048 6.048 0 0 1-6.049-6.048v-24.4c0-16.717 13.552-30.27 30.27-30.27h24.22a6.048 6.048 0 0 1 6.049 6.049z" fill="#C247DB"/><g transform="translate(245.46)"><g fill="#CFD4D7"><path d="M18.083 98.802v85.735A167285041007940930 167285041007940930 0 0 1 89.72 170.65c39.564 0 71.637-32.167 71.637-71.848 0-39.68-32.073-71.849-71.637-71.849S18.083 59.121 18.083 98.802zM78.576 188.724v24.4c0 16.717-13.552 30.269-30.27 30.269h-24.22a6.048 6.048 0 0 1-6.049-6.048v-24.4c0-16.717 13.552-30.27 30.27-30.27h24.22a6.048 6.048 0 0 1 6.049 6.049z"/></g><ellipse stroke="#983BE9" stroke-width=".6" opacity=".6" cx="48.011" cy="213.315" rx="30.007" ry="30.044"/><ellipse stroke="#983BE9" stroke-width=".6" opacity=".6" cx="73.516" cy="187.779" rx="4.501" ry="4.508"/><ellipse stroke="#983BE9" stroke-width=".6" opacity=".6" cx="23.104" cy="238.954" rx="4.5" ry="4.508"/><ellipse stroke="#983BE9" stroke-width=".6" opacity=".6" cx="48.911" cy="213.014" rx="42.309" ry="42.363"/><ellipse stroke="#983BE9" stroke-width=".6" opacity=".6" cx="89.72" cy="98.846" rx="71.716" ry="71.806"/><path d="M18.254 270.7V.3M161.685 270.7V.3M180.04 170.902H0M180.04 243.61H0M180.04 182.92H0M180.04 27.29H0M78.267 270.7V.3" stroke="#983BE9" stroke-width=".6" opacity=".6"/></g></g></svg>