<svg width="487" height="123" xmlns="http://www.w3.org/2000/svg">
<g fill="none" fill-rule="evenodd">
<g fill="#CFD4D7">
<g fill-rule="nonzero">
<path d="M11.27 43.176V85.71a82330438007178140 82330438007178140 0 0 1 35.536-6.89c19.627 0 35.537-15.958 35.537-35.644 0-19.687-15.91-35.645-35.536-35.645S11.271 23.489 11.271 43.176zM41.042 87.845v12.107c0 8.293-6.722 15.015-15.015 15.015H14.01a3 3 0 0 1-3-3V99.86c0-8.292 6.723-15.015 15.016-15.015h12.015a3 3 0 0 1 3 3z"/>
</g>
<path d="M139.768 74.365v22.84a2 2 0 0 1-2 2h-13.142a2 2 0 0 1-2-2V30.391a2 2 0 0 1 2-2h25.768c8.42 0 14.836 2.087 19.247 6.26 4.41 4.174 6.616 9.8 6.616 16.877 0 4.408-.986 8.33-2.957 11.77-1.972 3.438-4.896 6.143-8.772 8.112-3.876 1.97-8.587 2.955-14.134 2.955h-10.626zm8.721-13.722c6.884 0 10.325-3.038 10.325-9.115 0-6.21-3.441-9.315-10.325-9.315h-8.721v18.43h8.721zm35.286-32.5c0-2.763.872-5.05 2.614-6.856 1.743-1.808 4.046-2.711 6.91-2.711 2.863 0 5.166.903 6.908 2.71 1.743 1.808 2.615 4.094 2.615 6.858 0 2.693-.872 4.944-2.615 6.751-1.742 1.807-4.045 2.711-6.909 2.711-2.863 0-5.166-.904-6.909-2.711-1.742-1.807-2.614-4.058-2.614-6.751zm18.044 17.172v51.89a2 2 0 0 1-2 2h-13.142a2 2 0 0 1-2-2v-51.89a2 2 0 0 1 2-2h13.142a2 2 0 0 1 2 2zm37.09-2.7c7.218 0 13.267 1.986 18.145 5.959 4.356 3.547 7.273 8.279 8.752 14.195a1.755 1.755 0 0 1-1.703 2.181h-14.459a2 2 0 0 1-1.896-1.362 5.85 5.85 0 0 0-.034-.1c-.611-1.713-1.574-3.096-2.89-4.147-1.67-1.336-3.776-2.003-6.315-2.003-3.008 0-5.48 1.185-7.418 3.555-1.938 2.371-2.907 5.826-2.907 10.367 0 4.54.969 7.996 2.907 10.367 1.938 2.37 4.41 3.555 7.418 3.555 2.54 0 4.645-.667 6.315-2.003 1.33-1.063 2.301-2.466 2.911-4.207l.016-.046a2 2 0 0 1 1.893-1.356h14.74a1.536 1.536 0 0 1 1.492 1.896c-1.455 6.05-4.396 10.876-8.822 14.48-4.878 3.974-10.927 5.96-18.144 5.96-5.48 0-10.342-1.152-14.586-3.455-4.244-2.304-7.568-5.626-9.974-9.966-2.406-4.34-3.609-9.416-3.609-15.225 0-5.876 1.186-10.967 3.559-15.274 2.372-4.307 5.697-7.613 9.974-9.916 4.277-2.304 9.156-3.456 14.636-3.456zm91.925 2.7v51.89a2 2 0 0 1-2 2h-13.242a2 2 0 0 1-2-2v-8.116c-1.604 3.272-3.993 5.876-7.167 7.812-3.175 1.937-6.867 2.905-11.077 2.905-6.416 0-11.512-2.137-15.288-6.41-3.776-4.274-5.664-10.15-5.664-17.629V45.315a2 2 0 0 1 2-2h13.042a2 2 0 0 1 2 2v28.349c0 3.806.986 6.76 2.957 8.864 1.972 2.104 4.628 3.155 7.97 3.155 3.475 0 6.215-1.101 8.22-3.305 2.005-2.204 3.007-5.342 3.007-9.415V45.315a2 2 0 0 1 2-2h13.242a2 2 0 0 1 2 2zm28.971-18.229v70.119a2 2 0 0 1-2 2h-13.142a2 2 0 0 1-2-2V27.086a2 2 0 0 1 2-2h13.142a2 2 0 0 1 2 2zm33.08 15.528c4.278 0 7.954.968 11.028 2.905 3.074 1.936 5.346 4.574 6.816 7.912v-8.116a2 2 0 0 1 2-2h13.042a2 2 0 0 1 2 2v51.89a2 2 0 0 1-2 2h-13.042a2 2 0 0 1-2-2v-8.116c-1.47 3.338-3.742 5.976-6.816 7.912-3.074 1.937-6.75 2.905-11.027 2.905-4.611 0-8.738-1.152-12.38-3.455-3.643-2.304-6.516-5.626-8.621-9.966-2.106-4.34-3.158-9.416-3.158-15.225 0-5.876 1.052-10.967 3.158-15.274 2.105-4.307 4.978-7.613 8.62-9.916 3.643-2.304 7.77-3.456 12.38-3.456zm5.514 15.024c-3.675 0-6.633 1.202-8.871 3.606-2.24 2.404-3.359 5.743-3.359 10.016 0 4.274 1.12 7.612 3.359 10.016 2.238 2.404 5.196 3.606 8.871 3.606 3.61 0 6.566-1.235 8.872-3.706 2.306-2.47 3.458-5.776 3.458-9.916 0-4.207-1.152-7.529-3.458-9.966-2.306-2.437-5.263-3.656-8.872-3.656zm58.343-3.806c2.138-3.405 4.895-6.11 8.27-8.113 2.792-1.657 5.779-2.629 8.96-2.915a1.851 1.851 0 0 1 2.017 1.844v14.396a2 2 0 0 1-2 2h-2.913c-4.544 0-8.069.968-10.575 2.904-2.506 1.937-3.76 5.209-3.76 9.816v23.441a2 2 0 0 1-2 2H441.6a2 2 0 0 1-2-2v-51.89a2 2 0 0 1 2-2h13.142a2 2 0 0 1 2 2v8.517z"/>
</g>
<path id='lines' d="M82.835.251v122.498M11.262.251v122.498M122.876.251v122.498M176.932.251v122.498M183.939.251v122.498M202.958.251v122.498M210.466.251v122.498M266.524.251v122.498M331.09.251v122.498M274.532.251v122.498M342.602.251v122.498M360.12.251v122.498M368.628.251v122.498M428.19.251v122.498M439.701.251v122.498M476.239.251v122.498M.25 114.716h486.5M.25 7.28h486.5M.25 24.851h486.5M.25 99.655h486.5" stroke="#983BE9" stroke-width=".5" opacity=".6" stroke-linecap="square"/>
</g>
</svg>