<svg width="480" height="497" fill="none" xmlns="http://www.w3.org/2000/svg">
    <style type="text/css">
        path {stroke-dasharray: 1800;stroke-dashoffset: 18;animation: dash 30s linear forwards;}
        @keyframes dash {
          0% { stroke-dashoffset: 1850; opacity: 1 }
          10% { opacity: 1 }
          100% { stroke-dashoffset: 0; opacity: 1 }
        }
    </style>
    <g clip-path="url(#clip0)" stroke="#101820" stroke-width="4">
        <path d="M447.329 41.291L454.564 27M429 58.393c10.502-15.826 25.562-23.263 45.179-22.312" stroke-linecap="round" stroke-linejoin="round" />
        <path d="M429.763 46.874a8.5 8.5 0 0011.611-3.11 8.5 8.5 0 10-14.722-8.5 8.5 8.5 0 003.111 11.61zM475.458 58.393L469.281 46" stroke-linecap="round" stroke-linejoin="round" />
        <path d="M451 47.197L439.181 31.48l3.836-7.435-3.836-8.85M458.196 47.197l-1.1 2.775h-10.063M474.179 36.08l.043 15.893H465M455.196 14.392a6 6 0 106-10.392 6 6 0 00-6 10.392z" stroke-linecap="round" stroke-linejoin="round" />
        <path clip-rule="evenodd" d="M459.5 20a3.5 3.5 0 013.49 3.767c.007.088.01.178.01.268V35.09l5.812 10.066a3.5 3.5 0 01-1.281 4.782 3.46 3.46 0 01-4.726-1.267l-.02-.035-6.368-11.331a3.474 3.474 0 01-.417-2.161V27h-9.5a3.5 3.5 0 110-7h13z" />
        <path clip-rule="evenodd" d="M457.557 47.529l-.026.015a3.5 3.5 0 01-4.781-1.28l-1.078-1.869a3.5 3.5 0 011.143-4.698l3.155-2.019 2.883 5.096a3.499 3.499 0 01-1.296 4.755z" />
    </g>
    <path d="M445.504 354c5.799 0 10.5-4.701 10.5-10.5s-4.701-10.5-10.5-10.5-10.5 4.701-10.5 10.5 4.701 10.5 10.5 10.5z" stroke="#101820" stroke-width="4" />
    <path d="M436.504 387h-7.5v-21.9a8.1 8.1 0 018.1-8.1h.149a13.765 13.765 0 008.251 2.727 13.77 13.77 0 008.252-2.727h.148a8.102 8.102 0 017.475 4.973" stroke="#101820" stroke-width="4" stroke-linecap="round" stroke-linejoin="round" />
    <path d="M444 378.028l6.145 6.57L470.343 363" stroke="#101820" stroke-width="4" stroke-linecap="round" />
    <path d="M436.504 372v15" stroke="#101820" stroke-width="4" stroke-linecap="round" stroke-linejoin="bevel" />
    <g clip-path="url(#clip1)" stroke="#101820" stroke-width="4" stroke-linecap="round">
        <path d="M155.744 36.487c-6.401 6.227-8.961 12.56-7.68 19M182.02 44.715c4.906 2.998 7.814 6.589 8.724 10.772m-35-19c5.894 1.099 9.768 1.828 12.256 2.513l-12.256-2.513zM181.989 45l4.067-11M188 34h-6.011M148.744 55.696h42.032" stroke-linejoin="round" />
        <path d="M157 58.5h-9.011M191 58.5h-9.011" stroke-linejoin="bevel" />
        <path d="M154.005 38.003l2.09-8.854-3.299-1.029-3.701-4.418" stroke-linejoin="round" />
        <path clip-rule="evenodd" d="M173.202 16.42l.056.055c.072.07.14.143.205.217l9.843 9.7c.128.127.245.262.35.402.078.064.154.133.227.205l.037.037a3.5 3.5 0 01.018 4.931l-7.461 7.573 7.443 7.498a3.5 3.5 0 01-.009 4.94l-.009.01a3.5 3.5 0 01-4.95 0l-9.927-9.927a3.5 3.5 0 01-.027-4.922l.054-.056c.071-.072.143-.14.218-.204l7.243-7.352-5.712-5.628-7.498 7.443a3.5 3.5 0 01-4.94-.009l-.01-.009a3.501 3.501 0 010-4.95l9.927-9.926a3.5 3.5 0 014.922-.028z" />
        <path d="M160 15a6 6 0 100-12 6 6 0 000 12z" stroke-linejoin="round" />
    </g>
    <path d="M166.504 461c5.799 0 10.5-4.701 10.5-10.5s-4.701-10.5-10.5-10.5-10.5 4.701-10.5 10.5 4.701 10.5 10.5 10.5zM178.504 494c5.799 0 10.5-4.701 10.5-10.5s-4.701-10.5-10.5-10.5-10.5 4.701-10.5 10.5 4.701 10.5 10.5 10.5z" stroke="#101820" stroke-width="4" />
    <path d="M181.5 480.5l-6 6M175.5 480.5l6 6" stroke="#101820" stroke-width="4" stroke-linecap="round" stroke-linejoin="bevel" />
    <path d="M157.504 494h-7.5v-21.9a8.1 8.1 0 018.1-8.1h.149a13.765 13.765 0 008.251 2.727 13.77 13.77 0 008.252-2.727h.148a8.102 8.102 0 017.475 4.973" stroke="#101820" stroke-width="4" stroke-linecap="round" stroke-linejoin="round" />
    <path d="M157.504 479v15" stroke="#101820" stroke-width="4" stroke-linecap="round" stroke-linejoin="bevel" />
    <g clip-path="url(#clip2)" stroke="#101820" stroke-width="4">
        <path d="M294.013 57.987L332 58M289.33 56.722a9 9 0 0012.294-3.294 9 9 0 00-3.294-12.294 9 9 0 00-12.294 3.294 9 9 0 003.294 12.294zM293.596 39.705V25.006M297.208 28.208l-7.415-7.415M304.411 53.113L303 24M302 58l9-31M315.196 14.392a6 6 0 106-10.392 6 6 0 00-6 10.392z" stroke-linecap="round" stroke-linejoin="round" />
        <path clip-rule="evenodd" d="M319.5 20a3.5 3.5 0 013.49 3.767c.007.088.01.178.01.268V35.09l5.812 10.066a3.5 3.5 0 01-1.281 4.782 3.46 3.46 0 01-4.726-1.267l-.02-.035-6.368-11.331a3.474 3.474 0 01-.417-2.161V27h-9.5a3.5 3.5 0 110-7h13z" />
        <path d="M319.5 42.788c.707 1.632-.1 3.677-1.64 4.566l-.329.19a3.5 3.5 0 01-4.781-1.28l-1.444-2.502a3.5 3.5 0 01.49-4.158l4.174-4.404" />
        <path d="M304 56l13.654-8.501M304 56l22.86-5.773" stroke-linecap="round" stroke-linejoin="round" />
    </g>
    <path d="M17.481 347.438a6 6 0 100-12 6 6 0 000 12z" stroke="#101820" stroke-width="4" />
    <path d="M12.22 372.25H6.004v-15.513c0-3.168 2.523-5.737 5.635-5.737h.103a9.462 9.462 0 005.74 1.932" stroke="#101820" stroke-width="4" stroke-linecap="round" stroke-linejoin="round" />
    <path d="M12.22 361.625v10.625" stroke="#101820" stroke-width="4" stroke-linecap="round" stroke-linejoin="bevel" />
    <path d="M30 360.188a6 6 0 100-12 6 6 0 000 12z" stroke="#101820" stroke-width="4" />
    <path clip-rule="evenodd" d="M35.738 363.752l-.092-.002a5.832 5.832 0 015.832 5.832V385H18.522v-15.418a5.832 5.832 0 015.74-5.831A9.456 9.456 0 0030 365.682c2.153 0 4.14-.718 5.738-1.93z" stroke="#101820" stroke-width="4" stroke-linejoin="round" />
    <path d="M24.739 374.375v9.563M35.26 383.938v-9.563" stroke="#101820" stroke-width="4" stroke-linecap="round" stroke-linejoin="bevel" />
    <path d="M42.519 347.438a6 6 0 110-12 6 6 0 010 12z" stroke="#101820" stroke-width="4" />
    <path d="M47.78 372.25h6.217v-15.513c0-3.168-2.523-5.737-5.635-5.737h-.103a9.463 9.463 0 01-5.74 1.932" stroke="#101820" stroke-width="4" stroke-linecap="round" stroke-linejoin="round" />
    <path d="M47.78 361.625v10.625" stroke="#101820" stroke-width="4" stroke-linecap="round" stroke-linejoin="bevel" />
    <path d="M30 236a6 6 0 100-12 6 6 0 000 12z" stroke="#101820" stroke-width="4" />
    <path clip-rule="evenodd" d="M41 245.832V261.5H19v-15.668a5.832 5.832 0 015.512-5.823 8.883 8.883 0 005.488 1.9 8.888 8.888 0 005.488-1.899A5.83 5.83 0 0141 245.832z" stroke="#101820" stroke-width="4" stroke-linejoin="round" />
    <path d="M25 250v9.9M35 259.9V250M47 261.5H13" stroke="#101820" stroke-width="4" stroke-linecap="round" stroke-linejoin="bevel" />
    <path d="M30 265.5a3.5 3.5 0 10-7 0v11a3.5 3.5 0 107 0v-11zM37 265.5a3.5 3.5 0 10-7 0v11a3.5 3.5 0 107 0v-11z" stroke="#101820" stroke-width="4" />
    <path d="M13 257.5a3.5 3.5 0 10-7 0v7a3.5 3.5 0 107 0v-7zM47 257.5a3.5 3.5 0 117 0v7a3.5 3.5 0 11-7 0v-7z" stroke="#101820" stroke-width="4" stroke-linecap="round" stroke-linejoin="bevel" />
    <path d="M310.5 461c5.799 0 10.5-4.701 10.5-10.5s-4.701-10.5-10.5-10.5-10.5 4.701-10.5 10.5 4.701 10.5 10.5 10.5zM306 478a4 4 0 000 8" stroke="#101820" stroke-width="4" />
    <path clip-rule="evenodd" d="M318.9 464a8.1 8.1 0 018.1 8.1V494h-33v-21.9a8.1 8.1 0 018.1-8.1h.149a13.759 13.759 0 008.251 2.727c3.096 0 5.953-1.014 8.251-2.727h.149z" stroke="#101820" stroke-width="4" stroke-linejoin="round" />
    <path d="M307 478l7-11M306 486h21M308 477v9" stroke="#101820" stroke-width="4" stroke-linecap="round" stroke-linejoin="bevel" />
    <path d="M302 490.5c0 1.933-1.791 3.5-4 3.5s-4-1.567-4-3.5v-11" stroke="#101820" stroke-width="4" stroke-linecap="round" />
    <path d="M441.504 461c5.799 0 10.5-4.701 10.5-10.5s-4.701-10.5-10.5-10.5-10.5 4.701-10.5 10.5 4.701 10.5 10.5 10.5z" stroke="#101820" stroke-width="4" />
    <path d="M432.504 494h-7.5v-21.9a8.1 8.1 0 018.1-8.1h.149a13.765 13.765 0 008.251 2.727 13.77 13.77 0 008.252-2.727h.148a8.102 8.102 0 017.475 4.973" stroke="#101820" stroke-width="4" stroke-linecap="round" stroke-linejoin="round" />
    <path fill-rule="evenodd" clip-rule="evenodd" d="M458.544 483.173l-.88 3.309s-.362 1.348-.552 2.063c-.188.714.303 1.698 1.09 1.688.733-.009 1.663 0 1.663 0 .125 1.587.711 2.838 1.72 3.656.049.04.098.073.15.111h-6.602c-2.109.002-3.374-2.543-2.804-4.682l.255-.957.019-.075-.003.014.004-.017.012-.045.006-.019.032-.123.001-.004.006-.022.004-.016 1.3-4.881h4.579zM461.25 473l-1.433 5.381h3.201l-.998 3.758h-16.696c-.708 0-1.436.461-1.762 1.652-.087.322.155.659.414.659h4.419c2.366 0 3.323 1.016 3.323 2.775 0 1.107-.302 2.278-.78 3.509-.906 2.218-2.392 3.266-5.388 3.266H437l.999-3.756h7.457c.259-.002 1.306-.067 1.746-1.729.075-.284-.123-.645-.409-.645h-3.969c-2.492 0-3.65-1.048-3.65-3.019 0-1.325.419-2.857 1.099-3.996 1.032-1.726 2.462-2.474 3.892-2.474h11.073l1.43-5.381h4.582zm14.75 5.381l-1.006 3.775h-4.785c-1.836 0-3.425 1.308-4.156 3.003-.428.957-.83 2.311-.83 3.481 0 .955.503 1.599 1.786 1.599h5.839L471.85 494h-6.199c-3.022 0-4.96-1.171-4.96-4.405 0-2.218.73-4.529 1.661-6.501 1.712-3.48 4.28-4.713 7.428-4.713H476z" fill="#101820" />
    <path d="M432.504 479v15" stroke="#101820" stroke-width="4" stroke-linecap="round" stroke-linejoin="bevel" />
    <path d="M477 255.293c-2.349 4.97-8.283 7.095-13.254 4.746a9.953 9.953 0 01-4.746-4.746c-2.349 4.97-8.283 7.095-13.254 4.746a9.953 9.953 0 01-4.746-4.746c-2.349 4.97-8.283 7.095-13.254 4.746a9.953 9.953 0 01-4.746-4.746M477 269.293c-2.349 4.97-8.283 7.095-13.254 4.746a9.953 9.953 0 01-4.746-4.746c-2.349 4.97-8.283 7.095-13.254 4.746a9.953 9.953 0 01-4.746-4.746c-2.349 4.97-8.283 7.095-13.254 4.746a9.953 9.953 0 01-4.746-4.746" stroke="#101820" stroke-width="4" stroke-linecap="round" stroke-linejoin="round" />
    <path d="M455.736 245.347a7 7 0 109.9-9.899 7 7 0 00-9.9 9.899z" stroke="#101820" stroke-width="4" />
    <path d="M448.474 243.388l.013.014a10.775 10.775 0 003.062 6.132 10.775 10.775 0 006.132 3.062l.014.013c.784.785 1.007 1.691 1.305 2.684m-36 0l16.31-11.905L423 255.293z" stroke="#101820" stroke-width="4" stroke-linejoin="round" />
    <path d="M441.903 243.989l-2.273-3.078-2.15-2.959-8.621 6.265a3.5 3.5 0 01-4.115-5.663l11.326-8.229a3.49 3.49 0 012.715-.607 3.487 3.487 0 012.393 1.416l4.108 5.451 2.795 3.614.487 3.79" stroke="#101820" stroke-width="4" stroke-linejoin="round" />
    <path d="M310.5 354c5.799 0 10.5-4.701 10.5-10.5s-4.701-10.5-10.5-10.5-10.5 4.701-10.5 10.5 4.701 10.5 10.5 10.5z" stroke="#101820" stroke-width="4" />
    <path clip-rule="evenodd" d="M318.9 357a8.1 8.1 0 018.1 8.1V387h-33v-21.9a8.1 8.1 0 018.1-8.1h.149a13.759 13.759 0 008.251 2.727c3.096 0 5.953-1.014 8.251-2.727h.149z" stroke="#101820" stroke-width="4" stroke-linejoin="round" />
    <path d="M301.5 372v13.5M319.5 385.5V372" stroke="#101820" stroke-width="4" stroke-linecap="round" stroke-linejoin="bevel" />
    <path d="M26.504 461c5.8 0 10.5-4.701 10.5-10.5s-4.7-10.5-10.5-10.5c-5.799 0-10.5 4.701-10.5 10.5s4.701 10.5 10.5 10.5zM38.504 494c5.8 0 10.5-4.701 10.5-10.5s-4.7-10.5-10.5-10.5c-5.799 0-10.5 4.701-10.5 10.5s4.701 10.5 10.5 10.5z" stroke="#101820" stroke-width="4" />
    <path d="M38.5 477.5v6M43.004 483.5H38.5" stroke="#101820" stroke-width="4" stroke-linecap="round" stroke-linejoin="bevel" />
    <path d="M17.504 494h-7.5v-21.9a8.1 8.1 0 018.1-8.1h.15a13.767 13.767 0 008.25 2.727c3.096 0 5.953-1.015 8.252-2.727h.148a8.102 8.102 0 017.475 4.973" stroke="#101820" stroke-width="4" stroke-linecap="round" stroke-linejoin="round" />
    <path d="M17.504 479v15" stroke="#101820" stroke-width="4" stroke-linecap="round" stroke-linejoin="bevel" />
    <path d="M318.972 156.972l-34.091-2.472M316.888 163.944l3.993-10.699M335 163.944l2-5.349M282 163.944l2.881-9.444M300.879 138.454L335 140.149 331.881 146M329.381 163a8.5 8.5 0 10-.001-17.001A8.5 8.5 0 00329.38 163z" stroke="#101820" stroke-width="4" stroke-linecap="round" stroke-linejoin="round" />
    <path clip-rule="evenodd" d="M289.354 134.26l.193.002 8.002.285.041.002a3.454 3.454 0 013.285 3.614 3.538 3.538 0 01-3.66 3.367l-4.385-.156.299 1.982 17.371 1.293a5.474 5.474 0 014.718 3.535l.078.223a2.477 2.477 0 01-2.52 3.241l-22.792-1.526c-.041-.003-.082-.006-.122-.011a3.356 3.356 0 01-1.752-.713 3.298 3.298 0 01-1.502-2.273l-1.263-7.835a4.396 4.396 0 012.838-4.831 2.893 2.893 0 01.77-.169c.194-.026.392-.035.594-.028l-.193-.002z" stroke="#101820" stroke-width="4" stroke-linecap="round" />
    <path d="M289 129a6 6 0 100-12 6 6 0 000 12zM310 238.361a7 7 0 100-14 7 7 0 000 14z" stroke="#101820" stroke-width="4" />
    <path clip-rule="evenodd" d="M330 242a4 4 0 004-4c0-1.473-1.333-4.806-4-10-2.667 5.194-4 8.527-4 10a4 4 0 004 4z" stroke="#101820" stroke-width="4" />
    <path d="M303.035 266H297v-17.409a6.48 6.48 0 016.48-6.48h.019a10.768 10.768 0 006.501 2.172c2.439 0 4.69-.808 6.501-2.172h.019a6.48 6.48 0 016.48 6.48V266h-5.943" stroke="#101820" stroke-width="4" stroke-linejoin="round" />
    <path d="M302.909 254.055v10.75M317.091 264.805v-10.75M303 271l-20.011.182M336.989 271H317M297 254.5h-14.011M336.989 254.5H323" stroke="#101820" stroke-width="4" stroke-linecap="round" stroke-linejoin="bevel" />
    <path d="M310 267.5a3.5 3.5 0 10-7 0v8a3.5 3.5 0 107 0v-8zM317 267.5a3.5 3.5 0 10-7 0v8a3.5 3.5 0 107 0v-8zM156 251.361a7 7 0 100-14 7 7 0 000 14z" stroke="#101820" stroke-width="4" />
    <path d="M149.035 279H143v-17.409a6.48 6.48 0 016.48-6.48h.019a10.768 10.768 0 006.501 2.172c2.439 0 4.69-.808 6.501-2.172h.019a6.48 6.48 0 016.48 6.48V279h-5.943" stroke="#101820" stroke-width="4" stroke-linejoin="round" />
    <path d="M148.909 267.055V279M163 279l.091-11.945" stroke="#101820" stroke-width="4" stroke-linecap="round" stroke-linejoin="bevel" />
    <path d="M174.586 236.556c4.971 0 9-1.343 9-3s-4.029-3-9-3c-4.97 0-9 1.343-9 3s4.03 3 9 3z" stroke="#101820" stroke-width="4" />
    <path d="M174.5 242v3M168.5 242v3M180.5 242v3M177.5 249v3M171.5 249v3M194 279v-52.909" stroke="#101820" stroke-width="4" stroke-linecap="round" stroke-linejoin="bevel" />
    <path d="M174.586 230.556v-4.465H194" stroke="#101820" stroke-width="4" stroke-linecap="round" stroke-linejoin="round" />
    <g clip-path="url(#clip3)" stroke="#101820" stroke-width="4">
        <path clip-rule="evenodd" d="M185.202 132.42l.056.055c.072.07.14.143.205.217l9.843 9.701c.128.126.245.261.35.401.078.064.154.133.227.205l.037.037a3.499 3.499 0 01.018 4.931l-7.461 7.573 7.443 7.498a3.5 3.5 0 01-.009 4.941l-.009.009a3.5 3.5 0 01-4.95 0l-9.927-9.927a3.5 3.5 0 01-.027-4.922l.054-.056c.071-.072.143-.14.218-.204l7.243-7.352-5.712-5.628-7.498 7.443a3.499 3.499 0 01-4.94-.009l-.01-.009a3.502 3.502 0 010-4.95l9.927-9.927a3.5 3.5 0 014.922-.027z" />
        <path d="M187 164.5v1a3.5 3.5 0 11-7 0v-10" stroke-linecap="round" stroke-linejoin="round" />
        <path d="M174 130a6 6 0 100-12 6 6 0 000 12z" />
        <path d="M146 169l47.188.013M149 117.005l21 25.562M149 152l13.998 17.013" stroke-linecap="round" stroke-linejoin="round" />
        <path d="M143 118v48a3 3 0 106 0v-48a3 3 0 10-6 0z" stroke-linecap="round" stroke-linejoin="bevel" />
    </g>
    <g clip-path="url(#clip4)" stroke="#101820" stroke-width="4">
        <path clip-rule="evenodd" d="M144.652 378.443l7 4.734 1 4.734h32l.895-4.734 6.895-4.734h-47.79z" stroke-linecap="round" stroke-linejoin="round" />
        <path d="M168.652 344.443v5M175.402 346.443v5M161.902 346.443v5M194.881 375.557c8.008-13.87 3.256-31.606-10.614-39.614-13.871-8.009-31.607-3.256-39.615 10.614l-.5.886" stroke-linecap="round" stroke-linejoin="bevel" />
        <path d="M191.107 369.945c3.898-10.347-.147-22.293-10.037-28.002-11-6.352-25.067-2.583-31.418 8.418M149.184 350.727a3.005 3.005 0 01-3.926.818 3.003 3.003 0 01-1.106-4.102" stroke-linecap="round" stroke-linejoin="bevel" />
        <path d="M168.652 368.443a6 6 0 100-12 6 6 0 000 12z" />
        <path d="M174.652 361.443l4.75 1h1.25a4 4 0 110 8h-24a4 4 0 010-8h1.25l4.75-1M191.652 370.443h-46a3 3 0 00-3 3v2a3 3 0 003 3h46a3 3 0 003-3v-2a3 3 0 00-3-3z" stroke-linecap="round" stroke-linejoin="bevel" />
    </g>
    <g clip-path="url(#clip5)" stroke="#101820" stroke-width="4">
        <path d="M433.544 142.5L430 153.23V169h30M434 142l-.456-12.247M437.943 134.152l-8.798-8.798" stroke-linecap="round" stroke-linejoin="round" />
        <path d="M457 155.875V134.5a3.5 3.5 0 016.189-2.24c.081.067-.703-.684-.627-.608l6.641 6.601a3.5 3.5 0 11-4.95 4.95l-.253-.253v23.125" stroke-linecap="round" />
        <path d="M458.176 131.856l-7.865 6.355c-1.241 1.242-1.2 3.295.091 4.587 1.292 1.292 3.345 1.332 4.587.091l1.816-1.506M450 151.013V148a3.5 3.5 0 013.5-3.5c1.933 0 3.5-.154 3.5 1.779v8.759" />
        <path d="M457.196 125.392a6 6 0 106-10.392 6 6 0 10-6 10.392z" stroke-linecap="round" stroke-linejoin="round" />
        <path d="M463.192 163.95l-24.041-24.042a3.001 3.001 0 00-4.243 4.243l24.042 24.041a2.998 2.998 0 004.242 0 2.998 2.998 0 000-4.242z" stroke-linecap="round" stroke-linejoin="bevel" />
    </g>
    <path d="M29.1 125a6 6 0 100-12 6 6 0 000 12z" stroke="#101820" stroke-width="4" />
    <path clip-rule="evenodd" d="M28.6 130c-.981 0-1.868.404-2.504 1.055l-.02.02-9.193 9.193a3.5 3.5 0 004.95 4.95l3.268-3.269v5.599c0 .93.37 1.821 1.027 2.478l2.472 2.467c.085.084.175.159.269.226l7.206 7.206a3.5 3.5 0 004.95-4.95L32.1 146.05V133.5a3.5 3.5 0 00-3.5-3.5z" stroke="#101820" stroke-width="4" />
    <path d="M31.614 131.697l9.012 9.278a3.5 3.5 0 01-4.95 4.95c-1.805-2.017-3.159-3.476-4.062-4.379M25.898 149.519l-5.728 5.461a3.5 3.5 0 004.95 4.95c2.425-2.397 4.09-4.047 4.992-4.95" stroke="#101820" stroke-width="4" />
    <path d="M54 163H6a3 3 0 100 6h48a3 3 0 100-6z" stroke="#101820" stroke-width="4" stroke-linecap="round" stroke-linejoin="bevel" />
    <path d="M57 165v-31l-7 3h-4" stroke="#101820" stroke-width="4" stroke-linecap="round" stroke-linejoin="round" />
    <g clip-path="url(#clip6)" stroke="#101820" stroke-width="4" stroke-linecap="round">
        <path d="M25.79 43.95a9.456 9.456 0 00-3.906-4.311 9.5 9.5 0 103.477 12.977" stroke-linejoin="round" />
        <path d="M38.878 51H19a3 3 0 110-6h13.983" stroke-linejoin="bevel" />
        <path d="M42.989 45l4.067-11M47.056 57.994l-2.034-5.744M49 34h-6.011M13.595 39.012l3.5-9.863-3.299-1.029-3.701-4.418" stroke-linejoin="round" />
        <path d="M24 57.994H10M53.503 58.003l-14-.006" stroke-linejoin="bevel" />
        <path clip-rule="evenodd" d="M34.202 16.42l.056.055c.072.07.14.143.205.217l9.843 9.7c.128.127.245.262.35.402.078.064.154.133.227.205l.037.037a3.5 3.5 0 01.018 4.931l-7.461 7.573 7.443 7.498a3.5 3.5 0 01-.01 4.94l-.008.01a3.5 3.5 0 01-4.95 0l-9.927-9.927a3.5 3.5 0 01-.027-4.922l.054-.056c.07-.072.143-.14.218-.204l7.243-7.352-5.712-5.628-7.498 7.443a3.5 3.5 0 01-4.94-.009l-.01-.009a3.5 3.5 0 010-4.95l9.927-9.926a3.5 3.5 0 014.922-.028z" />
        <path d="M21 15a6 6 0 100-12 6 6 0 000 12z" stroke-linejoin="round" />
    </g>
    <defs>
        <clipPath id="clip0">
            <path fill="#fff" d="M420 0h60v60h-60z" />
        </clipPath>
        <clipPath id="clip1">
            <path fill="#fff" d="M140 0h60v60h-60z" />
        </clipPath>
        <clipPath id="clip2">
            <path fill="#fff" d="M280 0h60v60h-60z" />
        </clipPath>
        <clipPath id="clip3">
            <path fill="#fff" d="M140 111h60v60h-60z" />
        </clipPath>
        <clipPath id="clip4">
            <path fill="#fff" d="M140 330h60v60h-60z" />
        </clipPath>
        <clipPath id="clip5">
            <path fill="#fff" d="M420 111h60v60h-60z" />
        </clipPath>
        <clipPath id="clip6">
            <path fill="#fff" d="M0 0h60v60H0z" />
        </clipPath>
    </defs>
</svg>