<svg width="1657" height="221" xmlns="http://www.w3.org/2000/svg">
    <style type="text/css">
        .path {stroke-dasharray: 1800;stroke-dashoffset: 18;animation: dash 10s linear infinite;}
        @keyframes dash {
          0% { stroke-dashoffset: 1850; opacity: 1 }
          10% { opacity: 1 }
          20%, 95% { stroke-dashoffset: 0; opacity: 1 }
          100% { stroke-dashoffset: 0; opacity: 0 }
        }
    </style>

  <defs>
    <linearGradient x1="2.881%" y1="48.488%" x2="97.119%" y2="48.488%" id="a">
      <stop stop-color="#008CDC" offset="0%"/>
      <stop stop-color="#EC4AFF" offset="47.738%"/>
      <stop stop-color="#0268D4" offset="100%"/>
    </linearGradient>
  </defs>
  <path class="path" d="M-11.078 475.807c86.68-14.71 170.708-17.309 259.99-17.765 79.2-.404 162.916.835 240.49 12.987 46.666 7.31 85.258 28.894 131.146 38.313 42.368 8.696 85.075-.58 127.404 17.607 51.162 21.981 82.486 50.34 119.011 82.522 44.344 39.07 50.467 59.788 115.134 66.158 115.268 11.356 200.41-73.085 287.684-107.927 97.15-38.785 207.6-59.44 321.117-52.92 18.029 1.036 35.66 4.221 53.49 6.331" transform="translate(0 -456)" fill-rule="nonzero" stroke="url(#a)" stroke-width="2" fill="none"/>
</svg>