<svg width="180" height="179" xmlns="http://www.w3.org/2000/svg" xmlns:xlink="http://www.w3.org/1999/xlink">
  <defs>
    <linearGradient x1="50%" y1="0%" x2="50%" y2="100%" id="b">
      <stop stop-color="#2FB952" offset="0%"/>
      <stop stop-color="#23755F" offset="100%"/>
    </linearGradient>
    <rect id="a" width="180" height="179" rx="40"/>
    <path d="M65.864 148.77c-14.384-2.65-26.021-11.05-35.71-25.75-7.042-10.65-10.439-19.75-11.787-31.5-2.098-18.7 4.894-40.5 18.53-57.75 3.046-3.85 11.386-11.9 15.232-14.75 10.788-8 27.82-16.8 35.61-18.45 2.548-.55 15.483-.8 15.034-.3-.15.1-2.248.8-4.745 1.5-2.447.7-8.24 3.15-12.936 5.45-23.324 11.5-37.358 24.1-45.948 41.3-2.448 4.85-5.594 13.25-6.543 17.3-1.199 5.1-1.199 15.5 0 22.1 4.095 22.7 19.428 42.65 36.01 46.85 3.845 1 10.588.95 14.683-.05 6.993-1.7 15.833-6.75 24.523-13.95 2.597-2.15 10.938-10.05 18.48-17.45 14.733-14.55 20.876-19.95 27.219-24.1 8.44-5.45 14.084-7.5 19.578-7.05 4.345.35 6.842 1.65 7.042 3.7l.15 1.55h-3.896c-9.44 0-19.877 7.25-33.362 23.1-3.546 4.2-9.19 10.8-12.486 14.7-16.482 19.45-29.318 29.2-43.052 32.85-5.045 1.35-16.232 1.7-21.626.7z" id="e"/>
    <filter x="-.9%" y="-3%" width="101.8%" height="104%" filterUnits="objectBoundingBox" id="d">
      <feOffset dy="-3" in="SourceAlpha" result="shadowOffsetOuter1"/>
      <feColorMatrix values="0 0 0 0 0 0 0 0 0 0 0 0 0 0 0 0 0 0 0.5 0" in="shadowOffsetOuter1"/>
    </filter>
  </defs>
  <g fill="none" fill-rule="evenodd">
    <mask id="c" fill="#fff">
      <use xlink:href="#a"/>
    </mask>
    <use fill="url(#b)" fill-rule="nonzero" xlink:href="#a"/>
    <g fill-rule="nonzero" mask="url(#c)">
      <use fill="#000" filter="url(#d)" xlink:href="#e"/>
      <use fill="#FEFEFE" xlink:href="#e"/>
    </g>
  </g>
</svg>
