<svg width="485" height="288" viewBox="0 0 485 288" fill="none" xmlns="http://www.w3.org/2000/svg">
    <style type="text/css">
        path {stroke-dasharray: 1800;stroke-dashoffset: 18;animation: dash 20s linear forwards;}
        @keyframes dash {
          0% { stroke-dashoffset: 1850; opacity: 1 }
          10% { opacity: 1 }
          100% { stroke-dashoffset: 0; opacity: 1 }
        }
    </style>
<path fill-rule="evenodd" clip-rule="evenodd" d="M89.4515 3.50863C86.2978 7.34572 84.5737 12.1586 84.5737 17.1254V19.7445C84.5737 21.3326 85.8612 22.6201 87.4493 22.6201H88.966V30.3065C88.966 30.9129 89.4576 31.4046 90.0641 31.4046C90.6705 31.4046 91.1621 30.9129 91.1621 30.3065V22.6201H91.1621V4.12139C91.1621 3.21555 90.0267 2.80884 89.4515 3.50863Z" fill="#70123A"/>
<path fill-rule="evenodd" clip-rule="evenodd" d="M71.3969 9.44331H73.5931L73.5931 3.953C73.5931 3.34656 73.1014 2.85494 72.495 2.85494C71.8885 2.85494 71.3969 3.34656 71.3969 3.953L71.3969 9.44331ZM75.7892 9.44331H77.9853L77.9853 3.953C77.9853 3.34656 77.4937 2.85494 76.8873 2.85494C76.2808 2.85494 75.7892 3.34656 75.7892 3.953L75.7892 9.44331ZM82.3776 9.44331H80.1815L80.1815 3.953C80.1815 3.34656 80.6731 2.85494 81.2795 2.85494C81.886 2.85494 82.3776 3.34656 82.3776 3.953L82.3776 9.44331ZM77.9853 13.8356H75.7892V30.3066C75.7892 30.913 76.2808 31.4046 76.8873 31.4046C77.4937 31.4046 77.9853 30.913 77.9853 30.3066V13.8356Z" fill="#70123A"/>
<path fill-rule="evenodd" clip-rule="evenodd" d="M77.9853 9.4433H76.8873H75.7892V10.5414C75.7892 11.1479 75.2976 11.6395 74.6911 11.6395C74.0847 11.6395 73.5931 11.1479 73.5931 10.5414L73.5931 9.4433H71.397V10.5414C71.397 13.5736 73.8551 16.0317 76.8873 16.0317C79.9195 16.0317 82.3776 13.5736 82.3776 10.5414V9.4433H80.1814V10.5414C80.1814 11.1479 79.6898 11.6395 79.0834 11.6395C78.4769 11.6395 77.9853 11.1479 77.9853 10.5414V9.4433Z" fill="#70123A"/>
<path fill-rule="evenodd" clip-rule="evenodd" d="M147.232 3.91075C146.274 3.27143 145.024 3.27143 144.065 3.91075L134.073 10.5723C133.279 11.1018 132.802 11.9932 132.802 12.9478V28.5496C132.802 30.1264 134.08 31.4046 135.656 31.4046H138.511C140.088 31.4046 141.366 30.1264 141.366 28.5496V24.2672C141.366 22.6904 142.645 21.4122 144.221 21.4122H147.076C148.653 21.4122 149.931 22.6905 149.931 24.2672V28.5496C149.931 30.1264 151.209 31.4046 152.786 31.4046H155.641C157.218 31.4046 158.496 30.1264 158.496 28.5496V12.9478C158.496 11.9932 158.019 11.1018 157.225 10.5723L147.232 3.91075Z" fill="#70123A"/>
<circle opacity="0.5" cx="277.023" cy="187.076" r="5.70992" fill="#70123A"/>
<path fill-rule="evenodd" clip-rule="evenodd" d="M268.458 174.229C266.881 174.229 265.603 175.507 265.603 177.084V177.084H264.176C262.599 177.084 261.321 178.362 261.321 179.939V194.214C261.321 195.79 262.599 197.069 264.176 197.069H284.16C285.737 197.069 287.015 195.79 287.015 194.214V179.939C287.015 178.362 285.737 177.084 284.16 177.084L274.168 177.084C274.168 175.507 272.89 174.229 271.313 174.229H268.458ZM284.16 187.076C284.16 191.018 280.965 194.214 277.023 194.214C273.081 194.214 269.885 191.018 269.885 187.076C269.885 183.134 273.081 179.939 277.023 179.939C280.965 179.939 284.16 183.134 284.16 187.076ZM264.889 179.939C264.495 179.939 264.176 180.258 264.176 180.653C264.176 181.047 264.495 181.366 264.889 181.366H269.172C269.566 181.366 269.885 181.047 269.885 180.653C269.885 180.258 269.566 179.939 269.172 179.939H264.889Z" fill="#70123A"/>
<path d="M454.099 102.486C454.099 100.197 456.658 98.8388 458.554 100.122L465.346 104.719C466.313 105.373 467.58 105.373 468.547 104.719L475.339 100.122C477.235 98.8388 479.794 100.197 479.794 102.486V112.809C479.794 114.386 478.516 115.664 476.939 115.664H456.954C455.377 115.664 454.099 114.386 454.099 112.809V102.486Z" fill="#70123A"/>
<path opacity="0.5" d="M479.794 92.759C479.794 93.6917 479.328 94.5626 478.552 95.08L468.53 101.761C467.571 102.4 466.322 102.4 465.363 101.761L455.341 95.08C454.565 94.5626 454.099 93.6917 454.099 92.759V92.759C454.099 91.2184 455.348 89.9694 456.889 89.9694L477.004 89.9694C478.545 89.9694 479.794 91.2184 479.794 92.759V92.759Z" fill="#70123A"/>
<path fill-rule="evenodd" clip-rule="evenodd" d="M81.3893 171.374C74.2939 171.374 68.5419 177.126 68.5419 184.221V197.069C68.5419 198.645 69.8201 199.924 71.3969 199.924H81.3893H91.3816C92.9584 199.924 94.2366 198.645 94.2366 197.069V184.221C94.2366 177.126 88.4846 171.374 81.3893 171.374ZM72.6416 180.125C74.3449 176.609 77.6239 174.229 81.3892 174.229C85.1546 174.229 88.4335 176.609 90.1369 180.125C91.5119 182.963 88.8252 185.649 85.6717 185.649H77.1068C73.9533 185.649 71.2666 182.963 72.6416 180.125Z" fill="#70123A"/>
<path d="M78.5343 186.067C78.5343 185.799 78.6406 185.543 78.8299 185.353L80.3799 183.803C80.9373 183.246 81.8412 183.246 82.3986 183.803L83.9486 185.353C84.1379 185.543 84.2442 185.799 84.2442 186.067V186.067C84.2442 186.624 83.7923 187.076 83.2348 187.076L79.5437 187.076C78.9862 187.076 78.5343 186.624 78.5343 186.067V186.067Z" fill="#70123A"/>
<path d="M388.412 89.9694H416.962V89.9949C416.962 90.2151 416.936 90.4345 416.886 90.6488L415.534 96.3931L414.21 102.354C414.142 102.66 414.125 102.976 414.159 103.288L415.14 112.117C415.342 113.936 413.806 115.472 411.987 115.27L403.002 114.272C402.793 114.248 402.581 114.248 402.372 114.272L393.387 115.27C391.568 115.472 390.032 113.936 390.234 112.117L391.215 103.288C391.249 102.976 391.232 102.66 391.164 102.354L389.84 96.3931L388.488 90.6488C388.438 90.4345 388.412 90.2151 388.412 89.9949V89.9694Z" fill="#70123A"/>
<path opacity="0.5" d="M388.412 88.5419C388.412 87.7535 389.051 87.1144 389.84 87.1144H415.534C416.323 87.1144 416.962 87.7535 416.962 88.5419V89.9694H388.412V88.5419Z" fill="#70123A"/>
<g clip-path="url(#clip0_601_7717)">
<path d="M149.562 115.664H136.444C133.644 115.664 131.374 113.394 131.374 110.594C131.374 106.91 135.514 103.224 139.191 102.995C139.498 102.976 139.801 102.956 140.098 102.935C141.687 102.822 143.237 103.381 144.552 104.279C146.165 105.38 148.228 106.332 148.504 104.244C148.762 102.291 150.322 100.197 151.646 98.7333C152.725 97.5392 153.116 95.8113 152.444 94.3485L150.635 90.4097C150.201 89.4633 148.885 89.388 148.345 90.2786C147.84 91.1124 146.63 91.1124 146.125 90.2786L145.68 89.5451C145.208 88.7664 145.385 87.7585 146.094 87.1871L147.208 86.2893C148.625 85.1474 150.685 85.3009 151.917 86.6403L157.72 92.9481C159.086 94.4329 159.567 96.5282 158.985 98.4599L155.029 111.6C154.303 114.013 152.081 115.664 149.562 115.664Z" fill="#70123A"/>
</g>
<path fill-rule="evenodd" clip-rule="evenodd" d="M83.5558 90.9818H84.0441C85.5022 90.9818 86.7261 92.0807 86.8825 93.5304L87.116 95.6939H82.8491C82.1985 95.6939 81.6711 96.2213 81.6711 96.8719C81.6711 97.5225 82.1985 98.0499 82.8491 98.0499H87.3703L87.6247 100.406H84.4197C83.7691 100.406 83.2417 100.933 83.2417 101.584C83.2417 102.235 83.7691 102.762 84.4197 102.762H87.879L88.013 104.004C88.0903 104.72 88.4355 105.381 88.9793 105.853L93.2537 109.565C93.349 109.648 93.4381 109.737 93.5207 109.83H85.9648C85.4061 109.83 84.8739 109.592 84.5014 109.176L70.9804 94.0597L74.5288 89.9503C75.6676 88.6315 77.7118 88.6315 78.8505 89.9503L78.8872 89.9928C79.4296 90.6208 80.2183 90.9818 81.0481 90.9818H83.5558ZM69.4277 95.8578L69.146 96.1841C68.2205 97.2558 68.2205 98.844 69.146 99.9158L81.9389 114.731C82.4812 115.359 83.2699 115.72 84.0997 115.72H91.3815C92.9583 115.72 94.2365 114.442 94.2365 112.865V112.186H85.9648C84.7357 112.186 83.5648 111.663 82.7454 110.746L69.4277 95.8578Z" fill="#70123A"/>
<path opacity="0.5" d="M331.29 186.363L349.847 186.363M349.847 186.363L346.136 190.645M349.847 186.363L346.136 182.08" stroke="#70123A" stroke-width="2.85496" stroke-linecap="round" stroke-linejoin="round"/>
<path fill-rule="evenodd" clip-rule="evenodd" d="M328.435 171.374C326.858 171.374 325.58 172.652 325.58 174.229V197.069C325.58 198.645 326.858 199.924 328.435 199.924H338.427C340.004 199.924 341.282 198.645 341.282 197.069L341.282 187.79L334.145 187.79C333.357 187.79 332.718 187.151 332.718 186.363C332.718 185.574 333.357 184.935 334.145 184.935L341.282 184.935C341.282 184.935 341.282 184.935 341.282 184.935V174.229C341.282 172.652 340.004 171.374 338.427 171.374H328.435Z" fill="#70123A"/>
<path fill-rule="evenodd" clip-rule="evenodd" d="M392.695 171.374C391.118 171.374 389.84 172.652 389.84 174.229V194.589C389.84 196.869 392.381 198.229 394.278 196.965L394.68 196.697C395.639 196.058 396.888 196.058 397.847 196.697L401.103 198.868C402.062 199.507 403.312 199.507 404.271 198.868L407.527 196.697C408.486 196.058 409.735 196.058 410.694 196.697L411.096 196.965C412.993 198.229 415.534 196.869 415.534 194.589V174.229C415.534 172.652 414.256 171.374 412.679 171.374H392.695ZM394.122 175.656C393.334 175.656 392.695 176.296 392.695 177.084C392.695 177.872 393.334 178.511 394.122 178.511H411.252C412.04 178.511 412.679 177.872 412.679 177.084C412.679 176.296 412.04 175.656 411.252 175.656H394.122ZM392.695 182.794C392.695 182.006 393.334 181.366 394.122 181.366H406.969C407.758 181.366 408.397 182.006 408.397 182.794C408.397 183.582 407.758 184.221 406.969 184.221H394.122C393.334 184.221 392.695 183.582 392.695 182.794ZM394.122 187.076C393.334 187.076 392.695 187.715 392.695 188.504C392.695 189.292 393.334 189.931 394.122 189.931H411.252C412.04 189.931 412.679 189.292 412.679 188.504C412.679 187.715 412.04 187.076 411.252 187.076H394.122Z" fill="#70123A"/>
<path d="M271.313 101.807C271.313 101.54 271.419 101.283 271.609 101.094L273.159 99.5436C273.716 98.9862 274.62 98.9862 275.177 99.5436L276.727 101.094C276.917 101.283 277.023 101.54 277.023 101.807V101.807C277.023 102.365 276.571 102.817 276.013 102.817L272.322 102.817C271.765 102.817 271.313 102.365 271.313 101.807V101.807Z" fill="#70123A"/>
<circle cx="274.168" cy="105.672" r="9.99237" fill="#70123A"/>
<path opacity="0.5" fill-rule="evenodd" clip-rule="evenodd" d="M268.458 87.1144C264.516 87.1144 261.321 90.31 261.321 94.2518C261.321 98.1937 264.516 101.389 268.458 101.389H279.878C283.82 101.389 287.015 98.1937 287.015 94.2518C287.015 90.31 283.82 87.1144 279.878 87.1144H268.458ZM269.885 89.9694C267.52 89.9694 265.603 91.8867 265.603 94.2519C265.603 96.617 267.52 98.5343 269.885 98.5343H278.45C280.815 98.5343 282.733 96.617 282.733 94.2519C282.733 91.8867 280.815 89.9694 278.45 89.9694H269.885Z" fill="#70123A"/>
<path fill-rule="evenodd" clip-rule="evenodd" d="M197.412 90.5608C196.329 89.1526 197.333 87.1144 199.109 87.1144H206.34C207.522 87.1144 208.481 88.0731 208.481 89.2557V92.1106C208.481 93.2932 207.522 94.2518 206.34 94.2518H201.304C200.639 94.2518 200.012 93.9429 199.607 93.4157L197.412 90.5608Z" fill="#70123A"/>
<path fill-rule="evenodd" clip-rule="evenodd" d="M211.336 89.2557C211.336 88.0731 212.294 87.1144 213.477 87.1144H220.708C222.484 87.1144 223.488 89.1526 222.405 90.5608L220.21 93.4157C219.805 93.9429 219.178 94.2518 218.513 94.2518H213.477C212.294 94.2518 211.336 93.2932 211.336 92.1106V89.2557Z" fill="#70123A"/>
<path fill-rule="evenodd" clip-rule="evenodd" d="M196.835 98.8283C196.074 97.402 197.107 95.6793 198.724 95.6793H206.34C207.522 95.6793 208.481 96.638 208.481 97.8205V103.53C208.481 104.713 207.522 105.672 206.34 105.672H201.77C200.979 105.672 200.253 105.236 199.881 104.538L196.835 98.8283Z" fill="#70123A"/>
<path fill-rule="evenodd" clip-rule="evenodd" d="M211.336 97.8205C211.336 96.638 212.294 95.6793 213.477 95.6793H221.094C222.71 95.6793 223.744 97.4021 222.983 98.8284L219.937 104.538C219.565 105.236 218.838 105.672 218.048 105.672H213.477C212.294 105.672 211.336 104.713 211.336 103.53V97.8205Z" fill="#70123A"/>
<path fill-rule="evenodd" clip-rule="evenodd" d="M200.198 110.337C199.347 108.91 200.375 107.099 202.037 107.099H206.34C207.522 107.099 208.481 108.058 208.481 109.24V113.523C208.481 114.705 207.522 115.664 206.34 115.664H204.59C203.836 115.664 203.138 115.267 202.751 114.619L200.198 110.337Z" fill="#70123A"/>
<path fill-rule="evenodd" clip-rule="evenodd" d="M211.336 109.24C211.336 108.058 212.294 107.099 213.477 107.099H217.78C219.442 107.099 220.471 108.91 219.619 110.337L217.066 114.619C216.68 115.267 215.981 115.664 215.227 115.664H213.477C212.294 115.664 211.336 114.705 211.336 113.523V109.24Z" fill="#70123A"/>
<path opacity="0.5" d="M461.237 7.13739H456.954C455.378 7.13739 454.099 8.4156 454.099 9.99235V12.3419C454.099 13.5093 454.81 14.5591 455.894 14.9927L461.237 17.1298" stroke="#70123A" stroke-width="2.85496" stroke-linecap="round" stroke-linejoin="round"/>
<path opacity="0.5" d="M472.657 7.13739H476.939C478.516 7.13739 479.794 8.4156 479.794 9.99235V12.3419C479.794 13.5093 479.083 14.5591 477.999 14.9927L472.657 17.1298" stroke="#70123A" stroke-width="2.85496" stroke-linecap="round" stroke-linejoin="round"/>
<rect x="458.382" y="28.5496" width="17.1298" height="2.85496" rx="1.42748" fill="#70123A"/>
<rect x="469.802" y="17.1298" width="14.2748" height="5.70992" rx="2.85496" transform="rotate(90 469.802 17.1298)" fill="#70123A"/>
<path d="M471.308 22.9638C470.834 23.7922 469.942 24.2672 468.987 24.2672L464.906 24.2672C463.951 24.2672 463.059 23.7922 462.585 22.9638C461.533 21.1271 459.809 17.69 459.809 14.8994C459.809 12.7106 458.961 9.32851 458.189 6.70482C457.632 4.81242 459.027 2.855 460.999 2.855L472.894 2.855C474.866 2.855 476.261 4.81241 475.704 6.70481C474.933 9.3285 474.084 12.7106 474.084 14.8994C474.084 17.69 472.36 21.1271 471.308 22.9638Z" fill="#70123A"/>
<path d="M461.237 28.5497C461.237 27.7613 461.876 27.1222 462.664 27.1222L471.229 27.1222C472.017 27.1222 472.657 27.7613 472.657 28.5497V28.5497L461.237 28.5497V28.5497Z" fill="#70123A"/>
<circle cx="17.1297" cy="269.908" r="14.2748" fill="#70123A"/>
<path d="M15.7023 274.191L19.4137 269.908L15.7023 265.626" stroke="#FDEAEE" stroke-width="2.85496" stroke-linecap="round" stroke-linejoin="round"/>
<path opacity="0.5" d="M345.565 95.6793V94.2519C345.565 91.0984 343.008 88.5419 339.855 88.5419H337C333.846 88.5419 331.29 91.0984 331.29 94.2519V95.6793" stroke="#70123A" stroke-width="2.85496" stroke-linecap="round" stroke-linejoin="round"/>
<path fill-rule="evenodd" clip-rule="evenodd" d="M329.863 98.5342C328.286 98.5342 327.008 99.8125 327.008 101.389V112.809C327.008 114.386 328.286 115.664 329.863 115.664H346.992C348.569 115.664 349.847 114.386 349.847 112.809V101.389C349.847 99.8125 348.569 98.5342 346.992 98.5342H329.863ZM341.282 105.672C341.282 106.728 340.708 107.651 339.855 108.145V109.954C339.855 110.743 339.216 111.382 338.427 111.382C337.639 111.382 337 110.743 337 109.954V108.145C336.147 107.651 335.572 106.728 335.572 105.672C335.572 104.095 336.851 102.817 338.427 102.817C340.004 102.817 341.282 104.095 341.282 105.672Z" fill="#70123A"/>
<path fill-rule="evenodd" clip-rule="evenodd" d="M31.4046 179.698C31.4046 181.276 30.8561 182.731 29.9333 183.893L19.3851 197.483C18.2421 198.956 16.0174 198.956 14.8744 197.483L4.32893 183.896C3.40448 182.734 2.85492 181.278 2.85492 179.698C2.85492 175.889 6.05044 172.802 9.99232 172.802C13.9342 172.802 17.1297 175.889 17.1297 179.698C17.1297 179.698 17.1297 179.698 17.1297 179.698C17.1297 179.698 17.1297 179.698 17.1297 179.698V179.698C17.1298 179.698 17.1298 179.698 17.1298 179.698C17.1298 179.698 17.1298 179.698 17.1298 179.698C17.1298 175.889 20.3253 172.802 24.2672 172.802C28.209 172.802 31.4046 175.889 31.4046 179.698Z" fill="#70123A"/>
<circle cx="338.427" cy="269.908" r="14.2748" fill="#70123A"/>
<path d="M342.71 274.191C341.855 275.044 340.257 275.618 338.427 275.618C336.598 275.618 335 275.044 334.145 274.191" stroke="#FDEAEE" stroke-width="2.85496" stroke-linecap="round" stroke-linejoin="round"/>
<circle cx="332.004" cy="267.767" r="2.14122" fill="#FDEAEE"/>
<circle cx="344.851" cy="267.767" r="2.14122" fill="#FDEAEE"/>
<circle cx="402.687" cy="269.908" r="14.2748" fill="#70123A"/>
<path d="M406.969 274.191H398.405" stroke="#FDEAEE" stroke-width="2.85496" stroke-linecap="round" stroke-linejoin="round"/>
<circle cx="396.263" cy="267.767" r="2.14122" fill="#FDEAEE"/>
<circle cx="409.111" cy="267.767" r="2.14122" fill="#FDEAEE"/>
<circle cx="466.947" cy="269.908" r="14.2748" fill="#70123A"/>
<path d="M462.664 275.618C463.519 274.765 465.117 274.191 466.947 274.191C468.776 274.191 470.374 274.765 471.229 275.618" stroke="#FDEAEE" stroke-width="2.85496" stroke-linecap="round" stroke-linejoin="round"/>
<circle cx="460.523" cy="267.767" r="2.14122" fill="#FDEAEE"/>
<circle cx="473.37" cy="267.767" r="2.14122" fill="#FDEAEE"/>
<circle cx="81.3893" cy="269.908" r="14.2748" fill="#70123A"/>
<path d="M87.0992 267.053L80.2862 274.191L77.1068 270.622" stroke="#FDEAEE" stroke-width="2.85496" stroke-linecap="round" stroke-linejoin="round"/>
<circle cx="274.168" cy="269.908" r="14.2748" fill="#70123A"/>
<path d="M274.168 268.481L274.168 275.618" stroke="#FDEAEE" stroke-width="2.85496" stroke-linecap="round" stroke-linejoin="round"/>
<circle cx="274.168" cy="264.198" r="1.42748" fill="#FDEAEE"/>
<circle cx="145.649" cy="269.908" r="14.2748" fill="#70123A"/>
<path d="M149.931 265.626L141.366 274.191" stroke="#FDEAEE" stroke-width="2.85496" stroke-linecap="round" stroke-linejoin="round"/>
<path d="M141.366 265.626L149.931 274.191" stroke="#FDEAEE" stroke-width="2.85496" stroke-linecap="round" stroke-linejoin="round"/>
<circle cx="209.908" cy="269.908" r="14.2748" fill="#70123A"/>
<path d="M205.626 265.197C205.626 264.109 206.795 263.421 207.747 263.949L216.227 268.66C217.206 269.204 217.206 270.612 216.227 271.156L207.747 275.868C206.795 276.396 205.626 275.708 205.626 274.62V265.197Z" fill="#FDEAEE"/>
<path d="M5.7099 18.5573V27.1221C5.7099 28.6989 6.98811 29.9771 8.56486 29.9771H28.5496" stroke="#70123A" stroke-width="2.85496" stroke-linecap="round"/>
<rect x="4.28247" y="2.85498" width="25.6947" height="22.8397" rx="2.85496" fill="#70123A"/>
<path d="M399.106 10.1701C399.527 9.1739 400.515 8.56494 401.597 8.56494H403.778C404.859 8.56494 405.847 9.1739 406.268 10.1701C407.114 12.1737 408.397 15.6863 408.397 18.5573C408.397 21.2595 408.397 25.6668 408.397 28.5514C408.397 30.1282 407.119 31.4046 405.542 31.4046H399.832C398.255 31.4046 396.977 30.1282 396.977 28.5514C396.977 25.6668 396.977 21.2595 396.977 18.5573C396.977 15.6863 398.26 12.1737 399.106 10.1701Z" fill="#70123A"/>
<path opacity="0.5" d="M400.194 4.96707C400.397 3.74828 401.451 2.85498 402.687 2.85498V2.85498C403.923 2.85498 404.977 3.74828 405.18 4.96707L405.404 6.30634C405.476 6.74139 405.141 7.13742 404.699 7.13742H400.675C400.234 7.13742 399.898 6.74139 399.971 6.30634L400.194 4.96707Z" fill="#70123A"/>
<path d="M14.6688 108.325C13.9227 109.08 12.766 109.209 11.8467 108.678V108.678C10.9273 108.148 10.4606 107.082 10.7415 106.058C11.2941 104.044 12.3431 100.681 13.7523 98.2405C15.1034 95.9003 17.307 92.0835 18.7493 89.5853C19.5377 88.2198 21.2829 87.7535 22.6484 88.5419L23.8846 89.2556C25.2501 90.044 25.7189 91.7885 24.9305 93.154C23.4882 95.6522 21.2845 99.469 19.9334 101.809C18.5243 104.25 16.1367 106.84 14.6688 108.325Z" fill="#70123A"/>
<path opacity="0.5" d="M9.2918 113.609C9.20315 113.672 9.08594 113.678 8.99178 113.623V113.623C8.89762 113.569 8.84378 113.465 8.85397 113.357L9.17443 109.951C9.22316 109.434 9.79151 109.14 10.2419 109.4L12.0241 110.429C12.4745 110.689 12.5045 111.328 12.0804 111.629L9.2918 113.609Z" fill="#70123A"/>
<circle cx="338.428" cy="18.5572" r="11.4198" stroke="#70123A" stroke-width="2.85496"/>
<circle cx="338.427" cy="18.5573" r="7.1374" stroke="#70123A" stroke-width="2.85496"/>
<circle cx="338.427" cy="18.5573" r="2.85496" stroke="#70123A" stroke-width="2.85496"/>
<path d="M327.008 18.5573V11.4199" stroke="#70123A" stroke-width="2.85496"/>
<path opacity="0.5" d="M324.713 5.6545C324.423 4.20622 325.531 2.85498 327.008 2.85498V2.85498C328.485 2.85498 329.592 4.20621 329.303 5.6545L328.715 8.59262C328.552 9.40652 327.838 9.99239 327.008 9.99239V9.99239C326.178 9.99239 325.463 9.40653 325.3 8.59262L324.713 5.6545Z" fill="#70123A"/>
<path d="M349.847 18.5573V11.4199" stroke="#70123A" stroke-width="2.85496"/>
<path opacity="0.5" d="M347.552 5.6545C347.263 4.20622 348.37 2.85498 349.847 2.85498V2.85498C351.324 2.85498 352.432 4.20621 352.142 5.6545L351.555 8.59262C351.392 9.40652 350.677 9.99239 349.847 9.99239V9.99239C349.017 9.99239 348.303 9.40653 348.14 8.59262L347.552 5.6545Z" fill="#70123A"/>
<rect x="261.321" y="2.85498" width="15.7023" height="28.5496" rx="2.85496" fill="#70123A"/>
<path opacity="0.5" d="M281.305 8.56494V27.1222M281.305 27.1222L277.023 23.4107M281.305 27.1222L285.588 23.4107" stroke="#70123A" stroke-width="2.85496" stroke-linecap="round" stroke-linejoin="round"/>
<path fill-rule="evenodd" clip-rule="evenodd" d="M277.023 21.9832C276.624 21.9834 276.226 22.1502 275.944 22.4758C275.428 23.0716 275.492 23.9731 276.088 24.4894L277.023 25.2997V21.9832ZM287.015 23.4033C287.015 23.4078 287.015 23.4124 287.015 23.4169V23.4033Z" fill="#FDEAEE"/>
<rect x="206.582" y="8.61615" width="14.2748" height="19.9847" rx="2.85496" transform="rotate(30 206.582 8.61615)" fill="#70123A"/>
<path opacity="0.5" fill-rule="evenodd" clip-rule="evenodd" d="M221.086 12.0448L219.849 11.3311L221.277 8.85862C221.671 8.17587 221.437 7.30283 220.754 6.90864C220.072 6.51446 219.199 6.74838 218.805 7.43114L218.091 8.66739L211.91 5.09868C211.227 4.70449 210.354 4.93842 209.96 5.62116L208.723 4.90741C208.041 4.51322 207.168 4.74715 206.773 5.4299C206.379 6.11266 206.613 6.98569 207.296 7.37988L219.658 14.5173C220.341 14.9115 221.214 14.6775 221.608 13.9948C222.002 13.312 221.768 12.439 221.086 12.0448Z" fill="#70123A"/>
<path opacity="0.5" fill-rule="evenodd" clip-rule="evenodd" d="M205.626 171.374C204.049 171.374 202.771 172.652 202.771 174.229H217.046C217.046 172.652 215.768 171.374 214.191 171.374H205.626ZM199.916 174.229C199.128 174.229 198.488 174.868 198.488 175.656C198.488 176.445 199.128 177.084 199.916 177.084H219.901C220.689 177.084 221.328 176.445 221.328 175.656C221.328 174.868 220.689 174.229 219.901 174.229H199.916Z" fill="#70123A"/>
<path fill-rule="evenodd" clip-rule="evenodd" d="M202.771 178.511C201.194 178.511 199.916 179.79 199.916 181.366V197.069C199.916 198.645 201.194 199.924 202.771 199.924H217.046C218.622 199.924 219.901 198.645 219.901 197.069V181.366C219.901 179.79 218.622 178.511 217.046 178.511H202.771ZM202.771 194.214C202.771 195.002 203.41 195.641 204.198 195.641C204.987 195.641 205.626 195.002 205.626 194.214V184.221C205.626 183.433 204.987 182.794 204.198 182.794C203.41 182.794 202.771 183.433 202.771 184.221L202.771 194.214ZM209.908 195.641C209.12 195.641 208.481 195.002 208.481 194.214V184.221C208.481 183.433 209.12 182.794 209.908 182.794C210.697 182.794 211.336 183.433 211.336 184.221V194.214C211.336 195.002 210.697 195.641 209.908 195.641ZM214.191 194.214C214.191 195.002 214.83 195.641 215.618 195.641C216.407 195.641 217.046 195.002 217.046 194.214V184.221C217.046 183.433 216.407 182.794 215.618 182.794C214.83 182.794 214.191 183.433 214.191 184.221V194.214Z" fill="#70123A"/>
<path fill-rule="evenodd" clip-rule="evenodd" d="M145.649 172.547C146.437 171.182 148.183 170.714 149.549 171.502L155.73 175.071C157.095 175.859 157.563 177.605 156.775 178.971L145.355 198.75C144.567 200.116 142.821 200.584 141.455 199.795L135.274 196.227C133.908 195.438 133.441 193.692 134.229 192.327L145.649 172.547ZM150.498 176.995C150.301 177.336 149.864 177.453 149.523 177.256L147.051 175.829C146.709 175.632 146.592 175.195 146.789 174.854C146.986 174.513 147.423 174.396 147.764 174.593L150.237 176.02C150.578 176.217 150.695 176.654 150.498 176.995ZM146.146 180.251C146.487 180.448 146.923 180.331 147.121 179.99C147.318 179.649 147.201 179.212 146.859 179.015L145.623 178.301C145.282 178.104 144.845 178.221 144.648 178.563C144.451 178.904 144.568 179.34 144.909 179.538L146.146 180.251ZM146.216 184.413C146.019 184.754 145.582 184.871 145.241 184.674L142.768 183.246C142.427 183.049 142.31 182.613 142.507 182.271C142.704 181.93 143.141 181.813 143.482 182.01L145.954 183.438C146.296 183.635 146.413 184.071 146.216 184.413ZM141.863 187.669C142.205 187.866 142.641 187.749 142.838 187.408C143.035 187.066 142.918 186.63 142.577 186.433L141.341 185.719C140.999 185.522 140.563 185.639 140.366 185.98C140.169 186.321 140.286 186.758 140.627 186.955L141.863 187.669ZM140.697 191.116C140.5 191.458 140.063 191.575 139.722 191.377L138.486 190.664C138.144 190.467 138.027 190.03 138.224 189.689C138.422 189.347 138.858 189.23 139.199 189.428L140.436 190.141C140.777 190.338 140.894 190.775 140.697 191.116ZM138.817 195.8C139.158 195.997 139.595 195.88 139.792 195.539C139.989 195.197 139.872 194.761 139.531 194.564L137.058 193.136C136.717 192.939 136.28 193.056 136.083 193.397C135.886 193.739 136.003 194.175 136.345 194.372L138.817 195.8Z" fill="#70123A"/>
<path fill-rule="evenodd" clip-rule="evenodd" d="M464.092 195.641C464.092 197.218 465.37 198.496 466.947 198.496C468.523 198.496 469.802 197.218 469.802 195.641V188.504H476.939C478.516 188.504 479.794 187.226 479.794 185.649C479.794 184.072 478.516 182.794 476.939 182.794H469.802V175.656C469.802 174.08 468.523 172.801 466.947 172.801C465.37 172.801 464.092 174.08 464.092 175.656V182.794H456.954C455.377 182.794 454.099 184.072 454.099 185.649C454.099 187.226 455.377 188.504 456.954 188.504H464.092V195.641Z" fill="#70123A"/>
<defs>
<clipPath id="clip0_601_7717">
<rect width="34.2595" height="34.2595" fill="white" transform="translate(128.519 84.2595)"/>
</clipPath>
</defs>
</svg>
